<svg width="336" height="252" viewBox="0 0 336 252" fill="none" xmlns="http://www.w3.org/2000/svg">
<rect width="336" height="252" fill="white"/>
<rect x="79.5" y="3.5" width="61" height="153" rx="3.5" stroke="black"/>
<rect x="280.5" y="97.5" width="59" height="135" rx="3.5" transform="rotate(90 280.5 97.5)" stroke="black"/>
<path d="M145 89V7.31756C145 4.15478 148.497 2.24307 151.16 3.95058L278.514 85.633C281.876 87.7895 280.349 93 276.354 93H149C146.791 93 145 91.2091 145 89Z" stroke="black"/>
<path d="M161.598 126.527C162.426 126.527 163.084 126.76 163.572 127.225C164.064 127.689 164.311 128.326 164.311 129.135C164.311 130.092 164.016 130.828 163.426 131.344C162.836 131.859 161.992 132.117 160.895 132.117C159.941 132.117 159.172 131.963 158.586 131.654V130.09C158.895 130.254 159.254 130.389 159.664 130.494C160.074 130.596 160.463 130.646 160.83 130.646C161.936 130.646 162.488 130.193 162.488 129.287C162.488 128.424 161.916 127.992 160.771 127.992C160.564 127.992 160.336 128.014 160.086 128.057C159.836 128.096 159.633 128.139 159.477 128.186L158.756 127.799L159.078 123.434H163.725V124.969H160.666L160.508 126.65L160.713 126.609C160.951 126.555 161.246 126.527 161.598 126.527ZM170.252 128.654L168.143 125.449H170.17L171.441 127.535L172.725 125.449H174.752L172.619 128.654L174.852 132H172.818L171.441 129.756L170.059 132H168.031L170.252 128.654ZM184.496 132H178.508V130.74L180.658 128.566C181.295 127.914 181.711 127.463 181.906 127.213C182.102 126.959 182.242 126.725 182.328 126.51C182.414 126.295 182.457 126.072 182.457 125.842C182.457 125.498 182.361 125.242 182.17 125.074C181.982 124.906 181.73 124.822 181.414 124.822C181.082 124.822 180.76 124.898 180.447 125.051C180.135 125.203 179.809 125.42 179.469 125.701L178.484 124.535C178.906 124.176 179.256 123.922 179.533 123.773C179.811 123.625 180.113 123.512 180.441 123.434C180.77 123.352 181.137 123.311 181.543 123.311C182.078 123.311 182.551 123.408 182.961 123.604C183.371 123.799 183.689 124.072 183.916 124.424C184.143 124.775 184.256 125.178 184.256 125.631C184.256 126.025 184.186 126.396 184.045 126.744C183.908 127.088 183.693 127.441 183.4 127.805C183.111 128.168 182.6 128.686 181.865 129.357L180.764 130.395V130.477H184.496V132ZM188.516 127.283V126H194.334V127.283H188.516ZM188.516 129.551V128.268H194.334V129.551H188.516ZM202.93 132H201.119V127.043L201.137 126.229L201.166 125.338C200.865 125.639 200.656 125.836 200.539 125.93L199.555 126.721L198.682 125.631L201.441 123.434H202.93V132ZM211.25 127.717C211.25 129.213 211.004 130.32 210.512 131.039C210.023 131.758 209.27 132.117 208.25 132.117C207.262 132.117 206.516 131.746 206.012 131.004C205.512 130.262 205.262 129.166 205.262 127.717C205.262 126.205 205.506 125.092 205.994 124.377C206.482 123.658 207.234 123.299 208.25 123.299C209.238 123.299 209.984 123.674 210.488 124.424C210.996 125.174 211.25 126.271 211.25 127.717ZM207.061 127.717C207.061 128.768 207.15 129.521 207.33 129.979C207.514 130.432 207.82 130.658 208.25 130.658C208.672 130.658 208.977 130.428 209.164 129.967C209.352 129.506 209.445 128.756 209.445 127.717C209.445 126.666 209.35 125.912 209.158 125.455C208.971 124.994 208.668 124.764 208.25 124.764C207.824 124.764 207.52 124.994 207.336 125.455C207.152 125.912 207.061 126.666 207.061 127.717Z" fill="#363F45"/>
<rect x="223" y="115" width="44" height="24" rx="4" fill="#F8BCBA"/>
<path d="M231.957 132H230.146V127.043L230.164 126.229L230.193 125.338C229.893 125.639 229.684 125.836 229.566 125.93L228.582 126.721L227.709 125.631L230.469 123.434H231.957V132ZM240.277 127.717C240.277 129.213 240.031 130.32 239.539 131.039C239.051 131.758 238.297 132.117 237.277 132.117C236.289 132.117 235.543 131.746 235.039 131.004C234.539 130.262 234.289 129.166 234.289 127.717C234.289 126.205 234.533 125.092 235.021 124.377C235.51 123.658 236.262 123.299 237.277 123.299C238.266 123.299 239.012 123.674 239.516 124.424C240.023 125.174 240.277 126.271 240.277 127.717ZM236.088 127.717C236.088 128.768 236.178 129.521 236.357 129.979C236.541 130.432 236.848 130.658 237.277 130.658C237.699 130.658 238.004 130.428 238.191 129.967C238.379 129.506 238.473 128.756 238.473 127.717C238.473 126.666 238.377 125.912 238.186 125.455C237.998 124.994 237.695 124.764 237.277 124.764C236.852 124.764 236.547 124.994 236.363 125.455C236.18 125.912 236.088 126.666 236.088 127.717ZM248.533 132L246.471 125.279H246.418C246.492 126.646 246.529 127.559 246.529 128.016V132H244.906V123.434H247.379L249.406 129.984H249.441L251.592 123.434H254.064V132H252.371V127.945C252.371 127.754 252.373 127.533 252.377 127.283C252.385 127.033 252.412 126.369 252.459 125.291H252.406L250.197 132H248.533ZM261.617 132H255.629V130.74L257.779 128.566C258.416 127.914 258.832 127.463 259.027 127.213C259.223 126.959 259.363 126.725 259.449 126.51C259.535 126.295 259.578 126.072 259.578 125.842C259.578 125.498 259.482 125.242 259.291 125.074C259.104 124.906 258.852 124.822 258.535 124.822C258.203 124.822 257.881 124.898 257.568 125.051C257.256 125.203 256.93 125.42 256.59 125.701L255.605 124.535C256.027 124.176 256.377 123.922 256.654 123.773C256.932 123.625 257.234 123.512 257.562 123.434C257.891 123.352 258.258 123.311 258.664 123.311C259.199 123.311 259.672 123.408 260.082 123.604C260.492 123.799 260.811 124.072 261.037 124.424C261.264 124.775 261.377 125.178 261.377 125.631C261.377 126.025 261.307 126.396 261.166 126.744C261.029 127.088 260.814 127.441 260.521 127.805C260.232 128.168 259.721 128.686 258.986 129.357L257.885 130.395V130.477H261.617V132Z" fill="#363F45"/>
<rect x="150" y="37" width="44" height="24" rx="4" fill="#F8BCBA"/>
<path d="M158.957 54H157.146V49.043L157.164 48.2285L157.193 47.3379C156.893 47.6387 156.684 47.8359 156.566 47.9297L155.582 48.7207L154.709 47.6309L157.469 45.4336H158.957V54ZM167.277 49.7168C167.277 51.2129 167.031 52.3203 166.539 53.0391C166.051 53.7578 165.297 54.1172 164.277 54.1172C163.289 54.1172 162.543 53.7461 162.039 53.0039C161.539 52.2617 161.289 51.166 161.289 49.7168C161.289 48.2051 161.533 47.0918 162.021 46.377C162.51 45.6582 163.262 45.2988 164.277 45.2988C165.266 45.2988 166.012 45.6738 166.516 46.4238C167.023 47.1738 167.277 48.2715 167.277 49.7168ZM163.088 49.7168C163.088 50.7676 163.178 51.5215 163.357 51.9785C163.541 52.4316 163.848 52.6582 164.277 52.6582C164.699 52.6582 165.004 52.4277 165.191 51.9668C165.379 51.5059 165.473 50.7559 165.473 49.7168C165.473 48.666 165.377 47.9121 165.186 47.4551C164.998 46.9941 164.695 46.7637 164.277 46.7637C163.852 46.7637 163.547 46.9941 163.363 47.4551C163.18 47.9121 163.088 48.666 163.088 49.7168ZM175.533 54L173.471 47.2793H173.418C173.492 48.6465 173.529 49.5586 173.529 50.0156V54H171.906V45.4336H174.379L176.406 51.9844H176.441L178.592 45.4336H181.064V54H179.371V49.9453C179.371 49.7539 179.373 49.5332 179.377 49.2832C179.385 49.0332 179.412 48.3691 179.459 47.291H179.406L177.197 54H175.533ZM188.617 54H182.629V52.7402L184.779 50.5664C185.416 49.9141 185.832 49.4629 186.027 49.2129C186.223 48.959 186.363 48.7246 186.449 48.5098C186.535 48.2949 186.578 48.0723 186.578 47.8418C186.578 47.498 186.482 47.2422 186.291 47.0742C186.104 46.9062 185.852 46.8223 185.535 46.8223C185.203 46.8223 184.881 46.8984 184.568 47.0508C184.256 47.2031 183.93 47.4199 183.59 47.7012L182.605 46.5352C183.027 46.1758 183.377 45.9219 183.654 45.7734C183.932 45.625 184.234 45.5117 184.562 45.4336C184.891 45.3516 185.258 45.3105 185.664 45.3105C186.199 45.3105 186.672 45.4082 187.082 45.6035C187.492 45.7988 187.811 46.0723 188.037 46.4238C188.264 46.7754 188.377 47.1777 188.377 47.6309C188.377 48.0254 188.307 48.3965 188.166 48.7441C188.029 49.0879 187.814 49.4414 187.521 49.8047C187.232 50.168 186.721 50.6855 185.986 51.3574L184.885 52.3945V52.4766H188.617V54Z" fill="#363F45"/>
<path d="M157.598 72.5273C158.426 72.5273 159.084 72.7598 159.572 73.2246C160.064 73.6895 160.311 74.3262 160.311 75.1348C160.311 76.0918 160.016 76.8281 159.426 77.3438C158.836 77.8594 157.992 78.1172 156.895 78.1172C155.941 78.1172 155.172 77.9629 154.586 77.6543V76.0898C154.895 76.2539 155.254 76.3887 155.664 76.4941C156.074 76.5957 156.463 76.6465 156.83 76.6465C157.936 76.6465 158.488 76.1934 158.488 75.2871C158.488 74.4238 157.916 73.9922 156.771 73.9922C156.564 73.9922 156.336 74.0137 156.086 74.0566C155.836 74.0957 155.633 74.1387 155.477 74.1855L154.756 73.7988L155.078 69.4336H159.725V70.9688H156.666L156.508 72.6504L156.713 72.6094C156.951 72.5547 157.246 72.5273 157.598 72.5273ZM166.252 74.6543L164.143 71.4492H166.17L167.441 73.5352L168.725 71.4492H170.752L168.619 74.6543L170.852 78H168.818L167.441 75.7559L166.059 78H164.031L166.252 74.6543ZM180.689 76.2246H179.658V78H177.889V76.2246H174.232V74.9648L177.988 69.4336H179.658V74.8184H180.689V76.2246ZM177.889 74.8184V73.3652C177.889 73.123 177.898 72.7715 177.918 72.3105C177.938 71.8496 177.953 71.582 177.965 71.5078H177.918C177.773 71.8281 177.6 72.1406 177.396 72.4453L175.826 74.8184H177.889ZM188.898 69.4336L185.705 78H184.082L187.275 69.4336H188.898ZM198.543 78H192.555V76.7402L194.705 74.5664C195.342 73.9141 195.758 73.4629 195.953 73.2129C196.148 72.959 196.289 72.7246 196.375 72.5098C196.461 72.2949 196.504 72.0723 196.504 71.8418C196.504 71.498 196.408 71.2422 196.217 71.0742C196.029 70.9062 195.777 70.8223 195.461 70.8223C195.129 70.8223 194.807 70.8984 194.494 71.0508C194.182 71.2031 193.855 71.4199 193.516 71.7012L192.531 70.5352C192.953 70.1758 193.303 69.9219 193.58 69.7734C193.857 69.625 194.16 69.5117 194.488 69.4336C194.816 69.3516 195.184 69.3105 195.59 69.3105C196.125 69.3105 196.598 69.4082 197.008 69.6035C197.418 69.7988 197.736 70.0723 197.963 70.4238C198.189 70.7754 198.303 71.1777 198.303 71.6309C198.303 72.0254 198.232 72.3965 198.092 72.7441C197.955 73.0879 197.74 73.4414 197.447 73.8047C197.158 74.168 196.646 74.6855 195.912 75.3574L194.811 76.3945V76.4766H198.543V78ZM202.562 73.2832V72H208.381V73.2832H202.562ZM202.562 75.5508V74.2676H208.381V75.5508H202.562ZM216.977 78H215.166V73.043L215.184 72.2285L215.213 71.3379C214.912 71.6387 214.703 71.8359 214.586 71.9297L213.602 72.7207L212.729 71.6309L215.488 69.4336H216.977V78ZM225.297 73.7168C225.297 75.2129 225.051 76.3203 224.559 77.0391C224.07 77.7578 223.316 78.1172 222.297 78.1172C221.309 78.1172 220.562 77.7461 220.059 77.0039C219.559 76.2617 219.309 75.166 219.309 73.7168C219.309 72.2051 219.553 71.0918 220.041 70.377C220.529 69.6582 221.281 69.2988 222.297 69.2988C223.285 69.2988 224.031 69.6738 224.535 70.4238C225.043 71.1738 225.297 72.2715 225.297 73.7168ZM221.107 73.7168C221.107 74.7676 221.197 75.5215 221.377 75.9785C221.561 76.4316 221.867 76.6582 222.297 76.6582C222.719 76.6582 223.023 76.4277 223.211 75.9668C223.398 75.5059 223.492 74.7559 223.492 73.7168C223.492 72.666 223.396 71.9121 223.205 71.4551C223.018 70.9941 222.715 70.7637 222.297 70.7637C221.871 70.7637 221.566 70.9941 221.383 71.4551C221.199 71.9121 221.107 72.666 221.107 73.7168Z" fill="#363F45"/>
<path d="M83.4219 68.3613C83.4219 66.666 83.7793 65.4043 84.4941 64.5762C85.2129 63.748 86.2871 63.334 87.7168 63.334C88.2051 63.334 88.5879 63.3633 88.8652 63.4219V64.8691C88.5176 64.791 88.1738 64.752 87.834 64.752C87.2129 64.752 86.7051 64.8457 86.3105 65.0332C85.9199 65.2207 85.627 65.498 85.4316 65.8652C85.2363 66.2324 85.1211 66.7539 85.0859 67.4297H85.1621C85.5488 66.7656 86.168 66.4336 87.0195 66.4336C87.7852 66.4336 88.3848 66.6738 88.8184 67.1543C89.252 67.6348 89.4688 68.2988 89.4688 69.1465C89.4688 70.0605 89.2109 70.7852 88.6953 71.3203C88.1797 71.8516 87.4648 72.1172 86.5508 72.1172C85.918 72.1172 85.3652 71.9707 84.8926 71.6777C84.4238 71.3848 84.0605 70.957 83.8027 70.3945C83.5488 69.832 83.4219 69.1543 83.4219 68.3613ZM86.5156 70.6699C86.9023 70.6699 87.1992 70.541 87.4062 70.2832C87.6133 70.0215 87.7168 69.6504 87.7168 69.1699C87.7168 68.752 87.6191 68.4238 87.4238 68.1855C87.2324 67.9434 86.9414 67.8223 86.5508 67.8223C86.1836 67.8223 85.8691 67.9414 85.6074 68.1797C85.3496 68.418 85.2207 68.6953 85.2207 69.0117C85.2207 69.4766 85.3418 69.8691 85.584 70.1895C85.8301 70.5098 86.1406 70.6699 86.5156 70.6699ZM95.252 68.6543L93.1426 65.4492H95.1699L96.4414 67.5352L97.7246 65.4492H99.752L97.6191 68.6543L99.8516 72H97.8184L96.4414 69.7559L95.0586 72H93.0312L95.252 68.6543ZM109.162 65.3496C109.162 65.8848 109 66.3398 108.676 66.7148C108.352 67.0898 107.896 67.3477 107.311 67.4883V67.5234C108.002 67.6094 108.525 67.8203 108.881 68.1562C109.236 68.4883 109.414 68.9375 109.414 69.5039C109.414 70.3281 109.115 70.9707 108.518 71.4316C107.92 71.8887 107.066 72.1172 105.957 72.1172C105.027 72.1172 104.203 71.9629 103.484 71.6543V70.1133C103.816 70.2812 104.182 70.418 104.58 70.5234C104.979 70.6289 105.373 70.6816 105.764 70.6816C106.361 70.6816 106.803 70.5801 107.088 70.377C107.373 70.1738 107.516 69.8477 107.516 69.3984C107.516 68.9961 107.352 68.7109 107.023 68.543C106.695 68.375 106.172 68.291 105.453 68.291H104.803V66.9023H105.465C106.129 66.9023 106.613 66.8164 106.918 66.6445C107.227 66.4688 107.381 66.1699 107.381 65.748C107.381 65.0996 106.975 64.7754 106.162 64.7754C105.881 64.7754 105.594 64.8223 105.301 64.916C105.012 65.0098 104.689 65.1719 104.334 65.4023L103.496 64.1543C104.277 63.5918 105.209 63.3105 106.291 63.3105C107.178 63.3105 107.877 63.4902 108.389 63.8496C108.904 64.209 109.162 64.709 109.162 65.3496ZM113.516 67.2832V66H119.334V67.2832H113.516ZM113.516 69.5508V68.2676H119.334V69.5508H113.516ZM127.93 72H126.119V67.043L126.137 66.2285L126.166 65.3379C125.865 65.6387 125.656 65.8359 125.539 65.9297L124.555 66.7207L123.682 65.6309L126.441 63.4336H127.93V72ZM133.262 63.3223C134.082 63.3223 134.742 63.5098 135.242 63.8848C135.746 64.2559 135.998 64.7578 135.998 65.3906C135.998 65.8281 135.877 66.2188 135.635 66.5625C135.393 66.9023 135.002 67.207 134.463 67.4766C135.104 67.8203 135.562 68.1797 135.84 68.5547C136.121 68.9258 136.262 69.334 136.262 69.7793C136.262 70.4824 135.986 71.0488 135.436 71.4785C134.885 71.9043 134.16 72.1172 133.262 72.1172C132.324 72.1172 131.588 71.918 131.053 71.5195C130.518 71.1211 130.25 70.5566 130.25 69.8262C130.25 69.3379 130.379 68.9043 130.637 68.5254C130.898 68.1465 131.316 67.8125 131.891 67.5234C131.402 67.2148 131.051 66.8848 130.836 66.5332C130.621 66.1816 130.514 65.7969 130.514 65.3789C130.514 64.7656 130.768 64.2695 131.275 63.8906C131.783 63.5117 132.445 63.3223 133.262 63.3223ZM131.926 69.7207C131.926 70.0566 132.043 70.3184 132.277 70.5059C132.512 70.6934 132.832 70.7871 133.238 70.7871C133.688 70.7871 134.023 70.6914 134.246 70.5C134.469 70.3047 134.58 70.0488 134.58 69.7324C134.58 69.4707 134.469 69.2266 134.246 69C134.027 68.7695 133.67 68.5254 133.174 68.2676C132.342 68.6504 131.926 69.1348 131.926 69.7207ZM133.25 64.6465C132.941 64.6465 132.691 64.7266 132.5 64.8867C132.312 65.043 132.219 65.2539 132.219 65.5195C132.219 65.7539 132.293 65.9648 132.441 66.1523C132.594 66.3359 132.867 66.5254 133.262 66.7207C133.645 66.541 133.912 66.3574 134.064 66.1699C134.217 65.9824 134.293 65.7656 134.293 65.5195C134.293 65.25 134.195 65.0371 134 64.8809C133.805 64.7246 133.555 64.6465 133.25 64.6465Z" fill="#363F45"/>
<rect x="88" y="79" width="44" height="24" rx="4" fill="#F8BCBA"/>
<path d="M96.957 96H95.1465V91.043L95.1641 90.2285L95.1934 89.3379C94.8926 89.6387 94.6836 89.8359 94.5664 89.9297L93.582 90.7207L92.709 89.6309L95.4688 87.4336H96.957V96ZM102.289 87.3223C103.109 87.3223 103.77 87.5098 104.27 87.8848C104.773 88.2559 105.025 88.7578 105.025 89.3906C105.025 89.8281 104.904 90.2188 104.662 90.5625C104.42 90.9023 104.029 91.207 103.49 91.4766C104.131 91.8203 104.59 92.1797 104.867 92.5547C105.148 92.9258 105.289 93.334 105.289 93.7793C105.289 94.4824 105.014 95.0488 104.463 95.4785C103.912 95.9043 103.188 96.1172 102.289 96.1172C101.352 96.1172 100.615 95.918 100.08 95.5195C99.5449 95.1211 99.2773 94.5566 99.2773 93.8262C99.2773 93.3379 99.4062 92.9043 99.6641 92.5254C99.9258 92.1465 100.344 91.8125 100.918 91.5234C100.43 91.2148 100.078 90.8848 99.8633 90.5332C99.6484 90.1816 99.541 89.7969 99.541 89.3789C99.541 88.7656 99.7949 88.2695 100.303 87.8906C100.811 87.5117 101.473 87.3223 102.289 87.3223ZM100.953 93.7207C100.953 94.0566 101.07 94.3184 101.305 94.5059C101.539 94.6934 101.859 94.7871 102.266 94.7871C102.715 94.7871 103.051 94.6914 103.273 94.5C103.496 94.3047 103.607 94.0488 103.607 93.7324C103.607 93.4707 103.496 93.2266 103.273 93C103.055 92.7695 102.697 92.5254 102.201 92.2676C101.369 92.6504 100.953 93.1348 100.953 93.7207ZM102.277 88.6465C101.969 88.6465 101.719 88.7266 101.527 88.8867C101.34 89.043 101.246 89.2539 101.246 89.5195C101.246 89.7539 101.32 89.9648 101.469 90.1523C101.621 90.3359 101.895 90.5254 102.289 90.7207C102.672 90.541 102.939 90.3574 103.092 90.1699C103.244 89.9824 103.32 89.7656 103.32 89.5195C103.32 89.25 103.223 89.0371 103.027 88.8809C102.832 88.7246 102.582 88.6465 102.277 88.6465ZM113.533 96L111.471 89.2793H111.418C111.492 90.6465 111.529 91.5586 111.529 92.0156V96H109.906V87.4336H112.379L114.406 93.9844H114.441L116.592 87.4336H119.064V96H117.371V91.9453C117.371 91.7539 117.373 91.5332 117.377 91.2832C117.385 91.0332 117.412 90.3691 117.459 89.291H117.406L115.197 96H113.533ZM126.617 96H120.629V94.7402L122.779 92.5664C123.416 91.9141 123.832 91.4629 124.027 91.2129C124.223 90.959 124.363 90.7246 124.449 90.5098C124.535 90.2949 124.578 90.0723 124.578 89.8418C124.578 89.498 124.482 89.2422 124.291 89.0742C124.104 88.9062 123.852 88.8223 123.535 88.8223C123.203 88.8223 122.881 88.8984 122.568 89.0508C122.256 89.2031 121.93 89.4199 121.59 89.7012L120.605 88.5352C121.027 88.1758 121.377 87.9219 121.654 87.7734C121.932 87.625 122.234 87.5117 122.562 87.4336C122.891 87.3516 123.258 87.3105 123.664 87.3105C124.199 87.3105 124.672 87.4082 125.082 87.6035C125.492 87.7988 125.811 88.0723 126.037 88.4238C126.264 88.7754 126.377 89.1777 126.377 89.6309C126.377 90.0254 126.307 90.3965 126.166 90.7441C126.029 91.0879 125.814 91.4414 125.521 91.8047C125.232 92.168 124.721 92.6855 123.986 93.3574L122.885 94.3945V94.4766H126.617V96Z" fill="#363F45"/>
<path d="M66.9092 51.0001L66.9092 74.9367" stroke="black" stroke-width="0.3" stroke-linecap="square"/>
<path d="M72.9092 75L61.0912 75" stroke="black" stroke-width="0.3" stroke-linecap="square"/>
<path d="M62.6387 42.1309H61.4844V44L60.1426 44V42.1309H56.2285V41.0703L60.1426 35.4102L61.4844 35.4102V40.9883H62.6387L62.6387 42.1309ZM60.1426 40.9883V38.8379C60.1426 38.0723 60.1621 37.4453 60.2012 36.957H60.1543C60.0449 37.2148 59.873 37.5273 59.6387 37.8945L57.5117 40.9883H60.1426ZM72.418 44H71.0352V40.0039C71.0352 39.5078 70.9414 39.1387 70.7539 38.8965C70.5664 38.6504 70.2734 38.5273 69.875 38.5273C69.3437 38.5273 68.9531 38.7012 68.7031 39.0488C68.457 39.3926 68.334 39.9668 68.334 40.7715V44H66.957L66.957 37.5195H68.0352L68.2285 38.3691H68.2988C68.4785 38.0605 68.7383 37.8223 69.0781 37.6543C69.4219 37.4863 69.7988 37.4023 70.209 37.4023C71.2051 37.4023 71.8652 37.7422 72.1895 38.4219H72.2832C72.4746 38.1016 72.7441 37.8516 73.0918 37.6719C73.4395 37.4922 73.8379 37.4023 74.2871 37.4023C75.0605 37.4023 75.623 37.5977 75.9746 37.9883C76.3301 38.3789 76.5078 38.9746 76.5078 39.7754L76.5078 44L75.1309 44L75.1309 40.0039C75.1309 39.5078 75.0352 39.1387 74.8437 38.8965C74.6562 38.6504 74.3633 38.5273 73.9648 38.5273C73.4297 38.5273 73.0371 38.6953 72.7871 39.0312C72.541 39.3633 72.418 39.875 72.418 40.5664V44Z" fill="#1A1A1A"/>
<path d="M66.9092 26.9999L66.9092 3.06329" stroke="black" stroke-width="0.3" stroke-linecap="square"/>
<path d="M72.9092 3L61.0912 3" stroke="black" stroke-width="0.3" stroke-linecap="square"/>
<path d="M296.909 139L296.909 156.953" stroke="black" stroke-width="0.3" stroke-linecap="square"/>
<path d="M302.909 157L291.091 157" stroke="black" stroke-width="0.3" stroke-linecap="square"/>
<path d="M292.334 132H286.527V130.957L288.736 128.736C289.389 128.068 289.82 127.596 290.031 127.318C290.246 127.037 290.402 126.773 290.5 126.527C290.598 126.281 290.646 126.018 290.646 125.736C290.646 125.35 290.529 125.045 290.295 124.822C290.064 124.6 289.744 124.488 289.334 124.488C289.006 124.488 288.687 124.549 288.379 124.67C288.074 124.791 287.721 125.01 287.318 125.326L286.574 124.418C287.051 124.016 287.514 123.73 287.963 123.562C288.412 123.395 288.891 123.311 289.398 123.311C290.195 123.311 290.834 123.52 291.314 123.937C291.795 124.352 292.035 124.91 292.035 125.613C292.035 126 291.965 126.367 291.824 126.715C291.687 127.062 291.475 127.422 291.186 127.793C290.9 128.16 290.424 128.658 289.756 129.287L288.268 130.729V130.787H292.334V132ZM302.418 132L301.035 132V128.004C301.035 127.508 300.941 127.139 300.754 126.896C300.566 126.65 300.273 126.527 299.875 126.527C299.344 126.527 298.953 126.701 298.703 127.049C298.457 127.393 298.334 127.967 298.334 128.771V132H296.957V125.52H298.035L298.229 126.369H298.299C298.479 126.061 298.738 125.822 299.078 125.654C299.422 125.486 299.799 125.402 300.209 125.402C301.205 125.402 301.865 125.742 302.189 126.422H302.283C302.475 126.102 302.744 125.852 303.092 125.672C303.439 125.492 303.838 125.402 304.287 125.402C305.061 125.402 305.623 125.598 305.975 125.988C306.33 126.379 306.508 126.975 306.508 127.775V132H305.131V128.004C305.131 127.508 305.035 127.139 304.844 126.896C304.656 126.65 304.363 126.527 303.965 126.527C303.43 126.527 303.037 126.695 302.787 127.031C302.541 127.363 302.418 127.875 302.418 128.566V132Z" fill="#1A1A1A"/>
<path d="M296.909 115L296.909 97.0475" stroke="black" stroke-width="0.3" stroke-linecap="square"/>
<path d="M302.909 97L291.091 97" stroke="black" stroke-width="0.3" stroke-linecap="square"/>
<path d="M42.9092 91.9998L42.9092 156.828" stroke="black" stroke-width="0.3" stroke-linecap="square"/>
<path d="M48.9092 157L37.0912 157" stroke="black" stroke-width="0.3" stroke-linecap="square"/>
<path d="M32.5508 81.3494C32.5508 77.9979 33.916 76.3221 36.6465 76.3221C37.0762 76.3221 37.4395 76.3553 37.7363 76.4217V77.5701C37.4395 77.4842 37.0957 77.4412 36.7051 77.4412C35.7871 77.4412 35.0977 77.6873 34.6367 78.1795C34.1758 78.6717 33.9258 79.4608 33.8867 80.5467H33.957C34.1406 80.2303 34.3984 79.9861 34.7305 79.8143C35.0625 79.6385 35.4531 79.5506 35.9023 79.5506C36.6797 79.5506 37.2852 79.7889 37.7187 80.2654C38.1523 80.742 38.3691 81.3885 38.3691 82.2049C38.3691 83.1033 38.1172 83.8143 37.6133 84.3377C37.1133 84.8572 36.4297 85.117 35.5625 85.117C34.9492 85.117 34.416 84.9705 33.9629 84.6776C33.5098 84.3807 33.1602 83.951 32.9141 83.3885C32.6719 82.8221 32.5508 82.1424 32.5508 81.3494ZM35.5391 83.9803C36.0117 83.9803 36.375 83.8279 36.6289 83.5233C36.8867 83.2186 37.0156 82.783 37.0156 82.2166C37.0156 81.7244 36.8945 81.3377 36.6523 81.0565C36.4141 80.7752 36.0547 80.6346 35.5742 80.6346C35.2773 80.6346 35.0039 80.699 34.7539 80.8279C34.5039 80.9529 34.3066 81.1268 34.1621 81.3494C34.0176 81.5682 33.9453 81.7928 33.9453 82.0233C33.9453 82.574 34.0937 83.0389 34.3906 83.4178C34.6914 83.7928 35.0742 83.9803 35.5391 83.9803ZM48.418 84.9998H47.0352L47.0352 81.0037C47.0352 80.5076 46.9414 80.1385 46.7539 79.8963C46.5664 79.6502 46.2734 79.5272 45.875 79.5272C45.3437 79.5272 44.9531 79.701 44.7031 80.0486C44.457 80.3924 44.334 80.9666 44.334 81.7713L44.334 84.9998H42.957L42.957 78.5193H44.0352L44.2285 79.369H44.2988C44.4785 79.0604 44.7383 78.8221 45.0781 78.6541C45.4219 78.4861 45.7988 78.4022 46.209 78.4022C47.2051 78.4022 47.8652 78.742 48.1895 79.4217H48.2832C48.4746 79.1014 48.7441 78.8514 49.0918 78.6717C49.4395 78.492 49.8379 78.4022 50.2871 78.4022C51.0605 78.4022 51.623 78.5975 51.9746 78.9881C52.3301 79.3787 52.5078 79.9744 52.5078 80.7752L52.5078 84.9998H51.1309L51.1309 81.0037C51.1309 80.5076 51.0352 80.1385 50.8437 79.8963C50.6562 79.6502 50.3633 79.5272 49.9648 79.5272C49.4297 79.5272 49.0371 79.6951 48.7871 80.0311C48.541 80.3631 48.418 80.8748 48.418 81.5662V84.9998Z" fill="#1A1A1A"/>
<path d="M42.9092 67.9998L42.9092 3.17145" stroke="black" stroke-width="0.3" stroke-linecap="square"/>
<path d="M48.9092 3.00006L37.0912 3.00006" stroke="black" stroke-width="0.3" stroke-linecap="square"/>
<path d="M194 170.182L145 170.182" stroke="black" stroke-width="0.3" stroke-linecap="square"/>
<path d="M145 164.182V176" stroke="black" stroke-width="0.3" stroke-linecap="square"/>
<path d="M205.434 167.65C206.297 167.65 206.98 167.879 207.484 168.336C207.988 168.793 208.24 169.416 208.24 170.205C208.24 171.119 207.953 171.834 207.379 172.35C206.809 172.861 205.996 173.117 204.941 173.117C203.984 173.117 203.232 172.963 202.686 172.654V171.406C203.002 171.586 203.365 171.725 203.775 171.822C204.186 171.92 204.566 171.969 204.918 171.969C205.539 171.969 206.012 171.83 206.336 171.553C206.66 171.275 206.822 170.869 206.822 170.334C206.822 169.311 206.17 168.799 204.865 168.799C204.682 168.799 204.455 168.818 204.186 168.857C203.916 168.893 203.68 168.934 203.477 168.98L202.861 168.617L203.189 164.434H207.643V165.658H204.402L204.209 167.779C204.346 167.756 204.512 167.729 204.707 167.697C204.906 167.666 205.148 167.65 205.434 167.65ZM218.418 173H217.035V169.004C217.035 168.508 216.941 168.139 216.754 167.896C216.566 167.65 216.273 167.527 215.875 167.527C215.344 167.527 214.953 167.701 214.703 168.049C214.457 168.393 214.334 168.967 214.334 169.771V173H212.957V166.52H214.035L214.229 167.369H214.299C214.479 167.061 214.738 166.822 215.078 166.654C215.422 166.486 215.799 166.402 216.209 166.402C217.205 166.402 217.865 166.742 218.189 167.422H218.283C218.475 167.102 218.744 166.852 219.092 166.672C219.439 166.492 219.838 166.402 220.287 166.402C221.061 166.402 221.623 166.598 221.975 166.988C222.33 167.379 222.508 167.975 222.508 168.775V173H221.131V169.004C221.131 168.508 221.035 168.139 220.844 167.896C220.656 167.65 220.363 167.527 219.965 167.527C219.43 167.527 219.037 167.695 218.787 168.031C218.541 168.363 218.418 168.875 218.418 169.566V173Z" fill="#1A1A1A"/>
<path d="M232 170H280.953" stroke="black" stroke-width="0.3" stroke-linecap="square"/>
<path d="M281 176V164.182" stroke="black" stroke-width="0.3" stroke-linecap="square"/>
<rect x="83" y="184" width="44" height="24" rx="4" fill="#F8BCBA"/>
<path d="M91.957 201H90.1465V196.043L90.1641 195.229L90.1934 194.338C89.8926 194.639 89.6836 194.836 89.5664 194.93L88.582 195.721L87.709 194.631L90.4688 192.434H91.957V201ZM97.2891 192.322C98.1094 192.322 98.7695 192.51 99.2695 192.885C99.7734 193.256 100.025 193.758 100.025 194.391C100.025 194.828 99.9043 195.219 99.6621 195.562C99.4199 195.902 99.0293 196.207 98.4902 196.477C99.1309 196.82 99.5898 197.18 99.8672 197.555C100.148 197.926 100.289 198.334 100.289 198.779C100.289 199.482 100.014 200.049 99.4629 200.479C98.9121 200.904 98.1875 201.117 97.2891 201.117C96.3516 201.117 95.6152 200.918 95.0801 200.52C94.5449 200.121 94.2773 199.557 94.2773 198.826C94.2773 198.338 94.4062 197.904 94.6641 197.525C94.9258 197.146 95.3438 196.812 95.918 196.523C95.4297 196.215 95.0781 195.885 94.8633 195.533C94.6484 195.182 94.541 194.797 94.541 194.379C94.541 193.766 94.7949 193.27 95.3027 192.891C95.8105 192.512 96.4727 192.322 97.2891 192.322ZM95.9531 198.721C95.9531 199.057 96.0703 199.318 96.3047 199.506C96.5391 199.693 96.8594 199.787 97.2656 199.787C97.7148 199.787 98.0508 199.691 98.2734 199.5C98.4961 199.305 98.6074 199.049 98.6074 198.732C98.6074 198.471 98.4961 198.227 98.2734 198C98.0547 197.77 97.6973 197.525 97.2012 197.268C96.3691 197.65 95.9531 198.135 95.9531 198.721ZM97.2773 193.646C96.9688 193.646 96.7188 193.727 96.5273 193.887C96.3398 194.043 96.2461 194.254 96.2461 194.52C96.2461 194.754 96.3203 194.965 96.4688 195.152C96.6211 195.336 96.8945 195.525 97.2891 195.721C97.6719 195.541 97.9395 195.357 98.0918 195.17C98.2441 194.982 98.3203 194.766 98.3203 194.52C98.3203 194.25 98.2227 194.037 98.0273 193.881C97.832 193.725 97.582 193.646 97.2773 193.646ZM108.533 201L106.471 194.279H106.418C106.492 195.646 106.529 196.559 106.529 197.016V201H104.906V192.434H107.379L109.406 198.984H109.441L111.592 192.434H114.064V201H112.371V196.945C112.371 196.754 112.373 196.533 112.377 196.283C112.385 196.033 112.412 195.369 112.459 194.291H112.406L110.197 201H108.533ZM121.617 201H115.629V199.74L117.779 197.566C118.416 196.914 118.832 196.463 119.027 196.213C119.223 195.959 119.363 195.725 119.449 195.51C119.535 195.295 119.578 195.072 119.578 194.842C119.578 194.498 119.482 194.242 119.291 194.074C119.104 193.906 118.852 193.822 118.535 193.822C118.203 193.822 117.881 193.898 117.568 194.051C117.256 194.203 116.93 194.42 116.59 194.701L115.605 193.535C116.027 193.176 116.377 192.922 116.654 192.773C116.932 192.625 117.234 192.512 117.562 192.434C117.891 192.352 118.258 192.311 118.664 192.311C119.199 192.311 119.672 192.408 120.082 192.604C120.492 192.799 120.811 193.072 121.037 193.424C121.264 193.775 121.377 194.178 121.377 194.631C121.377 195.025 121.307 195.396 121.166 195.744C121.029 196.088 120.814 196.441 120.521 196.805C120.232 197.168 119.721 197.686 118.986 198.357L117.885 199.395V199.477H121.617V201Z" fill="#363F45"/>
<path d="M136.783 197.414H134.516V196.131H136.783V193.846H138.066V196.131H140.334V197.414H138.066V199.67H136.783V197.414Z" fill="#363F45"/>
<rect x="148" y="184" width="44" height="24" rx="4" fill="#F8BCBA"/>
<path d="M156.957 201H155.146V196.043L155.164 195.229L155.193 194.338C154.893 194.639 154.684 194.836 154.566 194.93L153.582 195.721L152.709 194.631L155.469 192.434H156.957V201ZM165.277 196.717C165.277 198.213 165.031 199.32 164.539 200.039C164.051 200.758 163.297 201.117 162.277 201.117C161.289 201.117 160.543 200.746 160.039 200.004C159.539 199.262 159.289 198.166 159.289 196.717C159.289 195.205 159.533 194.092 160.021 193.377C160.51 192.658 161.262 192.299 162.277 192.299C163.266 192.299 164.012 192.674 164.516 193.424C165.023 194.174 165.277 195.271 165.277 196.717ZM161.088 196.717C161.088 197.768 161.178 198.521 161.357 198.979C161.541 199.432 161.848 199.658 162.277 199.658C162.699 199.658 163.004 199.428 163.191 198.967C163.379 198.506 163.473 197.756 163.473 196.717C163.473 195.666 163.377 194.912 163.186 194.455C162.998 193.994 162.695 193.764 162.277 193.764C161.852 193.764 161.547 193.994 161.363 194.455C161.18 194.912 161.088 195.666 161.088 196.717ZM173.533 201L171.471 194.279H171.418C171.492 195.646 171.529 196.559 171.529 197.016V201H169.906V192.434H172.379L174.406 198.984H174.441L176.592 192.434H179.064V201H177.371V196.945C177.371 196.754 177.373 196.533 177.377 196.283C177.385 196.033 177.412 195.369 177.459 194.291H177.406L175.197 201H173.533ZM186.617 201H180.629V199.74L182.779 197.566C183.416 196.914 183.832 196.463 184.027 196.213C184.223 195.959 184.363 195.725 184.449 195.51C184.535 195.295 184.578 195.072 184.578 194.842C184.578 194.498 184.482 194.242 184.291 194.074C184.104 193.906 183.852 193.822 183.535 193.822C183.203 193.822 182.881 193.898 182.568 194.051C182.256 194.203 181.93 194.42 181.59 194.701L180.605 193.535C181.027 193.176 181.377 192.922 181.654 192.773C181.932 192.625 182.234 192.512 182.562 192.434C182.891 192.352 183.258 192.311 183.664 192.311C184.199 192.311 184.672 192.408 185.082 192.604C185.492 192.799 185.811 193.072 186.037 193.424C186.264 193.775 186.377 194.178 186.377 194.631C186.377 195.025 186.307 195.396 186.166 195.744C186.029 196.088 185.814 196.441 185.521 196.805C185.232 197.168 184.721 197.686 183.986 198.357L182.885 199.395V199.477H186.617V201Z" fill="#363F45"/>
<path d="M201.783 197.414H199.516V196.131H201.783V193.846H203.066V196.131H205.334V197.414H203.066V199.67H201.783V197.414Z" fill="#363F45"/>
<rect x="213" y="184" width="44" height="24" rx="4" fill="#F8BCBA"/>
<path d="M221.957 201H220.146V196.043L220.164 195.229L220.193 194.338C219.893 194.639 219.684 194.836 219.566 194.93L218.582 195.721L217.709 194.631L220.469 192.434H221.957V201ZM230.277 196.717C230.277 198.213 230.031 199.32 229.539 200.039C229.051 200.758 228.297 201.117 227.277 201.117C226.289 201.117 225.543 200.746 225.039 200.004C224.539 199.262 224.289 198.166 224.289 196.717C224.289 195.205 224.533 194.092 225.021 193.377C225.51 192.658 226.262 192.299 227.277 192.299C228.266 192.299 229.012 192.674 229.516 193.424C230.023 194.174 230.277 195.271 230.277 196.717ZM226.088 196.717C226.088 197.768 226.178 198.521 226.357 198.979C226.541 199.432 226.848 199.658 227.277 199.658C227.699 199.658 228.004 199.428 228.191 198.967C228.379 198.506 228.473 197.756 228.473 196.717C228.473 195.666 228.377 194.912 228.186 194.455C227.998 193.994 227.695 193.764 227.277 193.764C226.852 193.764 226.547 193.994 226.363 194.455C226.18 194.912 226.088 195.666 226.088 196.717ZM238.533 201L236.471 194.279H236.418C236.492 195.646 236.529 196.559 236.529 197.016V201H234.906V192.434H237.379L239.406 198.984H239.441L241.592 192.434H244.064V201H242.371V196.945C242.371 196.754 242.373 196.533 242.377 196.283C242.385 196.033 242.412 195.369 242.459 194.291H242.406L240.197 201H238.533ZM251.617 201H245.629V199.74L247.779 197.566C248.416 196.914 248.832 196.463 249.027 196.213C249.223 195.959 249.363 195.725 249.449 195.51C249.535 195.295 249.578 195.072 249.578 194.842C249.578 194.498 249.482 194.242 249.291 194.074C249.104 193.906 248.852 193.822 248.535 193.822C248.203 193.822 247.881 193.898 247.568 194.051C247.256 194.203 246.93 194.42 246.59 194.701L245.605 193.535C246.027 193.176 246.377 192.922 246.654 192.773C246.932 192.625 247.234 192.512 247.562 192.434C247.891 192.352 248.258 192.311 248.664 192.311C249.199 192.311 249.672 192.408 250.082 192.604C250.492 192.799 250.811 193.072 251.037 193.424C251.264 193.775 251.377 194.178 251.377 194.631C251.377 195.025 251.307 195.396 251.166 195.744C251.029 196.088 250.814 196.441 250.521 196.805C250.232 197.168 249.721 197.686 248.986 198.357L247.885 199.395V199.477H251.617V201Z" fill="#363F45"/>
<path d="M238.923 216H101.077C97.9045 216 95.333 218.239 95.333 221V247C95.333 249.761 97.9045 252 101.077 252H238.923C242.095 252 244.666 249.761 244.666 247V221C244.666 218.239 242.095 216 238.923 216Z" fill="#841111"/>
<path d="M108.376 234.654H109.511C110.272 234.654 110.823 234.513 111.165 234.23C111.507 233.948 111.678 233.529 111.678 232.973C111.678 232.408 111.493 232.002 111.124 231.756C110.755 231.51 110.199 231.387 109.456 231.387H108.376V234.654ZM108.376 236.008V240H106.742V230.006H109.565C110.855 230.006 111.81 230.247 112.43 230.73C113.049 231.214 113.359 231.943 113.359 232.918C113.359 234.162 112.712 235.049 111.418 235.577L114.241 240H112.382L109.989 236.008H108.376ZM118.828 240.137C117.652 240.137 116.732 239.795 116.066 239.111C115.406 238.423 115.075 237.478 115.075 236.274C115.075 235.039 115.383 234.069 115.998 233.362C116.613 232.656 117.459 232.303 118.534 232.303C119.532 232.303 120.321 232.606 120.899 233.212C121.478 233.818 121.768 234.652 121.768 235.714V236.582H116.729C116.752 237.316 116.951 237.881 117.324 238.277C117.698 238.669 118.224 238.865 118.903 238.865C119.35 238.865 119.765 238.824 120.147 238.742C120.535 238.656 120.95 238.514 121.392 238.318V239.624C121 239.811 120.603 239.943 120.202 240.021C119.801 240.098 119.343 240.137 118.828 240.137ZM118.534 233.52C118.024 233.52 117.614 233.681 117.304 234.005C116.998 234.328 116.816 234.8 116.757 235.42H120.188C120.179 234.796 120.029 234.324 119.737 234.005C119.446 233.681 119.045 233.52 118.534 233.52ZM128.672 237.847C128.672 238.585 128.403 239.152 127.865 239.549C127.327 239.941 126.557 240.137 125.555 240.137C124.548 240.137 123.739 239.984 123.128 239.679V238.291C124.017 238.701 124.844 238.906 125.609 238.906C126.598 238.906 127.093 238.608 127.093 238.011C127.093 237.819 127.038 237.66 126.929 237.532C126.819 237.405 126.639 237.272 126.389 237.136C126.138 236.999 125.789 236.844 125.343 236.671C124.472 236.334 123.882 235.996 123.572 235.659C123.267 235.322 123.114 234.884 123.114 234.347C123.114 233.7 123.374 233.198 123.894 232.843C124.418 232.483 125.129 232.303 126.026 232.303C126.915 232.303 127.756 232.483 128.549 232.843L128.029 234.053C127.214 233.715 126.528 233.547 125.972 233.547C125.124 233.547 124.7 233.788 124.7 234.271C124.7 234.508 124.81 234.709 125.028 234.873C125.252 235.037 125.735 235.263 126.478 235.55C127.102 235.791 127.555 236.012 127.838 236.213C128.12 236.413 128.33 236.646 128.467 236.91C128.604 237.17 128.672 237.482 128.672 237.847ZM135.747 240L135.521 239.009H135.439C135.216 239.36 134.897 239.635 134.482 239.836C134.072 240.036 133.603 240.137 133.074 240.137C132.158 240.137 131.475 239.909 131.023 239.453C130.572 238.997 130.347 238.307 130.347 237.382V232.439H131.967V237.102C131.967 237.68 132.085 238.116 132.322 238.407C132.559 238.694 132.931 238.838 133.437 238.838C134.111 238.838 134.605 238.637 134.92 238.236C135.239 237.831 135.398 237.154 135.398 236.206V232.439H137.012V240H135.747ZM140.908 240H139.302V229.363H140.908V240ZM146.028 238.838C146.42 238.838 146.812 238.776 147.204 238.653V239.863C147.026 239.941 146.796 240.005 146.514 240.055C146.236 240.109 145.946 240.137 145.646 240.137C144.123 240.137 143.362 239.335 143.362 237.73V233.656H142.33V232.945L143.438 232.357L143.984 230.758H144.976V232.439H147.129V233.656H144.976V237.703C144.976 238.09 145.071 238.378 145.263 238.564C145.459 238.747 145.714 238.838 146.028 238.838ZM153.452 240L153.131 238.947H153.076C152.712 239.408 152.345 239.722 151.976 239.891C151.606 240.055 151.132 240.137 150.554 240.137C149.811 240.137 149.23 239.936 148.811 239.535C148.396 239.134 148.188 238.567 148.188 237.833C148.188 237.054 148.478 236.466 149.057 236.069C149.635 235.673 150.517 235.456 151.702 235.42L153.008 235.379V234.976C153.008 234.493 152.894 234.132 152.666 233.896C152.443 233.654 152.094 233.533 151.62 233.533C151.233 233.533 150.861 233.59 150.506 233.704C150.15 233.818 149.809 233.952 149.48 234.107L148.961 232.959C149.371 232.745 149.82 232.583 150.308 232.474C150.795 232.36 151.256 232.303 151.688 232.303C152.65 232.303 153.375 232.512 153.862 232.932C154.354 233.351 154.601 234.009 154.601 234.907V240H153.452ZM151.06 238.906C151.643 238.906 152.11 238.744 152.461 238.421C152.816 238.093 152.994 237.635 152.994 237.047V236.391L152.023 236.432C151.267 236.459 150.715 236.587 150.369 236.814C150.027 237.038 149.856 237.382 149.856 237.847C149.856 238.184 149.957 238.446 150.157 238.633C150.358 238.815 150.659 238.906 151.06 238.906ZM159.393 240.137C158.449 240.137 157.713 239.795 157.185 239.111C156.656 238.428 156.392 237.468 156.392 236.233C156.392 234.994 156.658 234.03 157.191 233.342C157.729 232.649 158.472 232.303 159.42 232.303C160.413 232.303 161.17 232.67 161.689 233.403H161.771C161.694 232.861 161.655 232.433 161.655 232.118V229.363H163.269V240H162.011L161.73 239.009H161.655C161.14 239.761 160.386 240.137 159.393 240.137ZM159.823 238.838C160.484 238.838 160.965 238.653 161.266 238.284C161.566 237.91 161.721 237.307 161.73 236.473V236.247C161.73 235.295 161.576 234.618 161.266 234.217C160.956 233.816 160.47 233.615 159.81 233.615C159.244 233.615 158.809 233.845 158.504 234.306C158.199 234.761 158.046 235.413 158.046 236.261C158.046 237.099 158.194 237.74 158.49 238.182C158.786 238.619 159.231 238.838 159.823 238.838ZM172.271 236.206C172.271 237.441 171.955 238.405 171.321 239.098C170.688 239.79 169.806 240.137 168.676 240.137C167.969 240.137 167.345 239.977 166.803 239.658C166.26 239.339 165.843 238.881 165.552 238.284C165.26 237.687 165.114 236.994 165.114 236.206C165.114 234.98 165.429 234.023 166.058 233.335C166.687 232.647 167.573 232.303 168.717 232.303C169.811 232.303 170.676 232.656 171.314 233.362C171.952 234.064 172.271 235.012 172.271 236.206ZM166.769 236.206C166.769 237.951 167.413 238.824 168.703 238.824C169.979 238.824 170.617 237.951 170.617 236.206C170.617 234.479 169.975 233.615 168.689 233.615C168.015 233.615 167.525 233.839 167.22 234.285C166.919 234.732 166.769 235.372 166.769 236.206ZM173.885 239.146C173.885 238.813 173.971 238.558 174.145 238.38C174.318 238.202 174.568 238.113 174.896 238.113C175.229 238.113 175.482 238.207 175.655 238.394C175.828 238.576 175.915 238.826 175.915 239.146C175.915 239.469 175.826 239.727 175.648 239.918C175.475 240.105 175.225 240.198 174.896 240.198C174.568 240.198 174.318 240.105 174.145 239.918C173.971 239.731 173.885 239.474 173.885 239.146ZM173.885 233.308C173.885 232.619 174.222 232.275 174.896 232.275C175.238 232.275 175.493 232.367 175.662 232.549C175.831 232.731 175.915 232.984 175.915 233.308C175.915 233.631 175.826 233.889 175.648 234.08C175.475 234.267 175.225 234.36 174.896 234.36C174.568 234.36 174.318 234.267 174.145 234.08C173.971 233.893 173.885 233.636 173.885 233.308ZM187.481 232.303C187.481 232.936 187.297 233.465 186.928 233.889C186.559 234.308 186.039 234.59 185.369 234.736V234.791C186.171 234.891 186.773 235.142 187.174 235.543C187.575 235.939 187.775 236.468 187.775 237.129C187.775 238.09 187.436 238.833 186.757 239.357C186.078 239.877 185.112 240.137 183.858 240.137C182.751 240.137 181.817 239.957 181.056 239.597V238.168C181.479 238.378 181.928 238.539 182.402 238.653C182.876 238.767 183.332 238.824 183.77 238.824C184.544 238.824 185.123 238.681 185.506 238.394C185.889 238.106 186.08 237.662 186.08 237.061C186.08 236.527 185.868 236.135 185.444 235.885C185.021 235.634 184.355 235.509 183.448 235.509H182.58V234.203H183.462C185.057 234.203 185.854 233.652 185.854 232.549C185.854 232.12 185.715 231.79 185.438 231.558C185.16 231.325 184.749 231.209 184.207 231.209C183.829 231.209 183.464 231.264 183.113 231.373C182.762 231.478 182.348 231.685 181.869 231.995L181.083 230.874C181.999 230.2 183.063 229.862 184.275 229.862C185.283 229.862 186.069 230.079 186.634 230.512C187.199 230.945 187.481 231.542 187.481 232.303ZM192.458 229.876C193.406 229.876 194.156 230.095 194.707 230.532C195.258 230.965 195.534 231.546 195.534 232.275C195.534 233.301 194.919 234.117 193.688 234.723C194.472 235.115 195.028 235.527 195.356 235.96C195.689 236.393 195.855 236.876 195.855 237.409C195.855 238.234 195.552 238.895 194.946 239.392C194.34 239.888 193.52 240.137 192.485 240.137C191.401 240.137 190.56 239.904 189.963 239.439C189.366 238.975 189.067 238.316 189.067 237.464C189.067 236.908 189.222 236.409 189.532 235.967C189.847 235.52 190.359 235.124 191.07 234.777C190.46 234.413 190.024 234.028 189.765 233.622C189.505 233.216 189.375 232.761 189.375 232.255C189.375 231.53 189.66 230.954 190.229 230.525C190.799 230.092 191.542 229.876 192.458 229.876ZM190.605 237.409C190.605 237.883 190.772 238.252 191.104 238.517C191.437 238.776 191.888 238.906 192.458 238.906C193.046 238.906 193.502 238.772 193.825 238.503C194.153 238.229 194.317 237.86 194.317 237.396C194.317 237.026 194.167 236.689 193.866 236.384C193.565 236.078 193.11 235.796 192.499 235.536L192.301 235.447C191.699 235.712 191.266 236.003 191.002 236.322C190.738 236.637 190.605 236.999 190.605 237.409ZM192.444 231.113C191.989 231.113 191.622 231.227 191.344 231.455C191.066 231.678 190.927 231.984 190.927 232.371C190.927 232.608 190.977 232.82 191.077 233.007C191.177 233.194 191.323 233.365 191.515 233.52C191.706 233.67 192.03 233.852 192.485 234.066C193.032 233.825 193.417 233.572 193.641 233.308C193.868 233.039 193.982 232.727 193.982 232.371C193.982 231.984 193.841 231.678 193.559 231.455C193.281 231.227 192.909 231.113 192.444 231.113ZM205.74 240L202.842 231.653H202.787C202.865 232.893 202.903 234.055 202.903 235.14V240H201.42V230.006H203.724L206.499 237.956H206.54L209.397 230.006H211.708V240H210.136V235.058C210.136 234.561 210.147 233.914 210.17 233.116C210.197 232.319 210.22 231.836 210.238 231.667H210.184L207.183 240H205.74ZM220.41 240H213.636V238.783L216.213 236.192C216.974 235.413 217.478 234.862 217.724 234.538C217.974 234.21 218.157 233.902 218.271 233.615C218.384 233.328 218.441 233.021 218.441 232.692C218.441 232.241 218.305 231.886 218.031 231.626C217.762 231.366 217.389 231.236 216.91 231.236C216.527 231.236 216.156 231.307 215.796 231.448C215.44 231.59 215.028 231.845 214.559 232.214L213.69 231.154C214.246 230.685 214.786 230.352 215.311 230.156C215.835 229.96 216.393 229.862 216.985 229.862C217.915 229.862 218.66 230.106 219.221 230.594C219.781 231.077 220.062 231.729 220.062 232.549C220.062 233 219.979 233.428 219.815 233.834C219.656 234.24 219.408 234.659 219.07 235.092C218.738 235.52 218.182 236.101 217.402 236.835L215.666 238.517V238.585H220.41V240Z" fill="white"/>
</svg>
