<svg width="336" height="171" viewBox="0 0 336 171" fill="none" xmlns="http://www.w3.org/2000/svg">
<path d="M60.9121 140.267L141.588 110.235" stroke="black" stroke-dasharray="5 5"/>
<path d="M238.379 21H63.6214C62.1736 21 61 22.1596 61 23.5899V138.41C61 139.84 62.1736 141 63.6214 141H238.379C239.826 141 241 139.84 241 138.41V23.5899C241 22.1596 239.826 21 238.379 21Z" fill="white" fill-opacity="0.8" stroke="black"/>
<path d="M133.245 64.8193H131.898V67H130.333V64.8193H125.767V63.582L130.333 56.9785H131.898V63.4863H133.245V64.8193ZM130.333 63.4863V60.9775C130.333 60.0843 130.356 59.3529 130.401 58.7832H130.347C130.219 59.084 130.019 59.4486 129.745 59.877L127.264 63.4863H130.333ZM139.965 63.1377L137.429 59.4395H139.261L140.983 62.085L142.72 59.4395H144.538L141.995 63.1377L144.668 67H142.85L140.983 64.1699L139.124 67H137.306L139.965 63.1377ZM155.872 67H149.098V65.7832L151.675 63.1924C152.436 62.4131 152.939 61.8617 153.186 61.5381C153.436 61.21 153.618 60.9023 153.732 60.6152C153.846 60.3281 153.903 60.0205 153.903 59.6924C153.903 59.2412 153.767 58.8857 153.493 58.626C153.224 58.3662 152.851 58.2363 152.372 58.2363C151.989 58.2363 151.618 58.307 151.258 58.4482C150.902 58.5895 150.49 58.8447 150.021 59.2139L149.152 58.1543C149.708 57.6849 150.248 57.3522 150.772 57.1562C151.297 56.9603 151.855 56.8623 152.447 56.8623C153.377 56.8623 154.122 57.1061 154.683 57.5938C155.243 58.0768 155.523 58.7285 155.523 59.5488C155.523 60 155.441 60.4284 155.277 60.834C155.118 61.2396 154.869 61.6589 154.532 62.0918C154.2 62.5202 153.644 63.1012 152.864 63.835L151.128 65.5166V65.585H155.872V67ZM157.178 61.3193V60.0957H163.761V61.3193H157.178ZM157.178 64.0469V62.8301H163.761V64.0469H157.178ZM172.107 56.876C173.055 56.876 173.805 57.0947 174.356 57.5322C174.908 57.9652 175.184 58.5462 175.184 59.2754C175.184 60.3008 174.568 61.1165 173.338 61.7227C174.122 62.1146 174.678 62.527 175.006 62.96C175.339 63.3929 175.505 63.876 175.505 64.4092C175.505 65.234 175.202 65.8949 174.596 66.3916C173.99 66.8883 173.169 67.1367 172.135 67.1367C171.05 67.1367 170.209 66.9043 169.612 66.4395C169.015 65.9746 168.717 65.3161 168.717 64.4639C168.717 63.9079 168.872 63.4089 169.182 62.9668C169.496 62.5202 170.009 62.1237 170.72 61.7773C170.109 61.4128 169.674 61.0277 169.414 60.6221C169.154 60.2165 169.024 59.7607 169.024 59.2549C169.024 58.5303 169.309 57.9538 169.879 57.5254C170.449 57.0924 171.191 56.876 172.107 56.876ZM170.255 64.4092C170.255 64.8831 170.421 65.2523 170.754 65.5166C171.087 65.7764 171.538 65.9062 172.107 65.9062C172.695 65.9062 173.151 65.7718 173.475 65.5029C173.803 65.2295 173.967 64.8604 173.967 64.3955C173.967 64.0264 173.816 63.6891 173.516 63.3838C173.215 63.0785 172.759 62.7959 172.148 62.5361L171.95 62.4473C171.349 62.7116 170.916 63.0033 170.651 63.3223C170.387 63.6367 170.255 63.999 170.255 64.4092ZM172.094 58.1133C171.638 58.1133 171.271 58.2272 170.993 58.4551C170.715 58.6784 170.576 58.9837 170.576 59.3711C170.576 59.6081 170.626 59.82 170.727 60.0068C170.827 60.1937 170.973 60.3646 171.164 60.5195C171.355 60.6699 171.679 60.8522 172.135 61.0664C172.682 60.8249 173.067 60.5719 173.29 60.3076C173.518 60.0387 173.632 59.7266 173.632 59.3711C173.632 58.9837 173.491 58.6784 173.208 58.4551C172.93 58.2272 172.559 58.1133 172.094 58.1133Z" fill="#1A1A1A"/>
<path d="M211 75H91C88.2386 75 86 77.2386 86 80V106C86 108.761 88.2386 111 91 111H211C213.761 111 216 108.761 216 106V80C216 77.2386 213.761 75 211 75Z" fill="#841111"/>
<path d="M98.9531 93.6543H100.088C100.849 93.6543 101.4 93.513 101.742 93.2305C102.084 92.9479 102.255 92.5286 102.255 91.9727C102.255 91.4076 102.07 91.002 101.701 90.7559C101.332 90.5098 100.776 90.3867 100.033 90.3867H98.9531V93.6543ZM98.9531 95.0078V99H97.3193V89.0059H100.143C101.432 89.0059 102.387 89.2474 103.007 89.7305C103.627 90.2135 103.937 90.9427 103.937 91.918C103.937 93.1621 103.289 94.0485 101.995 94.5771L104.818 99H102.959L100.566 95.0078H98.9531ZM109.405 99.1367C108.229 99.1367 107.309 98.7949 106.644 98.1113C105.983 97.4232 105.652 96.4775 105.652 95.2744C105.652 94.0394 105.96 93.0687 106.575 92.3623C107.19 91.6559 108.036 91.3027 109.111 91.3027C110.109 91.3027 110.898 91.6058 111.477 92.2119C112.055 92.818 112.345 93.652 112.345 94.7139V95.582H107.307C107.329 96.3158 107.528 96.8809 107.901 97.2773C108.275 97.6693 108.801 97.8652 109.48 97.8652C109.927 97.8652 110.342 97.8242 110.725 97.7422C111.112 97.6556 111.527 97.5143 111.969 97.3184V98.624C111.577 98.8109 111.18 98.943 110.779 99.0205C110.378 99.098 109.92 99.1367 109.405 99.1367ZM109.111 92.5195C108.601 92.5195 108.191 92.6813 107.881 93.0049C107.576 93.3285 107.393 93.8001 107.334 94.4199H110.766C110.757 93.7956 110.606 93.3239 110.314 93.0049C110.023 92.6813 109.622 92.5195 109.111 92.5195ZM119.249 96.8467C119.249 97.585 118.98 98.1523 118.442 98.5488C117.905 98.9408 117.134 99.1367 116.132 99.1367C115.125 99.1367 114.316 98.984 113.705 98.6787V97.291C114.594 97.7012 115.421 97.9062 116.187 97.9062C117.175 97.9062 117.67 97.6077 117.67 97.0107C117.67 96.8193 117.615 96.6598 117.506 96.5322C117.396 96.4046 117.216 96.2725 116.966 96.1357C116.715 95.999 116.367 95.8441 115.92 95.6709C115.049 95.3337 114.459 94.9964 114.149 94.6592C113.844 94.3219 113.691 93.8844 113.691 93.3467C113.691 92.6995 113.951 92.1982 114.471 91.8428C114.995 91.4827 115.706 91.3027 116.604 91.3027C117.492 91.3027 118.333 91.4827 119.126 91.8428L118.606 93.0527C117.791 92.7155 117.105 92.5469 116.549 92.5469C115.701 92.5469 115.277 92.7884 115.277 93.2715C115.277 93.5085 115.387 93.709 115.605 93.873C115.829 94.0371 116.312 94.2627 117.055 94.5498C117.679 94.7913 118.132 95.0124 118.415 95.2129C118.698 95.4134 118.907 95.6458 119.044 95.9102C119.181 96.1699 119.249 96.4821 119.249 96.8467ZM126.324 99L126.099 98.0088H126.017C125.793 98.3597 125.474 98.6354 125.06 98.8359C124.649 99.0365 124.18 99.1367 123.651 99.1367C122.735 99.1367 122.052 98.9089 121.601 98.4531C121.149 97.9974 120.924 97.307 120.924 96.3818V91.4395H122.544V96.1016C122.544 96.6803 122.662 97.1156 122.899 97.4072C123.136 97.6943 123.508 97.8379 124.014 97.8379C124.688 97.8379 125.183 97.6374 125.497 97.2363C125.816 96.8307 125.976 96.154 125.976 95.2061V91.4395H127.589V99H126.324ZM131.485 99H129.879V88.3633H131.485V99ZM136.605 97.8379C136.997 97.8379 137.389 97.7764 137.781 97.6533V98.8633C137.604 98.9408 137.373 99.0046 137.091 99.0547C136.813 99.1094 136.523 99.1367 136.223 99.1367C134.701 99.1367 133.939 98.3346 133.939 96.7305V92.6562H132.907V91.9453L134.015 91.3574L134.562 89.7578H135.553V91.4395H137.706V92.6562H135.553V96.7031C135.553 97.0905 135.648 97.3776 135.84 97.5645C136.036 97.7467 136.291 97.8379 136.605 97.8379ZM144.029 99L143.708 97.9473H143.653C143.289 98.4076 142.922 98.722 142.553 98.8906C142.184 99.0547 141.71 99.1367 141.131 99.1367C140.388 99.1367 139.807 98.9362 139.388 98.5352C138.973 98.1341 138.766 97.5667 138.766 96.833C138.766 96.0537 139.055 95.4658 139.634 95.0693C140.213 94.6729 141.094 94.4564 142.279 94.4199L143.585 94.3789V93.9756C143.585 93.4925 143.471 93.1325 143.243 92.8955C143.02 92.654 142.671 92.5332 142.197 92.5332C141.81 92.5332 141.438 92.5902 141.083 92.7041C140.728 92.818 140.386 92.9525 140.058 93.1074L139.538 91.959C139.948 91.7448 140.397 91.583 140.885 91.4736C141.372 91.3597 141.833 91.3027 142.266 91.3027C143.227 91.3027 143.952 91.5124 144.439 91.9316C144.932 92.3509 145.178 93.0094 145.178 93.9072V99H144.029ZM141.637 97.9062C142.22 97.9062 142.687 97.7445 143.038 97.4209C143.394 97.0928 143.571 96.6348 143.571 96.0469V95.3906L142.601 95.4316C141.844 95.459 141.293 95.5866 140.946 95.8145C140.604 96.0378 140.434 96.3818 140.434 96.8467C140.434 97.1839 140.534 97.446 140.734 97.6328C140.935 97.8151 141.236 97.9062 141.637 97.9062ZM149.97 99.1367C149.026 99.1367 148.29 98.7949 147.762 98.1113C147.233 97.4277 146.969 96.4684 146.969 95.2334C146.969 93.9938 147.235 93.0299 147.769 92.3418C148.306 91.6491 149.049 91.3027 149.997 91.3027C150.991 91.3027 151.747 91.6696 152.267 92.4033H152.349C152.271 91.861 152.232 91.4326 152.232 91.1182V88.3633H153.846V99H152.588L152.308 98.0088H152.232C151.717 98.7607 150.963 99.1367 149.97 99.1367ZM150.4 97.8379C151.061 97.8379 151.542 97.6533 151.843 97.2842C152.144 96.9105 152.299 96.3066 152.308 95.4727V95.2471C152.308 94.2946 152.153 93.6178 151.843 93.2168C151.533 92.8158 151.048 92.6152 150.387 92.6152C149.822 92.6152 149.386 92.8454 149.081 93.3057C148.776 93.7614 148.623 94.4131 148.623 95.2607C148.623 96.0993 148.771 96.7396 149.067 97.1816C149.364 97.6191 149.808 97.8379 150.4 97.8379ZM162.849 95.2061C162.849 96.4411 162.532 97.4049 161.898 98.0977C161.265 98.7904 160.383 99.1367 159.253 99.1367C158.547 99.1367 157.922 98.9772 157.38 98.6582C156.838 98.3392 156.421 97.8812 156.129 97.2842C155.837 96.6872 155.691 95.9945 155.691 95.2061C155.691 93.9801 156.006 93.0231 156.635 92.335C157.264 91.6468 158.15 91.3027 159.294 91.3027C160.388 91.3027 161.254 91.6559 161.892 92.3623C162.53 93.0641 162.849 94.012 162.849 95.2061ZM157.346 95.2061C157.346 96.9515 157.991 97.8242 159.28 97.8242C160.556 97.8242 161.194 96.9515 161.194 95.2061C161.194 93.4788 160.552 92.6152 159.267 92.6152C158.592 92.6152 158.102 92.8385 157.797 93.2852C157.496 93.7318 157.346 94.3721 157.346 95.2061ZM164.462 98.1455C164.462 97.8128 164.549 97.5576 164.722 97.3799C164.895 97.2021 165.146 97.1133 165.474 97.1133C165.806 97.1133 166.059 97.2067 166.232 97.3936C166.406 97.5758 166.492 97.8265 166.492 98.1455C166.492 98.4691 166.403 98.7266 166.226 98.918C166.052 99.1048 165.802 99.1982 165.474 99.1982C165.146 99.1982 164.895 99.1048 164.722 98.918C164.549 98.7311 164.462 98.4736 164.462 98.1455ZM164.462 92.3076C164.462 91.6195 164.799 91.2754 165.474 91.2754C165.815 91.2754 166.071 91.3665 166.239 91.5488C166.408 91.7311 166.492 91.984 166.492 92.3076C166.492 92.6312 166.403 92.8887 166.226 93.0801C166.052 93.2669 165.802 93.3604 165.474 93.3604C165.146 93.3604 164.895 93.2669 164.722 93.0801C164.549 92.8932 164.462 92.6357 164.462 92.3076ZM175.037 88.876C175.985 88.876 176.735 89.0947 177.286 89.5322C177.838 89.9652 178.113 90.5462 178.113 91.2754C178.113 92.3008 177.498 93.1165 176.268 93.7227C177.051 94.1146 177.607 94.527 177.936 94.96C178.268 95.3929 178.435 95.876 178.435 96.4092C178.435 97.234 178.132 97.8949 177.525 98.3916C176.919 98.8883 176.099 99.1367 175.064 99.1367C173.98 99.1367 173.139 98.9043 172.542 98.4395C171.945 97.9746 171.646 97.3161 171.646 96.4639C171.646 95.9079 171.801 95.4089 172.111 94.9668C172.426 94.5202 172.938 94.1237 173.649 93.7773C173.039 93.4128 172.604 93.0277 172.344 92.6221C172.084 92.2165 171.954 91.7607 171.954 91.2549C171.954 90.5303 172.239 89.9538 172.809 89.5254C173.378 89.0924 174.121 88.876 175.037 88.876ZM173.185 96.4092C173.185 96.8831 173.351 97.2523 173.684 97.5166C174.016 97.7764 174.467 97.9062 175.037 97.9062C175.625 97.9062 176.081 97.7718 176.404 97.5029C176.732 97.2295 176.896 96.8604 176.896 96.3955C176.896 96.0264 176.746 95.6891 176.445 95.3838C176.145 95.0785 175.689 94.7959 175.078 94.5361L174.88 94.4473C174.278 94.7116 173.845 95.0033 173.581 95.3223C173.317 95.6367 173.185 95.999 173.185 96.4092ZM175.023 90.1133C174.568 90.1133 174.201 90.2272 173.923 90.4551C173.645 90.6784 173.506 90.9837 173.506 91.3711C173.506 91.6081 173.556 91.82 173.656 92.0068C173.757 92.1937 173.902 92.3646 174.094 92.5195C174.285 92.6699 174.609 92.8522 175.064 93.0664C175.611 92.8249 175.996 92.5719 176.22 92.3076C176.448 92.0387 176.562 91.7266 176.562 91.3711C176.562 90.9837 176.42 90.6784 176.138 90.4551C175.86 90.2272 175.488 90.1133 175.023 90.1133ZM188.319 99L185.421 90.6533H185.366C185.444 91.8929 185.482 93.055 185.482 94.1396V99H183.999V89.0059H186.303L189.078 96.9561H189.119L191.977 89.0059H194.287V99H192.715V94.0576C192.715 93.5609 192.726 92.9137 192.749 92.1162C192.776 91.3187 192.799 90.8356 192.817 90.667H192.763L189.762 99H188.319ZM202.989 99H196.215V97.7832L198.792 95.1924C199.553 94.4131 200.057 93.8617 200.303 93.5381C200.553 93.21 200.736 92.9023 200.85 92.6152C200.964 92.3281 201.021 92.0205 201.021 91.6924C201.021 91.2412 200.884 90.8857 200.61 90.626C200.341 90.3662 199.968 90.2363 199.489 90.2363C199.106 90.2363 198.735 90.307 198.375 90.4482C198.02 90.5895 197.607 90.8447 197.138 91.2139L196.27 90.1543C196.826 89.6849 197.366 89.3522 197.89 89.1562C198.414 88.9603 198.972 88.8623 199.564 88.8623C200.494 88.8623 201.239 89.1061 201.8 89.5938C202.36 90.0768 202.641 90.7285 202.641 91.5488C202.641 92 202.559 92.4284 202.395 92.834C202.235 93.2396 201.987 93.6589 201.649 94.0918C201.317 94.5202 200.761 95.1012 199.981 95.835L198.245 97.5166V97.585H202.989V99Z" fill="white"/>
<path d="M130.996 155.917H62.1797" stroke="black" stroke-width="0.3" stroke-linecap="square"/>
<path d="M61.0879 149.917V161.735" stroke="black" stroke-width="0.3" stroke-linecap="square"/>
<path d="M145.635 156.866H144.48V158.735H143.139V156.866H139.225V155.806L143.139 150.146H144.48V155.724H145.635V156.866ZM143.139 155.724V153.573C143.139 152.808 143.158 152.181 143.197 151.692H143.15C143.041 151.95 142.869 152.263 142.635 152.63L140.508 155.724H143.139ZM155.414 158.735H154.031V154.739C154.031 154.243 153.938 153.874 153.75 153.632C153.562 153.386 153.27 153.263 152.871 153.263C152.34 153.263 151.949 153.437 151.699 153.784C151.453 154.128 151.33 154.702 151.33 155.507V158.735H149.953V152.255H151.031L151.225 153.104H151.295C151.475 152.796 151.734 152.558 152.074 152.39C152.418 152.222 152.795 152.138 153.205 152.138C154.201 152.138 154.861 152.478 155.186 153.157H155.279C155.471 152.837 155.74 152.587 156.088 152.407C156.436 152.228 156.834 152.138 157.283 152.138C158.057 152.138 158.619 152.333 158.971 152.724C159.326 153.114 159.504 153.71 159.504 154.511V158.735H158.127V154.739C158.127 154.243 158.031 153.874 157.84 153.632C157.652 153.386 157.359 153.263 156.961 153.263C156.426 153.263 156.033 153.431 155.783 153.767C155.537 154.099 155.414 154.61 155.414 155.302V158.735Z" fill="#1A1A1A"/>
<path d="M168.995 155.735H240.857" stroke="black" stroke-width="0.3" stroke-linecap="square"/>
<path d="M240.927 161.735V149.917" stroke="black" stroke-width="0.3" stroke-linecap="square"/>
<path d="M260.909 93.0002L260.909 140.873" stroke="black" stroke-width="0.3" stroke-linecap="square"/>
<path d="M266.909 141L255.091 141" stroke="black" stroke-width="0.3" stroke-linecap="square"/>
<path d="M256.334 86H250.527V84.957L252.736 82.7363C253.389 82.0684 253.82 81.5957 254.031 81.3184C254.246 81.0371 254.402 80.7734 254.5 80.5273C254.598 80.2812 254.646 80.0176 254.646 79.7363C254.646 79.3496 254.529 79.0449 254.295 78.8223C254.064 78.5996 253.744 78.4883 253.334 78.4883C253.006 78.4883 252.687 78.5488 252.379 78.6699C252.074 78.791 251.721 79.0098 251.318 79.3262L250.574 78.418C251.051 78.0156 251.514 77.7305 251.963 77.5625C252.412 77.3945 252.891 77.3105 253.398 77.3105C254.195 77.3105 254.834 77.5195 255.314 77.9375C255.795 78.3516 256.035 78.9102 256.035 79.6133C256.035 80 255.965 80.3672 255.824 80.7148C255.687 81.0625 255.475 81.4219 255.186 81.793C254.9 82.1602 254.424 82.6582 253.756 83.2871L252.268 84.7285V84.7871H256.334V86ZM266.418 86H265.035V82.0039C265.035 81.5078 264.941 81.1387 264.754 80.8965C264.566 80.6504 264.273 80.5273 263.875 80.5273C263.344 80.5273 262.953 80.7012 262.703 81.0488C262.457 81.3926 262.334 81.9668 262.334 82.7715V86H260.957V79.5195H262.035L262.229 80.3691H262.299C262.479 80.0605 262.738 79.8223 263.078 79.6543C263.422 79.4863 263.799 79.4023 264.209 79.4023C265.205 79.4023 265.865 79.7422 266.189 80.4219H266.283C266.475 80.1016 266.744 79.8516 267.092 79.6719C267.439 79.4922 267.838 79.4023 268.287 79.4023C269.061 79.4023 269.623 79.5977 269.975 79.9883C270.33 80.3789 270.508 80.9746 270.508 81.7754V86H269.131V82.0039C269.131 81.5078 269.035 81.1387 268.844 80.8965C268.656 80.6504 268.363 80.5273 267.965 80.5273C267.43 80.5273 267.037 80.6953 266.787 81.0312C266.541 81.3633 266.418 81.875 266.418 82.5664V86Z" fill="#1A1A1A"/>
<path d="M260.909 68.9998L260.909 21.1266" stroke="black" stroke-width="0.3" stroke-linecap="square"/>
<path d="M266.909 21L255.091 21" stroke="black" stroke-width="0.3" stroke-linecap="square"/>
</svg>
