<svg width="80" height="80" viewBox="0 0 80 80" fill="none" xmlns="http://www.w3.org/2000/svg">
<path d="M63.753 7.88599C64.7031 7.31591 65.8432 6.93587 66.9834 6.93587C70.4038 6.93587 73.1591 9.69121 73.1591 13.1116C73.1591 14.2518 72.8741 15.3919 72.304 16.342C77.1496 22.9929 80 31.1639 80 40C80 62.1378 62.1378 80 40 80C17.9572 80 0 62.1378 0 40C0 17.9572 17.8622 0 40 0C48.9311 0.0950119 57.1021 3.04038 63.753 7.88599Z" fill="white"/>
<path d="M69.1701 19.0026C68.505 19.2877 67.7449 19.3827 66.9848 19.3827C63.5644 19.3827 60.809 16.6273 60.809 13.2069C60.809 12.4468 60.999 11.6867 61.1891 11.0216C55.2983 6.74611 47.9824 4.18079 40.0964 4.18079C20.2389 4.18079 4.08691 20.2378 4.08691 40.0953C4.08691 59.9528 20.1439 76.0098 40.0014 76.0098C59.9539 76.1048 76.0109 59.9528 76.0109 40.0953C76.0109 32.2093 73.4456 24.9884 69.1701 19.0026Z" fill="#B4C2CB"/>
<path d="M69.1678 19.0026C68.5027 19.2877 67.7426 19.3827 66.9825 19.3827C63.5621 19.3827 60.8068 16.6273 60.8068 13.2069C60.8068 12.4468 60.9018 11.6867 61.1868 11.0216C55.2961 6.74611 47.9802 4.18079 40.0942 4.18079C20.2367 4.18079 4.17969 20.2378 4.17969 40.0953C4.17969 59.9528 20.2367 76.0098 40.0942 76.0098C59.9517 76.0098 76.0087 59.9528 76.0087 40.0953C76.0087 32.2093 73.4433 24.9884 69.1678 19.0026Z" stroke="#DF1122" stroke-width="0.0256948" stroke-miterlimit="3.864"/>
<path d="M63.6572 13.1115C63.6572 11.2112 65.1774 9.69104 67.0777 9.69104C68.9779 9.69104 70.4981 11.2112 70.4981 13.1115C70.4981 15.0117 68.9779 16.5319 67.0777 16.5319C65.1774 16.5319 63.6572 15.0117 63.6572 13.1115Z" fill="#DF1122"/>
<path d="M66.9839 16.5319C68.8729 16.5319 70.4043 15.0005 70.4043 13.1115C70.4043 11.2224 68.8729 9.69104 66.9839 9.69104C65.0949 9.69104 63.5635 11.2224 63.5635 13.1115C63.5635 15.0005 65.0949 16.5319 66.9839 16.5319Z" fill="#B4C2CB" stroke="#DF1122" stroke-width="0.0237677" stroke-miterlimit="3.864"/>
<path d="M71.8269 31.4489L64.1309 51.7814H59.6653L62.6107 45.1306L57.29 31.4489H61.7556L64.606 40.285H64.796L67.4563 31.4489H71.8269Z" fill="white"/>
<path d="M56.6283 41.7101C56.6283 44.9405 53.1128 46.1757 49.6924 46.1757C46.367 46.1757 42.8516 44.9405 42.8516 41.7101H47.2221C47.2221 42.7553 48.6473 43.0403 49.6924 43.0403C50.7375 43.0403 52.0677 42.7553 52.0677 41.8052C52.0677 40.57 50.4525 40.38 47.7922 39.7149C45.1318 39.0498 43.1366 37.8147 43.1366 35.2493C43.1366 32.0189 46.272 30.8788 49.5974 30.8788C52.9228 30.8788 55.9632 32.0189 55.9632 35.1543H51.5927C51.5927 34.2992 50.4525 33.9192 49.5974 33.9192C48.6473 33.9192 47.6022 34.1092 47.6022 35.0593C47.6022 36.2945 49.5024 36.3895 51.5927 36.9595C54.348 37.8146 56.6283 38.8598 56.6283 41.7101Z" fill="white"/>
<path d="M36.2948 38.5743C36.2948 36.6741 35.2497 34.8688 32.7794 34.8688C30.3091 34.8688 29.549 36.8641 29.549 38.5743C29.549 40.3795 30.4991 42.2798 32.9694 42.2798C35.5347 42.2798 36.2948 40.2845 36.2948 38.5743ZM40.4753 45.7002H36.3898V44.085H36.1998C35.5347 45.5102 34.1095 46.2703 32.0193 46.2703C28.4088 46.2703 25.2734 43.3249 25.2734 38.6693C25.2734 33.9187 28.1238 31.0684 31.7342 31.0684C33.7295 31.0684 35.4397 31.9235 36.1998 33.1586H36.3898V31.5434H40.5704L40.4753 45.7002Z" fill="white"/>
<path d="M51.8746 51.8772C40.5682 50.357 29.2618 50.262 11.6846 51.4972L11.8747 50.7371C29.4518 49.2169 43.3236 48.3618 50.8295 48.6468C55.2951 48.7418 56.6252 49.1219 56.6252 50.7371C56.7203 52.3523 54.725 52.2573 51.8746 51.8772Z" fill="white"/>
<path d="M18.5253 37.0541C18.4303 36.199 17.9552 34.4888 15.5799 34.4888C13.3947 34.4888 12.7296 36.294 12.6346 37.0541H18.5253ZM22.8959 38.4793C22.8959 39.0494 22.8008 39.9045 22.8008 39.9045H12.5396C12.6346 41.5197 13.8697 42.7548 15.5799 42.7548C16.8151 42.7548 17.6702 42.2798 18.0502 41.4247H22.5158C22.1358 43.5149 20.3305 46.1752 15.6749 46.1752C11.2094 46.1752 8.16901 42.6598 8.16901 38.4793C8.16901 34.2038 10.9244 31.0684 15.3899 31.0684C19.9505 31.0684 22.8959 34.2038 22.8959 38.4793Z" fill="white"/>
<path d="M22.1358 60.8077C22.3258 60.6176 22.6108 60.4276 22.8959 60.3326C23.1809 60.2376 23.466 60.1426 23.751 60.1426C24.036 60.1426 24.3211 60.2376 24.6061 60.3326C24.8911 60.4276 25.1762 60.6176 25.3662 60.8077L25.6512 61.0927L24.9861 61.7578L24.7011 61.3777C24.6061 61.2827 24.4161 61.1877 24.226 61.0927C24.036 60.9977 23.846 60.9977 23.751 60.9977C23.561 60.9977 23.3709 60.9977 23.2759 61.0927C23.0859 61.1877 22.9909 61.2827 22.8009 61.3777C22.7059 61.4727 22.6108 61.6628 22.5158 61.8528C22.4208 62.0428 22.4208 62.2328 22.4208 62.3279C22.4208 62.5179 22.4208 62.7079 22.5158 62.8029C22.6108 62.9929 22.7059 63.0879 22.8009 63.278C23.0859 63.563 23.3709 63.658 23.751 63.658C23.941 63.658 24.131 63.658 24.226 63.563C24.4161 63.468 24.5111 63.373 24.7011 63.278L24.9861 62.9929L25.6512 63.658L25.3662 63.943C25.1762 64.1331 24.8911 64.3231 24.6061 64.4181C24.3211 64.5131 24.036 64.6081 23.751 64.6081C23.466 64.6081 23.1809 64.5131 22.8959 64.4181C22.6108 64.3231 22.4208 64.1331 22.1358 63.943C21.9458 63.753 21.7557 63.468 21.6607 63.183C21.5657 62.8979 21.4707 62.6129 21.4707 62.3279C21.4707 62.0428 21.5657 61.7578 21.6607 61.4727C21.7557 61.2827 21.9458 60.9977 22.1358 60.8077Z" fill="white"/>
<path d="M27.2677 61.3779C26.9826 61.6629 26.8876 61.948 26.8876 62.328C26.8876 62.518 26.8876 62.7081 26.9826 62.8981C27.0776 62.8031 27.1727 62.7081 27.3627 62.518C27.5527 62.328 27.7427 62.138 27.8377 62.043C28.0278 61.853 28.2178 61.6629 28.4078 61.4729C28.5978 61.2829 28.6928 61.1879 28.7879 61.0929C28.5028 60.9978 28.3128 60.9028 28.0278 60.9978C27.7427 61.0929 27.4577 61.1879 27.2677 61.3779ZM29.4529 62.9931L30.118 63.6582L29.833 63.9432C29.643 64.1332 29.3579 64.3233 29.0729 64.4183C28.7879 64.5133 28.5028 64.6083 28.2178 64.6083C27.9328 64.6083 27.6477 64.5133 27.3627 64.4183C27.0776 64.3233 26.8876 64.1332 26.6026 63.9432C26.4126 63.7532 26.2225 63.4682 26.1275 63.1831C26.0325 62.8981 25.9375 62.613 25.9375 62.328C25.9375 62.043 26.0325 61.7579 26.1275 61.4729C26.2225 61.1879 26.4126 60.9978 26.6026 60.7128C26.7926 60.5228 27.0776 60.3328 27.3627 60.2378C27.6477 60.1427 27.9328 60.0477 28.2178 60.0477C28.5028 60.0477 28.7879 60.1427 29.0729 60.2378C29.3579 60.3328 29.643 60.5228 29.833 60.7128L30.118 60.9978L27.6477 63.4682C27.9327 63.5632 28.1228 63.6582 28.4078 63.5632C28.6928 63.5632 28.9779 63.3731 29.1679 63.1831L29.4529 62.9931Z" fill="white"/>
<path d="M30.4043 62.3279C30.4043 62.0428 30.4993 61.7578 30.5943 61.4727C30.6893 61.1877 30.8794 60.9977 31.0694 60.8077C31.2594 60.6176 31.5444 60.4276 31.8295 60.3326C32.1145 60.2376 32.3995 60.1426 32.6846 60.1426C32.9696 60.1426 33.2547 60.2376 33.5397 60.3326C33.8247 60.4276 34.0147 60.6176 34.2998 60.8077C34.4898 60.9977 34.6798 61.2827 34.7748 61.4727C34.8699 61.7578 34.9649 62.0428 34.9649 62.3279V64.6081H34.1098V62.3279C34.1098 62.1378 34.1098 61.9478 34.0147 61.8528C33.9197 61.6628 33.8247 61.5678 33.7297 61.3777C33.6347 61.2827 33.4447 61.1877 33.2547 61.0927C33.0646 60.9977 32.8746 60.9977 32.6846 60.9977C32.4946 60.9977 32.3045 60.9977 32.1145 61.0927C31.9245 61.1877 31.8295 61.2827 31.7345 61.3777C31.6395 61.4727 31.5444 61.6628 31.4494 61.8528C31.3544 62.0428 31.3544 62.1378 31.3544 62.3279V64.6081H30.4043V62.3279Z" fill="white"/>
<path d="M35.8187 60.8077C36.0087 60.6176 36.2937 60.4276 36.5788 60.3326C36.8638 60.2376 37.1489 60.1426 37.4339 60.1426C37.7189 60.1426 38.004 60.2376 38.289 60.3326C38.574 60.4276 38.8591 60.6176 39.0491 60.8077L39.3341 61.0927L38.669 61.7578L38.384 61.4727C38.289 61.3777 38.099 61.2827 37.909 61.1877C37.7189 61.0927 37.5289 61.0927 37.4339 61.0927C37.2439 61.0927 37.0538 61.0927 36.9588 61.1877C36.7688 61.2827 36.6738 61.3777 36.4838 61.4727C36.3888 61.5678 36.2937 61.7578 36.1987 61.9478C36.1037 62.1378 36.1037 62.3279 36.1037 62.4229C36.1037 62.6129 36.1037 62.8029 36.1987 62.8979C36.2937 63.0879 36.3888 63.183 36.4838 63.373C36.7688 63.658 37.0538 63.753 37.4339 63.753C37.6239 63.753 37.8139 63.753 37.909 63.658C38.099 63.563 38.194 63.468 38.384 63.373L38.669 63.0879L39.3341 63.753L38.9541 63.943C38.7641 64.1331 38.479 64.3231 38.194 64.4181C37.909 64.5131 37.6239 64.6081 37.3389 64.6081C37.0538 64.6081 36.7688 64.5131 36.4838 64.4181C36.1987 64.3231 36.0087 64.1331 35.7237 63.943C35.5337 63.753 35.3436 63.468 35.2486 63.183C35.1536 62.8979 35.0586 62.6129 35.0586 62.3279C35.0586 62.0428 35.1536 61.7578 35.2486 61.4727C35.4386 61.2827 35.6287 60.9977 35.8187 60.8077Z" fill="white"/>
<path d="M40.4742 62.3279C40.4742 62.5179 40.4742 62.7079 40.5693 62.8979C40.6643 63.0879 40.7593 63.183 40.8543 63.373C40.9493 63.468 41.1393 63.563 41.3294 63.658C41.5194 63.753 41.7094 63.753 41.8994 63.753C42.0894 63.753 42.2795 63.753 42.4695 63.658C42.6595 63.563 42.7545 63.468 42.9446 63.373C43.0396 63.278 43.1346 63.0879 43.2296 62.8979C43.3246 62.7079 43.3246 62.5179 43.3246 62.3279C43.3246 62.1378 43.3246 61.9478 43.2296 61.8528C43.1346 61.6628 43.0396 61.5678 42.9446 61.3777C42.8495 61.2827 42.6595 61.1877 42.4695 61.0927C42.2795 60.9977 42.0894 60.9977 41.8994 60.9977C41.7094 60.9977 41.5194 60.9977 41.3294 61.0927C41.1393 61.1877 41.0443 61.2827 40.8543 61.3777C40.7593 61.4727 40.6643 61.6628 40.5693 61.8528C40.5693 62.0428 40.4742 62.1378 40.4742 62.3279ZM39.6191 62.3279C39.6191 62.0428 39.7142 61.7578 39.8092 61.4727C39.9042 61.1877 40.0942 60.9977 40.2842 60.8077C40.4742 60.6176 40.7593 60.4276 41.0443 60.3326C41.3294 60.2376 41.6144 60.1426 41.8994 60.1426C42.1845 60.1426 42.4695 60.2376 42.7545 60.3326C43.0396 60.4276 43.2296 60.6176 43.5146 60.8077C43.7047 60.9977 43.8947 61.2827 43.9897 61.4727C44.0847 61.7578 44.1797 62.0428 44.1797 62.3279C44.1797 62.6129 44.0847 62.8979 43.9897 63.183C43.8947 63.468 43.7047 63.658 43.5146 63.943C43.3246 64.1331 43.0396 64.3231 42.7545 64.4181C42.4695 64.5131 42.1845 64.6081 41.8994 64.6081C41.6144 64.6081 41.3294 64.5131 41.0443 64.4181C40.7593 64.3231 40.5693 64.1331 40.2842 63.943C40.0942 63.753 39.9042 63.468 39.8092 63.183C39.7142 62.9929 39.6191 62.7079 39.6191 62.3279Z" fill="white"/>
<path d="M48.3606 60.1426V60.9977H45.7002C45.6052 60.9977 45.5102 60.9977 45.4152 61.0927C45.3202 61.1877 45.3202 61.2827 45.3202 61.3777C45.3202 61.4727 45.3202 61.5678 45.4152 61.6628C45.5102 61.7578 45.6052 61.7578 45.7002 61.7578H47.5054C47.6955 61.7578 47.8855 61.7578 47.9805 61.8528C48.1705 61.9478 48.2655 62.0428 48.3606 62.1378C48.4556 62.2328 48.5506 62.4229 48.6456 62.6129C48.7406 62.8029 48.7406 62.8979 48.7406 63.0879C48.7406 63.278 48.7406 63.468 48.6456 63.658C48.5506 63.848 48.4556 63.9431 48.3606 64.1331C48.2655 64.2281 48.0755 64.3231 47.9805 64.4181C47.7905 64.5131 47.6005 64.5131 47.5054 64.5131H44.8451V63.658H47.5054C47.6005 63.658 47.7905 63.658 47.7905 63.563C47.8855 63.468 47.8855 63.373 47.8855 63.278C47.8855 63.183 47.8855 63.088 47.7905 62.9929C47.6955 62.8979 47.6005 62.8979 47.5054 62.8979H45.7002C45.5102 62.8979 45.3202 62.8979 45.1302 62.8029C44.9401 62.7079 44.8451 62.6129 44.7501 62.5179C44.6551 62.4229 44.5601 62.2328 44.4651 62.1378C44.3701 61.9478 44.3701 61.7578 44.3701 61.5678C44.3701 61.3777 44.3701 61.1877 44.4651 61.0927C44.5601 60.9027 44.6551 60.8077 44.7501 60.6176C44.8451 60.5226 45.0351 60.4276 45.1302 60.3326C45.3202 60.2376 45.5102 60.2376 45.7002 60.2376H48.3606V60.1426Z" fill="white"/>
<path d="M53.5882 60.1426V62.3279C53.5882 62.6129 53.4932 62.8979 53.3981 63.183C53.3031 63.468 53.1131 63.658 52.9231 63.943C52.7331 64.1331 52.448 64.3231 52.163 64.4181C51.8779 64.5131 51.5929 64.6081 51.3079 64.6081C51.0228 64.6081 50.7378 64.5131 50.4528 64.4181C50.1677 64.3231 49.9777 64.1331 49.6927 63.943C49.5026 63.753 49.3126 63.468 49.2176 63.183C49.1226 62.8979 49.0276 62.6129 49.0276 62.3279V60.1426H49.8827V62.3279C49.8827 62.5179 49.8827 62.7079 49.9777 62.8979C50.0727 63.0879 50.1677 63.183 50.2627 63.373C50.3578 63.468 50.5478 63.563 50.7378 63.658C50.9278 63.753 51.1179 63.753 51.3079 63.753C51.4979 63.753 51.6879 63.753 51.8779 63.658C52.068 63.563 52.163 63.468 52.353 63.373C52.448 63.278 52.543 63.0879 52.638 62.8979C52.7331 62.7079 52.7331 62.5179 52.7331 62.3279V60.1426H53.5882Z" fill="white"/>
<path d="M56.0574 63.6579C56.2474 63.6579 56.4375 63.6579 56.5325 63.5629C56.7225 63.4679 56.8175 63.3729 56.9125 63.2779C57.0075 63.1829 57.1025 62.9929 57.1975 62.8028C57.2926 62.6128 57.2926 62.4228 57.2926 62.2328V60.9026H56.0574C55.8674 60.9026 55.6774 60.9026 55.4873 60.9976C55.2973 61.0926 55.2023 61.1876 55.0123 61.2826C54.9173 61.3777 54.8222 61.5677 54.7272 61.7577C54.6322 61.9477 54.6322 62.0427 54.6322 62.2328C54.6322 62.4228 54.6322 62.6128 54.7272 62.8028C54.8222 62.9929 54.9173 63.0879 55.0123 63.2779C55.1073 63.3729 55.2973 63.4679 55.4873 63.5629C55.6774 63.6579 55.8674 63.6579 56.0574 63.6579ZM58.3377 58.3373V62.3278C58.3377 62.6128 58.2427 62.8979 58.1477 63.1829C58.0527 63.4679 57.8626 63.6579 57.6726 63.943C57.4826 64.133 57.1975 64.323 57.0075 64.418C56.7225 64.5131 56.4375 64.6081 56.1524 64.6081C55.8674 64.6081 55.5823 64.5131 55.2973 64.418C55.0123 64.323 54.8223 64.133 54.5372 63.943C54.3472 63.753 54.1572 63.4679 54.0622 63.1829C53.9671 62.8979 53.8721 62.6128 53.8721 62.3278C53.8721 62.0427 53.9671 61.7577 54.0622 61.4727C54.1572 61.1876 54.3472 60.9976 54.5372 60.8076C54.7272 60.6176 55.0123 60.4275 55.2973 60.3325C55.5823 60.2375 55.8674 60.1425 56.1524 60.1425H57.4826V58.3373H58.3377V58.3373Z" fill="white"/>
</svg>
