<svg width="138" height="120" viewBox="0 0 138 120" fill="none" xmlns="http://www.w3.org/2000/svg">
<ellipse cx="69.848" cy="115.2" rx="67.2" ry="4.8" fill="#E1E6EA"/>
<path d="M23.9917 26.9512L25.4317 23.1112C54.5517 22.9512 113.634 23.1111 117.112 23.1112C120.472 23.1112 121.272 25.8312 120.952 26.9512H23.9917Z" fill="#6E8391" stroke="#6E8391" stroke-width="0.8" stroke-linecap="square"/>
<path d="M120.952 27.1982H24.0789C28.8166 46.1489 38.3667 84.2746 38.6659 85.1723C38.9652 86.0699 41.2841 85.5463 42.4062 85.1723C72.6699 78.5909 114.07 71.1837 116.463 70.5853C118.857 69.9868 120.453 68.0918 120.952 67.219V27.1982Z" fill="#E1E6EA" stroke="#6E8391" stroke-width="0.797236"/>
<path d="M42.0942 96.8727L42.1208 98.4669L40.8437 98.4882L40.5442 97.2466L42.0942 96.8727ZM109.419 95.7506L109.392 94.1564L109.406 94.1562H109.419V95.7506ZM119.926 103.907C120.173 104.752 119.687 105.637 118.842 105.884C117.997 106.13 117.111 105.645 116.865 104.8L119.926 103.907ZM7.30981 2.14576C9.44772 2.14576 12.7285 2.65352 15.7926 4.18391C18.8862 5.72896 21.8582 8.37516 23.0582 12.661L19.9874 13.5208C19.0928 10.3261 16.8908 8.29696 14.3678 7.03682C11.8153 5.76201 9.03683 5.33471 7.30981 5.33471V2.14576ZM23.0582 12.661C25.163 20.1782 37.666 71.7139 43.6442 96.4988L40.5442 97.2466C34.5536 72.4107 22.0716 20.9647 19.9874 13.5208L23.0582 12.661ZM42.0676 95.2785L109.392 94.1564L109.445 97.3449L42.1208 98.4669L42.0676 95.2785ZM109.419 94.1562C112.348 94.1562 117.627 96.0227 119.926 103.907L116.865 104.8C114.975 98.3211 110.978 97.3451 109.419 97.3451V94.1562Z" fill="#485760"/>
<ellipse cx="7.85455" cy="7.85455" rx="7.85455" ry="7.85455" transform="matrix(-1 0 0 1 107.923 99.4907)" fill="#6E8391"/>
<ellipse cx="7.85455" cy="7.85455" rx="7.85455" ry="7.85455" transform="matrix(-1 0 0 1 57.8037 99.4907)" fill="#6E8391"/>
<circle cx="5.61039" cy="5.61039" r="5.61039" transform="matrix(-1 0 0 1 105.679 101.735)" fill="#B4C2CB"/>
<circle cx="5.61039" cy="5.61039" r="5.61039" transform="matrix(-1 0 0 1 55.5596 101.735)" fill="#B4C2CB"/>
<path fill-rule="evenodd" clip-rule="evenodd" d="M107.549 96.4985V99.8648C105.988 100.705 102.993 103.118 103.042 106.236C103.292 106.673 103.435 107.18 103.435 107.719C103.435 109.372 102.095 110.712 100.443 110.712C98.7902 110.712 97.4505 109.372 97.4505 107.719C97.4505 106.896 97.7827 106.151 98.3204 105.61C98.7603 102.526 99.8831 97.9539 100.443 96.4985H107.549Z" fill="#485760"/>
<path fill-rule="evenodd" clip-rule="evenodd" d="M57.4297 97.9951V99.8652C55.8687 100.706 52.8738 103.119 52.9222 106.236C53.1723 106.674 53.3153 107.18 53.3153 107.72C53.3153 109.372 51.9756 110.712 50.323 110.712C48.6705 110.712 47.3308 109.372 47.3308 107.72C47.3308 106.893 47.6664 106.144 48.2088 105.602C48.6543 102.775 49.7668 99.4417 50.3232 97.9951H57.4297Z" fill="#485760"/>
<ellipse cx="3.74026" cy="3.74026" rx="3.74026" ry="3.74026" transform="matrix(-1 0 0 1 8.43262 0)" fill="#6E8391"/>
<path d="M85.606 39.6028C85.9823 39.3771 86.4338 39.2266 86.8853 39.2266C88.2398 39.2266 89.3309 40.3177 89.3309 41.6722C89.3309 42.1237 89.218 42.5752 88.9923 42.9514C90.9111 45.5852 92.0399 48.8209 92.0399 52.32C92.0399 61.0865 84.9664 68.16 76.1999 68.16C67.4709 68.16 60.3599 61.0865 60.3599 52.32C60.3599 43.591 67.4333 36.48 76.1999 36.48C79.7366 36.5176 82.9723 37.684 85.606 39.6028Z" fill="white"/>
<path d="M87.7509 44.0052C87.4876 44.1181 87.1866 44.1557 86.8856 44.1557C85.5311 44.1557 84.44 43.0646 84.44 41.7101C84.44 41.4091 84.5152 41.1081 84.5905 40.8447C82.2577 39.1516 79.3606 38.1357 76.2378 38.1357C68.3742 38.1357 61.978 44.4943 61.978 52.3579C61.978 60.2214 68.3366 66.58 76.2002 66.58C84.1014 66.6176 90.4599 60.2214 90.4599 52.3579C90.4599 49.235 89.4441 46.3756 87.7509 44.0052Z" fill="#6E8391"/>
<path d="M87.7504 44.0052C87.4871 44.1181 87.1861 44.1557 86.8851 44.1557C85.5306 44.1557 84.4395 43.0646 84.4395 41.7101C84.4395 41.4091 84.4771 41.1081 84.59 40.8447C82.2572 39.1516 79.3601 38.1357 76.2373 38.1357C68.3737 38.1357 62.0151 44.4943 62.0151 52.3579C62.0151 60.2214 68.3737 66.58 76.2373 66.58C84.1008 66.58 90.4594 60.2214 90.4594 52.3579C90.4594 49.235 89.4435 46.3756 87.7504 44.0052Z" stroke="#DF1122" stroke-width="0.0256948" stroke-miterlimit="3.864"/>
<path d="M85.5679 41.6719C85.5679 40.9194 86.1699 40.3174 86.9224 40.3174C87.6749 40.3174 88.2768 40.9194 88.2768 41.6719C88.2768 42.4244 87.6749 43.0264 86.9224 43.0264C86.1699 43.0264 85.5679 42.4244 85.5679 41.6719Z" fill="#DF1122"/>
<path d="M86.8857 43.0264C87.6338 43.0264 88.2402 42.4199 88.2402 41.6719C88.2402 40.9238 87.6338 40.3174 86.8857 40.3174C86.1377 40.3174 85.5312 40.9238 85.5312 41.6719C85.5312 42.4199 86.1377 43.0264 86.8857 43.0264Z" fill="#6E8391" stroke="#DF1122" stroke-width="0.0237677" stroke-miterlimit="3.864"/>
<path d="M88.8035 48.9336L85.7559 56.9853H83.9875L85.1539 54.3515L83.0469 48.9336H84.8152L85.944 52.4327H86.0192L87.0727 48.9336H88.8035Z" fill="white"/>
<path d="M82.7847 52.9972C82.7847 54.2765 81.3926 54.7656 80.0381 54.7656C78.7212 54.7656 77.3291 54.2765 77.3291 52.9972H79.0598C79.0598 53.4111 79.6242 53.524 80.0381 53.524C80.452 53.524 80.9787 53.4111 80.9787 53.0348C80.9787 52.5457 80.3391 52.4705 79.2856 52.2071C78.2321 51.9437 77.442 51.4546 77.442 50.4387C77.442 49.1595 78.6836 48.708 80.0005 48.708C81.3173 48.708 82.5213 49.1595 82.5213 50.4011H80.7906C80.7906 50.0625 80.3391 49.912 80.0005 49.912C79.6242 49.912 79.2103 49.9872 79.2103 50.3635C79.2103 50.8526 79.9628 50.8902 80.7906 51.116C81.8817 51.4546 82.7847 51.8685 82.7847 52.9972Z" fill="white"/>
<path d="M74.7326 51.7556C74.7326 51.0031 74.3188 50.2882 73.3405 50.2882C72.3623 50.2882 72.0613 51.0783 72.0613 51.7556C72.0613 52.4704 72.4375 53.2229 73.4158 53.2229C74.4316 53.2229 74.7326 52.4328 74.7326 51.7556ZM76.3881 54.5774H74.7703V53.9378H74.695C74.4316 54.5022 73.8673 54.8032 73.0395 54.8032C71.6098 54.8032 70.3682 53.6368 70.3682 51.7932C70.3682 49.9119 71.4969 48.7832 72.9266 48.7832C73.7168 48.7832 74.394 49.1218 74.695 49.6109H74.7703V48.9713H76.4257L76.3881 54.5774Z" fill="white"/>
<path d="M80.9021 57.0234C76.4247 56.4214 71.9474 56.3838 64.9868 56.8729L65.0621 56.5719C72.0226 55.9699 77.5158 55.6313 80.4882 55.7442C82.2566 55.7818 82.7833 55.9323 82.7833 56.5719C82.8209 57.2116 82.0308 57.1739 80.9021 57.0234Z" fill="white"/>
<path d="M67.6958 51.1536C67.6582 50.8149 67.4701 50.1377 66.5295 50.1377C65.6641 50.1377 65.4007 50.8526 65.3631 51.1536H67.6958ZM69.4266 51.7179C69.4266 51.9437 69.3889 52.2823 69.3889 52.2823H65.3255C65.3631 52.9219 65.8522 53.411 66.5295 53.411C67.0186 53.411 67.3572 53.2229 67.5077 52.8843H69.2761C69.1256 53.712 68.4107 54.7655 66.5671 54.7655C64.7987 54.7655 63.5947 53.3734 63.5947 51.7179C63.5947 50.0248 64.6858 48.7832 66.4542 48.7832C68.2602 48.7832 69.4266 50.0248 69.4266 51.7179Z" fill="white"/>
<path d="M69.1257 60.5598C69.2009 60.4845 69.3138 60.4093 69.4267 60.3716C69.5395 60.334 69.6524 60.2964 69.7653 60.2964C69.8782 60.2964 69.991 60.334 70.1039 60.3716C70.2168 60.4093 70.3297 60.4845 70.4049 60.5598L70.5178 60.6726L70.2544 60.936L70.1415 60.7855C70.1039 60.7479 70.0287 60.7103 69.9534 60.6726C69.8782 60.635 69.8029 60.635 69.7653 60.635C69.69 60.635 69.6148 60.635 69.5772 60.6726C69.5019 60.7103 69.4643 60.7479 69.3891 60.7855C69.3514 60.8231 69.3138 60.8984 69.2762 60.9736C69.2386 61.0489 69.2386 61.1241 69.2386 61.1618C69.2386 61.237 69.2386 61.3123 69.2762 61.3499C69.3138 61.4251 69.3514 61.4628 69.3891 61.538C69.5019 61.6509 69.6148 61.6885 69.7653 61.6885C69.8405 61.6885 69.9158 61.6885 69.9534 61.6509C70.0287 61.6132 70.0663 61.5756 70.1415 61.538L70.2544 61.4251L70.5178 61.6885L70.4049 61.8014C70.3297 61.8766 70.2168 61.9519 70.1039 61.9895C69.991 62.0271 69.8782 62.0647 69.7653 62.0647C69.6524 62.0647 69.5395 62.0271 69.4267 61.9895C69.3138 61.9519 69.2386 61.8766 69.1257 61.8014C69.0504 61.7261 68.9752 61.6132 68.9376 61.5004C68.8999 61.3875 68.8623 61.2746 68.8623 61.1618C68.8623 61.0489 68.8999 60.936 68.9376 60.8231C68.9752 60.7479 69.0504 60.635 69.1257 60.5598Z" fill="white"/>
<path d="M71.1576 60.7855C71.0447 60.8984 71.0071 61.0113 71.0071 61.1618C71.0071 61.237 71.0071 61.3123 71.0447 61.3875C71.0824 61.3499 71.12 61.3123 71.1952 61.237C71.2705 61.1618 71.3457 61.0865 71.3834 61.0489C71.4586 60.9737 71.5339 60.8984 71.6091 60.8232C71.6844 60.7479 71.722 60.7103 71.7596 60.6727C71.6467 60.635 71.5715 60.5974 71.4586 60.635C71.3457 60.6727 71.2329 60.7103 71.1576 60.7855ZM72.023 61.4252L72.2863 61.6885L72.1735 61.8014C72.0982 61.8766 71.9853 61.9519 71.8725 61.9895C71.7596 62.0271 71.6467 62.0648 71.5339 62.0648C71.421 62.0648 71.3081 62.0271 71.1952 61.9895C71.0824 61.9519 71.0071 61.8766 70.8942 61.8014C70.819 61.7262 70.7437 61.6133 70.7061 61.5004C70.6685 61.3875 70.6309 61.2747 70.6309 61.1618C70.6309 61.0489 70.6685 60.936 70.7061 60.8232C70.7437 60.7103 70.819 60.635 70.8942 60.5222C70.9695 60.4469 71.0824 60.3717 71.1952 60.334C71.3081 60.2964 71.421 60.2588 71.5339 60.2588C71.6467 60.2588 71.7596 60.2964 71.8725 60.334C71.9853 60.3717 72.0982 60.4469 72.1735 60.5222L72.2863 60.635L71.3081 61.6133C71.421 61.6509 71.4962 61.6885 71.6091 61.6509C71.722 61.6509 71.8349 61.5757 71.9101 61.5004L72.023 61.4252Z" fill="white"/>
<path d="M72.3999 61.1618C72.3999 61.0489 72.4375 60.936 72.4752 60.8231C72.5128 60.7103 72.588 60.635 72.6633 60.5598C72.7385 60.4845 72.8514 60.4093 72.9643 60.3716C73.0771 60.334 73.19 60.2964 73.3029 60.2964C73.4158 60.2964 73.5286 60.334 73.6415 60.3716C73.7544 60.4093 73.8296 60.4845 73.9425 60.5598C74.0178 60.635 74.093 60.7479 74.1306 60.8231C74.1683 60.936 74.2059 61.0489 74.2059 61.1618V62.0647H73.8673V61.1618C73.8673 61.0865 73.8673 61.0113 73.8296 60.9736C73.792 60.8984 73.7544 60.8608 73.7168 60.7855C73.6791 60.7479 73.6039 60.7103 73.5286 60.6726C73.4534 60.635 73.3781 60.635 73.3029 60.635C73.2276 60.635 73.1524 60.635 73.0771 60.6726C73.0019 60.7103 72.9643 60.7479 72.9266 60.7855C72.889 60.8231 72.8514 60.8984 72.8138 60.9736C72.7761 61.0489 72.7761 61.0865 72.7761 61.1618V62.0647H72.3999V61.1618Z" fill="white"/>
<path d="M74.5442 60.5598C74.6194 60.4845 74.7323 60.4093 74.8452 60.3716C74.958 60.334 75.0709 60.2964 75.1838 60.2964C75.2967 60.2964 75.4095 60.334 75.5224 60.3716C75.6353 60.4093 75.7482 60.4845 75.8234 60.5598L75.9363 60.6726L75.6729 60.936L75.56 60.8231C75.5224 60.7855 75.4472 60.7479 75.3719 60.7103C75.2967 60.6726 75.2214 60.6726 75.1838 60.6726C75.1085 60.6726 75.0333 60.6726 74.9957 60.7103C74.9204 60.7479 74.8828 60.7855 74.8075 60.8231C74.7699 60.8608 74.7323 60.936 74.6947 61.0113C74.657 61.0865 74.657 61.1618 74.657 61.1994C74.657 61.2746 74.657 61.3499 74.6947 61.3875C74.7323 61.4628 74.7699 61.5004 74.8075 61.5756C74.9204 61.6885 75.0333 61.7261 75.1838 61.7261C75.259 61.7261 75.3343 61.7261 75.3719 61.6885C75.4472 61.6509 75.4848 61.6133 75.56 61.5756L75.6729 61.4628L75.9363 61.7261L75.7858 61.8014C75.7105 61.8766 75.5977 61.9519 75.4848 61.9895C75.3719 62.0271 75.259 62.0647 75.1462 62.0647C75.0333 62.0647 74.9204 62.0271 74.8075 61.9895C74.6947 61.9519 74.6194 61.8766 74.5065 61.8014C74.4313 61.7261 74.356 61.6132 74.3184 61.5004C74.2808 61.3875 74.2432 61.2746 74.2432 61.1618C74.2432 61.0489 74.2808 60.936 74.3184 60.8231C74.3937 60.7479 74.4689 60.635 74.5442 60.5598Z" fill="white"/>
<path d="M76.3874 61.1618C76.3874 61.237 76.3875 61.3123 76.4251 61.3875C76.4627 61.4628 76.5003 61.5004 76.5379 61.5756C76.5756 61.6133 76.6508 61.6509 76.7261 61.6885C76.8013 61.7261 76.8766 61.7261 76.9518 61.7261C77.0271 61.7261 77.1023 61.7261 77.1776 61.6885C77.2528 61.6509 77.2904 61.6133 77.3657 61.5756C77.4033 61.538 77.4409 61.4628 77.4786 61.3875C77.5162 61.3123 77.5162 61.237 77.5162 61.1618C77.5162 61.0865 77.5162 61.0113 77.4786 60.9736C77.4409 60.8984 77.4033 60.8608 77.3657 60.7855C77.3281 60.7479 77.2528 60.7103 77.1776 60.6726C77.1023 60.635 77.0271 60.635 76.9518 60.635C76.8766 60.635 76.8013 60.635 76.7261 60.6726C76.6508 60.7103 76.6132 60.7479 76.5379 60.7855C76.5003 60.8231 76.4627 60.8984 76.4251 60.9736C76.4251 61.0489 76.3874 61.0865 76.3874 61.1618ZM76.0488 61.1618C76.0488 61.0489 76.0865 60.936 76.1241 60.8231C76.1617 60.7103 76.237 60.635 76.3122 60.5598C76.3875 60.4845 76.5003 60.4093 76.6132 60.3716C76.7261 60.334 76.8389 60.2964 76.9518 60.2964C77.0647 60.2964 77.1776 60.334 77.2904 60.3716C77.4033 60.4093 77.4786 60.4845 77.5914 60.5598C77.6667 60.635 77.7419 60.7479 77.7796 60.8231C77.8172 60.936 77.8548 61.0489 77.8548 61.1618C77.8548 61.2746 77.8172 61.3875 77.7796 61.5004C77.7419 61.6132 77.6667 61.6885 77.5914 61.8014C77.5162 61.8766 77.4033 61.9519 77.2904 61.9895C77.1776 62.0271 77.0647 62.0647 76.9518 62.0647C76.8389 62.0647 76.7261 62.0271 76.6132 61.9895C76.5003 61.9519 76.4251 61.8766 76.3122 61.8014C76.237 61.7261 76.1617 61.6132 76.1241 61.5004C76.0865 61.4251 76.0488 61.3123 76.0488 61.1618Z" fill="white"/>
<path d="M79.5104 60.2964V60.635H78.4569C78.4193 60.635 78.3817 60.635 78.344 60.6726C78.3064 60.7103 78.3064 60.7479 78.3064 60.7855C78.3064 60.8231 78.3064 60.8608 78.344 60.8984C78.3817 60.936 78.4193 60.936 78.4569 60.936H79.1718C79.247 60.936 79.3223 60.936 79.3599 60.9736C79.4352 61.0113 79.4728 61.0489 79.5104 61.0865C79.548 61.1241 79.5857 61.1994 79.6233 61.2746C79.6609 61.3499 79.6609 61.3875 79.6609 61.4628C79.6609 61.538 79.6609 61.6133 79.6233 61.6885C79.5857 61.7638 79.548 61.8014 79.5104 61.8766C79.4728 61.9142 79.3975 61.9519 79.3599 61.9895C79.2847 62.0271 79.2094 62.0271 79.1718 62.0271H78.1183V61.6885H79.1718C79.2094 61.6885 79.2847 61.6885 79.2847 61.6509C79.3223 61.6133 79.3223 61.5756 79.3223 61.538C79.3223 61.5004 79.3223 61.4628 79.2847 61.4251C79.247 61.3875 79.2094 61.3875 79.1718 61.3875H78.4569C78.3817 61.3875 78.3064 61.3875 78.2312 61.3499C78.1559 61.3123 78.1183 61.2746 78.0807 61.237C78.043 61.1994 78.0054 61.1241 77.9678 61.0865C77.9302 61.0113 77.9302 60.936 77.9302 60.8608C77.9302 60.7855 77.9302 60.7103 77.9678 60.6726C78.0054 60.5974 78.043 60.5598 78.0807 60.4845C78.1183 60.4469 78.1935 60.4093 78.2312 60.3716C78.3064 60.334 78.3817 60.334 78.4569 60.334H79.5104V60.2964Z" fill="white"/>
<path d="M81.5809 60.2964V61.1618C81.5809 61.2746 81.5433 61.3875 81.5056 61.5004C81.468 61.6132 81.3928 61.6885 81.3175 61.8014C81.2423 61.8766 81.1294 61.9519 81.0165 61.9895C80.9036 62.0271 80.7908 62.0647 80.6779 62.0647C80.565 62.0647 80.4521 62.0271 80.3393 61.9895C80.2264 61.9519 80.1511 61.8766 80.0383 61.8014C79.963 61.7261 79.8878 61.6132 79.8502 61.5004C79.8125 61.3875 79.7749 61.2746 79.7749 61.1618V60.2964H80.1135V61.1618C80.1135 61.237 80.1135 61.3123 80.1511 61.3875C80.1888 61.4628 80.2264 61.5004 80.264 61.5756C80.3016 61.6133 80.3769 61.6509 80.4521 61.6885C80.5274 61.7261 80.6026 61.7261 80.6779 61.7261C80.7531 61.7261 80.8284 61.7261 80.9036 61.6885C80.9789 61.6509 81.0165 61.6133 81.0918 61.5756C81.1294 61.538 81.167 61.4628 81.2046 61.3875C81.2423 61.3123 81.2423 61.237 81.2423 61.1618V60.2964H81.5809Z" fill="white"/>
<path d="M82.5587 61.6885C82.634 61.6885 82.7092 61.6885 82.7469 61.6509C82.8221 61.6133 82.8597 61.5757 82.8974 61.538C82.935 61.5004 82.9726 61.4252 83.0102 61.3499C83.0478 61.2747 83.0479 61.1994 83.0479 61.1242V60.5974H82.5587C82.4835 60.5974 82.4082 60.5974 82.333 60.635C82.2577 60.6727 82.2201 60.7103 82.1449 60.7479C82.1072 60.7855 82.0696 60.8608 82.032 60.936C81.9944 61.0113 81.9944 61.0489 81.9944 61.1242C81.9944 61.1994 81.9944 61.2747 82.032 61.3499C82.0696 61.4252 82.1072 61.4628 82.1449 61.538C82.1825 61.5757 82.2577 61.6133 82.333 61.6509C82.4082 61.6885 82.4835 61.6885 82.5587 61.6885ZM83.4617 59.5815V61.1618C83.4617 61.2747 83.4241 61.3875 83.3865 61.5004C83.3488 61.6133 83.2736 61.6885 83.1983 61.8014C83.1231 61.8767 83.0102 61.9519 82.935 61.9895C82.8221 62.0271 82.7092 62.0648 82.5964 62.0648C82.4835 62.0648 82.3706 62.0271 82.2577 61.9895C82.1449 61.9519 82.0696 61.8767 81.9567 61.8014C81.8815 61.7262 81.8062 61.6133 81.7686 61.5004C81.731 61.3875 81.6934 61.2747 81.6934 61.1618C81.6934 61.0489 81.731 60.936 81.7686 60.8232C81.8062 60.7103 81.8815 60.635 81.9567 60.5598C82.032 60.4845 82.1449 60.4093 82.2577 60.3717C82.3706 60.334 82.4835 60.2964 82.5964 60.2964H83.1231V59.5815H83.4617Z" fill="white"/>
</svg>
