<svg width="98" height="95" viewBox="0 0 98 95" fill="none" xmlns="http://www.w3.org/2000/svg">
<path d="M97.8169 23.5087C97.6702 23.3392 97.4581 23.2422 97.2337 23.2422H21.4374C21.0141 23.2422 20.6716 23.5813 20.6716 24.0002C20.6716 24.4193 21.0141 24.7582 21.4374 24.7582H96.3366L90.4478 61.1925L32.8023 65.485C32.3804 65.5161 32.0643 65.8802 32.0965 66.2978C32.1263 66.6959 32.4619 66.998 32.859 66.998C32.8783 66.998 32.8979 66.998 32.9172 66.9965L91.1655 62.6599C91.5199 62.6333 91.8086 62.3696 91.8655 62.0233L97.9903 24.1202C98.0263 23.9009 97.962 23.6774 97.8169 23.5087Z" fill="#BFBFBF"/>
<path d="M30.5984 66.2565L13.7549 4.09455C13.6458 3.68909 13.2258 3.45215 12.8174 3.55868C12.4085 3.66748 12.1663 4.08261 12.2762 4.48693L29.1199 66.6485C29.2118 66.9876 29.5206 67.2097 29.8585 67.2097C29.9242 67.2097 29.9908 67.2024 30.0572 67.1847C30.4663 67.0752 30.7083 66.6606 30.5984 66.2565Z" fill="#BFBFBF"/>
<path d="M33.5999 66.0462L15.9309 1.06178C15.8203 0.65746 15.4008 0.416915 14.9927 0.526477C14.5843 0.635282 14.3421 1.05135 14.452 1.45548L32.1212 66.4401C32.2131 66.779 32.5225 67.0012 32.8598 67.0012C32.9256 67.0012 32.993 66.9938 33.0595 66.9759C33.4676 66.8664 33.7098 66.4505 33.5999 66.0462Z" fill="#BFBFBF"/>
<path d="M13.0159 3.53271H2.29732C1.87404 3.53271 1.53174 3.87183 1.53174 4.29074C1.53174 4.70985 1.87404 5.04877 2.29732 5.04877H13.0159C13.439 5.04877 13.7815 4.70985 13.7815 4.29074C13.7815 3.87183 13.439 3.53271 13.0159 3.53271Z" fill="#BFBFBF"/>
<path d="M15.1919 0.500488H2.29733C1.87404 0.500488 1.53174 0.839601 1.53174 1.25871C1.53174 1.67762 1.87404 2.01673 2.29733 2.01673H15.1917C15.6148 2.01673 15.9573 1.67762 15.9575 1.25871C15.9575 0.839601 15.615 0.500488 15.1919 0.500488Z" fill="#BFBFBF"/>
<path d="M2.29671 3.53328C1.87419 3.53328 1.53112 3.19341 1.53112 2.77525C1.53112 2.3569 1.87419 2.01722 2.29671 2.01722C2.7198 2.01722 3.06229 1.67811 3.06229 1.25919C3.06229 0.84009 2.7198 0.500977 2.29671 0.500977C1.03011 0.500977 -0.000244141 1.52116 -0.000244141 2.77525C-0.000244141 4.02915 1.03011 5.04934 2.29671 5.04934C2.7198 5.04934 3.06229 4.71041 3.06229 4.29131C3.06229 3.87239 2.7198 3.53328 2.29671 3.53328Z" fill="#BFBFBF"/>
<path d="M33.1939 65.5609C32.8125 65.3816 32.3548 65.5387 32.1718 65.9146L27.6393 75.2202C27.4554 75.5976 27.6154 76.0508 27.9958 76.2315C28.1034 76.2832 28.2163 76.3069 28.3278 76.3069C28.6126 76.3069 28.8862 76.15 29.0179 75.8791L33.5504 66.5735C33.7344 66.1961 33.5743 65.7431 33.1939 65.5609Z" fill="#BFBFBF"/>
<path d="M30.1614 65.5609C29.7801 65.3816 29.3225 65.5387 29.1393 65.9146L24.6069 75.2202C24.4229 75.5976 24.5829 76.0508 24.9635 76.2315C25.0711 76.2832 25.1839 76.3069 25.2953 76.3069C25.5802 76.3069 25.8539 76.15 25.9856 75.8791L30.5181 66.5735C30.7019 66.1961 30.5418 65.7431 30.1614 65.5609Z" fill="#BFBFBF"/>
<path d="M88.0469 80.855H32.9223C32.499 80.855 32.1567 81.1941 32.1567 81.6132C32.1567 82.0321 32.499 82.3712 32.9223 82.3712H88.0469C88.4702 82.3712 88.8125 82.0321 88.8125 81.6132C88.8125 81.1941 88.4702 80.855 88.0469 80.855Z" fill="#BFBFBF"/>
<path d="M88.0469 77.8228H32.9223C32.499 77.8228 32.1567 78.1619 32.1567 78.5808C32.1567 78.9999 32.499 79.3388 32.9223 79.3388H88.0469C88.4702 79.3388 88.8125 78.9999 88.8125 78.5808C88.8125 78.1619 88.4702 77.8228 88.0469 77.8228Z" fill="#BFBFBF"/>
<path d="M32.9216 80.8549C29.122 80.8549 26.0309 78.4743 26.0309 75.5486C26.0309 75.1296 25.6886 74.7905 25.2653 74.7905C24.8423 74.7905 24.4998 75.1296 24.4998 75.5486C24.4998 79.3106 28.2777 82.3712 32.9216 82.3712C33.3447 82.3712 33.6872 82.0321 33.6872 81.6132C33.6872 81.1941 33.3447 80.8549 32.9216 80.8549Z" fill="#BFBFBF"/>
<path d="M32.9223 77.8228C31.062 77.8228 29.0942 76.6546 29.0942 75.5486C29.0942 75.1296 28.7517 74.7905 28.3286 74.7905C27.9053 74.7905 27.563 75.1296 27.563 75.5486C27.563 77.7176 30.3922 79.3389 32.9223 79.3389C33.3454 79.3389 33.6879 79 33.6879 78.5809C33.6879 78.1619 33.3454 77.8228 32.9223 77.8228Z" fill="#BFBFBF"/>
<path d="M88.0461 77.8228C87.6228 77.8228 87.2805 78.1619 87.2805 78.5808C87.2805 78.9999 87.6228 79.3388 88.0461 79.3388C88.4679 79.3388 88.8117 79.6794 88.8117 80.097C88.8117 80.5159 88.4679 80.8549 88.0461 80.8549C87.6228 80.8549 87.2805 81.194 87.2805 81.6131C87.2805 82.032 87.6228 82.3711 88.0461 82.3711C89.3125 82.3711 90.3429 81.3509 90.3429 80.097C90.3429 78.8429 89.3125 77.8228 88.0461 77.8228Z" fill="#BFBFBF"/>
<path d="M44.1523 86.7031C44.032 86.3016 43.608 86.0737 43.2004 86.1935C42.7953 86.312 42.5642 86.7341 42.6854 87.1354C42.811 87.5557 42.8753 87.9924 42.8753 88.4352C42.8753 90.9432 40.8146 92.9836 38.2816 92.9836C35.7486 92.9836 33.6879 90.9432 33.6879 88.4352C33.6879 87.9924 33.7522 87.5559 33.8778 87.1354C33.999 86.7341 33.7679 86.312 33.3626 86.1935C32.9574 86.0753 32.532 86.3018 32.4108 86.7031C32.2419 87.2626 32.1567 87.8463 32.1567 88.4354C32.1567 91.7799 34.9043 94.4998 38.2816 94.4998C41.6587 94.4998 44.4065 91.7801 44.4065 88.4354C44.4065 87.8461 44.3213 87.2626 44.1523 86.7031Z" fill="#BFBFBF"/>
<path d="M83.9651 86.7051C83.8439 86.3038 83.4223 86.0744 83.0126 86.1927C82.6089 86.3127 82.377 86.7349 82.4967 87.1361C82.6238 87.5564 82.6866 87.9931 82.6866 88.4359C82.6866 90.9439 80.6259 92.9843 78.0929 92.9843C75.5599 92.9843 73.4992 90.9439 73.4992 88.4359C73.4992 87.9931 73.5635 87.5564 73.6906 87.1375C73.8101 86.736 73.5798 86.314 73.176 86.1941C72.7694 86.0758 72.3448 86.3023 72.2223 86.7021C72.0547 87.2616 71.968 87.8451 71.968 88.4357C71.968 91.7802 74.7164 94.5001 78.0929 94.5001C81.4694 94.5001 84.2178 91.7804 84.2178 88.4359C84.2178 87.8481 84.1326 87.2647 83.9651 86.7051Z" fill="#BFBFBF"/>
<path d="M82.1636 82.4112C81.7598 82.2777 81.3291 82.4925 81.1947 82.8893C80.1402 86.0222 78.6644 88.9717 78.1486 89.201C77.5222 88.9717 76.0462 86.0222 74.9919 82.8893C74.8571 82.4927 74.4265 82.2779 74.023 82.4112C73.6223 82.5431 73.4054 82.9723 73.5384 83.3692C74.666 86.7183 76.3707 90.7101 78.0933 90.7101C79.8159 90.7101 81.5205 86.7183 82.6481 83.3692C82.7814 82.9723 82.5645 82.5429 82.1636 82.4112Z" fill="#BFBFBF"/>
<path d="M42.2644 82.4112C41.8607 82.2777 41.4299 82.4925 41.2955 82.8893C40.241 86.0222 38.7652 88.9717 38.2494 89.201C37.623 88.9717 36.147 86.0222 35.0927 82.8893C34.9579 82.4927 34.5274 82.2779 34.1238 82.4112C33.7231 82.5431 33.5062 82.9723 33.6393 83.3692C34.7669 86.7183 36.4715 90.7101 38.1941 90.7101C39.9167 90.7101 41.6214 86.7183 42.749 83.3692C42.8822 82.9723 42.6653 82.5429 42.2644 82.4112Z" fill="#BFBFBF"/>
<ellipse cx="58.1001" cy="17.6971" rx="16.8" ry="16.6342" fill="#F3F3F3"/>
<path d="M58.1001 34.3313C61.4228 34.3313 64.6709 33.3557 67.4336 31.5279C70.1964 29.7002 72.3497 27.1023 73.6213 24.0628C74.8928 21.0233 75.2255 17.6787 74.5773 14.452C73.929 11.2253 72.329 8.26136 69.9795 5.93503C67.6299 3.6087 64.6365 2.02445 61.3776 1.38262C58.1187 0.740784 54.7408 1.0702 51.671 2.3292C48.6012 3.58819 45.9774 5.72024 44.1314 8.45571C42.2854 11.1912 41.3 14.4072 41.3 17.6971C41.3 22.1088 43.07 26.3398 46.2207 29.4593C49.3713 32.5788 53.6444 34.3313 58.1001 34.3313V34.3313ZM58.1001 2.44918C61.1459 2.44918 64.1233 3.34345 66.6558 5.01892C69.1884 6.69439 71.1622 9.0758 72.3278 11.862C73.4934 14.6482 73.7984 17.7141 73.2042 20.6719C72.61 23.6297 71.1432 26.3466 68.9895 28.4791C66.8358 30.6116 64.0918 32.0638 61.1045 32.6521C58.1171 33.2405 55.0207 32.9385 52.2067 31.7844C49.3927 30.6304 46.9876 28.676 45.2954 26.1685C43.6032 23.661 42.7 20.7129 42.7 17.6971C42.7 13.6531 44.3225 9.77475 47.2106 6.9152C50.0987 4.05565 54.0157 2.44918 58.1001 2.44918V2.44918Z" fill="#BFBFBF"/>
<path d="M63.6998 17.714C63.6998 20.5214 63.2373 22.6066 62.3125 23.9698C61.3951 25.3329 59.989 26.0145 58.0941 26.0145C56.2594 26.0145 54.8683 25.3108 53.9209 23.9035C52.9735 22.4961 52.4998 20.433 52.4998 17.714C52.4998 14.8625 52.9584 12.7625 53.8758 11.414C54.8007 10.0583 56.2068 9.38037 58.0941 9.38037C59.9364 9.38037 61.3312 10.0877 62.2786 11.5025C63.226 12.9172 63.6998 14.9877 63.6998 17.714ZM55.1841 17.714C55.1841 19.9172 55.4135 21.4903 55.8722 22.4335C56.3384 23.3766 57.079 23.8482 58.0941 23.8482C59.1092 23.8482 59.8499 23.3693 60.3161 22.4114C60.7898 21.4535 61.0267 19.8877 61.0267 17.714C61.0267 15.5477 60.7898 13.9819 60.3161 13.0167C59.8499 12.044 59.1092 11.5577 58.0941 11.5577C57.079 11.5577 56.3384 12.033 55.8722 12.9835C55.4135 13.934 55.1841 15.5109 55.1841 17.714Z" fill="#BFBFBF"/>
</svg>
