<svg width="1278" height="723" viewBox="0 0 1278 723" fill="none" xmlns="http://www.w3.org/2000/svg">
<path fill-rule="evenodd" clip-rule="evenodd" d="M801.381 0.145508H756.488L762.813 6.40747H762.408L762.408 226.43H791.021L791.021 34.3347L832.46 75.3612L832.46 297.469H861.073L861.073 103.689L901.526 143.74L901.526 368.508H930.139V172.068L971.578 213.095L971.578 440.533H1000.19V241.423L1041.63 282.45V511.572H1070.24V310.778L1111.68 351.805V584.584H1140.3V380.133L1183.71 423.114V655.623H1212.32V451.442L1251.79 490.515V723.36H1277.44V473.737H1276.91L801.381 0.145508Z" fill="white"/>
<path d="M623.95 83.4762V0H-2V723H1252V654.701H1183.67V582.953H1113.28V511.205H1042.88V439.457H972.483V368.399H902.087V296.651H833.07V225.593H763.364V154.534H693.657V83.4762H623.95Z" fill="#E1E6EA"/>
<rect x="693.343" y="155.392" width="154.904" height="28.6129" transform="rotate(-90 693.343 155.392)" fill="white"/>
</svg>
