<svg width="354" height="295" viewBox="0 0 354 295" fill="none" xmlns="http://www.w3.org/2000/svg">
<path fill-rule="evenodd" clip-rule="evenodd" d="M160.951 0H142.761L145.324 2.53759H145.159L145.159 91.6874H156.753L156.753 13.8529L173.543 30.4764L173.543 120.471H185.137L185.137 41.9545L201.528 58.1821L201.528 149.255H213.121L213.121 69.6602L229.912 86.2838L229.912 178.438H241.505V97.7619L258.296 114.385L258.296 207.222H269.889V125.863L286.68 142.487V236.805H298.273V153.965L315.863 171.38V265.589H327.457V182.858L343.448 198.69V293.035H353.842V191.892H353.627L160.951 0Z" fill="white"/>
<path d="M89.0152 33.8332V0H-1L-1.00003 295.008L343.448 293.035V265.353H315.768V236.273H287.249V207.194H258.73V178.114H230.211V149.314H201.692V120.234H173.733V91.4336H145.494V62.6334H117.254V33.8332H89.0152Z" fill="#E1E6EA"/>
<rect x="117.175" y="62.9037" width="62.7647" height="11.5935" transform="rotate(-90 117.175 62.9037)" fill="white"/>
</svg>
