<svg width="60" height="60" viewBox="0 0 60 60" fill="none" xmlns="http://www.w3.org/2000/svg">
<g filter="url(#filter0_d_365_11142)">
<path d="M45.4394 5.12589C46.057 4.75534 46.7981 4.50831 47.5392 4.50831C49.7625 4.50831 51.5534 6.29929 51.5534 8.52256C51.5534 9.26366 51.3682 10.0048 50.9976 10.6223C54.1473 14.9454 56 20.2565 56 26C56 40.3895 44.3895 52 30 52C15.6722 52 4 40.3895 4 26C4 11.6722 15.6105 0 30 0C35.8052 0.0617577 41.1164 1.97625 45.4394 5.12589Z" fill="white"/>
<path d="M48.9603 12.3517C48.528 12.537 48.0339 12.5987 47.5399 12.5987C45.3166 12.5987 43.5256 10.8078 43.5256 8.58449C43.5256 8.09043 43.6491 7.59637 43.7726 7.16407C39.9437 4.38497 35.1883 2.71751 30.0624 2.71751C17.1551 2.71751 6.65625 13.1546 6.65625 26.0619C6.65625 38.9693 17.0933 49.4063 30.0007 49.4063C42.9698 49.4681 53.4068 38.9693 53.4068 26.0619C53.4068 20.936 51.7394 16.2425 48.9603 12.3517Z" fill="#DF1122"/>
<path d="M48.9591 12.3517C48.5268 12.537 48.0327 12.5988 47.5386 12.5988C45.3154 12.5988 43.5244 10.8078 43.5244 8.58451C43.5244 8.09045 43.5862 7.59638 43.7714 7.16408C39.9425 4.38498 35.1871 2.71753 30.0612 2.71753C17.1539 2.71753 6.7168 13.1546 6.7168 26.0619C6.7168 38.9693 17.1539 49.4064 30.0612 49.4064C42.9686 49.4064 53.4056 38.9693 53.4056 26.0619C53.4056 20.9361 51.7382 16.2425 48.9591 12.3517Z" stroke="#DF1122" stroke-width="0.0622904" stroke-miterlimit="3.864"/>
<path d="M45.377 8.52249C45.377 7.28734 46.3651 6.29922 47.6002 6.29922C48.8354 6.29922 49.8235 7.28734 49.8235 8.52249C49.8235 9.75765 48.8354 10.7458 47.6002 10.7458C46.3651 10.7458 45.377 9.75765 45.377 8.52249Z" fill="#DF1122"/>
<path d="M47.5397 10.7458C48.7676 10.7458 49.763 9.75038 49.763 8.52249C49.763 7.29461 48.7676 6.29922 47.5397 6.29922C46.3118 6.29922 45.3164 7.29461 45.3164 8.52249C45.3164 9.75038 46.3118 10.7458 47.5397 10.7458Z" stroke="#DF1122" stroke-width="0.0576186" stroke-miterlimit="3.864"/>
<path d="M50.6872 20.4418L45.6848 33.6579H42.7822L44.6967 29.3349L41.2383 20.4418H44.1409L45.9936 26.1853H46.1171L47.8464 20.4418H50.6872Z" fill="#FDF737"/>
<path d="M40.8084 27.1116C40.8084 29.2114 38.5233 30.0142 36.3001 30.0142C34.1386 30.0142 31.8535 29.2114 31.8535 27.1116H34.6944C34.6944 27.7909 35.6207 27.9762 36.3001 27.9762C36.9794 27.9762 37.844 27.7909 37.844 27.1734C37.844 26.3705 36.7941 26.247 35.0649 25.8147C33.3357 25.3824 32.0388 24.5795 32.0388 22.9121C32.0388 20.8123 34.0768 20.0712 36.2383 20.0712C38.3998 20.0712 40.3761 20.8123 40.3761 22.8503H37.5352C37.5352 22.2945 36.7941 22.0475 36.2383 22.0475C35.6207 22.0475 34.9414 22.171 34.9414 22.7886C34.9414 23.5914 36.1766 23.6532 37.5352 24.0237C39.3262 24.5795 40.8084 25.2589 40.8084 27.1116Z" fill="#FDF737"/>
<path d="M27.5916 25.0733C27.5916 23.8381 26.9123 22.6647 25.3066 22.6647C23.7009 22.6647 23.2068 23.9616 23.2068 25.0733C23.2068 26.2466 23.8244 27.4818 25.4301 27.4818C27.0976 27.4818 27.5916 26.1849 27.5916 25.0733ZM30.309 29.7051H27.6534V28.6552H27.5299C27.0976 29.5816 26.1712 30.0756 24.8125 30.0756C22.4657 30.0756 20.4277 28.1611 20.4277 25.135C20.4277 22.0471 22.2805 20.1944 24.6273 20.1944C25.9242 20.1944 27.0358 20.7502 27.5299 21.5531H27.6534V20.5032H30.3707L30.309 29.7051Z" fill="#FDF737"/>
<path d="M37.7182 33.7202C30.3691 32.7321 23.0199 32.6703 11.5947 33.4732L11.7182 32.9791C23.1434 31.991 32.16 31.4352 37.0389 31.6204C39.9415 31.6822 40.8061 31.9292 40.8061 32.9791C40.8679 34.029 39.571 33.9672 37.7182 33.7202Z" fill="#FDF737"/>
<path d="M16.0412 24.0851C15.9794 23.5293 15.6706 22.4177 14.1267 22.4177C12.7062 22.4177 12.2739 23.5911 12.2122 24.0851H16.0412ZM18.882 25.0115C18.882 25.382 18.8203 25.9379 18.8203 25.9379H12.1504C12.2122 26.9877 13.015 27.7906 14.1267 27.7906C14.9295 27.7906 15.4853 27.4818 15.7324 26.926H18.635C18.388 28.2847 17.2146 30.0139 14.1884 30.0139C11.2858 30.0139 9.30957 27.7288 9.30957 25.0115C9.30957 22.2324 11.1005 20.1944 14.0032 20.1944C16.9675 20.1944 18.882 22.2324 18.882 25.0115Z" fill="#FDF737"/>
<path d="M18.3884 39.525C18.5119 39.4015 18.6971 39.278 18.8824 39.2162C19.0677 39.1545 19.253 39.0927 19.4382 39.0927C19.6235 39.0927 19.8088 39.1545 19.9941 39.2162C20.1793 39.278 20.3646 39.4015 20.4881 39.525L20.6734 39.7103L20.2411 40.1426L20.0558 39.8956C19.9941 39.8338 19.8705 39.7721 19.747 39.7103C19.6235 39.6485 19.5 39.6485 19.4382 39.6485C19.3147 39.6485 19.1912 39.6485 19.1294 39.7103C19.0059 39.7721 18.9442 39.8338 18.8207 39.8956C18.7589 39.9573 18.6971 40.0808 18.6354 40.2044C18.5736 40.3279 18.5736 40.4514 18.5736 40.5131C18.5736 40.6367 18.5736 40.7602 18.6354 40.8219C18.6971 40.9454 18.7589 41.0072 18.8207 41.1307C19.0059 41.316 19.1912 41.3777 19.4382 41.3777C19.5618 41.3777 19.6853 41.3777 19.747 41.316C19.8705 41.2542 19.9323 41.1925 20.0558 41.1307L20.2411 40.9454L20.6734 41.3777L20.4881 41.563C20.3646 41.6865 20.1793 41.8101 19.9941 41.8718C19.8088 41.9336 19.6235 41.9953 19.4382 41.9953C19.253 41.9953 19.0677 41.9336 18.8824 41.8718C18.6971 41.8101 18.5736 41.6865 18.3884 41.563C18.2648 41.4395 18.1413 41.2542 18.0796 41.069C18.0178 40.8837 17.9561 40.6984 17.9561 40.5131C17.9561 40.3279 18.0178 40.1426 18.0796 39.9573C18.1413 39.8338 18.2648 39.6485 18.3884 39.525Z" fill="white"/>
<path d="M21.724 39.8956C21.5387 40.0809 21.477 40.2662 21.477 40.5132C21.477 40.6367 21.477 40.7602 21.5387 40.8837C21.6005 40.822 21.6622 40.7602 21.7857 40.6367C21.9093 40.5132 22.0328 40.3897 22.0945 40.3279C22.218 40.2044 22.3416 40.0809 22.4651 39.9574C22.5886 39.8338 22.6503 39.7721 22.7121 39.7103C22.5268 39.6486 22.4033 39.5868 22.218 39.6486C22.0328 39.7103 21.8475 39.7721 21.724 39.8956ZM23.1444 40.9455L23.5767 41.3778L23.3914 41.5631C23.2679 41.6866 23.0827 41.8101 22.8974 41.8719C22.7121 41.9336 22.5268 41.9954 22.3416 41.9954C22.1563 41.9954 21.971 41.9336 21.7857 41.8719C21.6005 41.8101 21.477 41.6866 21.2917 41.5631C21.1682 41.4395 21.0446 41.2543 20.9829 41.069C20.9211 40.8837 20.8594 40.6985 20.8594 40.5132C20.8594 40.3279 20.9211 40.1426 20.9829 39.9574C21.0446 39.7721 21.1682 39.6486 21.2917 39.4633C21.4152 39.3398 21.6005 39.2163 21.7857 39.1545C21.971 39.0928 22.1563 39.031 22.3416 39.031C22.5268 39.031 22.7121 39.0928 22.8974 39.1545C23.0827 39.2163 23.2679 39.3398 23.3914 39.4633L23.5767 39.6486L21.971 41.2543C22.1563 41.316 22.2798 41.3778 22.4651 41.316C22.6504 41.316 22.8356 41.1925 22.9591 41.069L23.1444 40.9455Z" fill="white"/>
<path d="M23.7627 40.5131C23.7627 40.3279 23.8245 40.1426 23.8862 39.9573C23.948 39.7721 24.0715 39.6485 24.195 39.525C24.3185 39.4015 24.5038 39.278 24.6891 39.2162C24.8743 39.1545 25.0596 39.0927 25.2449 39.0927C25.4302 39.0927 25.6154 39.1545 25.8007 39.2162C25.986 39.278 26.1095 39.4015 26.2948 39.525C26.4183 39.6485 26.5418 39.8338 26.6035 39.9573C26.6653 40.1426 26.7271 40.3279 26.7271 40.5131V41.9953H26.1712V40.5131C26.1712 40.3896 26.1712 40.2661 26.1095 40.2044C26.0477 40.0808 25.986 40.0191 25.9242 39.8956C25.8625 39.8338 25.7389 39.7721 25.6154 39.7103C25.4919 39.6485 25.3684 39.6485 25.2449 39.6485C25.1214 39.6485 24.9978 39.6485 24.8743 39.7103C24.7508 39.7721 24.6891 39.8338 24.6273 39.8956C24.5655 39.9573 24.5038 40.0808 24.442 40.2044C24.3803 40.3279 24.3803 40.3896 24.3803 40.5131V41.9953H23.7627V40.5131Z" fill="white"/>
<path d="M27.2821 39.525C27.4057 39.4015 27.5909 39.278 27.7762 39.2162C27.9615 39.1545 28.1468 39.0927 28.332 39.0927C28.5173 39.0927 28.7026 39.1545 28.8878 39.2162C29.0731 39.278 29.2584 39.4015 29.3819 39.525L29.5672 39.7103L29.1349 40.1426L28.9496 39.9573C28.8879 39.8956 28.7643 39.8338 28.6408 39.772C28.5173 39.7103 28.3938 39.7103 28.332 39.7103C28.2085 39.7103 28.085 39.7103 28.0232 39.772C27.8997 39.8338 27.838 39.8956 27.7145 39.9573C27.6527 40.0191 27.5909 40.1426 27.5292 40.2661C27.4674 40.3896 27.4674 40.5131 27.4674 40.5749C27.4674 40.6984 27.4674 40.8219 27.5292 40.8837C27.5909 41.0072 27.6527 41.069 27.7145 41.1925C27.8997 41.3777 28.085 41.4395 28.332 41.4395C28.4555 41.4395 28.5791 41.4395 28.6408 41.3777C28.7643 41.316 28.8261 41.2542 28.9496 41.1925L29.1349 41.0072L29.5672 41.4395L29.3202 41.563C29.1966 41.6865 29.0114 41.8101 28.8261 41.8718C28.6408 41.9336 28.4555 41.9953 28.2703 41.9953C28.085 41.9953 27.8997 41.9336 27.7145 41.8718C27.5292 41.8101 27.4057 41.6865 27.2204 41.563C27.0969 41.4395 26.9734 41.2542 26.9116 41.069C26.8498 40.8837 26.7881 40.6984 26.7881 40.5131C26.7881 40.3279 26.8498 40.1426 26.9116 39.9573C27.0351 39.8338 27.1586 39.6485 27.2821 39.525Z" fill="white"/>
<path d="M30.3078 40.5131C30.3078 40.6367 30.3078 40.7602 30.3695 40.8837C30.4313 41.0072 30.493 41.069 30.5548 41.1925C30.6166 41.2542 30.7401 41.316 30.8636 41.3777C30.9871 41.4395 31.1106 41.4395 31.2341 41.4395C31.3577 41.4395 31.4812 41.4395 31.6047 41.3777C31.7282 41.316 31.79 41.2542 31.9135 41.1925C31.9752 41.1307 32.037 41.0072 32.0987 40.8837C32.1605 40.7602 32.1605 40.6367 32.1605 40.5131C32.1605 40.3896 32.1605 40.2661 32.0987 40.2044C32.037 40.0808 31.9752 40.0191 31.9135 39.8956C31.8517 39.8338 31.7282 39.7721 31.6047 39.7103C31.4812 39.6485 31.3577 39.6485 31.2341 39.6485C31.1106 39.6485 30.9871 39.6485 30.8636 39.7103C30.7401 39.7721 30.6783 39.8338 30.5548 39.8956C30.493 39.9573 30.4313 40.0808 30.3695 40.2044C30.3695 40.3279 30.3078 40.3896 30.3078 40.5131ZM29.752 40.5131C29.752 40.3279 29.8137 40.1426 29.8755 39.9573C29.9372 39.7721 30.0607 39.6485 30.1843 39.525C30.3078 39.4015 30.493 39.278 30.6783 39.2162C30.8636 39.1545 31.0489 39.0927 31.2341 39.0927C31.4194 39.0927 31.6047 39.1545 31.79 39.2162C31.9752 39.278 32.0987 39.4015 32.284 39.525C32.4075 39.6485 32.5311 39.8338 32.5928 39.9573C32.6546 40.1426 32.7163 40.3279 32.7163 40.5131C32.7163 40.6984 32.6546 40.8837 32.5928 41.069C32.5311 41.2542 32.4075 41.3777 32.284 41.563C32.1605 41.6865 31.9752 41.8101 31.79 41.8718C31.6047 41.9336 31.4194 41.9953 31.2341 41.9953C31.0489 41.9953 30.8636 41.9336 30.6783 41.8718C30.493 41.8101 30.3695 41.6865 30.1843 41.563C30.0607 41.4395 29.9372 41.2542 29.8755 41.069C29.8137 40.9454 29.752 40.7602 29.752 40.5131Z" fill="white"/>
<path d="M35.4346 39.0927V39.6485H33.7054C33.6437 39.6485 33.5819 39.6485 33.5202 39.7103C33.4584 39.7721 33.4584 39.8338 33.4584 39.8956C33.4584 39.9573 33.4584 40.0191 33.5202 40.0808C33.5819 40.1426 33.6437 40.1426 33.7054 40.1426H34.8788C35.0023 40.1426 35.1259 40.1426 35.1876 40.2044C35.3111 40.2661 35.3729 40.3279 35.4346 40.3896C35.4964 40.4514 35.5582 40.5749 35.6199 40.6984C35.6817 40.8219 35.6817 40.8837 35.6817 41.0072C35.6817 41.1307 35.6817 41.2542 35.6199 41.3778C35.5582 41.5013 35.4964 41.563 35.4346 41.6865C35.3729 41.7483 35.2494 41.8101 35.1876 41.8718C35.0641 41.9336 34.9406 41.9336 34.8788 41.9336H33.1496V41.3778H34.8788C34.9406 41.3778 35.0641 41.3778 35.0641 41.316C35.1259 41.2542 35.1259 41.1925 35.1259 41.1307C35.1259 41.069 35.1259 41.0072 35.0641 40.9455C35.0023 40.8837 34.9406 40.8837 34.8788 40.8837H33.7054C33.5819 40.8837 33.4584 40.8837 33.3349 40.8219C33.2114 40.7602 33.1496 40.6984 33.0878 40.6367C33.0261 40.5749 32.9643 40.4514 32.9026 40.3896C32.8408 40.2661 32.8408 40.1426 32.8408 40.0191C32.8408 39.8956 32.8408 39.7721 32.9026 39.7103C32.9643 39.5868 33.0261 39.525 33.0878 39.4015C33.1496 39.3397 33.2731 39.278 33.3349 39.2162C33.4584 39.1545 33.5819 39.1545 33.7054 39.1545H35.4346V39.0927Z" fill="white"/>
<path d="M38.8325 39.0927V40.5131C38.8325 40.6984 38.7708 40.8837 38.709 41.069C38.6473 41.2542 38.5238 41.3777 38.4002 41.563C38.2767 41.6865 38.0914 41.8101 37.9062 41.8718C37.7209 41.9336 37.5356 41.9953 37.3504 41.9953C37.1651 41.9953 36.9798 41.9336 36.7945 41.8718C36.6093 41.8101 36.4857 41.6865 36.3005 41.563C36.177 41.4395 36.0534 41.2542 35.9917 41.069C35.9299 40.8837 35.8682 40.6984 35.8682 40.5131V39.0927H36.424V40.5131C36.424 40.6367 36.424 40.7602 36.4857 40.8837C36.5475 41.0072 36.6093 41.069 36.671 41.1925C36.7328 41.2542 36.8563 41.316 36.9798 41.3777C37.1033 41.4395 37.2268 41.4395 37.3504 41.4395C37.4739 41.4395 37.5974 41.4395 37.7209 41.3777C37.8444 41.316 37.9062 41.2542 38.0297 41.1925C38.0914 41.1307 38.1532 41.0072 38.215 40.8837C38.2767 40.7602 38.2767 40.6367 38.2767 40.5131V39.0927H38.8325Z" fill="white"/>
<path d="M40.437 41.3776C40.5605 41.3776 40.6841 41.3776 40.7458 41.3159C40.8693 41.2541 40.9311 41.1924 40.9929 41.1306C41.0546 41.0689 41.1164 40.9453 41.1781 40.8218C41.2399 40.6983 41.2399 40.5748 41.2399 40.4513V39.5867H40.437C40.3135 39.5867 40.19 39.5867 40.0665 39.6484C39.943 39.7102 39.8812 39.7719 39.7577 39.8337C39.6959 39.8955 39.6342 40.019 39.5724 40.1425C39.5107 40.266 39.5107 40.3278 39.5107 40.4513C39.5107 40.5748 39.5107 40.6983 39.5724 40.8218C39.6342 40.9453 39.6959 41.0071 39.7577 41.1306C39.8195 41.1924 39.943 41.2541 40.0665 41.3159C40.19 41.3776 40.3135 41.3776 40.437 41.3776ZM41.9192 37.9192V40.513C41.9192 40.6983 41.8575 40.8836 41.7957 41.0689C41.7339 41.2541 41.6104 41.3776 41.4869 41.5629C41.3634 41.6864 41.1781 41.81 41.0546 41.8717C40.8693 41.9335 40.6841 41.9952 40.4988 41.9952C40.3135 41.9952 40.1282 41.9335 39.943 41.8717C39.7577 41.81 39.6342 41.6864 39.4489 41.5629C39.3254 41.4394 39.2019 41.2541 39.1401 41.0689C39.0784 40.8836 39.0166 40.6983 39.0166 40.513C39.0166 40.3278 39.0784 40.1425 39.1401 39.9572C39.2019 39.7719 39.3254 39.6484 39.4489 39.5249C39.5724 39.4014 39.7577 39.2779 39.943 39.2161C40.1282 39.1544 40.3135 39.0926 40.4988 39.0926H41.3634V37.9192H41.9192Z" fill="white"/>
</g>
<defs>
<filter id="filter0_d_365_11142" x="0" y="0" width="60" height="60" filterUnits="userSpaceOnUse" color-interpolation-filters="sRGB">
<feFlood flood-opacity="0" result="BackgroundImageFix"/>
<feColorMatrix in="SourceAlpha" type="matrix" values="0 0 0 0 0 0 0 0 0 0 0 0 0 0 0 0 0 0 127 0" result="hardAlpha"/>
<feOffset dy="4"/>
<feGaussianBlur stdDeviation="2"/>
<feComposite in2="hardAlpha" operator="out"/>
<feColorMatrix type="matrix" values="0 0 0 0 0 0 0 0 0 0 0 0 0 0 0 0 0 0 0.25 0"/>
<feBlend mode="normal" in2="BackgroundImageFix" result="effect1_dropShadow_365_11142"/>
<feBlend mode="normal" in="SourceGraphic" in2="effect1_dropShadow_365_11142" result="shape"/>
</filter>
</defs>
</svg>
