<svg width="512" height="422" viewBox="0 0 512 422" fill="none" xmlns="http://www.w3.org/2000/svg">
<mask id="path-1-outside-1_1644_48966" maskUnits="userSpaceOnUse" x="0.375" y="124.844" width="287" height="298" fill="black">
<rect fill="white" x="0.375" y="124.844" width="287" height="298"/>
<path fill-rule="evenodd" clip-rule="evenodd" d="M261.094 194.907L262.038 195.262L262.001 195.239C269.863 198.026 277.421 202.889 273.962 229.317L273.333 235.224C270.189 263.739 265.158 306.856 254.769 322.145C245.686 335.335 238.611 339.143 228.307 340.27L230.92 410.146H223.373L216.915 340.863H212.089L206.937 340.934H198.133L200.685 387.42H193.222L186.849 340.863H184.999L183.027 340.934H118.022L111.007 387.42H102.783L105.589 340.934H102.783L99.2517 340.863H93.507L89.5764 340.934H79.1997L75.378 340.887L68.2546 410.146H59.9339L62.7881 340.899L60.9498 340.934C49.3032 340.246 41.7565 336.771 31.9966 322.513C21.6078 307.212 16.5646 264.107 13.4202 235.592L13.1057 229.685C9.96127 203.257 17.508 198.05 25.3812 195.262L26.3245 194.907C30.7458 193.276 36.8058 191.957 40.1453 191.23C40.3775 191.18 40.5966 191.132 40.8011 191.087C42.6878 188.3 47.4045 181.349 59.051 164.66C78.2564 137.188 111.612 136.844 113.184 136.844H174.235C175.493 136.844 209.175 137.188 228.368 164.66C240.014 181.349 244.731 188.3 246.618 191.087C246.829 191.133 247.056 191.183 247.298 191.235C250.644 191.963 256.695 193.28 261.094 194.907Z"/>
</mask>
<path fill-rule="evenodd" clip-rule="evenodd" d="M261.094 194.907L262.038 195.262L262.001 195.239C269.863 198.026 277.421 202.889 273.962 229.317L273.333 235.224C270.189 263.739 265.158 306.856 254.769 322.145C245.686 335.335 238.611 339.143 228.307 340.27L230.92 410.146H223.373L216.915 340.863H212.089L206.937 340.934H198.133L200.685 387.42H193.222L186.849 340.863H184.999L183.027 340.934H118.022L111.007 387.42H102.783L105.589 340.934H102.783L99.2517 340.863H93.507L89.5764 340.934H79.1997L75.378 340.887L68.2546 410.146H59.9339L62.7881 340.899L60.9498 340.934C49.3032 340.246 41.7565 336.771 31.9966 322.513C21.6078 307.212 16.5646 264.107 13.4202 235.592L13.1057 229.685C9.96127 203.257 17.508 198.05 25.3812 195.262L26.3245 194.907C30.7458 193.276 36.8058 191.957 40.1453 191.23C40.3775 191.18 40.5966 191.132 40.8011 191.087C42.6878 188.3 47.4045 181.349 59.051 164.66C78.2564 137.188 111.612 136.844 113.184 136.844H174.235C175.493 136.844 209.175 137.188 228.368 164.66C240.014 181.349 244.731 188.3 246.618 191.087C246.829 191.133 247.056 191.183 247.298 191.235C250.644 191.963 256.695 193.28 261.094 194.907Z" fill="#B4C2CB" fill-opacity="0.5"/>
<path d="M262.038 195.262L257.859 206.34C263.509 208.472 269.859 206.009 272.594 200.624C275.329 195.24 273.573 188.66 268.519 185.354L262.038 195.262ZM261.094 194.907L265.273 183.829C265.249 183.819 265.224 183.81 265.2 183.801L261.094 194.907ZM262.001 195.239L265.958 184.08C260.309 182.076 254.053 184.611 251.392 189.982C248.731 195.353 250.504 201.866 255.52 205.147L262.001 195.239ZM273.962 229.317L262.223 227.78C262.21 227.875 262.199 227.969 262.189 228.064L273.962 229.317ZM273.333 235.224L285.102 236.522C285.104 236.507 285.105 236.492 285.107 236.477L273.333 235.224ZM254.769 322.145L264.521 328.86C264.535 328.84 264.548 328.82 264.562 328.8L254.769 322.145ZM228.307 340.27L227.02 328.5C220.847 329.175 216.244 334.506 216.476 340.712L228.307 340.27ZM230.92 410.146V421.986C234.136 421.986 237.215 420.677 239.447 418.36C241.678 416.044 242.871 412.919 242.751 409.704L230.92 410.146ZM223.373 410.146L211.584 411.245C212.152 417.332 217.26 421.986 223.373 421.986V410.146ZM216.915 340.863L228.703 339.764C228.136 333.677 223.028 329.023 216.915 329.023V340.863ZM212.089 340.863V329.023C212.035 329.023 211.98 329.024 211.926 329.024L212.089 340.863ZM206.937 340.934V352.774C206.992 352.774 207.046 352.774 207.101 352.773L206.937 340.934ZM198.133 340.934V329.094C194.88 329.094 191.77 330.433 189.534 332.795C187.298 335.157 186.132 338.335 186.311 341.583L198.133 340.934ZM200.685 387.42V399.259C203.937 399.259 207.047 397.921 209.283 395.559C211.519 393.197 212.685 390.018 212.507 386.771L200.685 387.42ZM193.222 387.42L181.492 389.025C182.295 394.889 187.304 399.259 193.222 399.259V387.42ZM186.849 340.863L198.579 339.257C197.777 333.393 192.767 329.023 186.849 329.023V340.863ZM184.999 340.863V329.023C184.856 329.023 184.714 329.026 184.571 329.031L184.999 340.863ZM183.027 340.934V352.774C183.17 352.774 183.312 352.771 183.454 352.766L183.027 340.934ZM118.022 340.934V329.094C112.165 329.094 107.188 333.376 106.314 339.168L118.022 340.934ZM111.007 387.42V399.259C116.864 399.259 121.84 394.977 122.714 389.186L111.007 387.42ZM102.783 387.42L90.9649 386.706C90.7682 389.964 91.9253 393.159 94.1626 395.535C96.4 397.912 99.5192 399.259 102.783 399.259V387.42ZM105.589 340.934L117.407 341.647C117.604 338.389 116.447 335.195 114.209 332.818C111.972 330.442 108.853 329.094 105.589 329.094V340.934ZM102.783 340.934L102.545 352.772C102.624 352.773 102.704 352.774 102.783 352.774V340.934ZM99.2517 340.863L99.4903 329.026C99.4108 329.024 99.3312 329.023 99.2517 329.023V340.863ZM93.507 340.863V329.023C93.4355 329.023 93.3641 329.024 93.2926 329.025L93.507 340.863ZM89.5764 340.934V352.774C89.6479 352.774 89.7194 352.773 89.7908 352.772L89.5764 340.934ZM79.1997 340.934L79.0527 352.773C79.1017 352.774 79.1507 352.774 79.1997 352.774V340.934ZM75.378 340.887L75.525 329.048C69.3992 328.972 64.2271 333.581 63.6003 339.675L75.378 340.887ZM68.2546 410.146V421.986C74.3245 421.986 79.4113 417.396 80.0323 411.358L68.2546 410.146ZM59.9339 410.146L48.1041 409.659C47.9713 412.881 49.1585 416.017 51.3913 418.344C53.624 420.671 56.7092 421.986 59.9339 421.986V410.146ZM62.7881 340.899L74.6179 341.386C74.7523 338.124 73.534 334.952 71.251 332.618C68.968 330.285 65.8229 328.998 62.559 329.061L62.7881 340.899ZM60.9498 340.934L60.2516 352.753C60.5604 352.772 60.8697 352.778 61.1789 352.772L60.9498 340.934ZM31.9966 322.513L22.2012 329.164C22.2097 329.176 22.2181 329.189 22.2267 329.201L31.9966 322.513ZM13.4202 235.592L1.59711 236.221C1.60899 236.444 1.6272 236.667 1.65171 236.889L13.4202 235.592ZM13.1057 229.685L24.9288 229.055C24.9151 228.798 24.893 228.541 24.8626 228.286L13.1057 229.685ZM25.3812 195.262L29.3326 206.423C29.4087 206.396 29.4845 206.369 29.56 206.34L25.3812 195.262ZM26.3245 194.907L22.2284 183.798C22.2008 183.808 22.1732 183.818 22.1457 183.829L26.3245 194.907ZM40.1453 191.23L37.6269 179.661H37.6269L40.1453 191.23ZM40.8011 191.087L43.3316 202.653C46.299 202.004 48.9035 200.239 50.6061 197.724L40.8011 191.087ZM59.051 164.66L49.3474 157.876L49.3417 157.884L59.051 164.66ZM228.368 164.66L238.077 157.884L238.073 157.879L228.368 164.66ZM246.618 191.087L236.813 197.724C238.515 200.239 241.12 202.004 244.087 202.653L246.618 191.087ZM247.298 191.235L249.815 179.666L249.815 179.666L247.298 191.235ZM266.216 184.185L265.273 183.829L256.916 205.984L257.859 206.34L266.216 184.185ZM255.52 205.147L255.556 205.171L268.519 185.354L268.483 185.33L255.52 205.147ZM285.702 230.853C287.53 216.89 286.855 206.175 282.811 198.107C278.324 189.155 270.934 185.844 265.958 184.08L258.045 206.398C260.93 207.421 261.25 207.935 261.642 208.718C262.478 210.386 263.854 215.316 262.223 227.78L285.702 230.853ZM285.107 236.477L285.736 230.57L262.189 228.064L261.56 233.971L285.107 236.477ZM264.562 328.8C268.182 323.473 270.858 316.535 272.955 309.511C275.108 302.299 276.9 294.119 278.418 285.758C281.45 269.045 283.533 250.753 285.102 236.522L261.565 233.926C259.99 248.21 257.985 265.734 255.118 281.53C253.686 289.425 252.076 296.673 250.265 302.737C248.399 308.988 246.551 313.174 244.976 315.491L264.562 328.8ZM229.594 352.04C236.007 351.338 242.292 349.685 248.476 345.64C254.455 341.73 259.525 336.115 264.521 328.86L245.018 315.431C240.931 321.365 237.921 324.249 235.516 325.822C233.317 327.261 230.911 328.075 227.02 328.5L229.594 352.04ZM242.751 409.704L240.139 339.828L216.476 340.712L219.088 410.589L242.751 409.704ZM223.373 421.986H230.92V398.306H223.373V421.986ZM205.126 341.962L211.584 411.245L235.162 409.047L228.703 339.764L205.126 341.962ZM212.089 352.703H216.915V329.023H212.089V352.703ZM207.101 352.773L212.253 352.702L211.926 329.024L206.774 329.095L207.101 352.773ZM198.133 352.774H206.937V329.094H198.133V352.774ZM212.507 386.771L209.955 340.285L186.311 341.583L188.863 388.069L212.507 386.771ZM193.222 399.259H200.685V375.58H193.222V399.259ZM175.119 342.469L181.492 389.025L204.953 385.814L198.579 339.257L175.119 342.469ZM184.999 352.703H186.849V329.023H184.999V352.703ZM183.454 352.766L185.426 352.695L184.571 329.031L182.6 329.102L183.454 352.766ZM118.022 352.774H183.027V329.094H118.022V352.774ZM122.714 389.186L129.729 342.701L106.314 339.168L99.2998 385.653L122.714 389.186ZM102.783 399.259H111.007V375.58H102.783V399.259ZM93.7707 340.221L90.9649 386.706L114.601 388.133L117.407 341.647L93.7707 340.221ZM102.783 352.774H105.589V329.094H102.783V352.774ZM99.0131 352.7L102.545 352.772L103.022 329.097L99.4903 329.026L99.0131 352.7ZM93.507 352.703H99.2517V329.023H93.507V352.703ZM89.7908 352.772L93.7214 352.701L93.2926 329.025L89.362 329.096L89.7908 352.772ZM79.1997 352.774H89.5764V329.094H79.1997V352.774ZM75.231 352.726L79.0527 352.773L79.3467 329.095L75.525 329.048L75.231 352.726ZM80.0323 411.358L87.1557 342.098L63.6003 339.675L56.4769 408.935L80.0323 411.358ZM59.9339 421.986H68.2546V398.306H59.9339V421.986ZM50.9583 340.411L48.1041 409.659L71.7637 410.634L74.6179 341.386L50.9583 340.411ZM61.1789 352.772L63.0172 352.736L62.559 329.061L60.7207 329.097L61.1789 352.772ZM22.2267 329.201C27.5916 337.038 33.0673 343.001 39.6749 346.965C46.4647 351.038 53.355 352.346 60.2516 352.753L61.648 329.115C56.898 328.834 54.1917 328.06 51.8565 326.659C49.3392 325.149 46.1616 322.245 41.7666 315.825L22.2267 329.201ZM1.65171 236.889C3.22129 251.123 5.30676 269.411 8.34261 286.124C9.86124 294.484 11.6548 302.663 13.8089 309.875C15.9073 316.9 18.5841 323.836 22.2012 329.164L41.7921 315.863C40.2148 313.539 38.3654 309.349 36.498 303.098C34.6864 297.033 33.0748 289.785 31.6409 281.891C28.7719 266.097 26.7635 248.576 25.1886 234.294L1.65171 236.889ZM1.28266 230.314L1.59711 236.221L25.2432 234.962L24.9288 229.055L1.28266 230.314ZM21.4297 184.101C16.2376 185.94 8.98777 189.385 4.52278 198.312C0.491136 206.372 -0.316649 217.086 1.34885 231.083L24.8626 228.286C23.3836 215.856 24.777 210.752 25.7009 208.905C26.1914 207.924 26.6516 207.373 29.3326 206.423L21.4297 184.101ZM22.1457 183.829L21.2024 184.185L29.56 206.34L30.5034 205.984L22.1457 183.829ZM37.6269 179.661C34.4903 180.344 27.5717 181.828 22.2284 183.798L30.4206 206.015C33.9199 204.725 39.1213 203.57 42.6637 202.799L37.6269 179.661ZM38.2706 179.521C38.0733 179.564 37.8605 179.61 37.6269 179.661L42.6637 202.799C42.8945 202.749 43.1199 202.7 43.3316 202.653L38.2706 179.521ZM49.3417 157.884C37.6678 174.612 32.9188 181.61 30.9961 184.451L50.6061 197.724C52.4568 194.989 57.1411 188.085 68.7604 171.435L49.3417 157.884ZM113.184 125.004C111.225 125.004 72.2041 125.182 49.3474 157.876L68.7547 171.443C76.4446 160.444 87.0535 154.715 96.3575 151.721C100.994 150.228 105.173 149.462 108.249 149.073C111.32 148.685 113.194 148.684 113.184 148.684V125.004ZM174.235 125.004H113.184V148.684H174.235V125.004ZM238.073 157.879C226.549 141.384 210.778 133.212 198.191 129.176C185.647 125.153 175.587 125.004 174.235 125.004V148.684C174.14 148.684 181.55 148.707 190.96 151.724C200.326 154.728 210.993 160.464 218.662 171.441L238.073 157.879ZM256.423 184.451C254.5 181.61 249.751 174.612 238.077 157.884L218.658 171.435C230.278 188.085 234.962 194.989 236.813 197.724L256.423 184.451ZM249.815 179.666C249.572 179.613 249.352 179.565 249.148 179.521L244.087 202.653C244.306 202.701 244.541 202.752 244.78 202.804L249.815 179.666ZM265.2 183.801C259.872 181.832 252.954 180.349 249.815 179.666L244.78 202.804C248.333 203.577 253.518 204.729 256.989 206.012L265.2 183.801Z" fill="white" mask="url(#path-1-outside-1_1644_48966)"/>
<mask id="path-3-outside-2_1644_48966" maskUnits="userSpaceOnUse" x="10.375" y="134.844" width="267" height="278" fill="black">
<rect fill="white" x="10.375" y="134.844" width="267" height="278"/>
<path d="M262.038 195.262L261.094 194.907C256.378 193.163 249.762 191.775 246.618 191.087C244.731 188.3 240.014 181.349 228.368 164.66C209.175 137.188 175.493 136.844 174.235 136.844H113.184C111.612 136.844 78.2564 137.188 59.051 164.66C47.4045 181.349 42.6878 188.3 40.8011 191.087C37.6567 191.775 31.0533 193.163 26.3245 194.907L25.3812 195.262C17.508 198.05 9.96127 203.257 13.1057 229.685L13.4202 235.592C16.5646 264.107 21.6078 307.212 31.9966 322.513C41.7565 336.771 49.3032 340.246 60.9498 340.934L62.7881 340.899L59.9339 410.146H68.2546L75.378 340.887L79.1997 340.934H89.5764L93.507 340.863H99.2517L102.783 340.934H105.589L102.783 387.42H111.007L118.022 340.934H183.027L184.999 340.863H186.849L193.222 387.42H200.685L198.133 340.934H206.937L212.089 340.863H216.915L223.373 410.146H230.92L228.307 340.27C238.611 339.143 245.687 335.335 254.769 322.145C265.158 306.856 270.189 263.739 273.334 235.224L273.962 229.317C277.421 202.889 269.863 198.026 262.001 195.239L262.038 195.262ZM65.9688 170.59C82.6465 146.938 112.857 146.594 113.172 146.594H173.908C174.223 146.594 204.434 146.938 221.111 170.59C231.186 185.18 236.217 192.143 238.418 195.618C234.016 198.05 230.242 202.225 228.67 209.52C227.727 213.683 227.4 221.69 226.771 231.416C226.457 235.592 226.143 241.855 225.514 249.149C224.885 248.45 223.941 247.406 222.998 246.374C214.181 237.679 195.932 237.679 195.303 237.679C194.359 237.679 191.844 237.679 188.385 237.335C180.512 236.991 167.607 236.291 156.916 236.291H129.221C118.518 236.291 105.613 236.991 97.752 237.335C94.2931 237.335 91.7655 237.679 90.8221 237.679C90.1932 237.679 71.6289 237.679 63.1267 246.374C62.4978 247.062 61.869 247.762 61.2401 248.106C60.5991 241.155 60.2967 235.248 60.2967 231.072C59.6678 221.346 59.3534 213.339 58.4101 209.164C57.1523 202.213 53.3789 198.038 48.6622 195.262C50.8634 192.131 55.9066 185.18 65.9688 170.578V170.59ZM75.4143 266.894H211.69C217.036 266.894 221.136 266.538 224.28 265.85C222.708 278.02 220.507 288.447 217.35 289.147C204.446 290.89 150.325 290.19 143.395 290.19C142.766 290.19 83.2875 291.234 69.7543 289.147C66.6098 288.791 64.4087 278.364 62.8365 265.85C65.9809 266.538 70.0808 266.894 75.4264 266.894H75.4143ZM65.9688 256.812C66.9122 255.768 67.8555 255.068 68.7988 253.681C73.5276 249.161 85.4766 247.418 90.8221 247.418C91.7655 247.418 94.5955 247.418 98.3809 247.074C106.254 246.73 119.158 246.03 129.535 246.03C135.836 246.386 141.182 246.386 142.754 246.386H156.916C167.305 246.386 180.209 247.074 188.07 247.418C191.856 247.418 194.371 247.773 195.315 247.773C200.358 247.773 212.633 249.161 217.338 254.024C218.596 255.068 219.539 256.112 220.18 257.156C218.293 257.512 215.451 257.512 211.678 257.512H75.4143C71.0121 257.512 67.8676 257.156 65.9688 256.812ZM69.3431 330.876H67.2266C53.6934 330.876 48.3357 329.832 39.2168 316.274C30.0979 303.416 25.0546 259.943 22.2246 234.216L21.5957 228.309C19.0802 207.8 23.4824 206.056 27.8847 204.669L29.1424 204.313C31.0412 203.625 32.9158 202.925 35.129 202.569C37.0157 202.569 48.0334 202.225 49.6056 211.608C50.2345 215.083 50.8755 223.078 51.1778 232.116C53.3789 270.358 55.8945 297.485 68.7988 299.217C75.7166 300.261 93.0353 300.617 109.399 300.617C124.504 300.617 138.981 300.273 142.754 300.273C144.012 300.273 159.432 300.617 176.109 300.617C192.787 300.617 211.351 300.273 218.281 299.217C231.186 297.485 233.701 270.358 235.902 232.116C236.531 223.078 236.846 215.083 237.463 211.608C239.361 202.225 250.367 202.569 251.939 202.569C254.14 203.269 256.039 203.613 257.926 204.313L259.183 204.669C263.586 206.056 268 207.8 265.484 228.309L264.856 234.216C262.013 259.943 256.982 303.404 247.851 316.274C238.732 329.832 233.375 330.876 219.842 330.876H69.3431Z"/>
</mask>
<path d="M262.038 195.262L261.094 194.907C256.378 193.163 249.762 191.775 246.618 191.087C244.731 188.3 240.014 181.349 228.368 164.66C209.175 137.188 175.493 136.844 174.235 136.844H113.184C111.612 136.844 78.2564 137.188 59.051 164.66C47.4045 181.349 42.6878 188.3 40.8011 191.087C37.6567 191.775 31.0533 193.163 26.3245 194.907L25.3812 195.262C17.508 198.05 9.96127 203.257 13.1057 229.685L13.4202 235.592C16.5646 264.107 21.6078 307.212 31.9966 322.513C41.7565 336.771 49.3032 340.246 60.9498 340.934L62.7881 340.899L59.9339 410.146H68.2546L75.378 340.887L79.1997 340.934H89.5764L93.507 340.863H99.2517L102.783 340.934H105.589L102.783 387.42H111.007L118.022 340.934H183.027L184.999 340.863H186.849L193.222 387.42H200.685L198.133 340.934H206.937L212.089 340.863H216.915L223.373 410.146H230.92L228.307 340.27C238.611 339.143 245.687 335.335 254.769 322.145C265.158 306.856 270.189 263.739 273.334 235.224L273.962 229.317C277.421 202.889 269.863 198.026 262.001 195.239L262.038 195.262ZM65.9688 170.59C82.6465 146.938 112.857 146.594 113.172 146.594H173.908C174.223 146.594 204.434 146.938 221.111 170.59C231.186 185.18 236.217 192.143 238.418 195.618C234.016 198.05 230.242 202.225 228.67 209.52C227.727 213.683 227.4 221.69 226.771 231.416C226.457 235.592 226.143 241.855 225.514 249.149C224.885 248.45 223.941 247.406 222.998 246.374C214.181 237.679 195.932 237.679 195.303 237.679C194.359 237.679 191.844 237.679 188.385 237.335C180.512 236.991 167.607 236.291 156.916 236.291H129.221C118.518 236.291 105.613 236.991 97.752 237.335C94.2931 237.335 91.7655 237.679 90.8221 237.679C90.1932 237.679 71.6289 237.679 63.1267 246.374C62.4978 247.062 61.869 247.762 61.2401 248.106C60.5991 241.155 60.2967 235.248 60.2967 231.072C59.6678 221.346 59.3534 213.339 58.4101 209.164C57.1523 202.213 53.3789 198.038 48.6622 195.262C50.8634 192.131 55.9066 185.18 65.9688 170.578V170.59ZM75.4143 266.894H211.69C217.036 266.894 221.136 266.538 224.28 265.85C222.708 278.02 220.507 288.447 217.35 289.147C204.446 290.89 150.325 290.19 143.395 290.19C142.766 290.19 83.2875 291.234 69.7543 289.147C66.6098 288.791 64.4087 278.364 62.8365 265.85C65.9809 266.538 70.0808 266.894 75.4264 266.894H75.4143ZM65.9688 256.812C66.9122 255.768 67.8555 255.068 68.7988 253.681C73.5276 249.161 85.4766 247.418 90.8221 247.418C91.7655 247.418 94.5955 247.418 98.3809 247.074C106.254 246.73 119.158 246.03 129.535 246.03C135.836 246.386 141.182 246.386 142.754 246.386H156.916C167.305 246.386 180.209 247.074 188.07 247.418C191.856 247.418 194.371 247.773 195.315 247.773C200.358 247.773 212.633 249.161 217.338 254.024C218.596 255.068 219.539 256.112 220.18 257.156C218.293 257.512 215.451 257.512 211.678 257.512H75.4143C71.0121 257.512 67.8676 257.156 65.9688 256.812ZM69.3431 330.876H67.2266C53.6934 330.876 48.3357 329.832 39.2168 316.274C30.0979 303.416 25.0546 259.943 22.2246 234.216L21.5957 228.309C19.0802 207.8 23.4824 206.056 27.8847 204.669L29.1424 204.313C31.0412 203.625 32.9158 202.925 35.129 202.569C37.0157 202.569 48.0334 202.225 49.6056 211.608C50.2345 215.083 50.8755 223.078 51.1778 232.116C53.3789 270.358 55.8945 297.485 68.7988 299.217C75.7166 300.261 93.0353 300.617 109.399 300.617C124.504 300.617 138.981 300.273 142.754 300.273C144.012 300.273 159.432 300.617 176.109 300.617C192.787 300.617 211.351 300.273 218.281 299.217C231.186 297.485 233.701 270.358 235.902 232.116C236.531 223.078 236.846 215.083 237.463 211.608C239.361 202.225 250.367 202.569 251.939 202.569C254.14 203.269 256.039 203.613 257.926 204.313L259.183 204.669C263.586 206.056 268 207.8 265.484 228.309L264.856 234.216C262.013 259.943 256.982 303.404 247.851 316.274C238.732 329.832 233.375 330.876 219.842 330.876H69.3431Z" stroke="white" stroke-width="3.9466" stroke-linejoin="round" stroke-dasharray="3.95 3.95" mask="url(#path-3-outside-2_1644_48966)"/>
<rect x="333.529" y="244.883" width="175.624" height="18.7463" fill="#6E8391" stroke="#6E8391" stroke-width="4.93325" stroke-linejoin="round"/>
<rect x="344.382" y="393.867" width="126.291" height="12.8265" transform="rotate(-90 344.382 393.867)" fill="#6E8391" stroke="#6E8391" stroke-width="4.93325" stroke-linejoin="round"/>
<rect x="485.473" y="393.867" width="126.291" height="12.8265" transform="rotate(-90 485.473 393.867)" fill="#6E8391" stroke="#6E8391" stroke-width="4.93325" stroke-linejoin="round"/>
<rect x="481.527" y="279.415" width="120.371" height="11.8398" transform="rotate(180 481.527 279.415)" fill="#8B9CA7" stroke="#8B9CA7" stroke-width="4.93325" stroke-linejoin="round"/>
<path d="M379.267 38.2789L364.372 15.5817L385.65 27.6396L379.267 38.2789Z" fill="#6E8391" stroke="#6E8391" stroke-width="0.98665" stroke-linejoin="round"/>
<path d="M457.289 233.688H384.232L391.679 242.909H449.487L457.289 233.688Z" fill="#8B9CA7"/>
<rect x="375.72" y="168.788" width="90.0798" height="12.7672" fill="#8B9CA7"/>
<path d="M395.58 234.043L384.941 181.201H456.934L445.94 234.043H395.58Z" fill="#6E8391"/>
<path d="M432.137 120.275C429.867 106.089 437.812 103.016 442.067 103.252C442.067 101.55 446.796 101.361 449.16 101.479C486.043 104.316 482.497 146.164 481.433 149.001C480.582 151.271 481.078 157.276 481.433 159.995C463.346 162.833 434.974 138.007 432.137 120.275Z" fill="#8B9CA7" stroke="#6E8391" stroke-width="0.98665" stroke-linecap="round" stroke-linejoin="round"/>
<path d="M432.847 122.758C430.837 131.979 427.733 154.231 431.705 168.417" stroke="#6E8391" stroke-width="0.98665" stroke-linecap="square" stroke-linejoin="round"/>
<path d="M442.067 103.252C443.25 107.035 447.671 116.303 455.899 123.112C466.183 131.624 471.503 142.618 472.212 145.1C472.921 147.583 476.823 158.577 481.788 159.996" stroke="#6E8391" stroke-width="0.98665" stroke-linecap="square" stroke-linejoin="round"/>
<path d="M447.742 114.246L441.491 137.655" stroke="#6E8391" stroke-width="0.98665" stroke-linecap="square" stroke-linejoin="round"/>
<path d="M444.904 108.572L471.503 111.409" stroke="#6E8391" stroke-width="0.98665" stroke-linecap="square" stroke-linejoin="round"/>
<path d="M464.41 132.333L458.735 153.258" stroke="#6E8391" stroke-width="0.98665" stroke-linecap="square" stroke-linejoin="round"/>
<path d="M458.735 125.595L480.49 130.155" stroke="#6E8391" stroke-width="0.98665" stroke-linecap="square" stroke-linejoin="round"/>
<path d="M457.317 48.2819C440.578 53.9563 435.684 73.58 435.329 82.6825C438.284 83.0372 445.259 82.8956 449.515 79.491C453.771 76.0864 460.745 75.2352 463.701 75.2352C486.753 76.6538 499.165 68.497 503.066 66.7237C506.187 65.3052 505.312 63.7682 504.485 63.177C495.737 55.8477 474.056 42.6076 457.317 48.2819Z" fill="#8B9CA7" stroke="#6E8391" stroke-width="0.98665" stroke-linecap="round" stroke-linejoin="round"/>
<path d="M401.992 56.0844C411.639 50.1264 416.178 57.1484 417.242 61.4041C428.307 57.9993 430.837 74.4078 430.719 83.0377C431.286 103.465 414.641 123.704 406.248 131.269C377.877 101.763 392.417 63.5322 401.992 56.0844Z" fill="#8B9CA7" stroke="#6E8391" stroke-width="0.98665" stroke-linecap="round" stroke-linejoin="round"/>
<path d="M417.242 61.404C411.804 74.2895 401.779 106.231 406.603 130.914" stroke="#6E8391" stroke-width="0.98665" stroke-linecap="round" stroke-linejoin="round"/>
<path d="M390.759 81.5918L414.76 66.3691" stroke="#6E8391" stroke-width="0.98665" stroke-linecap="square" stroke-linejoin="round"/>
<path d="M392.239 108.231L407.039 95.4049" stroke="#6E8391" stroke-width="0.98665" stroke-linecap="square" stroke-linejoin="round"/>
<path d="M409.012 87.5117L423.812 107.245" stroke="#6E8391" stroke-width="0.98665" stroke-linecap="square" stroke-linejoin="round"/>
<path d="M415.114 67.0787L430.364 82.3284" stroke="#6E8391" stroke-width="0.98665" stroke-linecap="square" stroke-linejoin="round"/>
<path d="M435.329 82.6826C436.511 74.4076 442.989 56.8645 459.445 52.8925C475.9 48.9204 496.564 59.5125 504.84 65.305" stroke="#6E8391" stroke-width="0.98665" stroke-linecap="round" stroke-linejoin="round"/>
<path d="M465.491 52.1549L492.491 71.1549" stroke="#6E8391" stroke-width="0.98665" stroke-linecap="square" stroke-linejoin="round"/>
<path d="M445.259 61.404L464.765 75.2352" stroke="#6E8391" stroke-width="0.98665" stroke-linecap="square" stroke-linejoin="round"/>
<path d="M459.331 48.0457L453.991 54.6546" stroke="#6E8391" stroke-width="0.98665" stroke-linecap="square" stroke-linejoin="round"/>
<path d="M477.532 53.2475L486.753 52.1836" stroke="#6E8391" stroke-width="0.98665" stroke-linecap="square" stroke-linejoin="round"/>
<path d="M350.924 59.9856C374.188 44.0975 389.934 47.9277 394.899 51.8288C403.411 59.2052 390.644 74.1715 383.551 80.9099C371.351 91.9748 349.15 98.8786 339.22 100.77C329.858 80.3424 343.121 65.0689 350.924 59.9856Z" fill="#8B9CA7"/>
<path d="M394.899 51.8288C389.934 47.9277 374.188 44.0975 350.924 59.9856C343.121 65.0689 329.858 80.3424 339.22 100.77M394.899 51.8288C403.411 59.2052 390.644 74.1715 383.551 80.9099C371.351 91.9748 349.15 98.8785 339.22 100.77M394.899 51.8288C392.062 52.5381 382.912 56.0138 369.01 64.2416C355.108 72.4693 343.358 92.0221 339.22 100.77" stroke="#6E8391" stroke-width="0.98665" stroke-linecap="round" stroke-linejoin="round"/>
<path d="M356.243 56.7941L379.295 58.2126" stroke="#6E8391" stroke-width="0.98665" stroke-linecap="round" stroke-linejoin="round"/>
<path d="M337.447 77.0085L360.144 70.9796" stroke="#6E8391" stroke-width="0.98665" stroke-linecap="round" stroke-linejoin="round"/>
<path d="M378.94 58.2124L380.359 83.3922" stroke="#6E8391" stroke-width="0.98665" stroke-linecap="round" stroke-linejoin="round"/>
<path d="M360.144 70.9796V94.3861" stroke="#6E8391" stroke-width="0.98665" stroke-linecap="round" stroke-linejoin="round"/>
<path d="M435.329 83.0376C430.246 97.2234 421.143 134.177 425.399 168.507" stroke="#6E8391" stroke-width="0.98665" stroke-linecap="square" stroke-linejoin="round"/>
<path d="M417.951 117.793V168.507" stroke="#6E8391" stroke-width="0.98665" stroke-linecap="square" stroke-linejoin="round"/>
<path d="M409.085 128.787L411.923 168.507" stroke="#6E8391" stroke-width="0.98665" stroke-linecap="square" stroke-linejoin="round"/>
<path d="M363.691 12.8178C362.556 13.6689 363.218 14.8274 363.691 15.3003L418.306 46.5091C432.846 9.98064 399.864 -0.304071 387.097 0.759864C374.33 1.8238 365.109 11.7539 363.691 12.8178Z" fill="#8B9CA7" stroke="#6E8391" stroke-width="0.98665" stroke-linecap="round" stroke-linejoin="round"/>
<path d="M373.621 5.01546C386.742 4.42438 414.05 11.8956 418.306 46.5089" stroke="#6E8391" stroke-width="0.98665" stroke-linecap="round" stroke-linejoin="round"/>
<path d="M402.347 3.24228L402.702 14.9456" stroke="#6E8391" stroke-width="0.98665" stroke-linecap="round" stroke-linejoin="round"/>
<path d="M363.691 14.9456L390.644 8.20732" stroke="#6E8391" stroke-width="0.98665" stroke-linecap="round" stroke-linejoin="round"/>
<path d="M391.708 31.2594L411.213 24.8758" stroke="#6E8391" stroke-width="0.98665" stroke-linecap="round" stroke-linejoin="round"/>
<path d="M417.952 46.0724L417.892 60.7903" stroke="#6E8391" stroke-width="0.98665" stroke-linecap="round" stroke-linejoin="round"/>
</svg>
