<svg width="235" height="188" viewBox="0 0 235 188" fill="none" xmlns="http://www.w3.org/2000/svg">
<mask id="path-1-outside-1_1721_48539" maskUnits="userSpaceOnUse" x="96.0264" y="43.9844" width="138" height="144" fill="black">
<rect fill="white" x="96.0264" y="43.9844" width="138" height="144"/>
<path fill-rule="evenodd" clip-rule="evenodd" d="M221.711 77.9241L222.165 78.0954L222.147 78.0839C225.93 79.4253 229.567 81.7655 227.903 94.4825L227.6 97.325C226.087 111.047 223.666 131.794 218.667 139.152C214.297 145.499 210.892 147.331 205.934 147.873L207.191 181.498H203.559L200.451 148.159H198.129L195.65 148.193H191.414L192.641 170.562H189.051L185.984 148.159H185.093L184.145 148.193H152.864L149.488 170.562H145.531L146.881 148.193H145.531L143.832 148.159H141.067L139.176 148.193H134.183L132.344 148.17L128.916 181.498H124.912L126.285 148.176L125.401 148.193C119.796 147.862 116.165 146.19 111.468 139.329C106.469 131.966 104.042 111.224 102.529 97.5019L102.378 94.6594C100.865 81.9424 104.496 79.4367 108.285 78.0954L108.739 77.9241C110.866 77.1396 113.782 76.5048 115.389 76.155C115.501 76.1307 115.607 76.1077 115.705 76.0862C116.613 74.7449 118.883 71.4001 124.487 63.3692C133.729 50.1499 149.779 49.9844 150.536 49.9844H179.914C180.519 49.9844 196.727 50.1499 205.963 63.3692C211.567 71.4001 213.837 74.7449 214.745 76.0862C214.846 76.1085 214.956 76.1323 215.072 76.1575C216.682 76.5079 219.594 77.1415 221.711 77.9241Z"/>
</mask>
<path fill-rule="evenodd" clip-rule="evenodd" d="M221.711 77.9241L222.165 78.0954L222.147 78.0839C225.93 79.4253 229.567 81.7655 227.903 94.4825L227.6 97.325C226.087 111.047 223.666 131.794 218.667 139.152C214.297 145.499 210.892 147.331 205.934 147.873L207.191 181.498H203.559L200.451 148.159H198.129L195.65 148.193H191.414L192.641 170.562H189.051L185.984 148.159H185.093L184.145 148.193H152.864L149.488 170.562H145.531L146.881 148.193H145.531L143.832 148.159H141.067L139.176 148.193H134.183L132.344 148.17L128.916 181.498H124.912L126.285 148.176L125.401 148.193C119.796 147.862 116.165 146.19 111.468 139.329C106.469 131.966 104.042 111.224 102.529 97.5019L102.378 94.6594C100.865 81.9424 104.496 79.4367 108.285 78.0954L108.739 77.9241C110.866 77.1396 113.782 76.5048 115.389 76.155C115.501 76.1307 115.607 76.1077 115.705 76.0862C116.613 74.7449 118.883 71.4001 124.487 63.3692C133.729 50.1499 149.779 49.9844 150.536 49.9844H179.914C180.519 49.9844 196.727 50.1499 205.963 63.3692C211.567 71.4001 213.837 74.7449 214.745 76.0862C214.846 76.1085 214.956 76.1323 215.072 76.1575C216.682 76.5079 219.594 77.1415 221.711 77.9241Z" fill="#B4C2CB" fill-opacity="0.5"/>
<path d="M222.165 78.0954L220.154 83.4261C222.873 84.4518 225.928 83.2665 227.244 80.6754C228.561 78.0842 227.715 74.9179 225.283 73.3272L222.165 78.0954ZM221.711 77.9241L223.722 72.5934C223.71 72.589 223.698 72.5846 223.686 72.5802L221.711 77.9241ZM222.147 78.0839L224.051 72.7142C221.333 71.7502 218.323 72.9701 217.042 75.5548C215.762 78.1395 216.615 81.2733 219.029 82.8521L222.147 78.0839ZM227.903 94.4825L222.254 93.7431C222.248 93.7885 222.243 93.8339 222.238 93.8793L227.903 94.4825ZM227.6 97.325L233.263 97.9495C233.264 97.9424 233.265 97.9352 233.266 97.9281L227.6 97.325ZM218.667 139.152L223.36 142.383C223.366 142.373 223.373 142.364 223.38 142.354L218.667 139.152ZM205.934 147.873L205.314 142.21C202.344 142.535 200.129 145.1 200.24 148.086L205.934 147.873ZM207.191 181.498V187.195C208.739 187.195 210.22 186.566 211.294 185.451C212.368 184.336 212.942 182.832 212.884 181.285L207.191 181.498ZM203.559 181.498L197.886 182.027C198.159 184.956 200.618 187.195 203.559 187.195V181.498ZM200.451 148.159L206.124 147.63C205.851 144.701 203.393 142.461 200.451 142.461V148.159ZM198.129 148.159V142.461C198.103 142.461 198.077 142.462 198.051 142.462L198.129 148.159ZM195.65 148.193V153.89C195.676 153.89 195.703 153.89 195.729 153.89L195.65 148.193ZM191.414 148.193V142.496C189.848 142.496 188.352 143.14 187.276 144.276C186.2 145.413 185.639 146.942 185.725 148.505L191.414 148.193ZM192.641 170.562V176.259C194.207 176.259 195.703 175.615 196.779 174.479C197.855 173.342 198.416 171.813 198.33 170.25L192.641 170.562ZM189.051 170.562L183.406 171.335C183.792 174.156 186.203 176.259 189.051 176.259V170.562ZM185.984 148.159L191.628 147.386C191.242 144.564 188.832 142.461 185.984 142.461V148.159ZM185.093 148.159V142.461C185.025 142.461 184.956 142.463 184.888 142.465L185.093 148.159ZM184.145 148.193V153.89C184.213 153.89 184.282 153.889 184.35 153.887L184.145 148.193ZM152.864 148.193V142.496C150.046 142.496 147.651 144.556 147.23 147.343L152.864 148.193ZM149.488 170.562V176.259C152.307 176.259 154.701 174.199 155.122 171.412L149.488 170.562ZM145.531 170.562L139.844 170.219C139.749 171.786 140.306 173.324 141.383 174.467C142.459 175.611 143.96 176.259 145.531 176.259V170.562ZM146.881 148.193L152.568 148.536C152.663 146.969 152.106 145.431 151.029 144.288C149.953 143.144 148.452 142.496 146.881 142.496V148.193ZM145.531 148.193L145.416 153.889C145.454 153.89 145.493 153.89 145.531 153.89V148.193ZM143.832 148.159L143.947 142.463C143.908 142.462 143.87 142.461 143.832 142.461V148.159ZM141.067 148.159V142.461C141.033 142.461 140.999 142.462 140.964 142.462L141.067 148.159ZM139.176 148.193V153.89C139.21 153.89 139.245 153.89 139.279 153.889L139.176 148.193ZM134.183 148.193L134.112 153.89C134.135 153.89 134.159 153.89 134.183 153.89V148.193ZM132.344 148.17L132.414 142.473C129.467 142.437 126.978 144.655 126.676 147.587L132.344 148.17ZM128.916 181.498V187.195C131.837 187.195 134.284 184.987 134.583 182.081L128.916 181.498ZM124.912 181.498L119.219 181.263C119.155 182.814 119.727 184.323 120.801 185.443C121.876 186.563 123.36 187.195 124.912 187.195V181.498ZM126.285 148.176L131.978 148.411C132.043 146.841 131.456 145.314 130.358 144.192C129.259 143.069 127.746 142.449 126.175 142.48L126.285 148.176ZM125.401 148.193L125.065 153.88C125.213 153.889 125.362 153.892 125.511 153.889L125.401 148.193ZM111.468 139.329L106.755 142.529C106.759 142.535 106.763 142.541 106.767 142.547L111.468 139.329ZM102.529 97.5019L96.84 97.8048C96.8457 97.9122 96.8545 98.0195 96.8663 98.1264L102.529 97.5019ZM102.378 94.6594L108.067 94.3566C108.061 94.2328 108.05 94.1093 108.035 93.9863L102.378 94.6594ZM108.285 78.0954L110.186 83.466C110.223 83.4531 110.26 83.4398 110.296 83.426L108.285 78.0954ZM108.739 77.9241L106.768 72.5786C106.755 72.5835 106.741 72.5884 106.728 72.5934L108.739 77.9241ZM115.389 76.155L116.601 81.722L116.601 81.722L115.389 76.155ZM115.705 76.0862L116.923 81.6519C118.351 81.3395 119.604 80.4902 120.423 79.2797L115.705 76.0862ZM124.487 63.3692L119.818 60.1048L119.815 60.1087L124.487 63.3692ZM205.963 63.3692L210.635 60.1087L210.633 60.1062L205.963 63.3692ZM214.745 76.0862L210.026 79.2797C210.846 80.4902 212.099 81.3395 213.527 81.6519L214.745 76.0862ZM215.072 76.1575L213.86 81.7246L213.86 81.7246L215.072 76.1575ZM224.176 72.7647L223.722 72.5934L219.7 83.2548L220.154 83.4261L224.176 72.7647ZM219.029 82.8521L219.046 82.8635L225.283 73.3272L225.266 73.3158L219.029 82.8521ZM233.552 95.2219C234.432 88.5026 234.107 83.3463 232.161 79.4643C230.002 75.1565 226.446 73.5632 224.051 72.7142L220.243 83.4537C221.632 83.946 221.786 84.1935 221.975 84.5704C222.377 85.3731 223.039 87.7454 222.254 93.7431L233.552 95.2219ZM233.266 97.9281L233.568 95.0856L222.238 93.8793L221.935 96.7218L233.266 97.9281ZM223.38 142.354C225.121 139.79 226.409 136.452 227.418 133.072C228.454 129.602 229.317 125.665 230.047 121.642C231.506 113.6 232.508 104.798 233.263 97.9495L221.937 96.7005C221.179 103.574 220.214 112.007 218.835 119.608C218.146 123.406 217.371 126.894 216.5 129.812C215.602 132.82 214.713 134.835 213.955 135.95L223.38 142.354ZM206.553 153.537C209.639 153.2 212.663 152.404 215.639 150.458C218.516 148.576 220.956 145.874 223.36 142.383L213.975 135.921C212.008 138.777 210.56 140.164 209.403 140.921C208.344 141.613 207.187 142.005 205.314 142.21L206.553 153.537ZM212.884 181.285L211.627 147.661L200.24 148.086L201.497 181.711L212.884 181.285ZM203.559 187.195H207.191V175.801H203.559V187.195ZM194.779 148.688L197.886 182.027L209.232 180.969L206.124 147.63L194.779 148.688ZM198.129 153.856H200.451V142.461H198.129V153.856ZM195.729 153.89L198.208 153.856L198.051 142.462L195.572 142.496L195.729 153.89ZM191.414 153.89H195.65V142.496H191.414V153.89ZM198.33 170.25L197.102 147.881L185.725 148.505L186.953 170.874L198.33 170.25ZM189.051 176.259H192.641V164.865H189.051V176.259ZM180.339 148.932L183.406 171.335L194.695 169.789L191.628 147.386L180.339 148.932ZM185.093 153.856H185.984V142.461H185.093V153.856ZM184.35 153.887L185.299 153.852L184.888 142.465L183.939 142.499L184.35 153.887ZM152.864 153.89H184.145V142.496H152.864V153.89ZM155.122 171.412L158.497 149.043L147.23 147.343L143.855 169.712L155.122 171.412ZM145.531 176.259H149.488V164.865H145.531V176.259ZM141.194 147.85L139.844 170.219L151.218 170.905L152.568 148.536L141.194 147.85ZM145.531 153.89H146.881V142.496H145.531V153.89ZM143.717 153.855L145.416 153.889L145.646 142.497L143.947 142.463L143.717 153.855ZM141.067 153.856H143.832V142.461H141.067V153.856ZM139.279 153.889L141.17 153.855L140.964 142.462L139.073 142.497L139.279 153.889ZM134.183 153.89H139.176V142.496H134.183V153.89ZM132.273 153.867L134.112 153.89L134.253 142.496L132.414 142.473L132.273 153.867ZM134.583 182.081L138.011 148.753L126.676 147.587L123.248 180.915L134.583 182.081ZM124.912 187.195H128.916V175.801H124.912V187.195ZM120.593 147.941L119.219 181.263L130.604 181.733L131.978 148.411L120.593 147.941ZM125.511 153.889L126.396 153.872L126.175 142.48L125.29 142.497L125.511 153.889ZM106.767 142.547C109.349 146.318 111.984 149.188 115.163 151.095C118.43 153.055 121.746 153.684 125.065 153.88L125.737 142.506C123.451 142.371 122.149 141.998 121.025 141.324C119.814 140.597 118.285 139.2 116.17 136.111L106.767 142.547ZM96.8663 98.1264C97.6216 104.976 98.6251 113.776 100.086 121.818C100.817 125.841 101.68 129.777 102.716 133.247C103.726 136.628 105.014 139.965 106.755 142.529L116.182 136.129C115.423 135.011 114.533 132.994 113.634 129.986C112.763 127.068 111.987 123.58 111.297 119.782C109.917 112.181 108.95 103.75 108.192 96.8775L96.8663 98.1264ZM96.6887 94.9623L96.84 97.8048L108.219 97.1991L108.067 94.3566L96.6887 94.9623ZM106.384 72.7247C103.885 73.6092 100.396 75.2673 98.2479 79.5628C96.3078 83.4415 95.9191 88.5968 96.7206 95.3326L108.035 93.9863C107.324 88.005 107.994 85.549 108.439 84.6602C108.675 84.1883 108.896 83.9228 110.186 83.466L106.384 72.7247ZM106.728 72.5934L106.274 72.7647L110.296 83.426L110.75 83.2548L106.728 72.5934ZM114.178 70.5881C112.668 70.9166 109.339 71.6305 106.768 72.5786L110.71 83.2697C112.394 82.6488 114.897 82.0931 116.601 81.722L114.178 70.5881ZM114.487 70.5205C114.392 70.5413 114.29 70.5636 114.178 70.5881L116.601 81.722C116.712 81.6978 116.821 81.6742 116.923 81.6519L114.487 70.5205ZM119.815 60.1087C114.197 68.1585 111.912 71.5258 110.987 72.8927L120.423 79.2797C121.314 77.964 123.568 74.6417 129.159 66.6297L119.815 60.1087ZM150.536 44.287C149.593 44.287 130.816 44.3722 119.818 60.1048L129.156 66.6336C132.857 61.3405 137.962 58.5839 142.439 57.1429C144.67 56.4248 146.681 56.0563 148.161 55.8691C149.639 55.6822 150.541 55.6817 150.536 55.6817V44.287ZM179.914 44.287H150.536V55.6817H179.914V44.287ZM210.633 60.1062C205.088 52.169 197.499 48.2367 191.441 46.2943C185.405 44.3587 180.565 44.287 179.914 44.287V55.6817C179.868 55.6817 183.434 55.6928 187.962 57.1448C192.469 58.59 197.602 61.3501 201.292 66.6322L210.633 60.1062ZM219.463 72.8927C218.538 71.5258 216.252 68.1585 210.635 60.1087L201.291 66.6297C206.882 74.6417 209.136 77.964 210.026 79.2797L219.463 72.8927ZM216.283 70.5905C216.166 70.565 216.06 70.542 215.962 70.5205L213.527 81.6519C213.633 81.675 213.745 81.6995 213.86 81.7246L216.283 70.5905ZM223.686 72.5802C221.123 71.6325 217.794 70.9192 216.283 70.5905L213.86 81.7246C215.57 82.0966 218.065 82.6506 219.735 83.268L223.686 72.5802Z" fill="white" mask="url(#path-1-outside-1_1721_48539)"/>
<mask id="path-3-outside-2_1721_48539" maskUnits="userSpaceOnUse" x="101.026" y="48.9844" width="129" height="134" fill="black">
<rect fill="white" x="101.026" y="48.9844" width="129" height="134"/>
<path d="M222.165 78.0954L221.711 77.9241C219.441 77.0851 216.258 76.4173 214.745 76.0862C213.837 74.7449 211.567 71.4001 205.963 63.3692C196.727 50.1499 180.519 49.9844 179.914 49.9844H150.536C149.779 49.9844 133.729 50.1499 124.487 63.3692C118.883 71.4001 116.613 74.7449 115.705 76.0862C114.192 76.4173 111.014 77.0851 108.739 77.9241L108.285 78.0954C104.496 79.4367 100.865 81.9424 102.378 94.6594L102.529 97.5019C104.042 111.224 106.469 131.966 111.468 139.329C116.165 146.19 119.796 147.862 125.401 148.193L126.285 148.176L124.912 181.498H128.916L132.344 148.17L134.183 148.193H139.176L141.067 148.159H143.832L145.531 148.193H146.881L145.531 170.562H149.488L152.864 148.193H184.145L185.093 148.159H185.984L189.051 170.562H192.641L191.414 148.193H195.65L198.129 148.159H200.452L203.559 181.498H207.191L205.934 147.873C210.892 147.331 214.297 145.499 218.667 139.152C223.666 131.794 226.087 111.047 227.6 97.325L227.903 94.4825C229.567 81.7655 225.93 79.4253 222.147 78.0839L222.165 78.0954ZM127.816 66.2231C135.841 54.8417 150.379 54.6762 150.53 54.6762H179.757C179.908 54.6762 194.446 54.8417 202.471 66.2231C207.319 73.2437 209.74 76.5942 210.799 78.2666C208.681 79.4367 206.865 81.4458 206.108 84.9562C205.654 86.9596 205.497 90.8124 205.195 95.4928C205.043 97.5019 204.892 100.516 204.589 104.026C204.287 103.689 203.833 103.187 203.379 102.69C199.136 98.5065 190.354 98.5065 190.052 98.5065C189.598 98.5065 188.387 98.5065 186.723 98.341C182.934 98.1755 176.725 97.8387 171.58 97.8387H158.253C153.102 97.8387 146.893 98.1755 143.11 98.341C141.446 98.341 140.229 98.5065 139.775 98.5065C139.473 98.5065 130.54 98.5065 126.448 102.69C126.146 103.021 125.843 103.358 125.54 103.524C125.232 100.179 125.086 97.3364 125.086 95.3273C124.784 90.6468 124.633 86.7941 124.179 84.7849C123.573 81.4401 121.758 79.431 119.488 78.0954C120.547 76.5885 122.974 73.2437 127.816 66.2174V66.2231ZM132.361 112.565H197.937C200.51 112.565 202.483 112.394 203.996 112.063C203.239 117.919 202.18 122.936 200.661 123.273C194.451 124.112 168.408 123.775 165.074 123.775C164.771 123.775 136.15 124.277 129.637 123.273C128.124 123.101 127.065 118.084 126.309 112.063C127.822 112.394 129.795 112.565 132.367 112.565H132.361ZM127.816 107.713C128.27 107.211 128.724 106.874 129.178 106.206C131.453 104.032 137.203 103.193 139.775 103.193C140.229 103.193 141.591 103.193 143.413 103.027C147.201 102.862 153.411 102.525 158.404 102.525C161.436 102.696 164.009 102.696 164.765 102.696H171.58C176.579 102.696 182.789 103.027 186.572 103.193C188.393 103.193 189.604 103.364 190.058 103.364C192.484 103.364 198.391 104.032 200.655 106.372C201.26 106.874 201.714 107.376 202.023 107.879C201.115 108.05 199.747 108.05 197.932 108.05H132.361C130.243 108.05 128.73 107.879 127.816 107.713ZM129.44 143.353H128.421C121.909 143.353 119.331 142.851 114.943 136.326C110.555 130.139 108.128 109.22 106.766 96.8398L106.463 93.9973C105.253 84.1285 107.371 83.2895 109.49 82.6217L110.095 82.4504C111.009 82.1194 111.911 81.7826 112.976 81.6114C113.884 81.6114 119.185 81.4458 119.942 85.9607C120.244 87.6331 120.553 91.4802 120.698 95.8295C121.758 114.232 122.968 127.285 129.178 128.119C132.507 128.621 140.84 128.792 148.714 128.792C155.983 128.792 162.949 128.627 164.765 128.627C165.37 128.627 172.79 128.792 180.816 128.792C188.841 128.792 197.774 128.627 201.109 128.119C207.319 127.285 208.529 114.232 209.588 95.8295C209.891 91.4802 210.042 87.6331 210.339 85.9607C211.253 81.4458 216.549 81.6114 217.305 81.6114C218.365 81.9481 219.278 82.1137 220.186 82.4504L220.791 82.6217C222.91 83.2895 225.034 84.1285 223.823 93.9973L223.521 96.8398C222.153 109.22 219.732 130.134 215.338 136.326C210.95 142.851 208.372 143.353 201.86 143.353H129.44Z"/>
</mask>
<path d="M222.165 78.0954L221.711 77.9241C219.441 77.0851 216.258 76.4173 214.745 76.0862C213.837 74.7449 211.567 71.4001 205.963 63.3692C196.727 50.1499 180.519 49.9844 179.914 49.9844H150.536C149.779 49.9844 133.729 50.1499 124.487 63.3692C118.883 71.4001 116.613 74.7449 115.705 76.0862C114.192 76.4173 111.014 77.0851 108.739 77.9241L108.285 78.0954C104.496 79.4367 100.865 81.9424 102.378 94.6594L102.529 97.5019C104.042 111.224 106.469 131.966 111.468 139.329C116.165 146.19 119.796 147.862 125.401 148.193L126.285 148.176L124.912 181.498H128.916L132.344 148.17L134.183 148.193H139.176L141.067 148.159H143.832L145.531 148.193H146.881L145.531 170.562H149.488L152.864 148.193H184.145L185.093 148.159H185.984L189.051 170.562H192.641L191.414 148.193H195.65L198.129 148.159H200.452L203.559 181.498H207.191L205.934 147.873C210.892 147.331 214.297 145.499 218.667 139.152C223.666 131.794 226.087 111.047 227.6 97.325L227.903 94.4825C229.567 81.7655 225.93 79.4253 222.147 78.0839L222.165 78.0954ZM127.816 66.2231C135.841 54.8417 150.379 54.6762 150.53 54.6762H179.757C179.908 54.6762 194.446 54.8417 202.471 66.2231C207.319 73.2437 209.74 76.5942 210.799 78.2666C208.681 79.4367 206.865 81.4458 206.108 84.9562C205.654 86.9596 205.497 90.8124 205.195 95.4928C205.043 97.5019 204.892 100.516 204.589 104.026C204.287 103.689 203.833 103.187 203.379 102.69C199.136 98.5065 190.354 98.5065 190.052 98.5065C189.598 98.5065 188.387 98.5065 186.723 98.341C182.934 98.1755 176.725 97.8387 171.58 97.8387H158.253C153.102 97.8387 146.893 98.1755 143.11 98.341C141.446 98.341 140.229 98.5065 139.775 98.5065C139.473 98.5065 130.54 98.5065 126.448 102.69C126.146 103.021 125.843 103.358 125.54 103.524C125.232 100.179 125.086 97.3364 125.086 95.3273C124.784 90.6468 124.633 86.7941 124.179 84.7849C123.573 81.4401 121.758 79.431 119.488 78.0954C120.547 76.5885 122.974 73.2437 127.816 66.2174V66.2231ZM132.361 112.565H197.937C200.51 112.565 202.483 112.394 203.996 112.063C203.239 117.919 202.18 122.936 200.661 123.273C194.451 124.112 168.408 123.775 165.074 123.775C164.771 123.775 136.15 124.277 129.637 123.273C128.124 123.101 127.065 118.084 126.309 112.063C127.822 112.394 129.795 112.565 132.367 112.565H132.361ZM127.816 107.713C128.27 107.211 128.724 106.874 129.178 106.206C131.453 104.032 137.203 103.193 139.775 103.193C140.229 103.193 141.591 103.193 143.413 103.027C147.201 102.862 153.411 102.525 158.404 102.525C161.436 102.696 164.009 102.696 164.765 102.696H171.58C176.579 102.696 182.789 103.027 186.572 103.193C188.393 103.193 189.604 103.364 190.058 103.364C192.484 103.364 198.391 104.032 200.655 106.372C201.26 106.874 201.714 107.376 202.023 107.879C201.115 108.05 199.747 108.05 197.932 108.05H132.361C130.243 108.05 128.73 107.879 127.816 107.713ZM129.44 143.353H128.421C121.909 143.353 119.331 142.851 114.943 136.326C110.555 130.139 108.128 109.22 106.766 96.8398L106.463 93.9973C105.253 84.1285 107.371 83.2895 109.49 82.6217L110.095 82.4504C111.009 82.1194 111.911 81.7826 112.976 81.6114C113.884 81.6114 119.185 81.4458 119.942 85.9607C120.244 87.6331 120.553 91.4802 120.698 95.8295C121.758 114.232 122.968 127.285 129.178 128.119C132.507 128.621 140.84 128.792 148.714 128.792C155.983 128.792 162.949 128.627 164.765 128.627C165.37 128.627 172.79 128.792 180.816 128.792C188.841 128.792 197.774 128.627 201.109 128.119C207.319 127.285 208.529 114.232 209.588 95.8295C209.891 91.4802 210.042 87.6331 210.339 85.9607C211.253 81.4458 216.549 81.6114 217.305 81.6114C218.365 81.9481 219.278 82.1137 220.186 82.4504L220.791 82.6217C222.91 83.2895 225.034 84.1285 223.823 93.9973L223.521 96.8398C222.153 109.22 219.732 130.134 215.338 136.326C210.95 142.851 208.372 143.353 201.86 143.353H129.44Z" stroke="white" stroke-width="1.89912" stroke-linejoin="round" stroke-dasharray="1.9 1.9" mask="url(#path-3-outside-2_1721_48539)"/>
<rect x="1.0803" y="104.658" width="75.0403" height="8.00992" fill="#6E8391" stroke="#6E8391" stroke-width="2.10787" stroke-linejoin="round"/>
<rect x="5.71751" y="168.316" width="53.9615" height="5.48047" transform="rotate(-90 5.71751 168.316)" fill="#6E8391" stroke="#6E8391" stroke-width="2.10787" stroke-linejoin="round"/>
<rect x="66.0027" y="168.316" width="53.9615" height="5.48047" transform="rotate(-90 66.0027 168.316)" fill="#6E8391" stroke="#6E8391" stroke-width="2.10787" stroke-linejoin="round"/>
<rect x="64.3167" y="119.414" width="51.4321" height="5.0589" transform="rotate(180 64.3167 119.414)" fill="#8B9CA7" stroke="#8B9CA7" stroke-width="2.10787" stroke-linejoin="round"/>
<path d="M21.0426 16.3801L14.6782 6.68201L23.7702 11.8341L21.0426 16.3801Z" fill="#6E8391" stroke="#6E8391" stroke-width="0.421574" stroke-linejoin="round"/>
<path d="M54.3797 99.8742H23.1641L26.3462 103.814H51.046L54.3797 99.8742Z" fill="#8B9CA7"/>
<rect x="19.5273" y="72.1439" width="38.4892" height="5.45516" fill="#8B9CA7"/>
<path d="M28.0133 100.026L23.4673 77.4477H54.2283L49.5308 100.026H28.0133Z" fill="#6E8391"/>
<path d="M43.6328 51.4152C42.663 45.3539 46.0573 44.0406 47.8757 44.1416C47.8757 43.4142 49.8961 43.3335 50.9063 43.384C66.6657 44.5963 65.1503 62.4771 64.6957 63.6893C64.3321 64.6591 64.5442 67.2251 64.6957 68.3868C56.9676 69.5991 44.845 58.9918 43.6328 51.4152Z" fill="#8B9CA7" stroke="#6E8391" stroke-width="0.421574" stroke-linecap="round" stroke-linejoin="round"/>
<path d="M43.9363 52.4764C43.0776 56.4163 41.7514 65.9243 43.4485 71.9856" stroke="#6E8391" stroke-width="0.421574" stroke-linecap="square" stroke-linejoin="round"/>
<path d="M47.876 44.142C48.3811 45.7583 50.2702 49.7184 53.7857 52.6278C58.1802 56.2645 60.4532 60.962 60.7562 62.0228C61.0593 63.0835 62.7261 67.781 64.8476 68.3871" stroke="#6E8391" stroke-width="0.421574" stroke-linecap="square" stroke-linejoin="round"/>
<path d="M50.3003 48.8396L47.5728 59.1438" stroke="#6E8391" stroke-width="0.421574" stroke-linecap="square" stroke-linejoin="round"/>
<path d="M49.0879 46.4144L60.4528 47.6267" stroke="#6E8391" stroke-width="0.421574" stroke-linecap="square" stroke-linejoin="round"/>
<path d="M57.4226 56.5676L54.998 65.508" stroke="#6E8391" stroke-width="0.421574" stroke-linecap="square" stroke-linejoin="round"/>
<path d="M54.998 53.6886L64.5446 55.81" stroke="#6E8391" stroke-width="0.421574" stroke-linecap="square" stroke-linejoin="round"/>
<path d="M54.3921 20.6543C47.2397 23.0788 45.1486 31.4636 44.9971 35.3529C46.2598 35.5045 49.24 35.444 51.0584 33.9893C52.8767 32.5345 55.8569 32.1709 57.1196 32.1709C66.9692 32.777 72.2729 29.2918 73.9397 28.5341C75.2732 27.928 74.8994 27.2713 74.5459 27.0187C70.8081 23.887 61.5444 18.2298 54.3921 20.6543Z" fill="#8B9CA7" stroke="#6E8391" stroke-width="0.421574" stroke-linecap="round" stroke-linejoin="round"/>
<path d="M30.7526 23.988C34.8743 21.4422 36.8139 24.4426 37.2685 26.261C41.9963 24.8062 43.0773 31.8172 43.0268 35.5045C43.2692 44.2328 36.1573 52.8802 32.571 56.1129C20.4485 43.5054 26.6612 27.1703 30.7526 23.988Z" fill="#8B9CA7" stroke="#6E8391" stroke-width="0.421574" stroke-linecap="round" stroke-linejoin="round"/>
<path d="M37.2687 26.2609C34.9452 31.7665 30.6618 45.4145 32.7227 55.9612" stroke="#6E8391" stroke-width="0.421574" stroke-linecap="round" stroke-linejoin="round"/>
<path d="M25.9531 34.8864L36.208 28.382" stroke="#6E8391" stroke-width="0.421574" stroke-linecap="square" stroke-linejoin="round"/>
<path d="M26.5854 46.2693L32.9091 40.7889" stroke="#6E8391" stroke-width="0.421574" stroke-linecap="square" stroke-linejoin="round"/>
<path d="M33.752 37.4161L40.0756 45.8476" stroke="#6E8391" stroke-width="0.421574" stroke-linecap="square" stroke-linejoin="round"/>
<path d="M36.3594 28.6856L42.8753 35.2015" stroke="#6E8391" stroke-width="0.421574" stroke-linecap="square" stroke-linejoin="round"/>
<path d="M44.9971 35.3525C45.5022 31.8167 48.2702 24.3209 55.3013 22.6237C62.3324 20.9266 71.1616 25.4523 74.6974 27.9274" stroke="#6E8391" stroke-width="0.421574" stroke-linecap="round" stroke-linejoin="round"/>
<path d="M57.7817 22.2396L69.5858 30.6711" stroke="#6E8391" stroke-width="0.421574" stroke-linecap="square" stroke-linejoin="round"/>
<path d="M49.2397 26.2609L57.574 32.1706" stroke="#6E8391" stroke-width="0.421574" stroke-linecap="square" stroke-linejoin="round"/>
<path d="M55.2524 20.5529L53.1445 23.0824" stroke="#6E8391" stroke-width="0.421574" stroke-linecap="square" stroke-linejoin="round"/>
<path d="M63.0288 22.7756L66.9686 22.321" stroke="#6E8391" stroke-width="0.421574" stroke-linecap="square" stroke-linejoin="round"/>
<path d="M8.93216 25.6546C18.8727 18.866 25.6007 20.5025 27.7222 22.1694C31.3589 25.3212 25.9038 31.7159 22.8731 34.5951C17.6604 39.3229 8.1745 42.2727 3.9316 43.0809C-0.0688536 34.3526 5.59845 27.8266 8.93216 25.6546Z" fill="#8B9CA7"/>
<path d="M27.7222 22.1694C25.6007 20.5025 18.8727 18.866 8.93216 25.6546C5.59845 27.8266 -0.0688536 34.3526 3.9316 43.0809M27.7222 22.1694C31.3589 25.3212 25.9038 31.7159 22.8731 34.5951C17.6604 39.3229 8.1745 42.2727 3.9316 43.0809M27.7222 22.1694C26.5099 22.4725 22.6004 23.9575 16.6603 27.4731C10.7202 30.9886 5.69947 39.3431 3.9316 43.0809" stroke="#6E8391" stroke-width="0.421574" stroke-linecap="round" stroke-linejoin="round"/>
<path d="M11.2051 24.2909L21.0547 24.8971" stroke="#6E8391" stroke-width="0.421574" stroke-linecap="round" stroke-linejoin="round"/>
<path d="M3.17383 32.928L12.8719 30.352" stroke="#6E8391" stroke-width="0.421574" stroke-linecap="round" stroke-linejoin="round"/>
<path d="M20.9033 24.8975L21.5094 35.6563" stroke="#6E8391" stroke-width="0.421574" stroke-linecap="round" stroke-linejoin="round"/>
<path d="M12.8721 30.352V40.3531" stroke="#6E8391" stroke-width="0.421574" stroke-linecap="round" stroke-linejoin="round"/>
<path d="M44.9966 35.5044C42.8246 41.5657 38.9353 57.3554 40.7536 72.0237" stroke="#6E8391" stroke-width="0.421574" stroke-linecap="square" stroke-linejoin="round"/>
<path d="M37.5718 50.3548V72.0239" stroke="#6E8391" stroke-width="0.421574" stroke-linecap="square" stroke-linejoin="round"/>
<path d="M33.7837 55.0519L34.9959 72.0236" stroke="#6E8391" stroke-width="0.421574" stroke-linecap="square" stroke-linejoin="round"/>
<path d="M14.3874 5.50088C13.9025 5.86455 14.1853 6.35956 14.3874 6.5616L37.7234 19.8964C43.9362 4.28862 29.8437 -0.105816 24.3885 0.348781C18.9334 0.803377 14.9935 5.04628 14.3874 5.50088Z" fill="#8B9CA7" stroke="#6E8391" stroke-width="0.421574" stroke-linecap="round" stroke-linejoin="round"/>
<path d="M18.6299 2.16747C24.2366 1.91492 35.9046 5.1072 37.7229 19.8967" stroke="#6E8391" stroke-width="0.421574" stroke-linecap="round" stroke-linejoin="round"/>
<path d="M30.9043 1.40912L31.0558 6.40968" stroke="#6E8391" stroke-width="0.421574" stroke-linecap="round" stroke-linejoin="round"/>
<path d="M14.3872 6.40994L25.9037 3.53082" stroke="#6E8391" stroke-width="0.421574" stroke-linecap="round" stroke-linejoin="round"/>
<path d="M26.3584 13.3808L34.6927 10.6532" stroke="#6E8391" stroke-width="0.421574" stroke-linecap="round" stroke-linejoin="round"/>
<path d="M37.5718 19.7098L37.5464 25.9985" stroke="#6E8391" stroke-width="0.421574" stroke-linecap="round" stroke-linejoin="round"/>
</svg>
