<svg width="69" height="39" viewBox="0 0 69 39" fill="none" xmlns="http://www.w3.org/2000/svg">
<g clip-path="url(#clip0_3506_142592)">
<g clip-path="url(#clip1_3506_142592)">
<path d="M49.7211 10.2117L48.4707 13.2219H50.9847L49.7211 10.2117Z" fill="#006FCF"/>
<path d="M6.49736 10.2114L5.26025 13.2217H7.74331L6.49736 10.2114Z" fill="#006FCF"/>
<path d="M35.195 10.6392C34.9219 10.5272 34.6264 10.4803 34.3319 10.5024H32.0879V12.1774H34.301C34.6097 12.2077 34.9208 12.1543 35.2017 12.0229C35.3242 11.9493 35.4239 11.8434 35.4899 11.7168C35.5559 11.5903 35.5856 11.448 35.5757 11.3057C35.5854 11.1695 35.5544 11.0335 35.4866 10.9149C35.4189 10.7963 35.3174 10.7003 35.195 10.6392Z" fill="#006FCF"/>
<path d="M42.9949 23.6261C42.7207 23.5127 42.4227 23.4687 42.1273 23.4981H39.8833V25.1931H42.0964C42.4055 25.2216 42.7168 25.1691 42.9993 25.0408C43.1206 24.9636 43.2193 24.8557 43.2854 24.7282C43.3514 24.6007 43.3825 24.4581 43.3755 24.3147C43.3851 24.1756 43.3542 24.0367 43.2867 23.9146C43.2192 23.7925 43.1179 23.6924 42.9949 23.6261Z" fill="#006FCF"/>
<path d="M34.1312 23.4858H31.7588V25.4081H34.1091C34.8084 25.4081 35.2444 25.0638 35.2444 24.4128C35.2444 23.7617 34.7885 23.4858 34.1312 23.4858Z" fill="#006FCF"/>
<path d="M67.7616 24.6202L67.7218 24.5827C67.8977 24.4702 68.0425 24.3155 68.1431 24.1327C68.2436 23.95 68.2966 23.745 68.2971 23.5366V21.9278C68.2966 21.7634 68.2635 21.6008 68.1999 21.4492C68.1363 21.2976 68.0434 21.16 67.9265 21.0442C67.8096 20.9284 67.6709 20.8367 67.5184 20.7744C67.366 20.712 67.2027 20.6803 67.0379 20.6808H63.3797C62.4358 20.6457 61.5092 20.9399 60.7595 21.5128C60.6749 21.2698 60.5165 21.0591 60.3063 20.91C60.0961 20.7609 59.8445 20.6808 59.5865 20.6808H55.9483C55.1007 20.6555 54.2652 20.8863 53.5515 21.3429C53.4478 21.1455 53.2924 20.9797 53.1019 20.8632C52.9114 20.7466 52.6928 20.6836 52.4693 20.6808H46.3945C46.1646 20.6827 45.9397 20.7478 45.7445 20.8689C45.5493 20.99 45.3913 21.1624 45.288 21.3672C45.2016 21.3076 45.1375 21.237 45.0467 21.1818C44.1737 20.7829 43.2138 20.6106 42.2561 20.6808H38.0512C37.8206 20.6831 37.5951 20.7491 37.3998 20.8714C37.2045 20.9937 37.0469 21.1676 36.9447 21.3738C36.0942 20.8741 35.1157 20.6332 34.1297 20.6808H28.3116C28.1383 20.68 27.9667 20.7149 27.8075 20.7832C27.6483 20.8516 27.505 20.952 27.3865 21.0781L26.0078 22.5501L24.6799 21.0935C24.5632 20.963 24.42 20.8586 24.2597 20.7875C24.0995 20.7163 23.9259 20.68 23.7504 20.6808H16.4274C16.095 20.6802 15.776 20.8112 15.5403 21.045C15.3046 21.2788 15.1716 21.5963 15.1704 21.9278V29.4799C15.1716 29.8114 15.3046 30.1288 15.5403 30.3626C15.776 30.5964 16.095 30.7274 16.4274 30.7268H23.6398C23.8131 30.7269 23.9845 30.6912 24.1433 30.6221C24.3021 30.553 24.4449 30.4519 24.5626 30.3251L25.9524 28.8354L27.2803 30.3053C27.3987 30.4369 27.5438 30.5421 27.7059 30.614C27.868 30.6859 28.0434 30.7228 28.2208 30.7224H31.7617C31.9264 30.7232 32.0896 30.6917 32.2421 30.6296C32.3945 30.5675 32.5332 30.476 32.6502 30.3604C32.7671 30.2448 32.8601 30.1073 32.9237 29.9559C32.9873 29.8044 33.0204 29.6419 33.021 29.4777V28.1844H34.0323C34.9953 28.2263 35.9518 28.0082 36.8009 27.5532V29.4732C36.8014 29.6375 36.8345 29.8 36.8981 29.9514C36.9617 30.1029 37.0547 30.2404 37.1717 30.356C37.2886 30.4716 37.4273 30.5631 37.5797 30.6252C37.7322 30.6873 37.8954 30.7188 38.0601 30.718H39.8903C40.055 30.7188 40.2182 30.6873 40.3707 30.6252C40.5231 30.5631 40.6618 30.4716 40.7787 30.356C40.8957 30.2404 40.9887 30.1029 41.0523 29.9514C41.1159 29.8 41.149 29.6375 41.1495 29.4732V27.9637H41.8356C42.0038 27.9637 42.1211 27.9637 42.2052 27.9747C42.2052 28.1094 42.2052 28.2727 42.2052 28.3786V29.4821C42.2081 29.8124 42.3419 30.1282 42.5774 30.3605C42.8128 30.5929 43.1309 30.723 43.4622 30.7224H45.2902C45.484 30.7206 45.6746 30.6721 45.8456 30.5811C46.0174 30.6704 46.2075 30.7187 46.4011 30.7224H52.4782C52.6683 30.7195 52.8552 30.6735 53.0248 30.5877C53.1942 30.6739 53.3813 30.72 53.5714 30.7224H57.1123C58.0817 30.7585 59.0384 30.4931 59.8499 29.9632C59.9464 30.1889 60.1074 30.3812 60.3129 30.5163C60.5183 30.6513 60.7591 30.723 61.0051 30.7224H64.546C67.1264 30.7224 68.6623 29.3651 68.6623 27.092C68.6895 26.6405 68.6236 26.1882 68.4686 25.7631C68.3137 25.3379 68.0731 24.949 67.7616 24.6202ZM34.0257 26.9419H31.7551V29.4755H28.2142L25.979 26.9772L23.6486 29.4755H16.4274V21.9233H23.7504L25.9945 24.3995L28.3116 21.9233H34.1297C35.5726 21.9233 37.1992 22.325 37.1992 24.415C37.1992 26.5049 35.6191 26.9441 34.0257 26.9419ZM44.0951 25.9686C44.4453 26.0913 44.7526 26.312 44.9803 26.6042C45.2319 27.017 45.3385 27.5015 45.2835 27.9814V29.4777H43.4622V28.5331C43.4622 28.0807 43.5064 27.4054 43.1656 27.0545C42.9045 26.7852 42.5017 26.7234 41.8378 26.7234H39.8925V29.4799H38.0623V21.9255H42.2671C43.0157 21.8612 43.7685 21.9833 44.4581 22.2809C44.7593 22.4404 45.008 22.6834 45.174 22.9806C45.3401 23.2778 45.4166 23.6165 45.3942 23.9559C45.4075 24.3843 45.2906 24.8066 45.0587 25.1674C44.8269 25.5282 44.4909 25.8106 44.0951 25.9775V25.9686ZM52.4715 23.4858H48.207V24.8608H52.3675V26.4056H48.207V27.9063H52.4715V29.4732H46.3967V21.9255H52.4738L52.4715 23.4858ZM57.119 29.4688H53.5781V27.8467H57.119C57.3809 27.8786 57.6453 27.8117 57.8604 27.6591C57.9301 27.597 57.9859 27.5208 58.024 27.4356C58.0621 27.3504 58.0818 27.2581 58.0817 27.1648C58.0842 27.0705 58.0657 26.9768 58.0274 26.8905C57.9891 26.8043 57.932 26.7276 57.8604 26.666C57.6713 26.5345 57.4412 26.475 57.2119 26.4983C55.5123 26.4431 53.3767 26.5513 53.3767 24.1634C53.3767 23.0599 54.0694 21.9145 55.9793 21.9145H59.6286V23.5212H56.2625C56.0108 23.4908 55.7557 23.5385 55.5322 23.658C55.4385 23.7227 55.364 23.8116 55.3167 23.915C55.2694 24.0185 55.251 24.1328 55.2635 24.2459C55.2759 24.3589 55.3188 24.4665 55.3875 24.5573C55.4563 24.648 55.5483 24.7186 55.6539 24.7615C55.8841 24.83 56.1244 24.8591 56.3643 24.8475L57.3425 24.8762C58.0864 24.8104 58.8278 25.0272 59.4183 25.4831C59.6162 25.6971 59.767 25.95 59.8611 26.2256C59.9552 26.5011 59.9906 26.7932 59.965 27.0831C59.9672 28.7185 58.9536 29.4777 57.1168 29.4688H57.119ZM64.5593 29.4688H61.0184V27.8467H64.5593C64.8213 27.8793 65.0859 27.8123 65.3007 27.6591C65.3704 27.597 65.4262 27.5208 65.4643 27.4356C65.5024 27.3504 65.5221 27.2581 65.522 27.1648C65.5245 27.0705 65.506 26.9768 65.4677 26.8905C65.4294 26.8043 65.3724 26.7276 65.3007 26.666C65.1118 26.5341 64.8816 26.4746 64.6522 26.4983C62.9504 26.4431 60.817 26.5513 60.817 24.1634C60.817 23.0599 61.5097 21.9145 63.4196 21.9145H67.0689V23.5212H63.705C63.4533 23.4908 63.1983 23.5385 62.9747 23.658C62.8816 23.7232 62.8078 23.8121 62.761 23.9155C62.7141 24.0188 62.6959 24.1329 62.7084 24.2456C62.7208 24.3584 62.7634 24.4657 62.8317 24.5565C62.8999 24.6472 62.9914 24.718 63.0965 24.7615C63.3267 24.8299 63.5669 24.859 63.8069 24.8475L64.785 24.8762C65.5304 24.8099 66.2733 25.0267 66.8653 25.4831C67.0627 25.6975 67.2132 25.9504 67.3073 26.2258C67.4014 26.5013 67.437 26.7932 67.4119 27.0831C67.4097 28.7185 66.3851 29.4777 64.5571 29.4688H64.5593Z" fill="#006FCF"/>
<path d="M62.0484 7.68219H60.185C60.0202 7.68161 59.8569 7.7134 59.7045 7.77575C59.552 7.8381 59.4133 7.92979 59.2964 8.04557C59.1795 8.16136 59.0866 8.29898 59.023 8.45058C58.9594 8.60218 58.9263 8.76478 58.9258 8.92911V9.70816L58.0604 8.28468C57.9476 8.10112 57.7895 7.9494 57.6012 7.84394C57.413 7.73849 57.2008 7.68281 56.9849 7.68219H54.2097C54.045 7.68161 53.8819 7.71342 53.7295 7.7758C53.5772 7.83817 53.4387 7.92989 53.3219 8.04571C53.2052 8.16153 53.1125 8.29916 53.0491 8.45075C52.9858 8.60233 52.953 8.76488 52.9527 8.92911V9.98843L52.2888 8.44358C52.1911 8.21905 52.0297 8.02794 51.8244 7.89381C51.6191 7.75969 51.379 7.68843 51.1336 7.68881H48.4004C48.1302 7.68834 47.867 7.77504 47.6502 7.93599C47.4322 7.77414 47.1673 7.68738 46.8956 7.68881H45.1362C43.9046 7.61055 42.6873 7.98769 41.717 8.74814C41.6746 8.45522 41.5282 8.1872 41.3044 7.9928C41.0807 7.7984 40.7944 7.69054 40.4976 7.68881H38.6386C38.405 7.69021 38.1763 7.75665 37.9785 7.88064C37.7806 8.00464 37.6214 8.18126 37.5188 8.39062C37.4483 8.32852 37.3744 8.27031 37.2975 8.21627C36.4176 7.78616 35.4366 7.60379 34.4604 7.68881H30.2688C30.045 7.69462 29.827 7.76098 29.6381 7.88082C29.4495 7.76026 29.2313 7.69383 29.0074 7.68881H22.9237C22.6803 7.69374 22.4439 7.77054 22.2443 7.90951C22.0445 7.7709 21.8082 7.69413 21.5649 7.68881H18.533C18.2868 7.68898 18.0461 7.76123 17.8407 7.89658C17.6354 8.03193 17.4744 8.22444 17.3777 8.45021L16.2956 10.9771L15.1049 8.41269C15.003 8.19649 14.8415 8.01365 14.6393 7.88549C14.4371 7.75732 14.2026 7.68911 13.963 7.68881H10.9886C10.824 7.68823 10.6608 7.72004 10.5084 7.78242C10.3561 7.84479 10.2176 7.93652 10.1008 8.05233C9.98408 8.16815 9.89137 8.30578 9.82802 8.45737C9.76466 8.60895 9.7319 8.77151 9.73161 8.93573V10.0215L9.04778 8.42814C8.94975 8.20343 8.78792 8.01224 8.58226 7.87812C8.3766 7.74401 8.13608 7.67283 7.89035 7.67337H5.1882C4.94253 7.67311 4.70213 7.7444 4.49652 7.87848C4.29091 8.01256 4.12904 8.2036 4.03077 8.42814L0.770928 15.9891C0.688664 16.1787 0.655094 16.3857 0.673255 16.5915C0.691417 16.7972 0.760736 16.9952 0.874942 17.1676C0.990243 17.3402 1.14655 17.4817 1.32996 17.5795C1.51336 17.6773 1.71817 17.7284 1.92615 17.7281H3.90462C4.15191 17.7279 4.39362 17.6548 4.5995 17.5182C4.80538 17.3816 4.96627 17.1875 5.06205 16.9601L5.44713 16.042H7.55617L7.93461 16.9535C8.03014 17.1827 8.19177 17.3785 8.39901 17.516C8.60625 17.6535 8.84976 17.7266 9.09868 17.7259H12.8056C12.9702 17.7265 13.1334 17.6947 13.2858 17.6323C13.4381 17.57 13.5766 17.4782 13.6934 17.3624C13.8101 17.2466 13.9028 17.109 13.9662 16.9574C14.0295 16.8058 14.0623 16.6432 14.0626 16.479V16.4503L14.3016 16.9866C14.4011 17.2078 14.5628 17.3955 14.767 17.5271C14.9712 17.6587 15.2092 17.7285 15.4524 17.7281H17.0458C17.2893 17.7289 17.5277 17.659 17.7321 17.5269C17.9364 17.3949 18.0978 17.2064 18.1966 16.9844L18.4378 16.4503V16.4812C18.4384 16.6453 18.4713 16.8076 18.5348 16.9589C18.5983 17.1102 18.6911 17.2476 18.8078 17.3632C18.9245 17.4788 19.0629 17.5703 19.2151 17.6325C19.3673 17.6948 19.5303 17.7265 19.6948 17.7259H21.5626C21.8058 17.72 22.042 17.6433 22.2421 17.5052C22.4419 17.6436 22.6782 17.7204 22.9215 17.7259H28.9963C29.2202 17.7209 29.4385 17.6545 29.627 17.5339C29.8159 17.6539 30.0339 17.7202 30.2578 17.7259H32.0946C32.2593 17.7265 32.4225 17.6947 32.5748 17.6323C32.7271 17.57 32.8656 17.4782 32.9824 17.3624C33.0991 17.2466 33.1919 17.109 33.2552 16.9574C33.3186 16.8058 33.3513 16.6432 33.3516 16.479V14.9783H34.0465C34.2036 14.9783 34.3165 14.9783 34.4006 14.9783C34.4006 15.1063 34.4006 15.2586 34.4006 15.3601V15.5256V16.479C34.4053 16.8088 34.5401 17.1234 34.7758 17.3548C35.0115 17.5861 35.3291 17.7155 35.6598 17.7149H37.4967C37.6941 17.7107 37.8877 17.6592 38.061 17.5648C38.2358 17.6595 38.4309 17.711 38.6298 17.7149H40.5042C40.7914 17.7133 41.0692 17.6123 41.29 17.4292C41.5108 17.246 41.6609 16.9921 41.7148 16.7107C42.6708 17.4013 43.8302 17.7547 45.01 17.7149H47.1434C47.3927 17.7143 47.6361 17.6396 47.8426 17.5005C48.0491 17.3613 48.2094 17.164 48.3031 16.9336L48.6726 16.0288H50.7706L51.1557 16.9469C51.2521 17.1745 51.4138 17.3687 51.6206 17.5049C51.8273 17.6412 52.0698 17.7135 52.3176 17.7127H56.0222C56.1869 17.7133 56.3501 17.6815 56.5024 17.6191C56.6548 17.5567 56.7933 17.465 56.91 17.3492C57.0268 17.2334 57.1195 17.0957 57.1828 16.9441C57.2462 16.7926 57.2789 16.63 57.2792 16.4658V15.274L58.3858 17.1102C58.4989 17.2945 58.6576 17.4468 58.8467 17.5523C59.0359 17.6578 59.249 17.713 59.4657 17.7127H62.044C62.2086 17.7133 62.3718 17.6815 62.5242 17.6191C62.6765 17.5567 62.815 17.465 62.9318 17.3492C63.0485 17.2334 63.1412 17.0957 63.2046 16.9441C63.2679 16.7926 63.3007 16.63 63.301 16.4658V8.92911C63.2998 8.59838 63.1674 8.28157 62.9327 8.04792C62.698 7.81426 62.38 7.68277 62.0484 7.68219ZM21.5671 16.479H19.7015V10.5667L17.0458 16.479H15.4524L12.7967 10.56V16.479H9.10089L8.40156 14.7951H4.61059L3.90462 16.479H1.92393L5.18377 8.9269H7.88813L10.9864 16.0774V8.9269H13.9608L16.3442 14.0492L18.533 8.9269H21.5671V16.479ZM28.9963 10.5004H24.7428V11.8599H28.9034V13.4048H24.7428V14.9121H28.9963V16.4746H22.9237V8.9269H28.9963V10.5004ZM36.2994 12.9744C36.6504 13.1037 36.9611 13.3229 37.2001 13.61C37.4551 14.0239 37.5619 14.5116 37.5033 14.9938V16.4746H35.6665V15.5212C35.7411 15.0129 35.6396 14.4944 35.3788 14.0514C34.9962 13.7734 34.5189 13.6575 34.0509 13.7292H32.0946V16.4746H30.271V8.92911H34.4581C35.2149 8.85263 35.9785 8.97751 36.6712 9.29104C36.9692 9.45262 37.2145 9.69619 37.3777 9.99276C37.5409 10.2893 37.6152 10.6264 37.5918 10.9639C37.6032 11.3896 37.486 11.8088 37.2556 12.1673C37.0251 12.5258 36.692 12.807 36.2994 12.9744ZM40.5042 16.479H38.6453V8.9269H40.5042V16.479ZM62.055 16.479H59.468L56.0156 10.8116V16.479H52.3087L51.5983 14.7951H47.8073L47.1235 16.479H44.9923C44.0402 16.5379 43.1003 16.2404 42.3566 15.6448C42.0021 15.2583 41.7323 14.8024 41.5643 14.3062C41.3962 13.8099 41.3337 13.2842 41.3806 12.7625C41.3392 12.2301 41.4041 11.6947 41.5716 11.1875C41.7391 10.6802 42.0059 10.2112 42.3566 9.80747C42.7343 9.48208 43.174 9.23615 43.6494 9.08446C44.1247 8.93276 44.6259 8.87842 45.1229 8.9247H46.8823V10.5424H45.1517C44.9004 10.511 44.6453 10.5341 44.4039 10.6103C44.1624 10.6865 43.9404 10.8139 43.753 10.9838C43.3718 11.4693 43.1856 12.0791 43.2307 12.6941C43.1768 13.324 43.3554 13.9519 43.7331 14.4597C44.089 14.7489 44.5437 14.889 45.0012 14.8503H45.8178L48.3894 8.91366H51.1269L54.2075 16.0553V8.9269H56.9827L60.1828 14.186V8.9269H62.0462L62.055 16.479ZM45.8023 11.7937L45.0122 13.621C44.8916 13.6233 44.7712 13.6107 44.6537 13.5835C44.5363 13.3048 44.487 13.0022 44.5099 12.7008C44.4939 12.4204 44.5432 12.1402 44.6537 11.882C44.7068 11.8312 44.7511 11.7871 45.1782 11.7871L45.8023 11.7937Z" fill="#006FCF"/>
<path d="M27.1479 25.7127L29.9453 28.7914V22.7378L27.1479 25.7127Z" fill="#006FCF"/>
<path d="M22.8109 23.4976H18.2476V24.8703H22.2443V26.4151H18.2476V27.9114H22.7113L24.7916 25.6935L22.8109 23.4976Z" fill="#006FCF"/>
</g>
</g>
<defs>
<clipPath id="clip0_3506_142592">
<rect width="68" height="38" fill="white" transform="translate(0.668457 0.668457)"/>
</clipPath>
<clipPath id="clip1_3506_142592">
<rect width="68" height="38" fill="white" transform="translate(0.668457 0.668457)"/>
</clipPath>
</defs>
</svg>
