<svg width="69" height="39" viewBox="0 0 69 39" fill="none" xmlns="http://www.w3.org/2000/svg">
<g clip-path="url(#clip0_3506_142654)">
<path d="M1.06543 5.73662V33.6351C1.06543 36.22 3.21206 38.3154 5.86007 38.3154H53.53C56.178 38.3154 58.3246 36.22 58.3246 33.6351V5.73662C58.3246 3.15172 56.178 1.05625 53.53 1.05625H5.86007C3.21206 1.05625 1.06543 3.15172 1.06543 5.73662Z" fill="#FF7D00"/>
<path d="M58.297 19.6404L55.7702 17.1768V5.09683C55.7702 4.88405 55.7272 4.67336 55.6436 4.47686C55.56 4.28035 55.4375 4.10188 55.2831 3.95169C55.1287 3.8015 54.9454 3.68254 54.7438 3.60164C54.5422 3.52074 54.3262 3.47948 54.1083 3.48023L5.20294 3.54053C4.98522 3.54053 4.76963 3.58244 4.56851 3.66386C4.3674 3.74528 4.1847 3.86462 4.03089 4.01504C3.87707 4.16546 3.75514 4.34401 3.67209 4.54047C3.58904 4.73694 3.54649 4.94746 3.54688 5.16L3.57629 34.2501C3.57707 34.6791 3.7522 35.0903 4.06324 35.3933C4.37428 35.6964 4.79581 35.8667 5.2353 35.8667L54.1318 35.8207C54.5716 35.8192 54.9928 35.6476 55.3032 35.3435C55.6136 35.0394 55.7879 34.6277 55.7879 34.1984V22.1385L58.297 19.6404Z" fill="white"/>
<path d="M20.734 17.0503C20.7317 16.8903 20.7625 16.7315 20.8247 16.5835C20.8869 16.4355 20.9791 16.3012 21.0958 16.1889C21.2114 16.0775 21.347 15.988 21.4959 15.9247C21.6527 15.8601 21.8212 15.8267 21.9915 15.8267C22.1618 15.8267 22.3303 15.8601 22.4871 15.9247C22.637 15.986 22.7722 16.077 22.8842 16.1918C23.0013 16.3027 23.0926 16.4368 23.1519 16.5852C23.2209 16.7309 23.256 16.8898 23.2549 17.0503V19.3474H24.3579V17.036C24.3583 16.7298 24.2943 16.4268 24.1697 16.1458C23.9246 15.5963 23.473 15.1595 22.9078 14.9255C22.6183 14.8041 22.3066 14.7415 21.9915 14.7415C21.6764 14.7415 21.3647 14.8041 21.0752 14.9255C20.6466 15.0977 20.2808 15.3914 20.0249 15.7686C19.769 16.1459 19.6349 16.5893 19.6398 17.0417V19.3388H20.737L20.734 17.0503Z" fill="#0573BC"/>
<path d="M18.9512 15.4334C18.7288 15.2134 18.4611 15.0421 18.1658 14.9309C17.6006 14.7031 16.9661 14.7031 16.4009 14.9309C16.1068 15.0412 15.8408 15.2126 15.6214 15.4334C15.3978 15.6479 15.2234 15.9063 15.1096 16.1914C14.995 16.4648 14.9361 16.7574 14.936 17.0528C14.9401 17.3478 14.9989 17.6397 15.1096 17.9142C15.2266 18.1967 15.4 18.4536 15.6196 18.67C15.8393 18.8864 16.1009 19.058 16.3891 19.1748C16.9684 19.4082 17.6188 19.4082 18.1982 19.1748C18.4866 19.0588 18.7486 18.888 18.9688 18.6723L19.3483 18.2933L18.557 17.5525L18.1746 17.9257C17.9883 18.1156 17.7435 18.2406 17.4775 18.2818C17.4168 18.2859 17.3558 18.2859 17.2951 18.2818C17.1483 18.2817 17.0028 18.2554 16.8657 18.2043L19.3336 15.7923L18.9512 15.4334ZM17.3981 16.1742L16.092 17.4548C16.0404 17.3258 16.0144 17.1884 16.0156 17.05C16.0176 16.7583 16.1249 16.4766 16.3186 16.2545C16.5122 16.0324 16.7799 15.884 17.0745 15.8354C17.1378 15.8262 17.2017 15.8214 17.2657 15.821C17.411 15.8217 17.5551 15.846 17.6922 15.8928C17.6157 15.9789 17.5157 16.0708 17.3981 16.1742Z" fill="#0573BC"/>
<path d="M11.6835 16.1963C11.805 16.0825 11.9465 15.991 12.1012 15.9264C12.4052 15.8072 12.7445 15.8072 13.0484 15.9264C13.2069 15.9936 13.3499 16.0913 13.469 16.2135L13.8691 16.5868L14.6339 15.8259L14.2485 15.4526C14.0247 15.2323 13.7562 15.0602 13.4602 14.9472C12.8951 14.7194 12.2605 14.7194 11.6953 14.9472C11.4024 15.0611 11.1369 15.2332 10.9158 15.4526C10.691 15.6661 10.5163 15.9247 10.404 16.2106C10.2944 16.4853 10.2376 16.7773 10.2363 17.0721C10.2364 17.3669 10.2933 17.6591 10.404 17.9335C10.52 18.2182 10.6953 18.4763 10.9188 18.6915C11.1427 18.9111 11.4085 19.0857 11.7012 19.2055C11.9829 19.3111 12.2819 19.3656 12.5836 19.3663C12.8858 19.3676 13.1854 19.312 13.4661 19.2026C13.7619 19.0837 14.0307 18.909 14.2574 18.6887L14.6427 18.3125L13.875 17.5545L13.472 17.9306C13.3618 18.055 13.224 18.1532 13.069 18.2177C12.9148 18.2787 12.75 18.3099 12.5836 18.3096C12.3314 18.3084 12.0851 18.2345 11.8757 18.0971C11.6664 17.9596 11.5033 17.7649 11.407 17.5372C11.3459 17.3902 11.313 17.2335 11.31 17.0749C11.3107 16.9152 11.3437 16.7571 11.407 16.6098C11.4657 16.4532 11.5603 16.3117 11.6835 16.1963Z" fill="#0573BC"/>
<path d="M35.8956 15.812H38.7224V14.7381H35.8985C35.6961 14.7364 35.4956 14.7765 35.3102 14.8558C35.1434 14.9237 34.9908 15.0211 34.8602 15.143C34.73 15.2752 34.6262 15.4301 34.5543 15.5995C34.4804 15.7743 34.4434 15.9618 34.4454 16.1508C34.443 16.3473 34.48 16.5424 34.5543 16.7251C34.6347 16.8902 34.7419 17.0415 34.8719 17.173C35.0017 17.3011 35.1542 17.4052 35.322 17.4803C35.5095 17.5516 35.7091 17.5877 35.9103 17.5865H37.7164C37.7645 17.5846 37.8125 17.5923 37.8575 17.6091C37.9025 17.6259 37.9436 17.6514 37.9782 17.6841C38.0114 17.7158 38.0374 17.7538 38.0546 17.7958C38.0718 17.8379 38.0799 17.883 38.0782 17.9282C38.0804 17.9748 38.0726 18.0213 38.0554 18.0648C38.0382 18.1083 38.0119 18.1479 37.9782 18.1809C37.9075 18.2459 37.8134 18.281 37.7164 18.2785H34.9014V19.3524H37.7164C37.9099 19.3533 38.1018 19.3172 38.2811 19.2462C38.4533 19.1727 38.6099 19.0685 38.743 18.9389C38.8773 18.8055 38.9815 18.6461 39.0489 18.4709C39.1278 18.2953 39.1678 18.1055 39.1665 17.9138C39.1679 17.7249 39.1278 17.5379 39.0489 17.3654C38.9806 17.1913 38.8718 17.035 38.7312 16.9089C38.6009 16.781 38.4432 16.6829 38.2694 16.6217C38.0929 16.5404 37.8998 16.4991 37.7046 16.5011H35.8985C35.8522 16.503 35.8059 16.4952 35.7628 16.4784C35.7197 16.4616 35.6808 16.436 35.6485 16.4035C35.6144 16.37 35.5878 16.33 35.5701 16.2861C35.5524 16.2421 35.544 16.1951 35.5455 16.1479C35.5446 16.1035 35.5526 16.0592 35.5693 16.0178C35.586 15.9764 35.6109 15.9387 35.6426 15.9067C35.6757 15.8746 35.7153 15.8496 35.7589 15.8333C35.8024 15.817 35.849 15.8097 35.8956 15.812Z" fill="#0573BC"/>
<path d="M26.1485 16.1738C26.2705 16.0606 26.4119 15.9693 26.5662 15.9039C26.7969 15.8127 27.0499 15.7899 27.2937 15.8385C27.5376 15.887 27.7613 16.0046 27.937 16.1767L28.3341 16.55L29.0959 15.789L28.7135 15.4158C28.4909 15.1948 28.222 15.0234 27.9252 14.9133C27.6455 14.8 27.3456 14.7417 27.0427 14.7417C26.7399 14.7417 26.44 14.8 26.1603 14.9133C25.8635 15.0271 25.5955 15.2025 25.3749 15.4272C25.1515 15.6386 24.9753 15.8928 24.8572 16.1738C24.6348 16.7276 24.6348 17.3429 24.8572 17.8966C24.9716 18.1905 25.148 18.4575 25.3749 18.6805C25.5931 18.8977 25.8543 19.0692 26.1425 19.1847C26.4307 19.3002 26.74 19.3573 27.0516 19.3524C27.3538 19.3537 27.6534 19.2981 27.934 19.1888C28.2295 19.0709 28.4976 18.8961 28.7223 18.6748L29.1047 18.2986L28.3399 17.5406L27.9428 17.9167C27.8311 18.042 27.6911 18.1402 27.534 18.2039C27.3816 18.2641 27.2189 18.2953 27.0545 18.2958C26.8897 18.2974 26.7262 18.2659 26.5744 18.2031C26.4226 18.1404 26.2856 18.0478 26.1721 17.9311C26.0547 17.8188 25.9614 17.6848 25.8977 17.5369C25.8341 17.389 25.8013 17.2301 25.8013 17.0697C25.8013 16.9092 25.8341 16.7504 25.8977 16.6025C25.9614 16.4546 26.0547 16.3206 26.1721 16.2083L26.1485 16.1738Z" fill="#0573BC"/>
<path d="M43.1289 17.0352C43.1291 17.2012 43.094 17.3654 43.0259 17.5175C42.9671 17.6687 42.8759 17.8057 42.7582 17.9195C42.6442 18.0306 42.5094 18.1193 42.3611 18.1808C42.044 18.3001 41.6928 18.3001 41.3757 18.1808C41.2294 18.1131 41.0945 18.024 40.9757 17.9167C40.8626 17.7987 40.7711 17.6628 40.7051 17.5147C40.6404 17.3618 40.6083 17.1977 40.6109 17.0323V14.738H39.4961V17.0352C39.4949 17.3427 39.5569 17.6473 39.6785 17.931C39.7996 18.2044 39.97 18.4543 40.1815 18.669C40.4078 18.8827 40.6745 19.0514 40.9669 19.1657C41.5523 19.3992 42.2081 19.3992 42.7935 19.1657C43.0747 19.0444 43.3308 18.8741 43.5495 18.6632C43.7651 18.4518 43.936 18.2011 44.0525 17.9253C44.1749 17.6439 44.236 17.3408 44.2319 17.0352V14.738H43.1289V17.0352Z" fill="#0573BC"/>
<path d="M48.1849 12.9612V14.7386H46.9318C46.6171 14.7374 46.3056 14.8 46.017 14.9223C45.7328 15.0359 45.4748 15.2039 45.2581 15.4162C45.0398 15.6257 44.8651 15.8743 44.7433 16.1484C44.5022 16.7195 44.5022 17.3605 44.7433 17.9316C44.8679 18.2058 45.0423 18.4558 45.2581 18.6695C45.4758 18.8821 45.7335 19.0517 46.017 19.1691C46.3066 19.2874 46.6178 19.347 46.9318 19.3443C47.2455 19.3447 47.5563 19.2852 47.8466 19.1691C48.1267 19.0505 48.3804 18.8799 48.5937 18.6666C48.8088 18.4554 48.9787 18.2045 49.0938 17.9287C49.22 17.6462 49.2841 17.341 49.282 17.0328V12.9612H48.1849ZM48.1849 17.0242C48.1855 17.1915 48.1494 17.357 48.079 17.5095C48.0187 17.6576 47.9285 17.7924 47.8138 17.9059C47.6991 18.0194 47.5622 18.1091 47.4112 18.1699C47.0982 18.2892 46.7506 18.2892 46.4376 18.1699C46.2874 18.104 46.1485 18.0158 46.0258 17.9086C45.9128 17.7895 45.8213 17.6526 45.7552 17.5037C45.6987 17.354 45.6718 17.1952 45.6758 17.0357C45.6733 16.8753 45.7043 16.716 45.7669 16.5676C45.8278 16.4215 45.9166 16.2879 46.0287 16.1743C46.2718 15.9443 46.5963 15.8148 46.9347 15.8125H48.1878L48.1849 17.0242Z" fill="#0573BC"/>
<path d="M30.8433 19.1772C31.1325 19.2932 31.4425 19.3517 31.7552 19.3495C32.0699 19.3508 32.3818 19.2912 32.6729 19.1743C32.9519 19.0522 33.206 18.882 33.423 18.6718C33.6381 18.46 33.809 18.2094 33.926 17.9339C34.0557 17.6514 34.1199 17.3446 34.1142 17.0351C34.1117 16.5839 33.9731 16.1434 33.7158 15.7686C33.4584 15.3938 33.0936 15.1012 32.667 14.9275C32.2342 14.75 31.7572 14.7019 31.2964 14.7893C30.8356 14.8767 30.4117 15.0957 30.0785 15.4185C29.8639 15.6292 29.6923 15.8776 29.5726 16.1507C29.4553 16.4334 29.3963 16.7359 29.399 17.0409C29.3973 17.3479 29.4573 17.6522 29.5755 17.9367C29.6983 18.2106 29.8707 18.4606 30.0844 18.6747C30.3028 18.8873 30.5602 19.0577 30.8433 19.1772ZM30.5786 16.5728C30.6433 16.4273 30.7339 16.2941 30.8462 16.1795C30.965 16.0666 31.1048 15.9769 31.258 15.9153C31.4135 15.8511 31.5805 15.8179 31.7493 15.8177C31.919 15.8179 32.087 15.8511 32.2434 15.9153C32.3941 15.9754 32.5303 16.0653 32.6435 16.1795C32.7628 16.2902 32.8552 16.4256 32.9141 16.5757C32.9841 16.7195 33.0221 16.876 33.0259 17.0351C33.0271 17.2019 32.9931 17.3671 32.9259 17.5204C32.8642 17.6699 32.7721 17.8057 32.6553 17.9195C32.542 18.0315 32.407 18.1204 32.2582 18.1808C31.9379 18.3039 31.582 18.305 31.261 18.1837C31.1109 18.1191 30.9728 18.0308 30.8521 17.9224C30.7398 17.8033 30.6474 17.6676 30.5786 17.5204C30.5179 17.3655 30.487 17.201 30.4874 17.0351C30.4863 16.8767 30.5173 16.7196 30.5786 16.5728Z" fill="#0573BC"/>
<path d="M10.4098 25.1066C10.8256 25.318 11.2883 25.4265 11.757 25.4225C12.1718 25.4225 12.566 25.3392 12.566 24.9545C12.566 24.0615 10.2451 24.6271 10.2451 22.8842C10.2451 21.7356 11.3952 21.4169 12.3806 21.414C12.8091 21.4097 13.2357 21.4698 13.6455 21.5921L13.5602 22.5798C13.2173 22.4327 12.8463 22.3584 12.4718 22.3616C12.1424 22.3616 11.5894 22.3903 11.5894 22.8095C11.5953 23.5848 13.9014 23.0651 13.9014 24.7879C13.9014 26.0312 12.8366 26.3672 11.7482 26.3672C11.2503 26.3711 10.7546 26.3024 10.2775 26.1633L10.4098 25.1066Z" fill="#FC142B"/>
<path d="M17.4326 23.7285C17.2019 23.5909 16.9351 23.5221 16.6649 23.5304C16.5329 23.5264 16.4015 23.5496 16.2793 23.5984C16.1571 23.6472 16.0468 23.7206 15.9555 23.8137C15.8642 23.9069 15.794 24.0178 15.7495 24.1391C15.705 24.2605 15.6872 24.3896 15.6971 24.5182C15.6997 24.6474 15.7289 24.7748 15.7832 24.8927C15.8374 25.0106 15.9155 25.1166 16.0128 25.2043C16.11 25.292 16.2245 25.3596 16.3492 25.403C16.4739 25.4465 16.6063 25.4649 16.7384 25.4571C17.0106 25.4622 17.28 25.4031 17.5238 25.2848L17.5532 26.2066C17.2192 26.3097 16.8711 26.363 16.5208 26.3645C15.3118 26.3645 14.3911 25.6811 14.3911 24.501C14.3911 23.3208 15.3089 22.6259 16.5178 22.6259C16.8633 22.6161 17.2065 22.6839 17.5209 22.8241L17.4326 23.7285Z" fill="#FC142B"/>
<path d="M17.8857 24.5012C17.8857 23.3125 18.8035 22.6262 20.0124 22.6262C21.2214 22.6262 22.1421 23.3067 22.1421 24.5012C22.1421 25.6957 21.2243 26.3676 20.0154 26.3705C18.8064 26.3734 17.8857 25.6756 17.8857 24.5012ZM20.8272 24.5012C20.8272 23.9643 20.589 23.4934 20.0036 23.4934C19.4183 23.4934 19.2006 23.9614 19.2006 24.5012C19.2006 25.0411 19.4418 25.5034 20.0242 25.5034C20.6066 25.5034 20.8361 25.0238 20.8361 24.5012H20.8272Z" fill="#FC142B"/>
<path d="M22.3862 22.703H23.1304V21.899L24.3747 21.52V22.7002H25.2571V23.5616H24.3747V24.8795C24.3747 25.3103 24.4806 25.5285 24.8806 25.5285C25.0103 25.5235 25.1393 25.5072 25.266 25.4797L25.3101 26.2837C25.0473 26.3244 24.7819 26.3474 24.5159 26.3526C23.3834 26.3526 23.1098 25.8673 23.1098 25.0174V23.5644H22.3862V22.703Z" fill="#FC142B"/>
<path d="M27.2014 22.1147H25.9365V21.2102H27.2014V22.1147ZM25.9365 22.689H27.2014V26.2725H25.9365V22.689Z" fill="#FC142B"/>
<path d="M30.4297 26.2671C30.4297 26.0775 30.4003 25.8909 30.4003 25.6928C30.288 25.8952 30.12 26.063 29.9152 26.1772C29.7104 26.2913 29.477 26.3473 29.2414 26.3388C28.5177 26.3388 27.8706 25.9885 27.8677 25.2133C27.8677 24.1221 29.0825 23.9929 29.7591 23.99C29.9562 23.9903 30.153 24.0066 30.3474 24.0389C30.3474 23.5507 29.9679 23.4215 29.512 23.4215C29.1025 23.4113 28.6973 23.5042 28.3354 23.6914L28.3177 22.8673C28.7862 22.6892 29.2858 22.6023 29.7885 22.6118C30.7209 22.6118 31.5298 23.0023 31.5328 24.0934V25.4229C31.5285 25.7058 31.5521 25.9885 31.6034 26.2671H30.4297ZM29.5473 25.5291C29.765 25.5172 29.9691 25.4218 30.1151 25.2637C30.2611 25.1056 30.3372 24.8976 30.3268 24.6849C30.165 24.6849 29.9826 24.6648 29.7914 24.6648C29.362 24.6648 29.0266 24.794 29.0266 25.1386C29.0384 25.3855 29.2619 25.5291 29.559 25.5291H29.5473Z" fill="#FC142B"/>
<path d="M32.2705 21.1213H33.5442V23.1514C33.6941 22.9691 33.8868 22.8246 34.1059 22.7302C34.325 22.6357 34.5641 22.5941 34.8032 22.6087C35.815 22.6087 36.371 23.5477 36.371 24.4091C36.371 25.4658 35.7827 26.3444 34.7002 26.3473C34.4418 26.3568 34.186 26.294 33.9629 26.1663C33.7399 26.0387 33.5589 25.8514 33.4412 25.6266V26.264H32.2646L32.2705 21.1213ZM34.3119 23.5563C33.8472 23.5563 33.5383 23.9525 33.5413 24.4895C33.5307 24.5988 33.5424 24.7092 33.5756 24.8141C33.6088 24.9191 33.6629 25.0166 33.7347 25.1012C33.8066 25.1857 33.8948 25.2556 33.9943 25.3068C34.0939 25.3581 34.2028 25.3896 34.3149 25.3997C34.7914 25.3997 35.0797 25.0092 35.0797 24.4378C35.0797 23.9669 34.8032 23.5534 34.3119 23.5563Z" fill="#FC142B"/>
<path d="M39.3438 26.2582C39.3438 26.0687 39.3173 25.8821 39.3173 25.6839C39.2053 25.8866 39.0373 26.0546 38.8325 26.1688C38.6276 26.283 38.3941 26.3388 38.1583 26.33C37.4347 26.33 36.7876 25.9797 36.7876 25.2044C36.7876 24.1133 38.0024 23.9841 38.676 23.9812C38.8732 23.9816 39.07 23.998 39.2643 24.03C39.2643 23.5419 38.8819 23.4127 38.426 23.4127C38.0165 23.402 37.6112 23.495 37.2494 23.6826L37.2259 22.8441C37.6943 22.666 38.194 22.5792 38.6966 22.5886C39.632 22.5886 40.4409 22.9791 40.4409 24.0702V25.3997C40.4362 25.6828 40.4608 25.9656 40.5145 26.2439L39.3438 26.2582ZM38.4613 25.5203C38.679 25.5084 38.8831 25.413 39.0292 25.2549C39.1752 25.0968 39.2512 24.8887 39.2408 24.6761C39.079 24.6761 38.8967 24.656 38.7055 24.656C38.276 24.656 37.9407 24.7852 37.9407 25.1298C37.9524 25.3767 38.1789 25.5203 38.4731 25.5203H38.4613Z" fill="#FC142B"/>
<path d="M41.2012 22.6839H42.3542V23.3529H42.369C42.4917 23.1151 42.6836 22.9179 42.9206 22.7861C43.1577 22.6543 43.4293 22.5938 43.7015 22.6121C44.7016 22.6121 45.1016 23.2955 45.1016 24.0478V26.2788H43.8368V24.556C43.8368 23.8841 43.5985 23.6573 43.2485 23.6573C42.7278 23.6573 42.4601 24.0076 42.4631 24.7771V26.2846H41.1982L41.2012 22.6839Z" fill="#FC142B"/>
<path d="M45.875 21.1099H47.1398V24.1823H47.1546L48.2047 22.6805H49.5901L48.3164 24.3172L49.696 26.2497H48.1694L47.1575 24.4809H47.1398V26.2525H45.875V21.1099Z" fill="#FC142B"/>
<path d="M58.6395 5.69339C58.6387 4.36043 58.0957 3.08233 57.1299 2.14005C56.164 1.19778 54.8544 0.668457 53.4889 0.668457V0.668457L5.81313 0.714399C4.44784 0.718198 3.13975 1.2501 2.17544 2.19358C1.21113 3.13706 0.66923 4.41519 0.668457 5.74795L0.697872 33.6435C0.698652 34.9765 1.24164 36.2546 2.20748 37.1969C3.17331 38.1391 4.48293 38.6685 5.84843 38.6685L53.5154 38.6225C54.8809 38.6195 56.1895 38.0878 57.1539 37.1442C58.1184 36.2005 58.6601 34.922 58.6601 33.589L58.6395 5.69339ZM53.5213 37.9276L5.85137 37.9736C5.26847 37.974 4.6912 37.8623 4.15253 37.6449C3.61385 37.4275 3.12431 37.1086 2.71186 36.7065C2.29942 36.3044 1.97214 35.827 1.74872 35.3014C1.52529 34.7759 1.4101 34.2125 1.40971 33.6435L1.3803 5.74795C1.3803 4.59875 1.84735 3.4965 2.67897 2.68309C3.51059 1.86967 4.63882 1.41156 5.81608 1.40928L53.483 1.36333C54.0662 1.36258 54.6438 1.474 55.1828 1.69123C55.7218 1.90847 56.2117 2.22725 56.6244 2.62937C57.0372 3.03149 57.3647 3.50907 57.5883 4.03481C57.812 4.56055 57.9272 5.12414 57.9276 5.69339L57.9423 19.2923V19.9901V33.589C57.9416 34.7355 57.4763 35.8351 56.648 36.6479C55.8197 37.4608 54.6957 37.9208 53.5213 37.9276Z" fill="white"/>
</g>
<defs>
<clipPath id="clip0_3506_142654">
<rect width="68" height="38" fill="white" transform="translate(0.668457 0.668457)"/>
</clipPath>
</defs>
</svg>
