<svg width="21" height="19" viewBox="0 0 21 19" fill="none" xmlns="http://www.w3.org/2000/svg">
<path d="M10.9131 1.52898C13.2621 -0.58002 16.8921 -0.51002 19.1551 1.75698C21.4171 4.02498 21.4951 7.63698 19.3911 9.99298L10.9111 18.485L2.43312 9.99298C0.329115 7.63698 0.408116 4.01898 2.66912 1.75698C4.93412 -0.50702 8.55712 -0.58302 10.9131 1.52898ZM17.7391 3.16998C16.2391 1.66798 13.8191 1.60698 12.2491 3.01698L10.9141 4.21498L9.57812 3.01798C8.00312 1.60598 5.58812 1.66798 4.08412 3.17198C2.59412 4.66198 2.51912 7.04698 3.89212 8.62298L10.9121 15.654L17.9321 8.62398C19.3061 7.04698 19.2311 4.66498 17.7391 3.16998Z" fill="#5C6E7A"/>
</svg>
