<svg width="19" height="18" viewBox="0 0 19 18" fill="none" xmlns="http://www.w3.org/2000/svg">
<path d="M0.5 0H18.5V18H0.5V0Z" fill="white"/>
<path d="M4.25 14.2499H5.3105L12.296 7.26444L11.2355 6.20394L4.25 13.1894V14.2499ZM16.25 15.7499H2.75V12.5677L12.8263 2.49144C12.9669 2.35084 13.1576 2.27185 13.3565 2.27185C13.5554 2.27185 13.7461 2.35084 13.8868 2.49144L16.0085 4.61319C16.1491 4.75384 16.2281 4.94457 16.2281 5.14344C16.2281 5.34231 16.1491 5.53304 16.0085 5.67369L7.43225 14.2499H16.25V15.7499ZM12.296 5.14344L13.3565 6.20394L14.417 5.14344L13.3565 4.08294L12.296 5.14344Z" fill="#485760"/>
</svg>
