<svg width="69" height="39" viewBox="0 0 69 39" fill="none" xmlns="http://www.w3.org/2000/svg">
<g clip-path="url(#clip0_3506_142471)">
<path d="M8.64312 36.9132V34.6355C8.64312 33.7643 8.1147 33.1937 7.20758 33.1937C6.75402 33.1937 6.26083 33.3441 5.92176 33.8395C5.65755 33.4237 5.27885 33.1937 4.7108 33.1937C4.3321 33.1937 3.95339 33.3087 3.65396 33.7245V33.2689H2.86133V36.9132H3.65396V34.9009C3.65396 34.2552 3.99303 33.95 4.52145 33.95C5.04986 33.95 5.31407 34.2906 5.31407 34.9009V36.9132H6.1067V34.9009C6.1067 34.2552 6.4854 33.95 6.97419 33.95C7.50261 33.95 7.76682 34.2906 7.76682 34.9009V36.9132H8.64312ZM20.4004 33.2689H19.1146V32.1677H18.322V33.2689H17.6042V33.9898H18.322V35.6616C18.322 36.4975 18.6611 36.9884 19.5682 36.9884C19.9073 36.9884 20.286 36.8734 20.5502 36.723L20.3212 36.0375C20.0922 36.1879 19.828 36.2277 19.6386 36.2277C19.2599 36.2277 19.1102 35.9977 19.1102 35.6218V33.9898H20.396V33.2689H20.4004ZM27.129 33.1893C26.6754 33.1893 26.3716 33.4193 26.1822 33.72V33.2645H25.3896V36.9088H26.1822V34.8567C26.1822 34.2508 26.4464 33.9058 26.9396 33.9058C27.0894 33.9058 27.2787 33.9456 27.4328 33.981L27.6618 33.2203C27.5033 33.1893 27.2787 33.1893 27.129 33.1893ZM16.9613 33.5697C16.5826 33.3043 16.0542 33.1893 15.4861 33.1893C14.579 33.1893 13.9757 33.6449 13.9757 34.3658C13.9757 34.9717 14.4293 35.3166 15.2219 35.4272L15.6006 35.467C16.0146 35.5422 16.2435 35.6572 16.2435 35.8473C16.2435 36.1127 15.9397 36.3029 15.4113 36.3029C14.8829 36.3029 14.4645 36.1127 14.2003 35.9225L13.8216 36.5284C14.2356 36.8336 14.8036 36.984 15.3717 36.984C16.4285 36.984 17.0362 36.4886 17.0362 35.8075C17.0362 35.1618 16.543 34.8213 15.79 34.7063L15.4113 34.6665C15.0722 34.6267 14.808 34.5515 14.808 34.3259C14.808 34.0606 15.0722 33.9102 15.4906 33.9102C15.9441 33.9102 16.3977 34.1004 16.6267 34.2154L16.9613 33.5697ZM38.0497 33.1893C37.5961 33.1893 37.2923 33.4193 37.1029 33.72V33.2645H36.3103V36.9088H37.1029V34.8567C37.1029 34.2508 37.3671 33.9058 37.8603 33.9058C38.01 33.9058 38.1994 33.9456 38.3535 33.981L38.5825 33.2291C38.4284 33.1893 38.2038 33.1893 38.0497 33.1893ZM27.9216 35.0911C27.9216 36.1923 28.679 36.9884 29.8503 36.9884C30.3788 36.9884 30.7575 36.8734 31.1362 36.5727L30.7575 35.9269C30.4536 36.1569 30.1542 36.2675 29.8107 36.2675C29.1678 36.2675 28.7142 35.812 28.7142 35.0911C28.7142 34.4056 29.1678 33.95 29.8107 33.9146C30.1498 33.9146 30.4536 34.0296 30.7575 34.2552L31.1362 33.6095C30.7575 33.3043 30.3788 33.1937 29.8503 33.1937C28.679 33.1893 27.9216 33.9898 27.9216 35.0911ZM35.2534 35.0911V33.2689H34.4608V33.7245C34.1966 33.3839 33.8179 33.1937 33.3247 33.1937C32.3031 33.1937 31.5105 33.9898 31.5105 35.0911C31.5105 36.1923 32.3031 36.9884 33.3247 36.9884C33.8531 36.9884 34.2318 36.7982 34.4608 36.4577V36.9132H35.2534V35.0911ZM32.3427 35.0911C32.3427 34.4454 32.7567 33.9146 33.4392 33.9146C34.0821 33.9146 34.5357 34.41 34.5357 35.0911C34.5357 35.7368 34.0821 36.2675 33.4392 36.2675C32.7611 36.2277 32.3427 35.7323 32.3427 35.0911ZM22.8576 33.1893C21.8008 33.1893 21.0434 33.95 21.0434 35.0866C21.0434 36.2277 21.8008 36.984 22.8972 36.984C23.4256 36.984 23.9541 36.8336 24.3724 36.4886L23.9937 35.9181C23.6899 36.1481 23.3112 36.2985 22.9369 36.2985C22.4437 36.2985 21.9549 36.0685 21.8404 35.4272H24.5221C24.5221 35.3122 24.5221 35.237 24.5221 35.122C24.5573 33.95 23.8748 33.1893 22.8576 33.1893ZM22.8576 33.8748C23.3508 33.8748 23.6899 34.18 23.7647 34.7461H21.8756C21.9505 34.2552 22.2895 33.8748 22.8576 33.8748ZM42.55 35.0911V31.8271H41.7574V33.7245C41.4932 33.3839 41.1145 33.1937 40.6213 33.1937C39.5997 33.1937 38.8071 33.9898 38.8071 35.0911C38.8071 36.1923 39.5997 36.9884 40.6213 36.9884C41.1497 36.9884 41.5284 36.7982 41.7574 36.4577V36.9132H42.55V35.0911ZM39.6393 35.0911C39.6393 34.4454 40.0532 33.9146 40.7358 33.9146C41.3787 33.9146 41.8323 34.41 41.8323 35.0911C41.8323 35.7368 41.3787 36.2675 40.7358 36.2675C40.0532 36.2277 39.6393 35.7323 39.6393 35.0911ZM13.1039 35.0911V33.2689H12.3112V33.7245C12.047 33.3839 11.6683 33.1937 11.1751 33.1937C10.1535 33.1937 9.36089 33.9898 9.36089 35.0911C9.36089 36.1923 10.1535 36.9884 11.1751 36.9884C11.7035 36.9884 12.0822 36.7982 12.3112 36.4577V36.9132H13.1039V35.0911ZM10.1579 35.0911C10.1579 34.4454 10.5718 33.9146 11.2544 33.9146C11.8973 33.9146 12.3509 34.41 12.3509 35.0911C12.3509 35.7368 11.8973 36.2675 11.2544 36.2675C10.5718 36.2277 10.1579 35.7323 10.1579 35.0911Z" fill="black"/>
<path d="M28.6038 5.5918H16.6968V27.077H28.6038V5.5918Z" fill="#FF5A00"/>
<path d="M17.4898 16.3345C17.4898 11.9693 19.533 8.09505 22.6683 5.59183C20.3609 3.7697 17.4502 2.66846 14.2753 2.66846C6.75409 2.66846 0.668457 8.78056 0.668457 16.3345C0.668457 23.8883 6.75409 30.0004 14.2753 30.0004C17.4502 30.0004 20.3609 28.8992 22.6683 27.0771C19.5286 24.6092 17.4898 20.6996 17.4898 16.3345Z" fill="#EB001B"/>
<path d="M44.6683 16.3345C44.6683 23.8883 38.5827 30.0004 31.0615 30.0004C27.8866 30.0004 24.9759 28.8992 22.6685 27.0771C25.8434 24.5694 27.847 20.6996 27.847 16.3345C27.847 11.9693 25.8037 8.09505 22.6685 5.59183C24.9715 3.7697 27.8822 2.66846 31.0571 2.66846C38.5827 2.66846 44.6683 8.82037 44.6683 16.3345Z" fill="#F79E1B"/>
</g>
<defs>
<clipPath id="clip0_3506_142471">
<rect width="68" height="38" fill="white" transform="translate(0.668457 0.668457)"/>
</clipPath>
</defs>
</svg>
