<svg width="74" height="72" viewBox="0 0 74 72" fill="none" xmlns="http://www.w3.org/2000/svg">
<g clip-path="url(#clip0_872_7352)">
<path d="M31.2992 17.181C31.4504 17.2132 31.6031 17.2373 31.7568 17.253C31.9128 17.2684 32.0831 17.2766 32.2671 17.2766V18.278C32.3665 18.3095 32.4689 18.3303 32.5726 18.3401C32.6742 18.3494 32.7599 18.3544 32.8302 18.3544C32.9 18.3544 32.9873 18.3494 33.0922 18.3401C33.1945 18.3313 33.2953 18.3104 33.3927 18.278V17.1525C33.8672 17.037 34.2889 16.7649 34.5897 16.3801C34.8714 15.9964 35.0175 15.5299 35.005 15.0541C35.0122 14.7751 34.9684 14.4972 34.8759 14.234C34.7986 14.025 34.6802 13.8337 34.5276 13.6715C34.3804 13.5182 34.2099 13.3894 34.0222 13.2897C33.8248 13.185 33.6209 13.0927 33.4119 13.0134L32.878 12.8129C32.7273 12.7569 32.5846 12.6816 32.4534 12.5888C32.3884 12.5418 32.3364 12.4791 32.3022 12.4066C32.268 12.3341 32.2527 12.2541 32.2578 12.174C32.2533 12.0885 32.2749 12.0036 32.3199 11.9307C32.361 11.8702 32.4167 11.821 32.4819 11.7879C32.5502 11.7522 32.6245 11.7295 32.7011 11.7208C32.7819 11.7114 32.8631 11.7066 32.9444 11.7066C33.2179 11.6994 33.491 11.7316 33.7552 11.8021C33.9728 11.8685 34.1862 11.9482 34.3941 12.0405C34.5964 11.613 34.7285 11.1556 34.7852 10.6859C34.5309 10.5969 34.2908 10.5239 34.0651 10.4668C33.8439 10.4106 33.6193 10.3691 33.3927 10.3426V9.51312C33.2953 9.48072 33.1945 9.45989 33.0922 9.45105C32.9873 9.44116 32.9 9.43677 32.8302 9.43677C32.7599 9.43677 32.6742 9.44116 32.5726 9.45105C32.4688 9.46087 32.3665 9.48167 32.2671 9.51312V10.3712C31.7884 10.438 31.3464 10.6649 31.0131 11.0149C30.697 11.3878 30.535 11.8671 30.5599 12.3553C30.5547 12.5905 30.592 12.8248 30.6697 13.0469C30.7376 13.2314 30.8377 13.4026 30.9653 13.5522C31.0924 13.6977 31.2423 13.8216 31.4091 13.9192C31.5842 14.0229 31.7656 14.1154 31.9524 14.196L32.4583 14.4058C32.6511 14.4824 32.835 14.5798 33.0065 14.6964C33.0794 14.7466 33.1382 14.8146 33.1774 14.8939C33.2166 14.9732 33.2349 15.0612 33.2306 15.1496C33.2368 15.2472 33.216 15.3446 33.1706 15.4312C33.1252 15.5178 33.0568 15.5903 32.973 15.6407C32.7469 15.7584 32.4931 15.8129 32.2386 15.7983C32.0038 15.7967 31.77 15.7663 31.5426 15.7077C31.2655 15.635 30.9944 15.541 30.7318 15.4264C30.6428 15.6934 30.5681 15.9444 30.5077 16.1796C30.4485 16.4084 30.4055 16.6412 30.3792 16.8761C30.5505 16.9458 30.7095 17.0063 30.856 17.0574C31.001 17.1079 31.149 17.1492 31.2992 17.181Z" fill="#B4C2CB"/>
<path d="M39.8196 60.7501H4.37495V58.5001H39.3956C39.3002 57.7538 39.2516 57.0024 39.25 56.2501H8.87495V54.0001H39.3956C39.4887 53.2418 39.6304 52.4903 39.8196 51.7501H38.1261V50.5548C38.1243 50.1673 38.019 49.7872 37.8212 49.4541C37.6233 49.1209 37.34 48.8466 37.0005 48.6597V47.0996C36.9992 46.5726 36.7984 46.0656 36.4386 45.6806V30.2949C36.9201 30.1708 37.3469 29.8904 37.6521 29.4978C37.9572 29.1051 38.1235 28.6224 38.125 28.1251V27.0001H45.4375V28.1251C45.4389 28.6228 45.6055 29.1059 45.9111 29.4987C46.2167 29.8915 46.644 30.1718 47.1261 30.2956V41.3761C47.8435 40.8862 48.5955 40.4488 49.3761 40.0674V30.3751H52.7511V38.8194C53.4913 38.6303 54.2428 38.4887 55.0011 38.3956V30.2949C55.4826 30.1708 55.9094 29.8904 56.2146 29.4978C56.5197 29.1051 56.686 28.6224 56.6875 28.1251V27.0001H56.772C57.2158 26.9996 57.6483 26.861 58.0097 26.6035C58.5085 26.913 59.1089 27.0147 59.6818 26.8866C60.2548 26.7585 60.7547 26.4109 61.0743 25.9184L62.5217 23.6805C62.8303 23.2028 62.9422 22.6236 62.8338 22.0653C62.7255 21.507 62.4054 21.0122 61.9406 20.6845L33.5662 0.520279L33.3602 0.374704C33.0131 0.131064 32.5993 0.000387678 32.1752 0.000488339C31.7511 0.000589001 31.3374 0.131461 30.9904 0.375266L1.95082 20.6236C1.70342 20.7945 1.49365 21.0143 1.33443 21.2694C1.1752 21.5244 1.06991 21.8094 1.02503 22.1067C0.980153 22.404 0.996642 22.7074 1.07348 22.9981C1.15032 23.2888 1.28588 23.5607 1.47181 23.797L3.31422 26.142C3.67236 26.5965 4.1913 26.8961 4.76394 26.979C5.33657 27.0619 5.91918 26.9218 6.39149 26.5875L6.71085 26.3623C6.99583 26.6489 7.35607 26.8489 7.74995 26.9393V28.1251C7.75138 28.6228 7.91796 29.1059 8.22357 29.4987C8.52917 29.8915 8.95652 30.1718 9.43857 30.2956V45.6796C9.07804 46.0647 8.87684 46.5721 8.87551 47.0996V48.6583C8.53203 48.8411 8.24546 49.1149 8.04714 49.4497C7.84882 49.7845 7.74639 50.1673 7.75107 50.5564V52.0175C7.4119 52.1992 7.12818 52.4692 6.92993 52.799C6.73169 53.1288 6.62631 53.506 6.62495 53.8908V56.2501H4.27222C3.70295 56.2508 3.15721 56.4773 2.75467 56.8798C2.35214 57.2823 2.12567 57.8281 2.12495 58.3974V61.8751C2.12496 62.1734 2.24349 62.4596 2.45447 62.6706C2.66545 62.8815 2.95158 63.0001 3.24995 63.0001H40.5681C40.269 62.2675 40.0189 61.5159 39.8196 60.7501ZM9.99995 28.1251V27.0001H16.7505L16.7516 28.1251H9.99995ZM24.0665 14.1218C24.0749 15.2751 24.3204 16.4143 24.7879 17.4686C25.2554 18.5228 25.9348 19.4696 26.7839 20.2501H15.3773L24.0665 14.1218ZM32.5011 7.87508C33.7248 7.87508 34.9211 8.23797 35.9387 8.91786C36.9562 9.59775 37.7493 10.5641 38.2176 11.6947C38.6859 12.8253 38.8084 14.0694 38.5697 15.2697C38.3309 16.47 37.7416 17.5725 36.8763 18.4378C36.011 19.3031 34.9085 19.8924 33.7082 20.1312C32.5079 20.3699 31.2638 20.2474 30.1332 19.7791C29.0026 19.3108 28.0362 18.5177 27.3564 17.5002C26.6765 16.4826 26.3136 15.2864 26.3136 14.0626C26.3154 12.4221 26.9679 10.8494 28.1279 9.6894C29.2879 8.52942 30.8606 7.87693 32.5011 7.87508ZM40.9131 14.5652L48.9739 20.2501H38.2182C39.8185 18.7754 40.7846 16.7376 40.9131 14.5652ZM12.1871 22.5001H52.1643L55.3547 24.7501H8.99683L12.1871 22.5001ZM30.2505 47.2501H34.7505V48.3751H30.2505V47.2501ZM34.1886 45.0001H30.8136V30.3751H34.1886V45.0001ZM28.5636 30.2956V45.6796C28.203 46.0647 28.0018 46.5721 28.0005 47.0996V48.6583C27.657 48.8411 27.3705 49.1149 27.1721 49.4497C26.9738 49.7845 26.8714 50.1673 26.8761 50.5564V51.7501H19.0011V50.5548C18.9993 50.1673 18.894 49.7872 18.6962 49.4541C18.4983 49.1209 18.2149 48.8466 17.8755 48.6597V47.0996C17.8742 46.5726 17.6734 46.0656 17.3136 45.6806V30.2949C17.7951 30.1708 18.2219 29.8904 18.5271 29.4978C18.8322 29.1051 18.9985 28.6224 18.9999 28.1251V27.0001H26.8749V28.1251C26.8764 28.6228 27.043 29.1059 27.3486 29.4987C27.6542 29.8915 28.0815 30.1718 28.5636 30.2956ZM15.0636 30.3751V45.0001H11.6886V30.3751H15.0636ZM11.1255 47.2501H15.6255V48.3751H11.1255V47.2501ZM10.0011 51.7501V50.6251H16.7511V51.7501H10.0011ZM29.1261 51.7501V50.6251H35.8761V51.7501H29.1261ZM35.8766 28.1251H29.1249V27.0001H35.8755L35.8766 28.1251ZM54.4391 28.1251H47.6875V27.0001H54.438L54.4391 28.1251ZM5.08302 24.7523L3.27137 22.4457L32.0825 2.35829L32.1758 2.29292L60.6074 22.4968L59.1747 24.6908L40.5604 11.5632C40.0442 9.89667 39.0239 8.43125 37.6401 7.36889C36.2562 6.30653 34.5769 5.69952 32.8336 5.63152C31.0903 5.56352 29.3688 6.03787 27.9064 6.98921C26.444 7.94055 25.3127 9.32203 24.6683 10.9433L5.08302 24.7523Z" fill="#B4C2CB"/>
<path d="M57.25 40.5C54.135 40.5 51.0898 41.4237 48.4998 43.1544C45.9097 44.885 43.891 47.3448 42.6989 50.2227C41.5068 53.1007 41.1949 56.2675 41.8026 59.3227C42.4104 62.3779 43.9104 65.1843 46.1131 67.3869C48.3158 69.5896 51.1221 71.0897 54.1773 71.6974C57.2325 72.3051 60.3993 71.9932 63.2773 70.8011C66.1552 69.609 68.615 67.5903 70.3457 65.0002C72.0763 62.4102 73 59.3651 73 56.25C72.9953 52.0743 71.3345 48.0709 68.3818 45.1182C65.4291 42.1656 61.4257 40.5047 57.25 40.5ZM57.25 69.75C54.58 69.75 51.9699 68.9582 49.7498 67.4748C47.5297 65.9914 45.7994 63.883 44.7776 61.4162C43.7559 58.9494 43.4885 56.235 44.0094 53.6163C44.5303 50.9975 45.8161 48.5921 47.7041 46.7041C49.5921 44.816 51.9975 43.5303 54.6163 43.0094C57.235 42.4885 59.9494 42.7558 62.4162 43.7776C64.883 44.7994 66.9914 46.5297 68.4748 48.7498C69.9582 50.9699 70.75 53.58 70.75 56.25C70.7459 59.8292 69.3223 63.2606 66.7914 65.7914C64.2606 68.3223 60.8292 69.7459 57.25 69.75Z" fill="#6E8391"/>
<path d="M56.4062 55.4062V50.3438H58.0938V55.4062H63.1562V57.0938H58.0938V62.1562H56.4062V57.0938H51.3438V55.4062H56.4062Z" fill="#6E8391"/>
</g>
<defs>
<clipPath id="clip0_872_7352">
<rect width="72.5625" height="72" fill="white" transform="translate(0.71875)"/>
</clipPath>
</defs>
</svg>
