<svg width="69" height="39" viewBox="0 0 69 39" fill="none" xmlns="http://www.w3.org/2000/svg">
<g clip-path="url(#clip0_3577_8577)">
<path d="M4.52012 17.302H4.98002C5.75747 17.302 6.36793 17.1137 6.81141 16.737C7.26036 16.3604 7.48483 15.8554 7.48483 15.2222C7.48483 14.2396 6.95102 13.7483 5.88339 13.7483H5.27567L4.52012 17.302ZM10.0061 15.1567C10.0061 16.4723 9.54069 17.5067 8.60994 18.2601C7.68467 19.0079 6.40626 19.3819 4.77471 19.3819H4.06843L3.17327 23.6398H0.668457L3.20612 11.6685H5.98194C7.30689 11.6685 8.30882 11.9605 8.98772 12.5446C9.66662 13.1233 10.0061 13.9939 10.0061 15.1567Z" fill="#188AD1"/>
<path d="M16.9046 14.3133C17.2276 14.3133 17.4904 14.3433 17.693 14.4034L17.1509 16.778C16.9046 16.6906 16.6308 16.647 16.3297 16.647C15.6946 16.647 15.1361 16.8981 14.6543 17.4003C14.178 17.897 13.8386 18.6122 13.636 19.5456L12.7655 23.6398H10.2935L12.2399 14.4852H14.1287L13.9563 16.1802H14.0056C14.8104 14.9356 15.7767 14.3133 16.9046 14.3133Z" fill="#188AD1"/>
<path d="M22.7847 16.0902C22.3029 16.0902 21.8485 16.3085 21.4214 16.7452C20.9944 17.1819 20.7152 17.7142 20.5838 18.3419H20.9533C21.802 18.3419 22.4617 18.2109 22.9325 17.9489C23.4089 17.6814 23.647 17.3211 23.647 16.868C23.647 16.3495 23.3596 16.0902 22.7847 16.0902ZM21.4379 23.8036C20.2881 23.8036 19.3957 23.4951 18.7606 22.8783C18.1255 22.2614 17.8079 21.3907 17.8079 20.2662C17.8079 19.1362 18.0324 18.1072 18.4814 17.1792C18.9358 16.2457 19.549 15.5361 20.321 15.0502C21.0929 14.5589 21.9662 14.3133 22.9408 14.3133C23.9098 14.3133 24.6654 14.5371 25.2074 14.9847C25.7494 15.4269 26.0204 16.0356 26.0204 16.8107C26.0204 17.8315 25.5633 18.6204 24.649 19.1772C23.7346 19.7285 22.4288 20.0042 20.7316 20.0042H20.3128L20.2963 20.1761V20.3399C20.2963 20.8367 20.4359 21.2297 20.7152 21.519C20.9999 21.8029 21.405 21.9448 21.9306 21.9448C22.4069 21.9448 22.8395 21.893 23.2282 21.7892C23.6169 21.6855 24.0878 21.5026 24.6407 21.2406V23.0994C23.699 23.5688 22.6314 23.8036 21.4379 23.8036Z" fill="#188AD1"/>
<path d="M33.1243 14.3133C33.9236 14.3133 34.5532 14.6081 35.0131 15.1976C35.4785 15.7817 35.7112 16.6006 35.7112 17.6541C35.7112 18.6968 35.5223 19.7012 35.1445 20.6674C34.7722 21.6282 34.2603 22.3924 33.6088 22.9602C32.9573 23.5224 32.24 23.8036 31.4571 23.8036C31.0027 23.8036 30.6112 23.7026 30.2827 23.5006C29.9542 23.2986 29.6504 22.9547 29.3711 22.4689H29.3054C29.2397 23.3368 29.122 24.142 28.9523 24.8844L28.361 27.6685H25.889L28.6977 14.4852H30.5866L30.447 15.8773H30.5209C31.2764 14.8346 32.1442 14.3133 33.1243 14.3133ZM32.1305 16.3112C31.7582 16.3112 31.3969 16.4968 31.0465 16.868C30.7016 17.2338 30.4223 17.7251 30.2088 18.3419C30.0008 18.9533 29.8967 19.6302 29.8967 20.3727C29.8967 20.8094 29.998 21.1587 30.2006 21.4208C30.4032 21.6828 30.6824 21.8138 31.0383 21.8138C31.4051 21.8138 31.7555 21.6255 32.0895 21.2488C32.4235 20.8721 32.6917 20.3563 32.8943 19.7012C33.1024 19.0407 33.2064 18.3911 33.2064 17.7524C33.2064 16.7916 32.8478 16.3112 32.1305 16.3112Z" fill="#188AD1"/>
<path d="M39.801 23.8036C38.9962 23.8036 38.3611 23.5142 37.8957 22.9356C37.4358 22.3515 37.2059 21.5354 37.2059 20.4873C37.2059 19.4064 37.403 18.3774 37.7972 17.4003C38.1914 16.4177 38.7088 15.6589 39.3493 15.1239C39.9899 14.5835 40.6934 14.3133 41.4599 14.3133C41.991 14.3133 42.4482 14.4279 42.8314 14.6572C43.2201 14.8865 43.5213 15.2195 43.7348 15.6562H43.8005L44.2686 14.4852H46.1739L44.2193 23.6398H42.3387L42.4536 22.4525H42.4208C41.6871 23.3532 40.8139 23.8036 39.801 23.8036ZM40.7701 21.8138C41.1479 21.8138 41.512 21.6309 41.8624 21.2652C42.2127 20.8994 42.4947 20.4054 42.7082 19.7831C42.9218 19.1553 43.0285 18.4457 43.0285 17.6541C43.0285 17.2665 42.9218 16.9472 42.7082 16.6961C42.5002 16.4395 42.2237 16.3112 41.8788 16.3112C41.5065 16.3112 41.1506 16.5078 40.8111 16.9008C40.4772 17.2938 40.2089 17.8124 40.0063 18.4566C39.8092 19.1007 39.7107 19.7394 39.7107 20.3727C39.7107 20.853 39.801 21.2133 39.9817 21.4535C40.1678 21.6937 40.4306 21.8138 40.7701 21.8138Z" fill="#188AD1"/>
<path d="M56.2096 14.5016L55.9221 15.8609L54.4932 16.1966C54.5808 16.4805 54.6246 16.8025 54.6246 17.1628C54.6246 18.2273 54.2933 19.0707 53.6309 19.693C52.9684 20.3099 52.0677 20.6183 50.9289 20.6183C50.6059 20.6183 50.3349 20.591 50.1159 20.5364C49.656 20.6838 49.4261 20.8967 49.4261 21.1751C49.4261 21.3607 49.5082 21.4945 49.6724 21.5763C49.8367 21.6582 50.0803 21.721 50.4033 21.7647L51.5285 21.9121C52.4209 22.0267 53.0697 22.2587 53.4748 22.6081C53.8854 22.952 54.0908 23.4515 54.0908 24.1065C54.0908 25.2584 53.6637 26.14 52.8096 26.7514C51.9555 27.3628 50.7346 27.6685 49.1468 27.6685C48.008 27.6685 47.1183 27.461 46.4778 27.0461C45.8427 26.6367 45.5251 26.0717 45.5251 25.3512C45.5251 24.7944 45.714 24.314 46.0918 23.91C46.4641 23.5115 47.0499 23.1813 47.8493 22.9192C47.4441 22.6627 47.2415 22.2996 47.2415 21.8302C47.2415 21.4426 47.362 21.1096 47.6029 20.8312C47.8493 20.5473 48.2517 20.2771 48.8101 20.0206C48.4542 19.7531 48.1914 19.4474 48.0217 19.1035C47.852 18.7596 47.7671 18.3419 47.7671 17.8506C47.7671 16.7643 48.1093 15.9046 48.7937 15.2713C49.4835 14.6326 50.4198 14.3133 51.6024 14.3133C52.0568 14.3133 52.5112 14.3761 52.9656 14.5016H56.2096ZM49.4671 23.6889C48.8868 23.7654 48.446 23.9209 48.1449 24.1557C47.8493 24.3904 47.7014 24.6879 47.7014 25.0482C47.7014 25.676 48.2325 25.9898 49.2947 25.9898C50.1214 25.9898 50.7455 25.867 51.1671 25.6214C51.5887 25.3757 51.7995 25.0291 51.7995 24.5815C51.7995 24.3686 51.7091 24.2048 51.5285 24.0902C51.3533 23.9755 50.9782 23.88 50.4033 23.8036L49.4671 23.6889ZM51.512 15.8773C51.0905 15.8773 50.7483 16.0874 50.4855 16.5078C50.2281 16.9226 50.0995 17.444 50.0995 18.0717C50.0995 18.7213 50.3814 19.0461 50.9454 19.0461C51.356 19.0461 51.6872 18.8387 51.9391 18.4238C52.1964 18.0035 52.3251 17.474 52.3251 16.8353C52.3251 16.1966 52.0541 15.8773 51.512 15.8773Z" fill="#188AD1"/>
<path d="M62.1801 17.9407C62.1801 16.8653 61.7886 16.3276 61.0057 16.3276C60.5951 16.3276 60.2255 16.4941 59.897 16.8271C59.574 17.1601 59.3084 17.6487 59.1004 18.2928C58.8978 18.937 58.7965 19.6002 58.7965 20.2826C58.7965 21.2925 59.2071 21.7974 60.0284 21.7974C60.439 21.7974 60.8086 21.6309 61.1371 21.2979C61.4656 20.9595 61.7202 20.4927 61.9008 19.8977C62.087 19.2973 62.1801 18.6449 62.1801 17.9407ZM64.6685 17.9407C64.6685 19.0925 64.4741 20.1134 64.0854 21.0032C63.7021 21.893 63.1464 22.5835 62.4182 23.0748C61.6901 23.5606 60.825 23.8036 59.8231 23.8036C58.7555 23.8036 57.9014 23.4842 57.2608 22.8455C56.6257 22.2014 56.3081 21.3471 56.3081 20.2826C56.3081 19.1198 56.5025 18.0854 56.8912 17.1792C57.2854 16.2676 57.8521 15.5634 58.5912 15.0666C59.3303 14.5644 60.1954 14.3133 61.1864 14.3133C62.2595 14.3133 63.1081 14.6354 63.7322 15.2795C64.3564 15.9237 64.6685 16.8107 64.6685 17.9407Z" fill="#188AD1"/>
</g>
<defs>
<clipPath id="clip0_3577_8577">
<rect width="68" height="38" fill="white" transform="translate(0.668457 0.668457)"/>
</clipPath>
</defs>
</svg>
