<svg width="69" height="39" viewBox="0 0 69 39" fill="none" xmlns="http://www.w3.org/2000/svg">
<g clip-path="url(#clip0_3506_142485)">
<path fill-rule="evenodd" clip-rule="evenodd" d="M0.744141 12.8135H33.5147L29.6927 26.5233H0.744161L0.744141 12.8135Z" fill="#C30034"/>
<path fill-rule="evenodd" clip-rule="evenodd" d="M68.5923 12.8135L64.725 26.5233H29.585L33.406 12.8135H68.5923Z" fill="#0052A0"/>
<path fill-rule="evenodd" clip-rule="evenodd" d="M38.6437 18.6691C38.7128 18.2889 38.7418 17.9026 38.7303 17.5163C38.7234 17.2461 38.6711 16.979 38.5757 16.7262C38.505 16.5379 38.3902 16.3694 38.2409 16.2348C38.1111 16.1192 37.9579 16.0331 37.7917 15.9824C37.6247 15.9322 37.451 15.9079 37.2766 15.9103C36.9407 15.908 36.6083 15.9782 36.3021 16.1163C35.9664 16.2718 35.6649 16.4925 35.4151 16.7653C35.1046 17.1033 34.8456 17.4851 34.6465 17.8985C34.3849 18.4294 34.1778 18.9855 34.0284 19.5582C33.8687 20.1044 33.7668 20.6658 33.7245 21.2333C33.6896 21.6251 33.7337 22.0199 33.8543 22.3943C33.943 22.6714 34.125 22.9092 34.3694 23.0671C34.6211 23.2196 34.9118 23.2955 35.2059 23.2855C35.4875 23.2898 35.7678 23.2469 36.0353 23.1587C36.3261 23.0587 36.5938 22.9011 36.8223 22.6952C37.1129 22.4263 37.3594 22.1134 37.5527 21.768C37.8241 21.29 38.0481 20.7866 38.2213 20.2649H37.051C36.965 20.5283 36.8452 20.7793 36.6946 21.0118C36.5732 21.2005 36.4181 21.3653 36.2372 21.4981C36.0915 21.6054 35.9163 21.6654 35.7355 21.6701C35.5274 21.6824 35.3272 21.5891 35.2029 21.4218C35.0665 21.2071 35.0019 20.9546 35.0185 20.7007C35.028 20.3137 35.0883 19.9296 35.1977 19.5582C35.2984 19.1616 35.4454 18.7781 35.6355 18.4157C35.7754 18.1433 35.9701 17.9027 36.2073 17.709C36.3925 17.5553 36.6249 17.4698 36.8656 17.4669C37.1649 17.4366 37.4337 17.6506 37.4714 17.949C37.5139 18.1845 37.5177 18.4252 37.4827 18.6619L38.6437 18.6691ZM38.7906 19.5621C38.6385 20.1088 38.5466 20.6705 38.5166 21.2372C38.4891 21.6314 38.5449 22.027 38.6804 22.3982C38.7824 22.6779 38.9759 22.9149 39.2295 23.0709C39.4983 23.2231 39.8036 23.2986 40.1124 23.2893C40.4551 23.2902 40.7938 23.2156 41.1044 23.0709C41.445 22.9105 41.7487 22.6815 41.9966 22.3982C42.305 22.0512 42.5596 21.6598 42.7517 21.2372C43.002 20.6998 43.1976 20.1386 43.3359 19.5621C43.4797 19.0201 43.563 18.4638 43.5841 17.9035C43.6054 17.5176 43.5454 17.1315 43.408 16.7703C43.3025 16.4993 43.1101 16.2711 42.8609 16.1212C42.5963 15.975 42.2967 15.9038 41.9945 15.9152C41.6586 15.9128 41.3262 15.9831 41.02 16.1212C40.687 16.2774 40.3884 16.498 40.1412 16.7703C39.8343 17.1082 39.5798 17.4901 39.3861 17.9035C39.1329 18.4351 38.9334 18.9908 38.7906 19.5621ZM39.9551 19.5622C40.0508 19.1661 40.1929 18.7826 40.3785 18.4198C40.5137 18.1484 40.7031 17.9075 40.9348 17.712C41.1199 17.558 41.3524 17.4725 41.5931 17.4699C41.7991 17.4582 41.9976 17.5488 42.1237 17.712C42.2611 17.9214 42.3296 18.1685 42.3194 18.4187C42.3189 18.8049 42.2662 19.1892 42.1628 19.5612C42.069 19.9574 41.9282 20.3409 41.7435 20.7037C41.6088 20.9801 41.4183 21.2257 41.1841 21.4249C40.9993 21.5821 40.7654 21.6699 40.5227 21.6731C40.3134 21.685 40.1118 21.5919 39.985 21.4249C39.848 21.2101 39.7807 20.9582 39.7923 20.7037C39.797 20.3173 39.8524 19.9332 39.9572 19.5612L39.9551 19.5622ZM48.4902 23.0273H49.6327L50.1746 20.6764L50.7093 18.3512C50.8024 17.9837 50.8509 17.6064 50.8535 17.2273C50.8602 16.9777 50.8132 16.7297 50.7155 16.5C50.6459 16.3354 50.5258 16.1972 50.3724 16.1054C50.2274 16.026 50.0638 15.9865 49.8985 15.991C49.5705 15.9988 49.2546 16.1163 49.0012 16.3248C48.6767 16.5871 48.4021 16.9057 48.1905 17.2654C48.2001 17.0378 48.174 16.8101 48.1132 16.5906C48.0685 16.4191 47.9721 16.2655 47.8371 16.1507C47.6887 16.0403 47.5069 15.9839 47.322 15.991C47.1542 15.9948 46.9887 16.0298 46.8337 16.094C46.6672 16.1635 46.5101 16.2534 46.366 16.3619C46.2192 16.4724 46.0833 16.5966 45.9601 16.7328C45.8451 16.8636 45.7417 17.0043 45.651 17.1531H45.6397L45.8797 16.1692H44.7867L43.945 19.5689L43.0879 23.0334H44.2304L44.6878 21.1502L45.1452 19.2856C45.2025 19.0453 45.2819 18.8108 45.3821 18.585C45.4638 18.4087 45.5677 18.2436 45.6912 18.0936C45.787 17.9762 45.9032 17.8771 46.0342 17.8011C46.144 17.7402 46.2672 17.7076 46.3927 17.7063C46.4722 17.7044 46.5508 17.7225 46.6214 17.7588C46.697 17.8026 46.7574 17.8684 46.7945 17.9474C46.844 18.0603 46.869 18.1825 46.8677 18.3059C46.8659 18.4988 46.8407 18.6908 46.7925 18.8776L46.2959 20.9452L45.7942 23.0334H46.9367L47.3838 21.1502L47.8258 19.2856C47.8787 19.0451 47.9554 18.8104 48.0545 18.585C48.133 18.4091 48.2338 18.244 48.3543 18.0936C48.449 17.9752 48.5654 17.8759 48.6973 17.8011C48.8038 17.7403 48.924 17.7077 49.0466 17.7063C49.1279 17.705 49.2084 17.723 49.2814 17.7588C49.3579 17.8027 49.4195 17.8684 49.4586 17.9474C49.5103 18.0597 49.536 18.1822 49.5338 18.3059C49.5351 18.4987 49.5112 18.6909 49.4627 18.8776L48.9806 20.9442L48.4943 23.0314L48.4902 23.0273ZM52.2797 19.6006C52.3436 19.3054 52.4375 19.0175 52.5599 18.7414C52.656 18.5204 52.7799 18.3127 52.9288 18.1233C53.0449 17.9747 53.1869 17.8483 53.3481 17.7503C53.4776 17.6722 53.6253 17.6293 53.7766 17.6257C53.9133 17.6242 54.0466 17.668 54.1557 17.7503C54.2736 17.8483 54.3614 17.9776 54.4092 18.1233C54.478 18.3219 54.5108 18.5312 54.506 18.7414C54.502 19.0306 54.4675 19.3186 54.403 19.6006C54.3393 19.8965 54.2472 20.1856 54.1279 20.4639C54.0317 20.6883 53.9067 20.8992 53.756 21.0913C53.6394 21.2419 53.4963 21.3701 53.3337 21.4694C53.201 21.5503 53.0491 21.5944 52.8938 21.5971C52.7572 21.5991 52.624 21.554 52.5167 21.4694C52.398 21.3698 52.3098 21.2387 52.2623 21.0913C52.1968 20.8887 52.1658 20.6767 52.1706 20.4639C52.1745 20.173 52.2108 19.8834 52.2787 19.6006H52.2797ZM49.8066 25.6402H50.9584L51.3427 23.9363L51.7228 22.2457H51.7342C51.755 22.4386 51.816 22.6249 51.9134 22.7927C52.0016 22.9456 52.1294 23.0719 52.2832 23.1585C52.4536 23.2473 52.6433 23.2923 52.8354 23.2893C53.1302 23.281 53.4163 23.188 53.6596 23.0214C53.962 22.8159 54.2256 22.5585 54.4384 22.2612C54.7068 21.8979 54.9296 21.5032 55.1018 21.0857C55.3104 20.5949 55.4705 20.085 55.5798 19.5631C55.6993 19.0474 55.7622 18.5203 55.7673 17.991C55.7739 17.6112 55.7136 17.2331 55.5891 16.8742C55.496 16.61 55.3281 16.3784 55.1059 16.2077C54.8939 16.0548 54.638 15.9745 54.3766 15.979C54.2203 15.9773 54.0651 16.0053 53.9192 16.0614C53.7369 16.1383 53.5711 16.2496 53.4308 16.389C53.2168 16.5967 53.0252 16.8264 52.8591 17.0741H52.8477L53.0537 16.1603H51.971L50.9037 20.8446L49.8138 25.6402L49.8066 25.6402ZM55.4512 23.0235H56.5937L56.911 21.5235L57.2262 20.038C57.3037 19.6444 57.4265 19.261 57.5919 18.8955C57.7118 18.6191 57.8916 18.3728 58.1184 18.1744C58.3104 18.0134 58.5528 17.9248 58.8034 17.924C58.9053 17.9245 59.006 17.9448 59.1001 17.9838C59.1983 18.0219 59.2923 18.0702 59.3803 18.128L59.812 16.0408C59.7494 16.0149 59.6836 15.9979 59.6163 15.9903C59.5499 15.983 59.4832 15.9792 59.4164 15.979C59.2649 15.9772 59.1148 16.0071 58.9755 16.0666C58.8269 16.1335 58.6913 16.2259 58.5747 16.3396C58.4283 16.4838 58.2949 16.6406 58.176 16.8083C58.039 16.9979 57.8938 17.2204 57.7361 17.481H57.7248L58.0061 16.1562H56.9254L56.195 19.5558L55.4512 23.0183V23.0235ZM62.3132 20.2153C62.2727 20.4283 62.2073 20.6357 62.1185 20.8335C62.0441 21.0059 61.9482 21.1682 61.8331 21.3166C61.7341 21.4454 61.6188 21.5607 61.49 21.6597C61.378 21.7463 61.2537 21.8157 61.1212 21.8657C61.0065 21.9086 60.8852 21.9313 60.7627 21.9327C60.6352 21.9374 60.51 21.8969 60.4094 21.8183C60.3118 21.7342 60.2466 21.6187 60.225 21.4918C60.1942 21.3164 60.1992 21.1367 60.2394 20.9633C60.2709 20.7913 60.3279 20.625 60.4083 20.4698C60.4678 20.355 60.5558 20.2575 60.6638 20.1865C60.7732 20.1212 60.8949 20.0791 61.0213 20.0629L61.7002 19.9485C61.8209 19.9302 61.9398 19.9016 62.0556 19.863C62.1899 19.8161 62.315 19.7464 62.4255 19.657L62.3111 20.2215L62.3132 20.2153ZM60.8935 18.2336C60.9609 18.0419 61.045 17.8564 61.1448 17.6794C61.2084 17.5623 61.2926 17.4577 61.3931 17.3703C61.4724 17.3073 61.5651 17.2633 61.664 17.2415C61.7707 17.2222 61.8791 17.2139 61.9875 17.2168C62.159 17.2083 62.3301 17.2386 62.4882 17.3054C62.6011 17.3564 62.6851 17.4556 62.7169 17.5753C62.7536 17.7256 62.7536 17.8825 62.7169 18.0328C62.6918 18.1748 62.6492 18.3132 62.5902 18.4448C62.5506 18.5329 62.4852 18.6069 62.4027 18.657C62.3126 18.7038 62.2143 18.7325 62.1132 18.7415C61.7011 18.7978 61.2911 18.8531 60.8831 18.9074C60.7373 18.925 60.5935 18.9564 60.4535 19.0011C60.3015 19.0504 60.1567 19.1196 60.0229 19.2072C59.8711 19.3099 59.7363 19.4358 59.6232 19.5801C59.4834 19.7602 59.368 19.958 59.2802 20.1683C59.1652 20.4432 59.0782 20.729 59.0205 21.0213C58.9427 21.3611 58.9081 21.7093 58.9175 22.0577C58.9214 22.3012 58.9802 22.5407 59.0896 22.7582C59.1804 22.9299 59.3221 23.0692 59.4954 23.1569C59.6818 23.2445 59.886 23.2876 60.0919 23.2826C60.235 23.2819 60.3776 23.2664 60.5174 23.2363C60.683 23.2017 60.8438 23.1474 60.9964 23.0745C61.1695 22.9916 61.3318 22.8878 61.4796 22.7655C61.6472 22.624 61.7951 22.4608 61.9195 22.2802C61.901 22.4028 61.8845 22.5275 61.8732 22.6511C61.8618 22.7747 61.8567 22.8983 61.8505 23.022H62.993C62.9843 22.8202 62.9908 22.618 63.0126 22.4172C63.0363 22.1885 63.0764 21.9207 63.1321 21.6178L63.4669 19.9036L63.7986 18.2058C63.8484 17.9661 63.8801 17.723 63.8934 17.4785C63.9061 17.2662 63.8885 17.0532 63.8409 16.8459C63.7586 16.4581 63.4754 16.1437 63.0981 16.0218C62.8403 15.9375 62.5697 15.8988 62.2987 15.9074C62.113 15.9052 61.9276 15.9193 61.7444 15.9497C61.5518 15.9807 61.3647 16.0397 61.1891 16.1248C60.9931 16.2229 60.8154 16.354 60.6637 16.5122C60.4743 16.7133 60.3156 16.9414 60.1929 17.189C60.0284 17.5233 59.8989 17.8737 59.8066 18.2347L60.8935 18.2336Z" fill="white"/>
<path fill-rule="evenodd" clip-rule="evenodd" d="M14.9379 16.8895H16.904C16.9968 16.8878 17.0888 16.9054 17.1744 16.9411C17.2625 16.9793 17.3362 17.0445 17.3848 17.1273C17.4443 17.2391 17.473 17.3647 17.4679 17.4913C17.4623 17.6901 17.4269 17.8869 17.3627 18.0751C17.3039 18.2732 17.2223 18.4638 17.1197 18.6432C17.0413 18.7818 16.9435 18.9087 16.8294 19.0198C16.7422 19.107 16.6403 19.1782 16.5285 19.2302C16.4402 19.2705 16.3446 19.292 16.2476 19.2933H14.1973C14.4448 18.4931 14.6903 17.6929 14.9337 16.8927L14.9379 16.8895ZM13.0715 17.9456H0.744162V19.1028H12.7106L12.5118 19.7446L0.744141 19.7425V20.9091H12.1541L11.9553 21.5509H0.744141V22.7081H11.5945L11.3609 23.4792H0.744141V24.6364H12.5518L13.709 21.1185H15.5595C15.6675 21.1143 15.7745 21.1401 15.8687 21.1932C15.9602 21.2531 16.0247 21.3463 16.0486 21.453C16.085 21.6222 16.0889 21.7968 16.0602 21.9674C16.0193 22.248 15.9549 22.5246 15.8677 22.7943C15.7909 23.0447 15.7267 23.2614 15.6731 23.4434C15.6194 23.6254 15.5773 23.7937 15.5458 23.9252C15.5155 24.0494 15.492 24.1751 15.4753 24.3018C15.4609 24.4124 15.4546 24.5238 15.4564 24.6353H17.1553C17.1248 24.4816 17.1184 24.324 17.1364 24.1682C17.155 23.9721 17.1848 23.7771 17.2258 23.5844C17.2679 23.3813 17.3153 23.1857 17.3658 23.0016C17.4163 22.8175 17.4583 22.6702 17.4952 22.5492C17.5551 22.3577 17.6119 22.1558 17.6677 21.938C17.7234 21.7203 17.7655 21.5067 17.7992 21.2931C17.8326 21.0954 17.8492 20.8951 17.8486 20.6945C17.8519 20.5346 17.8225 20.3757 17.7624 20.2275C17.7157 20.1096 17.6176 20.0197 17.4962 19.9834L17.5046 19.9571C17.8932 19.7553 18.2255 19.4599 18.4714 19.0976C18.7642 18.6555 18.9867 18.1708 19.131 17.6606C19.1954 17.4498 19.2477 17.2356 19.2878 17.0189C19.3297 16.7917 19.3484 16.5608 19.3435 16.3298C19.342 16.1154 19.2995 15.9033 19.2183 15.7049C19.1378 15.5166 18.9997 15.3586 18.8238 15.2536C18.5993 15.1281 18.3444 15.0673 18.0874 15.0779H13.9573L13.0694 17.9488L13.0715 17.9456ZM22.1661 22.4773C22.0001 22.7559 21.7749 22.9947 21.5065 23.1768C21.2713 23.3311 20.9956 23.4123 20.7143 23.4104C20.5109 23.4188 20.3107 23.3572 20.1473 23.2358C20.0079 23.124 19.9047 22.9736 19.8506 22.8034C19.7921 22.6214 19.7665 22.4305 19.7749 22.2395C19.7808 22.0498 19.8112 21.8617 19.8654 21.6799L19.8738 21.6525H23.9955L24.0597 21.4421C24.3063 20.6965 24.4396 19.9181 24.4552 19.1329C24.4848 18.6082 24.3183 18.0912 23.9881 17.6822C23.6219 17.3242 23.1198 17.1404 22.609 17.1773C22.192 17.1752 21.7782 17.2505 21.3887 17.3992C20.9827 17.5573 20.6101 17.7903 20.2904 18.0862C19.9172 18.4347 19.6003 18.8389 19.3509 19.2844C19.0397 19.8354 18.7926 20.4203 18.6146 21.0276C18.4288 21.5942 18.3181 22.1827 18.2853 22.7781C18.257 23.1897 18.3292 23.602 18.4957 23.9795C18.6371 24.2831 18.8775 24.5298 19.1774 24.6791C19.5189 24.8368 19.8923 24.9135 20.2683 24.9031C20.697 24.9047 21.1216 24.8202 21.517 24.6549C21.9461 24.4703 22.3351 24.2041 22.6627 23.8711C23.064 23.4613 23.4032 22.9949 23.6694 22.4867L22.1661 22.4773ZM20.2988 20.268C20.3005 20.2586 20.3033 20.2494 20.3072 20.2406C20.3362 20.1602 20.3714 20.0821 20.4124 20.0071C20.4845 19.8671 20.5653 19.7319 20.6544 19.6021C20.7642 19.442 20.8893 19.293 21.0279 19.1571C21.173 19.0116 21.3398 18.8895 21.5223 18.7952C21.7102 18.6966 21.9193 18.6453 22.1314 18.6458C22.3052 18.6385 22.4772 18.6828 22.6259 18.7731C22.7466 18.8522 22.8431 18.9633 22.9046 19.0939C22.9666 19.2245 23.0061 19.3647 23.0214 19.5084C23.0376 19.6464 23.0397 19.7856 23.0277 19.924C23.02 20.0309 23.0009 20.1367 22.9709 20.2396L22.9625 20.2669L20.2988 20.268ZM26.1374 21.0706C26.2284 20.7572 26.3548 20.4551 26.514 20.1701C26.6457 19.9335 26.808 19.7152 26.9969 19.521C27.1526 19.3603 27.3348 19.2275 27.5355 19.1286C27.7053 19.0444 27.8919 18.9994 28.0815 18.9971C28.2469 18.9926 28.4098 19.0385 28.5486 19.1286C28.6865 19.2257 28.7915 19.3626 28.8495 19.521C28.925 19.7287 28.9572 19.9496 28.9441 20.1701C28.929 20.4761 28.8742 20.7788 28.7811 21.0706C28.6905 21.3841 28.5645 21.6862 28.4055 21.9711C28.2739 22.2091 28.1112 22.4285 27.9216 22.6234C27.7664 22.7841 27.5849 22.9171 27.385 23.0168C27.216 23.1014 27.0301 23.1467 26.8412 23.1494C26.4967 23.1616 26.1844 22.9485 26.07 22.6234C25.996 22.4143 25.9645 22.1926 25.9775 21.9711C25.9928 21.6651 26.048 21.3624 26.1416 21.0706H26.1374ZM27.7207 24.6274H29.0883L30.5401 19.7598L31.9834 14.9207H30.5769C30.4072 15.4894 30.2371 16.0575 30.0667 16.6249L29.5565 18.3323H29.5417C29.5213 18.1309 29.4515 17.9376 29.3387 17.7695C29.2275 17.6078 29.0744 17.4795 28.8958 17.3981C28.6833 17.3042 28.4527 17.2582 28.2205 17.2635C27.863 17.2698 27.5127 17.3637 27.2 17.537C26.8302 17.74 26.4964 18.0027 26.2122 18.3144C25.8736 18.6814 25.5818 19.0888 25.3432 19.5274C25.0659 20.0303 24.844 20.5619 24.6815 21.1127C24.5094 21.6476 24.4034 22.2016 24.3659 22.7623C24.3354 23.1634 24.3873 23.5665 24.5185 23.9468C24.6196 24.2365 24.8105 24.4863 25.0634 24.6601C25.3218 24.8233 25.6227 24.9064 25.9282 24.8989C26.1491 24.8996 26.369 24.8674 26.5804 24.8031C26.8259 24.7233 27.0561 24.6024 27.2611 24.4455C27.5292 24.2394 27.769 23.9988 27.9743 23.7301H27.9953L27.726 24.6317L27.7207 24.6274Z" fill="white"/>
</g>
<defs>
<clipPath id="clip0_3506_142485">
<rect width="68" height="38" fill="white" transform="translate(0.668457 0.668457)"/>
</clipPath>
</defs>
</svg>
