<svg width="21" height="21" viewBox="0 0 21 21" fill="none" xmlns="http://www.w3.org/2000/svg">
<path d="M15.215 4.63219H20.1114V6.59074H18.1528V19.3213C18.1528 19.581 18.0497 19.8301 17.866 20.0138C17.6824 20.1974 17.4333 20.3006 17.1736 20.3006H3.4637C3.20398 20.3006 2.9549 20.1974 2.77125 20.0138C2.5876 19.8301 2.48443 19.581 2.48443 19.3213V6.59074H0.525879V4.63219H5.42226V1.69436C5.42226 1.43464 5.52543 1.18556 5.70908 1.00191C5.89273 0.818261 6.14181 0.715088 6.40153 0.715088H14.2357C14.4955 0.715088 14.7445 0.818261 14.9282 1.00191C15.1118 1.18556 15.215 1.43464 15.215 1.69436V4.63219ZM16.1943 6.59074H4.44298V18.342H16.1943V6.59074ZM7.38081 9.52856H9.33936V15.4042H7.38081V9.52856ZM11.2979 9.52856H13.2565V15.4042H11.2979V9.52856ZM7.38081 2.67364V4.63219H13.2565V2.67364H7.38081Z" fill="#5C6E7A"/>
</svg>
