<svg width="25" height="25" viewBox="0 0 25 25" fill="none" xmlns="http://www.w3.org/2000/svg">
<path d="M4.39539 3.78809H20.3954C20.9477 3.78809 21.3954 4.23581 21.3954 4.78809V9.78809C21.3954 10.3404 20.9477 10.7881 20.3954 10.7881H4.39539C3.84311 10.7881 3.39539 10.3404 3.39539 9.78809V4.78809C3.39539 4.23581 3.84311 3.78809 4.39539 3.78809ZM6.39539 12.7881H12.3954C12.9477 12.7881 13.3954 13.2358 13.3954 13.7881V16.7881H14.3954V22.7881H10.3954V16.7881H11.3954V14.7881H5.39539C4.84311 14.7881 4.39539 14.3404 4.39539 13.7881V11.7881H6.39539V12.7881ZM18.1276 14.5203L19.8954 12.7526L21.6632 14.5203C22.6395 15.4966 22.6395 17.0796 21.6632 18.0559C20.6869 19.0322 19.1039 19.0322 18.1276 18.0559C17.1513 17.0796 17.1513 15.4966 18.1276 14.5203Z" fill="#363F45"/>
</svg>
