<svg width="231" height="150" viewBox="0 0 231 150" fill="none" xmlns="http://www.w3.org/2000/svg">
<ellipse cx="115.722" cy="126.389" rx="115.278" ry="23.6111" fill="#E1E6EA"/>
<path d="M10.6296 117.581L52.4406 136.476V19.8882L10.6296 40.3916V117.581Z" fill="#B4C2CB"/>
<path d="M221.695 127.23L128.022 138.889V15.064L221.695 33.1553V127.23Z" fill="#B4C2CB"/>
<path d="M52.0387 19.084H128.424V138.889L114.755 134.064L69.3259 132.054L52.0387 136.476V19.084Z" fill="#CAD4DA"/>
<path d="M51.6367 2.41211L22.2886 20.9054V45.0271L51.6367 31.7602V2.41211Z" fill="#7E94A2"/>
<path d="M130.434 30.1521L130.032 0L210.84 16.8852V43.8211L130.434 30.1521Z" fill="#7E94A2"/>
<path d="M130.032 0L51.6366 2.41217V31.7603L130.836 30.1521L130.032 0Z" fill="#7E94A2"/>
<path d="M22.2886 24.5237L52.0387 6.03034L128.424 3.61816L210.84 20.5034" stroke="#B4C2CB" stroke-linecap="round" stroke-linejoin="round"/>
<path d="M68.5217 131.942V65.7197H115.157V134.065L68.5217 131.942Z" fill="#B4C2CB"/>
<path d="M21.8864 39.8007L51.2344 26.5338L130.434 24.1216L210.438 38.5946" stroke="#B4C2CB" stroke-linecap="round" stroke-linejoin="round"/>
<path d="M141.691 111.149V46.4224L210.84 54.0609V107.129L141.691 111.149Z" fill="#E1E6EA"/>
<path d="M39.5757 53.6592L19.4743 57.6795V105.923L40.7818 111.551L39.5757 53.6592Z" fill="#E1E6EA"/>
<path d="M88.2211 69.7402H71.7379V117.582H88.2211V69.7402Z" fill="#E1E6EA"/>
<path d="M71.7379 128.034V120.798L88.2211 121.2V128.034H71.7379Z" fill="#E1E6EA"/>
<path d="M95.0555 128.839V121.602L111.539 122.004V128.839H95.0555Z" fill="#E1E6EA"/>
<path d="M110.735 69.7402H95.4576V118.386H111.539L110.735 69.7402Z" fill="#E1E6EA"/>
<path d="M124.002 8.04102L58.0689 10.0512V23.3181L124.002 21.308V8.04102Z" fill="#B4C2CB"/>
<path d="M98.3359 22.9874C98.6777 22.7823 99.088 22.6455 99.4982 22.6455C100.729 22.6455 101.72 23.637 101.72 24.8677C101.72 25.2779 101.618 25.6882 101.413 26.03C103.156 28.4231 104.182 31.3632 104.182 34.5425C104.182 42.5081 97.7547 48.9352 89.7892 48.9352C81.8578 48.9352 75.3965 42.5081 75.3965 34.5425C75.3965 26.6112 81.8237 20.1499 89.7892 20.1499C93.0027 20.1841 95.9428 21.2439 98.3359 22.9874Z" fill="white"/>
<path d="M100.285 26.9874C100.046 27.09 99.7722 27.1242 99.4987 27.1242C98.268 27.1242 97.2766 26.1328 97.2766 24.902C97.2766 24.6285 97.345 24.3551 97.4133 24.1157C95.2937 22.5773 92.6614 21.6543 89.8239 21.6543C82.6788 21.6543 76.8671 27.4319 76.8671 34.5769C76.8671 41.7219 82.6446 47.4995 89.7897 47.4995C96.9689 47.5337 102.746 41.7219 102.746 34.5769C102.746 31.7394 101.823 29.1412 100.285 26.9874Z" fill="#DF1122"/>
<path d="M100.284 26.9874C100.045 27.09 99.7714 27.1242 99.4979 27.1242C98.2672 27.1242 97.2758 26.1328 97.2758 24.902C97.2758 24.6285 97.31 24.3551 97.4125 24.1157C95.2929 22.5773 92.6606 21.6543 89.8231 21.6543C82.678 21.6543 76.9005 27.4319 76.9005 34.5769C76.9005 41.7219 82.678 47.4995 89.8231 47.4995C96.9681 47.4995 102.746 41.7219 102.746 34.5769C102.746 31.7394 101.823 29.1412 100.284 26.9874Z" stroke="#DF1122" stroke-width="0.0622904" stroke-miterlimit="3.864"/>
<path d="M98.3015 24.8674C98.3015 24.1837 98.8484 23.6367 99.5322 23.6367C100.216 23.6367 100.763 24.1837 100.763 24.8674C100.763 25.5512 100.216 26.0982 99.5322 26.0982C98.8484 26.0982 98.3015 25.5512 98.3015 24.8674Z" fill="#DF1122"/>
<path d="M99.4984 26.0982C100.178 26.0982 100.729 25.5472 100.729 24.8674C100.729 24.1877 100.178 23.6367 99.4984 23.6367C98.8187 23.6367 98.2677 24.1877 98.2677 24.8674C98.2677 25.5472 98.8187 26.0982 99.4984 26.0982Z" stroke="#DF1122" stroke-width="0.0576186" stroke-miterlimit="3.864"/>
<path d="M101.241 31.4658L98.4719 38.7818H96.8651L97.9249 36.3887L96.0104 31.4658H97.6172L98.6428 34.6452H98.7112L99.6684 31.4658H101.241Z" fill="#FDF737"/>
<path d="M95.7723 35.158C95.7723 36.3204 94.5074 36.7648 93.2767 36.7648C92.0802 36.7648 90.8152 36.3204 90.8152 35.158H92.3878C92.3878 35.5341 92.9006 35.6367 93.2767 35.6367C93.6528 35.6367 94.1314 35.5341 94.1314 35.1922C94.1314 34.7478 93.5502 34.6794 92.593 34.4401C91.6357 34.2008 90.9178 33.7564 90.9178 32.8333C90.9178 31.671 92.046 31.2607 93.2425 31.2607C94.439 31.2607 95.533 31.671 95.533 32.7991H93.9604C93.9604 32.4915 93.5502 32.3547 93.2425 32.3547C92.9006 32.3547 92.5246 32.4231 92.5246 32.765C92.5246 33.2094 93.2083 33.2436 93.9604 33.4487C94.9518 33.7564 95.7723 34.1324 95.7723 35.158Z" fill="#FDF737"/>
<path d="M88.456 34.0294C88.456 33.3456 88.08 32.6961 87.1911 32.6961C86.3023 32.6961 86.0288 33.414 86.0288 34.0294C86.0288 34.6789 86.3706 35.3627 87.2595 35.3627C88.1825 35.3627 88.456 34.6447 88.456 34.0294ZM89.9602 36.5934H88.4902V36.0122H88.4218C88.1825 36.525 87.6697 36.7985 86.9176 36.7985C85.6185 36.7985 84.4904 35.7387 84.4904 34.0636C84.4904 32.3542 85.516 31.3286 86.8151 31.3286C87.533 31.3286 88.1483 31.6363 88.4218 32.0807H88.4902V31.4995H89.9944L89.9602 36.5934Z" fill="#FDF737"/>
<path d="M94.0619 38.8162C89.9937 38.2692 85.9254 38.235 79.6009 38.6795L79.6693 38.406C85.9938 37.859 90.9851 37.5513 93.6858 37.6539C95.2926 37.688 95.7712 37.8248 95.7712 38.406C95.8054 38.9871 95.0875 38.953 94.0619 38.8162Z" fill="#FDF737"/>
<path d="M82.0622 33.4824C82.028 33.1747 81.8571 32.5593 81.0024 32.5593C80.2161 32.5593 79.9768 33.2089 79.9427 33.4824H82.0622ZM83.6348 33.9952C83.6348 34.2003 83.6006 34.508 83.6006 34.508H79.9085C79.9427 35.0892 80.3871 35.5336 81.0024 35.5336C81.4469 35.5336 81.7546 35.3627 81.8913 35.055H83.4981C83.3613 35.8071 82.7118 36.7643 81.0366 36.7643C79.4299 36.7643 78.3359 35.4994 78.3359 33.9952C78.3359 32.4568 79.3273 31.3286 80.9341 31.3286C82.575 31.3286 83.6348 32.4568 83.6348 33.9952Z" fill="#FDF737"/>
<path d="M83.3614 42.0293C83.4298 41.961 83.5323 41.8926 83.6349 41.8584C83.7374 41.8242 83.84 41.79 83.9426 41.79C84.0451 41.79 84.1477 41.8242 84.2502 41.8584C84.3528 41.8926 84.4554 41.961 84.5237 42.0293L84.6263 42.1319L84.387 42.3712L84.2844 42.2345C84.2502 42.2003 84.1819 42.1661 84.1135 42.1319C84.0451 42.0977 83.9767 42.0977 83.9426 42.0977C83.8742 42.0977 83.8058 42.0977 83.7716 42.1319C83.7032 42.1661 83.6691 42.2003 83.6007 42.2345C83.5665 42.2687 83.5323 42.337 83.4981 42.4054C83.4639 42.4738 83.4639 42.5421 83.4639 42.5763C83.4639 42.6447 83.4639 42.7131 83.4981 42.7473C83.5323 42.8156 83.5665 42.8498 83.6007 42.9182C83.7032 43.0208 83.8058 43.0549 83.9426 43.0549C84.0109 43.0549 84.0793 43.0549 84.1135 43.0208C84.1819 42.9866 84.216 42.9524 84.2844 42.9182L84.387 42.8156L84.6263 43.0549L84.5237 43.1575C84.4554 43.2259 84.3528 43.2943 84.2502 43.3284C84.1477 43.3626 84.0451 43.3968 83.9426 43.3968C83.84 43.3968 83.7374 43.3626 83.6349 43.3284C83.5323 43.2943 83.4639 43.2259 83.3614 43.1575C83.293 43.0891 83.2246 42.9866 83.1904 42.884C83.1563 42.7815 83.1221 42.6789 83.1221 42.5763C83.1221 42.4738 83.1563 42.3712 83.1904 42.2687C83.2246 42.2003 83.293 42.0977 83.3614 42.0293Z" fill="white"/>
<path d="M85.2079 42.2345C85.1053 42.337 85.0711 42.4396 85.0711 42.5763C85.0711 42.6447 85.0711 42.7131 85.1053 42.7815C85.1395 42.7473 85.1737 42.7131 85.242 42.6447C85.3104 42.5763 85.3788 42.508 85.413 42.4738C85.4814 42.4054 85.5497 42.337 85.6181 42.2687C85.6865 42.2003 85.7207 42.1661 85.7549 42.1319C85.6523 42.0977 85.5839 42.0635 85.4814 42.0977C85.3788 42.1319 85.2762 42.1661 85.2079 42.2345ZM85.9942 42.8156L86.2335 43.055L86.1309 43.1575C86.0625 43.2259 85.96 43.2943 85.8574 43.3284C85.7549 43.3626 85.6523 43.3968 85.5497 43.3968C85.4472 43.3968 85.3446 43.3626 85.242 43.3284C85.1395 43.2943 85.0711 43.2259 84.9686 43.1575C84.9002 43.0891 84.8318 42.9866 84.7976 42.884C84.7634 42.7815 84.7292 42.6789 84.7292 42.5763C84.7292 42.4738 84.7634 42.3712 84.7976 42.2687C84.8318 42.1661 84.9002 42.0977 84.9686 41.9952C85.0369 41.9268 85.1395 41.8584 85.242 41.8242C85.3446 41.79 85.4472 41.7559 85.5497 41.7559C85.6523 41.7559 85.7549 41.79 85.8574 41.8242C85.96 41.8584 86.0625 41.9268 86.1309 41.9952L86.2335 42.0977L85.3446 42.9866C85.4472 43.0208 85.5155 43.055 85.6181 43.0208C85.7207 43.0208 85.8232 42.9524 85.8916 42.884L85.9942 42.8156Z" fill="white"/>
<path d="M86.3365 42.5763C86.3365 42.4738 86.3707 42.3712 86.4049 42.2687C86.439 42.1661 86.5074 42.0977 86.5758 42.0293C86.6442 41.961 86.7467 41.8926 86.8493 41.8584C86.9518 41.8242 87.0544 41.79 87.157 41.79C87.2595 41.79 87.3621 41.8242 87.4646 41.8584C87.5672 41.8926 87.6356 41.961 87.7381 42.0293C87.8065 42.0977 87.8749 42.2003 87.9091 42.2687C87.9433 42.3712 87.9775 42.4738 87.9775 42.5763V43.3968H87.6698V42.5763C87.6698 42.508 87.6698 42.4396 87.6356 42.4054C87.6014 42.337 87.5672 42.3028 87.533 42.2345C87.4988 42.2003 87.4305 42.1661 87.3621 42.1319C87.2937 42.0977 87.2253 42.0977 87.157 42.0977C87.0886 42.0977 87.0202 42.0977 86.9518 42.1319C86.8835 42.1661 86.8493 42.2003 86.8151 42.2345C86.7809 42.2687 86.7467 42.337 86.7125 42.4054C86.6784 42.4738 86.6784 42.508 86.6784 42.5763V43.3968H86.3365V42.5763Z" fill="white"/>
<path d="M88.2847 42.0293C88.353 41.961 88.4556 41.8926 88.5582 41.8584C88.6607 41.8242 88.7633 41.79 88.8658 41.79C88.9684 41.79 89.071 41.8242 89.1735 41.8584C89.2761 41.8926 89.3786 41.961 89.447 42.0293L89.5496 42.1319L89.3103 42.3712L89.2077 42.2687C89.1735 42.2345 89.1051 42.2003 89.0368 42.1661C88.9684 42.1319 88.9 42.1319 88.8658 42.1319C88.7975 42.1319 88.7291 42.1319 88.6949 42.1661C88.6265 42.2003 88.5923 42.2345 88.524 42.2687C88.4898 42.3028 88.4556 42.3712 88.4214 42.4396C88.3872 42.508 88.3872 42.5763 88.3872 42.6105C88.3872 42.6789 88.3872 42.7473 88.4214 42.7815C88.4556 42.8498 88.4898 42.884 88.524 42.9524C88.6265 43.055 88.7291 43.0891 88.8658 43.0891C88.9342 43.0891 89.0026 43.0891 89.0368 43.0549C89.1051 43.0208 89.1393 42.9866 89.2077 42.9524L89.3103 42.8498L89.5496 43.0891L89.4128 43.1575C89.3445 43.2259 89.2419 43.2943 89.1393 43.3284C89.0368 43.3626 88.9342 43.3968 88.8317 43.3968C88.7291 43.3968 88.6265 43.3626 88.524 43.3284C88.4214 43.2943 88.353 43.2259 88.2505 43.1575C88.1821 43.0891 88.1137 42.9866 88.0795 42.884C88.0454 42.7815 88.0112 42.6789 88.0112 42.5763C88.0112 42.4738 88.0454 42.3712 88.0795 42.2687C88.1479 42.2003 88.2163 42.0977 88.2847 42.0293Z" fill="white"/>
<path d="M89.9598 42.5763C89.9598 42.6447 89.9598 42.7131 89.994 42.7815C90.0282 42.8498 90.0624 42.884 90.0966 42.9524C90.1308 42.9866 90.1991 43.0208 90.2675 43.0549C90.3359 43.0891 90.4043 43.0891 90.4726 43.0891C90.541 43.0891 90.6094 43.0891 90.6778 43.0549C90.7461 43.0208 90.7803 42.9866 90.8487 42.9524C90.8829 42.9182 90.9171 42.8498 90.9513 42.7815C90.9854 42.7131 90.9854 42.6447 90.9854 42.5763C90.9854 42.508 90.9854 42.4396 90.9513 42.4054C90.9171 42.337 90.8829 42.3028 90.8487 42.2345C90.8145 42.2003 90.7461 42.1661 90.6778 42.1319C90.6094 42.0977 90.541 42.0977 90.4726 42.0977C90.4043 42.0977 90.3359 42.0977 90.2675 42.1319C90.1991 42.1661 90.165 42.2003 90.0966 42.2345C90.0624 42.2687 90.0282 42.337 89.994 42.4054C89.994 42.4738 89.9598 42.508 89.9598 42.5763ZM89.6522 42.5763C89.6522 42.4738 89.6863 42.3712 89.7205 42.2687C89.7547 42.1661 89.8231 42.0977 89.8915 42.0293C89.9598 41.961 90.0624 41.8926 90.165 41.8584C90.2675 41.8242 90.3701 41.79 90.4726 41.79C90.5752 41.79 90.6778 41.8242 90.7803 41.8584C90.8829 41.8926 90.9513 41.961 91.0538 42.0293C91.1222 42.0977 91.1906 42.2003 91.2248 42.2687C91.2589 42.3712 91.2931 42.4738 91.2931 42.5763C91.2931 42.6789 91.2589 42.7815 91.2248 42.884C91.1906 42.9866 91.1222 43.0549 91.0538 43.1575C90.9854 43.2259 90.8829 43.2943 90.7803 43.3284C90.6778 43.3626 90.5752 43.3968 90.4726 43.3968C90.3701 43.3968 90.2675 43.3626 90.165 43.3284C90.0624 43.2943 89.994 43.2259 89.8915 43.1575C89.8231 43.0891 89.7547 42.9866 89.7205 42.884C89.6863 42.8156 89.6522 42.7131 89.6522 42.5763Z" fill="white"/>
<path d="M92.7974 41.79V42.0977H91.8402C91.806 42.0977 91.7718 42.0977 91.7376 42.1319C91.7034 42.1661 91.7034 42.2003 91.7034 42.2345C91.7034 42.2687 91.7034 42.3028 91.7376 42.337C91.7718 42.3712 91.806 42.3712 91.8402 42.3712H92.4897C92.5581 42.3712 92.6265 42.3712 92.6607 42.4054C92.729 42.4396 92.7632 42.4738 92.7974 42.508C92.8316 42.5421 92.8658 42.6105 92.9 42.6789C92.9342 42.7473 92.9342 42.7815 92.9342 42.8498C92.9342 42.9182 92.9342 42.9866 92.9 43.055C92.8658 43.1233 92.8316 43.1575 92.7974 43.2259C92.7632 43.2601 92.6949 43.2943 92.6607 43.3284C92.5923 43.3626 92.5239 43.3626 92.4897 43.3626H91.5325V43.055H92.4897C92.5239 43.055 92.5923 43.055 92.5923 43.0208C92.6265 42.9866 92.6265 42.9524 92.6265 42.9182C92.6265 42.884 92.6265 42.8498 92.5923 42.8156C92.5581 42.7815 92.5239 42.7815 92.4897 42.7815H91.8402C91.7718 42.7815 91.7034 42.7815 91.6351 42.7473C91.5667 42.7131 91.5325 42.6789 91.4983 42.6447C91.4641 42.6105 91.4299 42.5421 91.3958 42.508C91.3616 42.4396 91.3616 42.3712 91.3616 42.3028C91.3616 42.2345 91.3616 42.1661 91.3958 42.1319C91.4299 42.0635 91.4641 42.0293 91.4983 41.961C91.5325 41.9268 91.6009 41.8926 91.6351 41.8584C91.7034 41.8242 91.7718 41.8242 91.8402 41.8242H92.7974V41.79Z" fill="white"/>
<path d="M94.6784 41.79V42.5763C94.6784 42.6789 94.6443 42.7815 94.6101 42.884C94.5759 42.9866 94.5075 43.0549 94.4391 43.1575C94.3708 43.2259 94.2682 43.2943 94.1656 43.3284C94.0631 43.3626 93.9605 43.3968 93.858 43.3968C93.7554 43.3968 93.6528 43.3626 93.5503 43.3284C93.4477 43.2943 93.3793 43.2259 93.2768 43.1575C93.2084 43.0891 93.14 42.9866 93.1058 42.884C93.0717 42.7815 93.0375 42.6789 93.0375 42.5763V41.79H93.3452V42.5763C93.3452 42.6447 93.3452 42.7131 93.3793 42.7815C93.4135 42.8498 93.4477 42.884 93.4819 42.9524C93.5161 42.9866 93.5845 43.0208 93.6528 43.0549C93.7212 43.0891 93.7896 43.0891 93.858 43.0891C93.9263 43.0891 93.9947 43.0891 94.0631 43.0549C94.1315 43.0208 94.1656 42.9866 94.234 42.9524C94.2682 42.9182 94.3024 42.8498 94.3366 42.7815C94.3708 42.7131 94.3708 42.6447 94.3708 42.5763V41.79H94.6784Z" fill="white"/>
<path d="M95.5669 43.0551C95.6352 43.0551 95.7036 43.0551 95.7378 43.0209C95.8062 42.9867 95.8404 42.9525 95.8746 42.9183C95.9087 42.8842 95.9429 42.8158 95.9771 42.7474C96.0113 42.679 96.0113 42.6107 96.0113 42.5423V42.0637H95.5669C95.4985 42.0637 95.4301 42.0637 95.3618 42.0979C95.2934 42.132 95.2592 42.1662 95.1908 42.2004C95.1566 42.2346 95.1224 42.303 95.0883 42.3713C95.0541 42.4397 95.0541 42.4739 95.0541 42.5423C95.0541 42.6107 95.0541 42.679 95.0883 42.7474C95.1224 42.8158 95.1566 42.85 95.1908 42.9183C95.225 42.9525 95.2934 42.9867 95.3618 43.0209C95.4301 43.0551 95.4985 43.0551 95.5669 43.0551ZM96.3874 41.1406V42.5765C96.3874 42.679 96.3532 42.7816 96.319 42.8842C96.2848 42.9867 96.2164 43.0551 96.1481 43.1576C96.0797 43.226 95.9771 43.2944 95.9087 43.3286C95.8062 43.3628 95.7036 43.397 95.6011 43.397C95.4985 43.397 95.3959 43.3628 95.2934 43.3286C95.1908 43.2944 95.1224 43.226 95.0199 43.1576C94.9515 43.0893 94.8831 42.9867 94.849 42.8842C94.8148 42.7816 94.7806 42.679 94.7806 42.5765C94.7806 42.4739 94.8148 42.3713 94.849 42.2688C94.8831 42.1662 94.9515 42.0979 95.0199 42.0295C95.0883 41.9611 95.1908 41.8927 95.2934 41.8585C95.3959 41.8244 95.4985 41.7902 95.6011 41.7902H96.0797V41.1406H96.3874Z" fill="white"/>
<path d="M54.8529 62.5038L61.6874 53.6592H121.992L127.218 62.5038V71.7505H54.8529V62.5038Z" fill="#6E8391"/>
<path d="M57.265 63.3076H124.002" stroke="#B4C2CB" stroke-linecap="round" stroke-linejoin="round"/>
<path d="M91.8395 73.7603L91.8395 126.024" stroke="#E1E6EA" stroke-linecap="round" stroke-linejoin="round"/>
<path d="M133.65 39.186H141.289L213.654 48.8347L218.076 58.8854L146.113 51.2469L134.856 53.6591L133.65 39.186Z" fill="#6E8391"/>
<path d="M38.7716 47.2261H48.0183V60.493L35.5554 58.8849L12.2377 65.7194L13.4438 56.4727L38.7716 47.2261Z" fill="#6E8391"/>
<path d="M38.4059 48.6401L35.9937 57.4848" stroke="#B4C2CB" stroke-linecap="round" stroke-linejoin="round"/>
<path d="M141.874 40.6768L143.938 49.5247" stroke="#B4C2CB" stroke-linecap="round" stroke-linejoin="round"/>
<path d="M19.4742 66.9253L12.2377 65.7193L35.5554 58.8848L48.0183 60.4929L19.4742 66.9253Z" fill="#4B5E6B"/>
<path d="M210.84 60.8953L134.856 53.6588L146.113 51.2466L218.076 58.8851L210.84 60.8953Z" fill="#4B5F6B"/>
<path d="M19.4743 105.922L23.4946 104.716L23.0926 66.1216" stroke="#B4C2CB" stroke-linecap="round" stroke-linejoin="round"/>
<path d="M23.4944 104.716L40.7817 108.737" stroke="#B4C2CB" stroke-linecap="round" stroke-linejoin="round"/>
<path d="M210.84 106.727L206.417 104.314L141.289 108.335" stroke="#B4C2CB" stroke-linecap="round" stroke-linejoin="round"/>
<path d="M206.418 60.895V104.314" stroke="#B4C2CB" stroke-linecap="round" stroke-linejoin="round"/>
</svg>
