<svg width="32" height="32" viewBox="0 0 32 32" fill="none" xmlns="http://www.w3.org/2000/svg">
<path d="M16.3904 11.5121L14.2701 9.3918C13.3214 8.38941 13.4245 7.13952 13.4699 6.60739C13.474 6.54552 13.4822 6.49189 13.4822 6.45064C13.5194 5.37813 13.1151 4.34687 12.3726 3.60023C11.4857 2.71335 10.2441 2.33384 9.04369 2.5401L10.6937 4.19011C11.1062 4.60262 11.329 5.15125 11.329 5.74113C11.329 6.32689 11.098 6.87552 10.6855 7.28802C9.83157 8.14603 8.43731 8.15016 7.58342 7.3004L5.93341 5.65038C5.72715 6.85077 6.11078 8.09241 6.99767 8.97517C7.74018 9.71768 8.77144 10.1137 9.8357 10.0848C9.8852 10.0848 9.93883 10.0807 10.0048 10.0724C10.4256 10.0353 11.2052 9.97343 11.9972 10.3364L11.5682 11.2728C11.0237 11.0212 10.4421 11.0707 10.0915 11.0996C9.99658 11.1078 9.9182 11.1119 9.86045 11.1161C8.52806 11.1656 7.21217 10.6499 6.26754 9.7053C4.88977 8.33166 4.47314 6.27739 5.20327 4.47474C5.26927 4.31387 5.40953 4.19836 5.57865 4.16124C5.74778 4.12824 5.92516 4.17774 6.04478 4.30149L8.31356 6.57027C8.75494 7.01165 9.50982 7.00752 9.95533 6.56202C10.174 6.34339 10.2936 6.05051 10.2977 5.73701C10.2977 5.4235 10.1822 5.13475 9.9677 4.92025L7.6948 2.65147C7.57105 2.52772 7.52155 2.35447 7.55455 2.18534C7.58755 2.01622 7.70718 1.87596 7.86805 1.80996C9.6707 1.07983 11.725 1.49646 13.0986 2.87422C14.0432 3.81886 14.5589 5.13475 14.5094 6.47952C14.5094 6.52489 14.5011 6.60327 14.497 6.69402C14.4599 7.15602 14.3856 8.01403 15.0085 8.66991L17.1164 10.7778L16.3863 11.5079L16.3904 11.5121Z" fill="#764774"/>
<path d="M25.3006 23.9901C25.2346 23.9901 25.1686 23.9901 25.0984 23.9777C24.5952 23.92 24.0878 23.6395 23.5928 23.1445L18.9851 18.5368L19.7152 17.8066L24.3229 22.4143C24.6488 22.7402 24.9499 22.9217 25.2181 22.9547C25.3129 22.9671 25.5976 23.0001 25.9936 22.5999C26.3937 22.1998 26.3607 21.9152 26.3483 21.8244C26.3194 21.5604 26.1338 21.2593 25.8079 20.9293L24.7849 19.9063L25.5151 19.1762L26.5381 20.1992C27.0331 20.6942 27.3177 21.2016 27.3755 21.7048C27.4415 22.2823 27.2228 22.8309 26.7237 23.326C26.2823 23.7673 25.8079 23.9901 25.3006 23.9901Z" fill="#764774"/>
<path d="M24.0796 20.402H24.0631C23.5846 20.402 23.135 20.2082 22.7926 19.8699L22.5822 19.6595C21.8769 18.9541 21.8727 17.8156 22.5657 17.1185L24.0631 15.6211C24.3973 15.287 24.8428 15.1055 25.3171 15.1055C25.8039 15.1055 26.2576 15.2952 26.6 15.6376L26.8104 15.8439C27.5158 16.5534 27.5199 17.6919 26.8269 18.3849L25.3295 19.8823C24.9954 20.2164 24.5499 20.3979 24.0714 20.3979L24.0796 20.402ZM24.7974 16.3471L23.3 17.8445C23.0071 18.1374 23.0112 18.6241 23.3165 18.9294L23.5269 19.1398C23.6712 19.2841 23.8692 19.3666 24.0755 19.3708C24.2818 19.3708 24.4674 19.2965 24.6076 19.1563L26.105 17.6589C26.3979 17.366 26.3938 16.8792 26.0885 16.5781L25.8781 16.3719C25.7296 16.2192 25.5234 16.1244 25.3213 16.1409C25.1191 16.1409 24.9335 16.2151 24.7933 16.3554L24.7974 16.3471Z" fill="#764774"/>
<path d="M22.0418 18.3652H22.0294C21.5509 18.3652 21.1012 18.1713 20.7589 17.833L20.5485 17.6227C20.2102 17.2844 20.0205 16.8348 20.0164 16.3521C20.0164 15.8695 20.1979 15.4158 20.532 15.0816L22.5863 13.0273C22.9245 12.6891 23.3865 12.5117 23.8568 12.5117C24.3353 12.5117 24.7849 12.7056 25.1273 13.0439L25.3377 13.2542C25.6759 13.5925 25.8657 14.0462 25.8698 14.5247C25.8698 15.0074 25.6883 15.4611 25.3542 15.7953L23.2999 17.8495C22.9658 18.1837 22.5203 18.3693 22.0418 18.3693V18.3652ZM23.8444 13.543C23.6423 13.543 23.4566 13.6172 23.3164 13.7575L21.2621 15.8118C21.1219 15.952 21.0435 16.1418 21.0476 16.348C21.0476 16.5543 21.1301 16.7481 21.2786 16.8966L21.489 17.107C21.6334 17.2514 21.8273 17.3339 22.0376 17.3339C22.2521 17.3339 22.4295 17.2596 22.5698 17.1194L24.624 15.0651C24.7643 14.9249 24.8427 14.7351 24.8385 14.533C24.8385 14.3267 24.756 14.1329 24.6075 13.9844L24.3972 13.774C24.2487 13.6255 24.0548 13.5471 23.8485 13.543H23.8403H23.8444Z" fill="#764774"/>
<path d="M19.1005 13.901L18.3704 13.1709L20.2514 11.2899C20.5443 10.997 20.5402 10.5102 20.2349 10.2091L20.0245 9.99462C19.7234 9.69349 19.2367 9.68524 18.9397 9.98224L17.0009 11.921L16.2708 11.1909L18.2095 9.25211C18.9067 8.55498 20.0452 8.56323 20.7506 9.26861L20.9651 9.48311C21.6663 10.1885 21.6746 11.327 20.9816 12.0241L19.0964 13.9052L19.1005 13.901Z" fill="#764774"/>
<path d="M21.262 15.8105L20.5319 15.0803L23.0977 12.5146C23.3906 12.2217 23.3864 11.7349 23.0812 11.4297L22.8708 11.2234C22.5779 10.9264 22.0706 10.9223 21.7901 11.2069L19.2243 13.7727L18.4941 13.0426L21.0599 10.4768C21.394 10.1427 21.8396 9.95703 22.3139 9.95703C22.7883 9.95703 23.2544 10.1468 23.5968 10.4892L23.8072 10.6954C24.5126 11.4049 24.5208 12.5434 23.8237 13.2406L21.2579 15.8063L21.262 15.8105Z" fill="#764774"/>
<path d="M16.5885 19.739C16.5142 19.739 16.4359 19.7225 16.3616 19.6853C16.1059 19.5616 15.9986 19.2522 16.1224 18.9965C16.1636 18.9057 17.1495 16.7937 15.4953 15.1395C15.2932 14.9374 15.2932 14.6115 15.4953 14.4094C15.6975 14.2073 16.0234 14.2073 16.2255 14.4094C17.9704 16.1543 17.529 18.4685 17.0505 19.4461C16.9597 19.6276 16.7782 19.7348 16.5885 19.7348V19.739Z" fill="#764774"/>
<path d="M14.7734 27.1427C14.6414 27.1427 14.5094 27.0932 14.4104 26.9901C14.2083 26.788 14.2083 26.4621 14.4104 26.2599L15.7593 24.9111C15.8913 24.7791 16.0852 24.7296 16.2667 24.7791C16.2997 24.7873 17.1329 25.0059 18.2178 24.5192C19.1583 24.0984 20.5732 23.0053 22.4295 21.2728C22.6357 21.0789 22.9657 21.0913 23.1596 21.2975C23.3535 21.5038 23.3411 21.8338 23.1349 22.0276C21.1672 23.8633 19.6987 24.9894 18.6427 25.4597C17.6238 25.9176 16.7493 25.8928 16.2997 25.8309L15.1446 26.9901C15.0456 27.0891 14.9136 27.1427 14.7816 27.1427H14.7734Z" fill="#764774"/>
<path d="M10.4504 20.1835C10.3431 20.1835 10.2359 20.1505 10.1451 20.0845C9.91414 19.9154 9.86876 19.5936 10.0379 19.3626C10.0379 19.3626 10.3143 18.9666 10.3638 18.3437C10.438 17.6878 10.8175 14.4992 11.2259 13.6824C11.329 13.439 12.2077 11.5168 14.4146 10.2586C14.4764 10.2215 14.5466 10.2009 14.6167 10.1926C14.6621 10.1885 15.7263 10.0936 16.572 10.9393L20.8125 15.1798C20.9074 15.2747 20.9651 15.4067 20.9651 15.5428C20.9651 15.6789 20.9115 15.8109 20.8125 15.9058C20.0288 16.6896 18.156 17.7827 16.6833 16.3142L14.7116 14.3424C14.5094 14.1403 14.5094 13.8144 14.7116 13.6123C14.9137 13.4102 15.2396 13.4102 15.4417 13.6123L17.4135 15.5841C18.189 16.3596 19.1542 15.8852 19.6864 15.5057L15.846 11.6653C15.4623 11.2816 15.0086 11.2239 14.8147 11.2156C12.8965 12.3541 12.1829 14.0702 12.1747 14.0867C12.1664 14.1032 12.1623 14.1197 12.154 14.132C11.9189 14.5734 11.5683 16.9123 11.395 18.4345C11.3249 19.3296 10.9165 19.903 10.8712 19.969C10.768 20.1051 10.6154 20.1794 10.4545 20.1794L10.4504 20.1835Z" fill="#764774"/>
<path d="M13.313 30.7133C13.181 30.7133 13.049 30.6638 12.95 30.5607C12.7479 30.3586 12.7479 30.0327 12.95 29.8306L15.0414 27.7392L8.03294 20.7349L5.94154 22.8263C5.73942 23.0284 5.41354 23.0284 5.21141 22.8263C5.00928 22.6241 5.00928 22.2982 5.21141 22.0961L7.66994 19.6376C7.86381 19.4437 8.20619 19.4437 8.40007 19.6376L16.1345 27.3721C16.3367 27.5742 16.3367 27.9001 16.1345 28.1022L13.676 30.5607C13.577 30.6597 13.445 30.7133 13.313 30.7133Z" fill="#764774"/>
</svg>
