<svg width="22" height="22" viewBox="0 0 22 22" fill="none" xmlns="http://www.w3.org/2000/svg">
<path d="M4.00002 5.41408L0.757019 2.17208L2.17202 0.75708L5.41402 4.00008H20.656C20.8119 4.00007 20.9656 4.03649 21.1049 4.10645C21.2442 4.1764 21.3652 4.27794 21.4583 4.40298C21.5513 4.52801 21.6139 4.67306 21.6409 4.82657C21.668 4.98007 21.6588 5.13777 21.614 5.28708L19.214 13.2871C19.1523 13.4932 19.0257 13.6738 18.8531 13.8023C18.6806 13.9307 18.4712 14.0001 18.256 14.0001H6.00002V16.0001H17V18.0001H5.00002C4.7348 18.0001 4.48045 17.8947 4.29291 17.7072C4.10538 17.5197 4.00002 17.2653 4.00002 17.0001V5.41408ZM6.00002 6.00008V12.0001H17.512L19.312 6.00008H6.00002ZM5.50002 22.0001C5.10219 22.0001 4.72066 21.842 4.43936 21.5607C4.15805 21.2794 4.00002 20.8979 4.00002 20.5001C4.00002 20.1023 4.15805 19.7207 4.43936 19.4394C4.72066 19.1581 5.10219 19.0001 5.50002 19.0001C5.89784 19.0001 6.27938 19.1581 6.56068 19.4394C6.84198 19.7207 7.00002 20.1023 7.00002 20.5001C7.00002 20.8979 6.84198 21.2794 6.56068 21.5607C6.27938 21.842 5.89784 22.0001 5.50002 22.0001ZM17.5 22.0001C17.1022 22.0001 16.7207 21.842 16.4394 21.5607C16.1581 21.2794 16 20.8979 16 20.5001C16 20.1023 16.1581 19.7207 16.4394 19.4394C16.7207 19.1581 17.1022 19.0001 17.5 19.0001C17.8978 19.0001 18.2794 19.1581 18.5607 19.4394C18.842 19.7207 19 20.1023 19 20.5001C19 20.8979 18.842 21.2794 18.5607 21.5607C18.2794 21.842 17.8978 22.0001 17.5 22.0001Z" fill="#333333"/>
</svg>
