<svg width="27" height="16" viewBox="0 0 27 16" fill="none" xmlns="http://www.w3.org/2000/svg">
<g clip-path="url(#clip0_2141_13413)">
<rect width="26.6667" height="16" rx="2.22222" fill="white"/>
<circle cx="22.2222" cy="7.77789" r="12.2222" fill="#0500C4"/>
<circle cx="6.66485" cy="7.77789" r="12.2222" fill="#2912A9"/>
<circle cx="4.4461" cy="7.77789" r="12.2222" fill="#44179A"/>
<circle cx="2.22222" cy="7.77789" r="12.2222" fill="#641E8D"/>
<circle cx="-0.371527" cy="7.77789" r="12.2222" fill="#862681"/>
<circle cx="-3.08515" cy="7.77789" r="12.2222" fill="#AB2F74"/>
<circle cx="-5.8039" cy="7.77789" r="12.2222" fill="#D13768"/>
<circle cx="-8.51728" cy="7.77789" r="12.2222" fill="#F9405D"/>
<g clip-path="url(#clip1_2141_13413)">
<path d="M3.78391 12.4071C3.85008 12.3452 3.92563 12.298 4.00788 12.2672C4.17372 12.2052 4.35081 12.2052 4.51638 12.2672C4.59862 12.298 4.67391 12.3452 4.74089 12.4076L4.95253 12.5995L5.36297 12.209L5.15722 12.0164C5.03398 11.9008 4.89145 11.8137 4.73526 11.7581C4.42877 11.6394 4.09656 11.6392 3.78391 11.7576C3.63013 11.8137 3.48974 11.9008 3.36623 12.0164C3.243 12.1318 3.15003 12.2632 3.09002 12.4074C3.03027 12.5506 3 12.7011 3 12.8548C3 13.0085 3.03027 13.154 3.09002 13.2972C3.15003 13.4412 3.24273 13.5726 3.36623 13.6882C3.48947 13.8036 3.62959 13.8921 3.78418 13.952C3.94064 14.008 4.10111 14.0361 4.26159 14.0361C4.42207 14.0361 4.58094 14.0077 4.73472 13.9515C4.89172 13.8921 5.03398 13.8033 5.15695 13.6882L5.36271 13.4956L4.95227 13.1051L4.73901 13.2985C4.67659 13.3599 4.60318 13.4068 4.52147 13.4374C4.43895 13.4683 4.35134 13.4841 4.26186 13.4841C4.07405 13.4841 3.91786 13.4229 3.78364 13.2975C3.71747 13.2355 3.6671 13.1648 3.63415 13.0878C3.60119 13.0098 3.58405 12.9298 3.58405 12.8495C3.58405 12.7693 3.60092 12.6893 3.63415 12.6113C3.66683 12.5348 3.71666 12.4663 3.78364 12.4066" fill="white"/>
<path d="M7.67797 12.0163C7.55473 11.9009 7.4122 11.8137 7.25601 11.758C6.94952 11.6394 6.61704 11.6394 6.30466 11.7575C6.15088 11.8139 6.01023 11.9009 5.88725 12.0163C5.76375 12.1317 5.67078 12.2631 5.61077 12.407C5.55103 12.5505 5.52075 12.6992 5.52075 12.8494C5.52075 12.9997 5.55103 13.1499 5.61077 13.2969C5.67078 13.4408 5.76375 13.5722 5.88725 13.6879C6.00674 13.7997 6.14498 13.8867 6.2985 13.9462C6.45174 14.0056 6.61463 14.0357 6.78288 14.0357C6.95113 14.0357 7.11402 14.0056 7.26726 13.9462C7.42051 13.8867 7.55875 13.7997 7.67851 13.6879L7.88426 13.495L7.46712 13.1045L7.26137 13.2971C7.1534 13.3979 7.03123 13.4576 6.88817 13.4792C6.85468 13.4837 6.82119 13.486 6.78877 13.486C6.71135 13.486 6.63499 13.4729 6.56132 13.4476L7.88453 12.2089L7.67877 12.0163H7.67797ZM6.77377 12.2179C6.8528 12.2179 6.9297 12.2307 7.00391 12.2563C6.96104 12.2957 6.90826 12.3433 6.84584 12.3995L6.14364 13.0569C6.11793 12.9904 6.1048 12.9209 6.1048 12.8494C6.1048 12.6739 6.17017 12.5274 6.30412 12.4018C6.40968 12.3027 6.53346 12.243 6.67143 12.2247C6.70599 12.2202 6.74028 12.2179 6.77377 12.2179Z" fill="white"/>
<path d="M10.2002 12.0163C10.0839 11.9077 9.94755 11.8224 9.79591 11.7637C9.49906 11.6386 9.12319 11.6363 8.81482 11.7632C8.66157 11.8227 8.52494 11.9079 8.4092 12.0163C8.29722 12.1214 8.20639 12.247 8.13888 12.3907C8.07512 12.5312 8.04297 12.6854 8.04297 12.8497V14.0357H8.63237V12.8497C8.63237 12.7629 8.64898 12.6814 8.68167 12.6081C8.71837 12.5304 8.76686 12.4627 8.82634 12.407C8.88903 12.3481 8.9611 12.3027 9.0412 12.2713C9.20624 12.2039 9.40154 12.2031 9.56979 12.2721C9.65177 12.3027 9.72304 12.3481 9.78412 12.408C9.84601 12.4629 9.89423 12.5299 9.92799 12.6089C9.96389 12.6826 9.98238 12.7636 9.98238 12.8497V14.0357H10.5718V12.8497C10.5718 12.6851 10.5375 12.5304 10.4705 12.3912C10.407 12.2475 10.3157 12.1214 10.1999 12.0163" fill="white"/>
<path d="M11.5349 12.407C11.601 12.3451 11.6763 12.2979 11.7588 12.2671C11.9244 12.2051 12.1012 12.2051 12.2673 12.2671C12.3496 12.2979 12.4251 12.3451 12.4921 12.4075L12.7038 12.5994L13.1142 12.2089L12.9084 12.0163C12.7852 11.9007 12.6427 11.8137 12.4865 11.758C12.18 11.6394 11.8475 11.6394 11.5351 11.7575C11.3813 11.8137 11.241 11.9007 11.1175 12.0163C10.9942 12.1317 10.901 12.2633 10.8412 12.4073C10.7815 12.5505 10.7512 12.701 10.7512 12.8547C10.7512 13.0084 10.7815 13.1539 10.8412 13.2971C10.9013 13.4408 10.9939 13.5725 11.1175 13.6881C11.2407 13.8035 11.3808 13.8918 11.5354 13.9519C11.6919 14.0079 11.8523 14.036 12.0128 14.036C12.1733 14.036 12.3322 14.0076 12.4859 13.9514C12.6429 13.892 12.7852 13.8032 12.9082 13.6881L13.1139 13.4955L12.7035 13.105L12.4902 13.2984C12.4278 13.3598 12.3547 13.4067 12.2724 13.4373C12.1899 13.4682 12.1026 13.484 12.0128 13.484C11.825 13.484 11.6685 13.4228 11.5346 13.2974C11.4682 13.2354 11.4181 13.1647 11.3851 13.0877C11.3519 13.01 11.335 12.9299 11.335 12.8494C11.335 12.7689 11.3519 12.6889 11.3851 12.6112C11.4178 12.5347 11.4676 12.4662 11.5346 12.4065" fill="white"/>
<path d="M15.4304 12.0163C15.3144 11.9077 15.1777 11.8224 15.0264 11.7637C14.7293 11.6386 14.3537 11.6363 14.0453 11.763C13.892 11.8224 13.7554 11.9077 13.6394 12.0163C13.5274 12.1211 13.4366 12.2468 13.3693 12.3907C13.3056 12.5312 13.2734 12.6854 13.2734 12.8497C13.2734 13.014 13.3056 13.1647 13.3696 13.3092C13.4366 13.4519 13.5271 13.579 13.6397 13.6881C13.7554 13.7962 13.8918 13.883 14.0456 13.9464C14.1988 14.0059 14.3636 14.036 14.5353 14.036C14.707 14.036 14.8758 14.0059 15.0261 13.9459C15.1788 13.8832 15.3149 13.7967 15.4309 13.6881C15.5469 13.5793 15.638 13.4516 15.701 13.3092C15.7682 13.1652 15.8025 13.0107 15.8025 12.8497C15.8025 12.6887 15.7682 12.5304 15.7015 12.3912C15.6378 12.2473 15.5464 12.1211 15.4309 12.0166M15.2131 12.8497C15.2131 12.9362 15.1949 13.0192 15.1579 13.098C15.125 13.175 15.0767 13.2437 15.0138 13.3024C14.9546 13.3581 14.882 13.4037 14.8005 13.4373C14.635 13.4993 14.4346 13.4985 14.2722 13.4381C14.1886 13.4035 14.1141 13.3576 14.0531 13.3034C13.993 13.2442 13.944 13.1745 13.9079 13.098C13.8746 13.0202 13.8578 12.9367 13.8578 12.8497C13.8578 12.7627 13.8746 12.6814 13.907 12.6084C13.9438 12.5304 13.9925 12.4627 14.052 12.4073C14.1144 12.3486 14.1881 12.3035 14.2719 12.2719C14.3545 12.2378 14.4429 12.2207 14.5356 12.2207C14.6283 12.2207 14.7167 12.238 14.8005 12.2726C14.8825 12.3032 14.954 12.3484 15.0149 12.4083C15.077 12.4635 15.125 12.5302 15.159 12.6092C15.1949 12.6827 15.2131 12.7637 15.2131 12.8499" fill="white"/>
<path d="M21.263 12.8485V11.7202H20.7164V11.8747C20.5128 11.743 20.2658 11.666 19.9998 11.666C19.3021 11.666 18.7366 12.1954 18.7366 12.8485C18.7366 13.5016 19.3021 14.031 19.9998 14.031C20.2658 14.031 20.5128 13.954 20.7164 13.8224V13.9769H21.263V12.8485ZM19.9998 13.5194C19.6041 13.5194 19.2831 13.2189 19.2831 12.8485C19.2831 12.4781 19.6041 12.1776 19.9998 12.1776C20.3955 12.1776 20.7164 12.4781 20.7164 12.8485C20.7164 13.2189 20.3955 13.5194 19.9998 13.5194Z" fill="#FFAC2C"/>
<path d="M23.5653 11.7207V12.849C23.5653 13.2195 23.2444 13.5199 22.8486 13.5199C22.4529 13.5199 22.132 13.2195 22.132 12.849V11.7207H21.5854V12.849C21.5854 13.2531 21.8019 13.6097 22.132 13.8229C22.3356 13.9545 22.5826 14.0315 22.8486 14.0315C23.1147 14.0315 23.3617 13.9545 23.5653 13.8229C23.5621 14.1908 23.2425 14.4882 22.8486 14.4882V14.4872H22.6051V14.9999H22.8486C23.1147 14.9999 23.3617 14.9229 23.5653 14.7912C23.8954 14.5778 24.1118 14.2211 24.1118 13.8174V11.7207H23.5653Z" fill="#00C7F9"/>
<path d="M17.2537 11.666C16.5965 11.666 16.0508 12.136 15.9905 12.7364V14.9933H16.537V13.8224C16.7406 13.954 16.9876 14.031 17.2537 14.031C17.9513 14.031 18.5169 13.5016 18.5169 12.8485C18.5169 12.1954 17.9513 11.666 17.2537 11.666ZM17.2537 13.5194C16.858 13.5194 16.537 13.2189 16.537 12.8485C16.537 12.4778 16.858 12.1776 17.2537 12.1776C17.6494 12.1776 17.9703 12.4781 17.9703 12.8485C17.9703 13.2189 17.6494 13.5194 17.2537 13.5194Z" fill="#F04B67"/>
</g>
<path d="M4.52406 8.88401C4.16258 8.88401 3.78629 8.81586 3.39517 8.67957C3.00406 8.54327 2.65147 8.33586 2.3374 8.05734L3.20851 7.00845C3.41591 7.17438 3.63814 7.31068 3.87517 7.41734C4.11814 7.51808 4.34629 7.56845 4.55962 7.56845C4.79073 7.56845 4.95666 7.5329 5.0574 7.46179C5.16406 7.39068 5.2174 7.28994 5.2174 7.15957C5.2174 7.02327 5.14629 6.91957 5.00406 6.84845C4.86777 6.77734 4.67814 6.69438 4.43517 6.59957L3.71517 6.29734C3.40703 6.1729 3.13443 5.97734 2.8974 5.71068C2.66629 5.44401 2.55073 5.10327 2.55073 4.68845C2.55073 4.3566 2.64258 4.05734 2.82629 3.79068C3.00999 3.51808 3.26184 3.30179 3.58184 3.14179C3.90777 2.97586 4.2811 2.8929 4.70184 2.8929C5.03369 2.8929 5.36851 2.95808 5.70629 3.08845C6.04999 3.2129 6.35517 3.40549 6.62184 3.66623L5.8574 4.62623C5.66184 4.48994 5.47221 4.38623 5.28851 4.31512C5.11073 4.24401 4.91517 4.20845 4.70184 4.20845C4.51814 4.20845 4.36999 4.24105 4.2574 4.30623C4.15073 4.37142 4.0974 4.4692 4.0974 4.59957C4.0974 4.73586 4.17443 4.84253 4.32851 4.91957C4.48258 4.99068 4.68999 5.0766 4.95073 5.17734L5.65295 5.4529C6.01443 5.59512 6.29295 5.79364 6.48851 6.04845C6.68406 6.30327 6.78184 6.63216 6.78184 7.03512C6.78184 7.36105 6.69295 7.66623 6.51517 7.95068C6.34332 8.2292 6.08851 8.45438 5.75073 8.62623C5.41295 8.79808 5.00406 8.88401 4.52406 8.88401ZM8.74142 8.88401C8.46291 8.88401 8.22291 8.82179 8.02142 8.69734C7.82587 8.56697 7.67476 8.39808 7.56809 8.19068C7.46142 7.98327 7.40809 7.75808 7.40809 7.51512C7.40809 7.0529 7.59772 6.69142 7.97698 6.43068C8.35624 6.16401 8.97254 5.98623 9.82587 5.89734C9.79031 5.5892 9.58291 5.43512 9.20365 5.43512C9.04365 5.43512 8.87476 5.46771 8.69698 5.5329C8.5192 5.59216 8.31476 5.68401 8.08365 5.80845L7.55031 4.8129C7.86439 4.62327 8.18142 4.47808 8.50142 4.37734C8.82735 4.2766 9.16217 4.22623 9.50587 4.22623C10.0866 4.22623 10.5399 4.39216 10.8659 4.72401C11.1918 5.04994 11.3548 5.57734 11.3548 6.30623V8.77734H10.1103L10.0036 8.35068H9.96809C9.79031 8.51068 9.60068 8.64105 9.3992 8.74179C9.20365 8.8366 8.98439 8.88401 8.74142 8.88401ZM9.27476 7.71068C9.3992 7.71068 9.50291 7.68401 9.58587 7.63068C9.66883 7.57142 9.74883 7.49734 9.82587 7.40845V6.80401C9.46439 6.85734 9.21254 6.93734 9.07031 7.04401C8.93402 7.15068 8.86587 7.26623 8.86587 7.39068C8.86587 7.60401 9.00216 7.71068 9.27476 7.71068ZM13.7204 8.88401C13.3767 8.88401 13.1041 8.81586 12.9026 8.67957C12.707 8.53734 12.5648 8.34179 12.4759 8.0929C12.393 7.83808 12.3515 7.54475 12.3515 7.2129V2.59068H13.8804V7.26623C13.8804 7.41438 13.907 7.51808 13.9604 7.57734C14.0196 7.63068 14.0759 7.65734 14.1293 7.65734C14.1589 7.65734 14.1826 7.65734 14.2004 7.65734C14.2241 7.65142 14.2537 7.64549 14.2893 7.63957L14.467 8.75957C14.39 8.79512 14.2893 8.82475 14.1648 8.84845C14.0404 8.87216 13.8922 8.88401 13.7204 8.88401ZM16.6168 8.88401C16.0657 8.88401 15.6242 8.6766 15.2924 8.26179C14.9665 7.84105 14.8035 7.27216 14.8035 6.55512C14.8035 6.0692 14.8894 5.65438 15.0613 5.31068C15.2391 4.96105 15.4672 4.69438 15.7457 4.51068C16.0242 4.32105 16.3146 4.22623 16.6168 4.22623C16.8598 4.22623 17.0583 4.26771 17.2124 4.35068C17.3724 4.42771 17.5176 4.53438 17.648 4.67068L17.5946 4.03068V2.59068H19.1235V8.77734H17.8791L17.7724 8.36845H17.7368C17.5887 8.5166 17.4139 8.64105 17.2124 8.74179C17.0109 8.8366 16.8124 8.88401 16.6168 8.88401ZM17.0257 7.63957C17.1442 7.63957 17.248 7.61883 17.3368 7.57734C17.4317 7.52994 17.5176 7.44401 17.5946 7.31957V5.68401C17.5057 5.60105 17.408 5.54475 17.3013 5.51512C17.1946 5.48549 17.0909 5.47068 16.9902 5.47068C16.8302 5.47068 16.685 5.55068 16.5546 5.71068C16.4302 5.87068 16.368 6.14623 16.368 6.53734C16.368 6.93438 16.4272 7.21883 16.5457 7.39068C16.6642 7.5566 16.8242 7.63957 17.0257 7.63957ZM22.1286 8.88401C21.7494 8.88401 21.3909 8.79216 21.0531 8.60845C20.7212 8.42475 20.4486 8.16105 20.2353 7.81734C20.0279 7.46771 19.9242 7.04697 19.9242 6.55512C19.9242 6.06327 20.0279 5.64549 20.2353 5.30179C20.4486 4.95216 20.7212 4.68549 21.0531 4.50179C21.3909 4.31808 21.7494 4.22623 22.1286 4.22623C22.5079 4.22623 22.8635 4.31808 23.1953 4.50179C23.5331 4.68549 23.8057 4.95216 24.0131 5.30179C24.2264 5.64549 24.3331 6.06327 24.3331 6.55512C24.3331 7.04697 24.2264 7.46771 24.0131 7.81734C23.8057 8.16105 23.5331 8.42475 23.1953 8.60845C22.8635 8.79216 22.5079 8.88401 22.1286 8.88401ZM22.1286 7.65734C22.3598 7.65734 22.5227 7.55957 22.6175 7.36401C22.7183 7.16253 22.7686 6.8929 22.7686 6.55512C22.7686 6.21734 22.7183 5.95068 22.6175 5.75512C22.5227 5.55364 22.3598 5.4529 22.1286 5.4529C21.8975 5.4529 21.7316 5.55364 21.6309 5.75512C21.5361 5.95068 21.4886 6.21734 21.4886 6.55512C21.4886 6.8929 21.5361 7.16253 21.6309 7.36401C21.7316 7.55957 21.8975 7.65734 22.1286 7.65734Z" fill="white"/>
</g>
<defs>
<clipPath id="clip0_2141_13413">
<rect width="26.6667" height="16" rx="2.22222" fill="white"/>
</clipPath>
<clipPath id="clip1_2141_13413">
<rect width="21.1111" height="3.33333" fill="white" transform="translate(3 11.667)"/>
</clipPath>
</defs>
</svg>
