<svg width="35" height="21" viewBox="0 0 35 21" fill="none" xmlns="http://www.w3.org/2000/svg">
<rect width="35" height="21" rx="3.5" fill="#0500C4"/>
<path d="M7.90656 4.56018C8.01932 4.44743 8.14819 4.35883 8.28511 4.30245C8.567 4.18969 8.87306 4.18969 9.15495 4.30245C9.29187 4.35883 9.42074 4.44743 9.54155 4.56018L9.90398 4.90651L10.6047 4.19775L10.2503 3.84337C10.0409 3.63396 9.79928 3.47288 9.53349 3.36817C9.00998 3.15071 8.44619 3.15071 7.90656 3.36817C7.64078 3.47288 7.40721 3.62591 7.18974 3.84337C6.98034 4.05277 6.81926 4.2944 6.71455 4.56018C6.60985 4.81792 6.56152 5.09981 6.56152 5.37365C6.56152 5.64749 6.60985 5.92133 6.71455 6.17906C6.81926 6.44485 6.97228 6.67842 7.18974 6.89588C7.39915 7.10529 7.64078 7.26637 7.90656 7.37913C8.17235 7.48383 8.44619 7.53216 8.72003 7.53216C8.99387 7.53216 9.26771 7.48383 9.52544 7.37913C9.79123 7.27442 10.0329 7.10529 10.2503 6.89588L10.6047 6.5415L9.90398 5.83273L9.54155 6.18712C9.43684 6.29987 9.30798 6.38847 9.17106 6.43679C9.02608 6.49317 8.88111 6.52539 8.72808 6.52539C8.40592 6.52539 8.14013 6.41263 7.91462 6.18712C7.80186 6.07436 7.71326 5.94549 7.65688 5.80857C7.60051 5.6636 7.56829 5.51862 7.56829 5.37365C7.56829 5.22868 7.60051 5.0837 7.65688 4.93873C7.70521 4.79375 7.7938 4.66489 7.90656 4.56018Z" fill="white"/>
<path d="M14.5613 3.85118C14.3519 3.64177 14.1103 3.48069 13.8445 3.37599C13.321 3.15853 12.7572 3.15853 12.2176 3.37599C11.9518 3.48069 11.7182 3.63372 11.5008 3.85118C11.2914 4.06059 11.1303 4.30221 11.0256 4.568C10.9209 4.82573 10.8726 5.09957 10.8726 5.37341C10.8726 5.64725 10.9209 5.92109 11.0256 6.18688C11.1303 6.45266 11.2833 6.68623 11.5008 6.90369C11.7021 7.10505 11.9438 7.26613 12.2015 7.37889C12.4592 7.48359 12.7411 7.53997 13.0311 7.53997C13.321 7.53997 13.5949 7.48359 13.8606 7.37889C14.1264 7.27418 14.36 7.1131 14.5613 6.90369L14.9157 6.54931L14.207 5.84055L13.8526 6.19493C13.6673 6.38017 13.4579 6.48488 13.2163 6.52515C13.1599 6.5332 13.1036 6.54126 13.0472 6.54126C12.9183 6.54126 12.7814 6.5171 12.6606 6.46877L14.9238 4.20556L14.5613 3.85118ZM13.015 4.21362C13.1519 4.21362 13.2807 4.23778 13.4096 4.2861C13.3371 4.35859 13.2485 4.44719 13.1358 4.54383L11.9357 5.7439C11.8954 5.62309 11.8713 5.49422 11.8713 5.36536C11.8713 5.04319 11.984 4.7774 12.2095 4.55189C12.3867 4.3747 12.6042 4.26194 12.8378 4.22972C12.9022 4.22167 12.9586 4.21362 13.015 4.21362Z" fill="white"/>
<path d="M18.8599 3.84219C18.6586 3.64084 18.425 3.48781 18.1673 3.38311C17.6599 3.15759 17.0155 3.14954 16.492 3.38311C16.2262 3.48781 16.0007 3.64889 15.7994 3.84219C15.6061 4.03549 15.453 4.26101 15.3403 4.52679C15.2275 4.78452 15.1792 5.06642 15.1792 5.36442V7.53098H16.186V5.36442C16.186 5.20334 16.2182 5.05837 16.2665 4.92145C16.3309 4.77647 16.4115 4.65566 16.5162 4.55096C16.6209 4.44625 16.7498 4.35766 16.8867 4.30128C17.1686 4.18047 17.4988 4.18047 17.7887 4.30128C17.9257 4.35766 18.0545 4.4382 18.1512 4.55096C18.2559 4.64761 18.3364 4.77647 18.4008 4.92145C18.4653 5.05837 18.4975 5.20334 18.4975 5.36442V7.53098H19.5043V5.36442C19.5043 5.06642 19.4479 4.78452 19.3351 4.52679C19.2143 4.26906 19.0613 4.03549 18.8599 3.84219Z" fill="white"/>
<path d="M21.147 4.56018C21.2598 4.44743 21.3887 4.35883 21.5256 4.30245C21.8075 4.18969 22.1135 4.18969 22.3954 4.30245C22.5323 4.35883 22.6612 4.44743 22.782 4.56018L23.1445 4.90651L23.8452 4.19775L23.4908 3.84337C23.2814 3.63396 23.0398 3.47288 22.774 3.36817C22.2505 3.15071 21.6867 3.15071 21.147 3.36817C20.8813 3.47288 20.6477 3.62591 20.4302 3.84337C20.2208 4.05277 20.0597 4.2944 19.955 4.56018C19.8503 4.81792 19.802 5.09981 19.802 5.37365C19.802 5.64749 19.8503 5.92133 19.955 6.17906C20.0597 6.44485 20.2128 6.67842 20.4302 6.89588C20.6396 7.10529 20.8813 7.26637 21.147 7.37913C21.4128 7.48383 21.6867 7.53216 21.9605 7.53216C22.2343 7.53216 22.5082 7.48383 22.7659 7.37913C23.0317 7.27442 23.2733 7.10529 23.4908 6.89588L23.8452 6.5415L23.1445 5.83274L22.782 6.18712C22.6773 6.29988 22.5485 6.38847 22.4115 6.43679C22.2746 6.49317 22.1216 6.52539 21.9686 6.52539C21.6464 6.52539 21.3806 6.41263 21.1551 6.18712C21.0423 6.07436 20.9537 5.94549 20.8974 5.80857C20.841 5.6636 20.8088 5.51862 20.8088 5.37365C20.8088 5.22868 20.841 5.0837 20.8974 4.93873C20.9457 4.79375 21.0262 4.66489 21.147 4.56018Z" fill="white"/>
<path d="M27.8021 3.84219C27.6007 3.64084 27.3671 3.48781 27.1094 3.38311C26.602 3.15759 25.9577 3.14954 25.4342 3.38311C25.1684 3.48781 24.9429 3.64889 24.7415 3.84219C24.5482 4.03549 24.3952 4.26101 24.2824 4.52679C24.1697 4.78452 24.1213 5.06642 24.1213 5.36442C24.1213 5.65437 24.1777 5.93626 24.2824 6.20205C24.3952 6.45978 24.5482 6.69335 24.7415 6.89471C24.9429 7.09606 25.1684 7.24909 25.4342 7.3699C25.6919 7.4746 25.9738 7.53098 26.2718 7.53098C26.5698 7.53098 26.8517 7.4746 27.1094 7.3699C27.3671 7.25714 27.6007 7.09606 27.8021 6.90276C28.0034 6.70141 28.1565 6.46784 28.2612 6.21011C28.3739 5.94432 28.4383 5.66242 28.4383 5.37248C28.4383 5.07447 28.382 4.79258 28.2692 4.53485C28.1484 4.26906 27.9954 4.03549 27.8021 3.84219ZM27.4235 5.36442C27.4235 5.52551 27.3913 5.67048 27.3269 5.81545C27.2705 5.95237 27.19 6.08124 27.0772 6.18594C26.9725 6.29065 26.8517 6.37119 26.7148 6.43562C26.4329 6.54838 26.0865 6.54838 25.8127 6.43562C25.6677 6.37119 25.5389 6.29065 25.4342 6.194C25.3295 6.08929 25.2489 5.96043 25.1845 5.81545C25.1281 5.67048 25.0959 5.51745 25.0959 5.36442C25.0959 5.20334 25.1281 5.05837 25.1764 4.92145C25.2409 4.77647 25.3214 4.65566 25.4261 4.55096C25.5308 4.44625 25.6597 4.35766 25.8046 4.30128C25.9416 4.23684 26.0946 4.20463 26.2557 4.20463C26.4168 4.20463 26.5617 4.23684 26.7067 4.30128C26.8436 4.35766 26.9725 4.4382 27.0691 4.55096C27.1738 4.65566 27.2544 4.77647 27.3188 4.92145C27.3994 5.05837 27.4235 5.21139 27.4235 5.36442Z" fill="white"/>
<path d="M20.6566 11.8019V8.66084H19.2311V9.08771C18.6995 8.72527 18.0552 8.50781 17.3625 8.50781C15.5423 8.50781 14.0684 9.98172 14.0684 11.8019C14.0684 13.6222 15.5423 15.0961 17.3625 15.0961C18.0552 15.0961 18.6995 14.8786 19.2311 14.5162V14.9431H20.6566V11.8019ZM17.3625 13.6705C16.3316 13.6705 15.4939 12.8329 15.4939 11.8019C15.4939 10.771 16.3316 9.93339 17.3625 9.93339C18.3934 9.93339 19.2311 10.771 19.2311 11.8019C19.2311 12.8329 18.4015 13.6705 17.3625 13.6705Z" fill="#FFAC2C"/>
<path d="M26.6566 8.66016V11.3583V11.8013C26.6566 12.8322 25.819 13.6698 24.788 13.6698C23.7571 13.6698 22.9195 12.8322 22.9195 11.8013V8.66016H21.4939V11.8013C21.4939 12.9288 22.0577 13.9195 22.9195 14.5155C23.451 14.8779 24.0954 15.0954 24.788 15.0954C25.4807 15.0954 26.125 14.8779 26.6566 14.5155C26.6485 15.5384 25.819 16.368 24.788 16.368H24.1518V17.7935H24.788C25.4807 17.7935 26.125 17.5761 26.6566 17.2136C27.5184 16.6176 28.0822 15.627 28.0822 14.4994V11.8013V11.3583V8.66016H26.6566Z" fill="#00C7F9"/>
<path d="M10.2104 8.51367C8.49487 8.51367 7.09345 9.81844 6.93237 11.4937H6.91626V17.7759H8.34184V14.514C8.87341 14.8764 9.51774 15.0939 10.2104 15.0939C12.0306 15.0939 13.5045 13.62 13.5045 11.7998C13.5045 9.98758 12.0306 8.51367 10.2104 8.51367ZM10.2104 13.6683C9.17947 13.6683 8.34184 12.8307 8.34184 11.7998C8.34184 10.7688 9.17947 9.9312 10.2104 9.9312C11.2413 9.9312 12.079 10.7688 12.079 11.7998C12.079 12.8307 11.2413 13.6683 10.2104 13.6683Z" fill="#F04B67"/>
</svg>
