<svg width="32" height="32" viewBox="0 0 32 32" fill="none" xmlns="http://www.w3.org/2000/svg">
<path d="M3.27496 29.3328C2.72344 29.3328 2.16782 29.1229 1.74801 28.7031L1.35701 28.3121C0.949546 27.9047 0.727295 27.3614 0.727295 26.7852C0.727295 26.2049 0.949546 25.6657 1.35701 25.2582L11.5024 15.1211L12.2309 15.8496L2.08549 25.9867C1.87147 26.2007 1.75624 26.4847 1.75624 26.7852C1.75624 27.0856 1.87147 27.3737 2.08549 27.5836L2.4765 27.9746C2.91688 28.415 3.63714 28.415 4.07752 27.9746L15.4206 16.6357L16.1491 17.3642L4.80602 28.7031C4.38621 29.1229 3.83059 29.3328 3.27908 29.3328H3.27496Z" fill="#7B7624"/>
<path d="M13.8894 25.8919C13.5025 25.8919 13.0868 25.7643 12.6876 25.4022L12.6547 25.3733C12.6547 25.3733 12.6341 25.3528 12.6217 25.3404C11.7039 24.3485 12.2266 23.229 12.6341 22.7763L15.8197 19.459L16.5605 20.171L13.3832 23.476C13.3091 23.5624 12.8893 24.1016 13.3585 24.6284L13.3708 24.6407C13.8935 25.114 14.4368 24.6901 14.5397 24.5996L17.8488 21.4551L18.5567 22.2001L15.2311 25.3569C14.9554 25.6038 14.4492 25.8878 13.8771 25.8878L13.8894 25.8919Z" fill="#7B7624"/>
<path d="M24.2159 16.8535L23.508 16.1085L27.6279 12.2026C28.842 11.1449 30.3608 9.35041 30.1015 8.69189C30.0891 8.66308 30.0809 8.63427 30.0768 8.60545C30.0685 8.56841 29.1055 4.61316 20.6722 3.95052L20.6476 3.9711L26.1462 9.46977C26.3438 9.66732 26.3479 9.98835 26.1545 10.19L21.9605 14.5651L21.2197 13.8531L25.0679 9.8443L19.5363 4.31271C19.4334 4.20982 19.3799 4.07399 19.384 3.92994C19.3881 3.78589 19.454 3.65419 19.561 3.55952L20.166 3.03271C20.2689 2.94216 20.4047 2.901 20.5405 2.90923C29.6323 3.55541 30.9534 7.82757 31.0851 8.35851C31.6572 9.97189 28.8956 12.4784 28.3317 12.9682L24.2283 16.8576L24.2159 16.8535Z" fill="#7B7624"/>
<path d="M3.57961 27.0243C3.4479 27.0243 3.31619 26.975 3.21742 26.8721C3.01574 26.6704 3.01574 26.3452 3.21742 26.1436L4.10232 25.2587C4.30399 25.057 4.62913 25.057 4.8308 25.2587C5.03248 25.4603 5.03248 25.7855 4.8308 25.9872L3.94592 26.8721C3.84714 26.9708 3.71543 27.0243 3.58373 27.0243H3.57961Z" fill="#7B7624"/>
<path d="M23.0635 13.0461C22.9318 13.0461 22.8001 12.9967 22.7013 12.8938L16.8651 7.05357C16.6634 6.8519 16.6634 6.52676 16.8651 6.32508C17.0668 6.12341 17.3919 6.12341 17.5936 6.32508L23.4298 12.1654C23.6315 12.367 23.6315 12.6922 23.4298 12.8938C23.331 12.9926 23.1993 13.0461 23.0676 13.0461H23.0635Z" fill="#7B7624"/>
<path d="M20.2566 21.9701C20.1208 21.9701 19.9891 21.9166 19.8944 21.8178L11.8522 13.7756C11.6505 13.5739 11.6505 13.2488 11.8522 13.0471L14.0829 10.8163C14.1776 10.7217 14.3093 10.6641 14.4451 10.6641C14.5809 10.6641 14.7126 10.7176 14.8073 10.8163L16.3919 12.4009C16.7664 12.7755 17.1286 12.5367 17.2644 12.4174C18.5033 11.1785 19.6022 11.6107 20.0096 12.014L24.8745 16.8789C25.0268 17.0312 25.0679 17.2658 24.9733 17.4633C23.3599 20.8465 20.5447 21.8919 20.4253 21.9372C20.3677 21.9577 20.3101 21.966 20.2525 21.966L20.2566 21.9701ZM12.9429 13.4134L20.3718 20.8424C21.0468 20.5131 22.7466 19.5088 23.8867 17.3481L19.2853 12.7466C19.2153 12.6849 18.7749 12.368 17.9723 13.1706C17.4826 13.6151 16.4865 13.9526 15.6675 13.1335L14.4451 11.9111L12.9429 13.4175V13.4134Z" fill="#7B7624"/>
<path d="M20.6353 18.4248C20.5036 18.4248 20.3718 18.3755 20.2731 18.2726L18.7338 16.7333C18.5321 16.5316 18.5321 16.2064 18.7338 16.0048C18.9354 15.8031 19.2606 15.8031 19.4623 16.0048L21.0016 17.5441C21.2032 17.7457 21.2032 18.0709 21.0016 18.2726C20.9028 18.3713 20.7711 18.4248 20.6394 18.4248H20.6353Z" fill="#7B7624"/>
<path d="M18.526 8.07117L16.2007 10.3965L16.9283 11.1241L19.2536 8.79874L18.526 8.07117Z" fill="#7B7624"/>
</svg>
