<svg width="24" height="17" viewBox="0 0 24 17" fill="none" xmlns="http://www.w3.org/2000/svg">
<path d="M0.164062 2.77986V14.3257C0.164062 15.3955 1.05245 16.2627 2.14834 16.2627H21.8767C22.9726 16.2627 23.8609 15.3955 23.8609 14.3257V2.77986C23.8609 1.71009 22.9726 0.842873 21.8767 0.842873H2.14834C1.05245 0.842873 0.164062 1.71009 0.164062 2.77986Z" fill="#FF7D00"/>
<path d="M23.8496 8.53365L22.8039 7.51406V2.51474C22.8039 2.42668 22.7861 2.33949 22.7515 2.25816C22.7169 2.17684 22.6662 2.10298 22.6023 2.04082C22.5384 1.97866 22.4626 1.92943 22.3792 1.89595C22.2957 1.86247 22.2064 1.84539 22.1161 1.84571L1.87653 1.87066C1.78642 1.87066 1.6972 1.88801 1.61397 1.9217C1.53074 1.9554 1.45513 2.00479 1.39147 2.06704C1.32781 2.12929 1.27736 2.20318 1.24298 2.28449C1.20861 2.3658 1.191 2.45292 1.19116 2.54088L1.20334 14.5799C1.20366 14.7574 1.27614 14.9276 1.40486 15.053C1.53359 15.1785 1.70804 15.2489 1.88992 15.2489L22.1259 15.2299C22.3079 15.2293 22.4822 15.1583 22.6107 15.0324C22.7391 14.9066 22.8113 14.7362 22.8113 14.5585V9.5675L23.8496 8.53365Z" fill="white"/>
<path d="M8.30398 7.46237C8.30301 7.39616 8.31578 7.33044 8.34151 7.26917C8.36724 7.20791 8.40541 7.15236 8.45372 7.10587C8.50153 7.05978 8.55766 7.02272 8.61927 6.99654C8.68418 6.96977 8.75393 6.95598 8.8244 6.95598C8.89486 6.95598 8.96461 6.96977 9.02952 6.99654C9.09153 7.02191 9.14748 7.05954 9.19386 7.10706C9.24231 7.15295 9.28009 7.20847 9.30464 7.26986C9.33318 7.33019 9.34773 7.39592 9.34725 7.46237V8.41304H9.80375V7.45643C9.80392 7.32972 9.7774 7.20433 9.72584 7.08804C9.62443 6.86063 9.43751 6.67986 9.2036 6.583C9.08381 6.53275 8.95478 6.50684 8.8244 6.50684C8.69401 6.50684 8.56499 6.53275 8.44519 6.583C8.26782 6.65427 8.11641 6.77582 8.01052 6.93193C7.90462 7.08805 7.8491 7.27157 7.85113 7.4588V8.40947H8.3052L8.30398 7.46237Z" fill="#1479B8"/>
<path d="M7.56671 6.79332C7.47469 6.70229 7.3639 6.6314 7.24168 6.58536C7.00779 6.49108 6.74516 6.49108 6.51127 6.58536C6.38955 6.63101 6.27947 6.70197 6.18867 6.79332C6.09615 6.8821 6.02395 6.98903 5.97685 7.10704C5.92945 7.2202 5.90505 7.34128 5.90503 7.46354C5.90673 7.58563 5.93106 7.70641 5.97685 7.82004C6.02527 7.93693 6.09702 8.04325 6.18794 8.13281C6.27885 8.22237 6.3871 8.29339 6.5064 8.34172C6.74615 8.43831 7.01532 8.43831 7.25507 8.34172C7.37445 8.29372 7.48287 8.22303 7.57401 8.13376L7.73105 7.9769L7.40358 7.67031L7.24533 7.82479C7.16823 7.90336 7.0669 7.95512 6.95682 7.97215C6.93169 7.97386 6.90647 7.97386 6.88134 7.97215C6.82059 7.9721 6.76036 7.96123 6.70361 7.94006L7.72496 6.94186L7.56671 6.79332ZM6.92395 7.09991L6.38345 7.62991C6.36207 7.57653 6.35133 7.51966 6.3518 7.46235C6.35264 7.34164 6.39704 7.22508 6.47719 7.13315C6.55734 7.04122 6.66811 6.9798 6.79004 6.95968C6.81624 6.95589 6.84268 6.9539 6.86917 6.95374C6.92929 6.95404 6.98894 6.96408 7.04568 6.98345C7.01403 7.0191 6.97264 7.05713 6.92395 7.09991Z" fill="#1479B8"/>
<path d="M4.55914 7.10912C4.6094 7.06203 4.66796 7.02418 4.732 6.99742C4.85778 6.94811 4.99821 6.94811 5.12399 6.99742C5.18958 7.02526 5.24877 7.06567 5.29807 7.11625L5.46363 7.27073L5.78014 6.95583L5.62067 6.80134C5.52804 6.71019 5.41691 6.63895 5.29442 6.5922C5.06053 6.49791 4.7979 6.49791 4.56401 6.5922C4.44279 6.63932 4.33293 6.71055 4.24141 6.80134C4.14836 6.8897 4.07608 6.99674 4.02959 7.11506C3.98424 7.22873 3.96072 7.34958 3.96021 7.47156C3.96023 7.59359 3.98377 7.71453 4.02959 7.82806C4.0776 7.9459 4.15014 8.05273 4.24263 8.14178C4.3353 8.23265 4.44531 8.30492 4.56644 8.35449C4.68301 8.39821 4.80678 8.42076 4.93165 8.42104C5.05671 8.42156 5.1807 8.39857 5.29685 8.35331C5.41926 8.30408 5.53053 8.2318 5.62432 8.14059L5.78379 7.98492L5.46606 7.6712L5.29929 7.82687C5.25369 7.87837 5.19665 7.91901 5.13251 7.94571C5.06871 7.97095 5.00049 7.98387 4.93165 7.98373C4.82724 7.98325 4.72531 7.95264 4.63867 7.89576C4.55203 7.83889 4.48455 7.75828 4.44471 7.66407C4.4194 7.60325 4.40578 7.53839 4.40454 7.47275C4.40483 7.40663 4.41848 7.34121 4.44471 7.28024C4.469 7.21543 4.50814 7.1569 4.55914 7.10912Z" fill="#1479B8"/>
<path d="M14.5794 6.95032H15.7493V6.50588H14.5807C14.4969 6.50518 14.4139 6.52179 14.3372 6.5546C14.2682 6.58271 14.205 6.62299 14.1509 6.67344C14.0971 6.72817 14.0541 6.79225 14.0243 6.86238C13.9938 6.93471 13.9785 7.01231 13.9793 7.09054C13.9783 7.17187 13.9936 7.25261 14.0243 7.32821C14.0576 7.39653 14.102 7.45914 14.1558 7.51359C14.2095 7.56659 14.2726 7.60967 14.3421 7.64074C14.4197 7.67026 14.5023 7.68518 14.5855 7.68471H15.333C15.3529 7.68393 15.3728 7.68712 15.3914 7.69406C15.41 7.70101 15.427 7.71157 15.4413 7.72511C15.4551 7.7382 15.4658 7.75394 15.473 7.77134C15.4801 7.78874 15.4834 7.8074 15.4827 7.82612C15.4836 7.8454 15.4804 7.86466 15.4733 7.88266C15.4662 7.90066 15.4553 7.91702 15.4413 7.93069C15.4121 7.95759 15.3731 7.97212 15.333 7.9711H14.168V8.41553H15.333C15.4131 8.41588 15.4925 8.40094 15.5667 8.37156C15.638 8.34114 15.7028 8.29802 15.7578 8.24441C15.8134 8.1892 15.8566 8.12321 15.8844 8.05071C15.9171 7.97806 15.9337 7.89951 15.9331 7.82018C15.9337 7.74199 15.9171 7.66459 15.8844 7.59321C15.8562 7.52115 15.8112 7.45648 15.753 7.40426C15.699 7.35135 15.6338 7.31077 15.5618 7.28543C15.4888 7.25176 15.4089 7.2347 15.3281 7.23552H14.5807C14.5615 7.23628 14.5423 7.23307 14.5245 7.22611C14.5067 7.21914 14.4905 7.20858 14.4772 7.19511C14.4631 7.18124 14.4521 7.1647 14.4447 7.14652C14.4374 7.12833 14.4339 7.10888 14.4346 7.08935C14.4342 7.07095 14.4375 7.05264 14.4444 7.03551C14.4513 7.01837 14.4616 7.00275 14.4748 6.98953C14.4884 6.97625 14.5048 6.9659 14.5229 6.95914C14.5409 6.95239 14.5602 6.94938 14.5794 6.95032Z" fill="#1479B8"/>
<path d="M10.5456 7.09952C10.596 7.05268 10.6546 7.01487 10.7184 6.98782C10.8139 6.95007 10.9186 6.94065 11.0195 6.96074C11.1204 6.98082 11.213 7.0295 11.2857 7.10071L11.4501 7.25519L11.7654 6.94028L11.6071 6.7858C11.515 6.69434 11.4037 6.6234 11.2809 6.57784C11.1651 6.53096 11.041 6.50684 10.9157 6.50684C10.7903 6.50684 10.6662 6.53096 10.5504 6.57784C10.4276 6.62495 10.3167 6.69752 10.2254 6.79055C10.133 6.87804 10.06 6.98323 10.0112 7.09952C9.91913 7.3287 9.91913 7.58334 10.0112 7.81252C10.0585 7.93412 10.1315 8.04465 10.2254 8.13693C10.3157 8.2268 10.4238 8.29779 10.5431 8.34559C10.6624 8.3934 10.7904 8.41701 10.9193 8.415C11.0444 8.41553 11.1684 8.39253 11.2845 8.34727C11.4068 8.29847 11.5177 8.22613 11.6108 8.13456L11.769 7.97889L11.4525 7.66517L11.2882 7.82084C11.2419 7.87266 11.184 7.91333 11.1189 7.93967C11.0559 7.96459 10.9885 7.97749 10.9205 7.9777C10.8523 7.97838 10.7847 7.96533 10.7218 7.93936C10.659 7.9134 10.6023 7.87507 10.5553 7.82678C10.5067 7.78031 10.4681 7.72484 10.4418 7.66363C10.4154 7.60241 10.4019 7.53668 10.4019 7.47028C10.4019 7.40388 10.4154 7.33815 10.4418 7.27693C10.4681 7.21572 10.5067 7.16025 10.5553 7.11378L10.5456 7.09952Z" fill="#1479B8"/>
<path d="M17.5715 7.45653C17.5716 7.52523 17.5571 7.59321 17.5289 7.65617C17.5046 7.71871 17.4668 7.77544 17.4182 7.82253C17.371 7.86851 17.3152 7.90522 17.2538 7.93067C17.1226 7.98002 16.9772 7.98002 16.846 7.93067C16.7855 7.90265 16.7296 7.86578 16.6804 7.82135C16.6337 7.77253 16.5958 7.71626 16.5685 7.65498C16.5417 7.59171 16.5284 7.52378 16.5295 7.45534V6.50586H16.0681V7.45653C16.0676 7.5838 16.0933 7.70988 16.1436 7.82729C16.1937 7.94041 16.2642 8.04385 16.3518 8.13269C16.4454 8.22115 16.5558 8.29098 16.6768 8.33827C16.9191 8.43489 17.1905 8.43489 17.4328 8.33827C17.5491 8.28806 17.6551 8.21759 17.7456 8.13031C17.8349 8.04282 17.9056 7.93905 17.9538 7.82491C18.0044 7.70847 18.0297 7.58302 18.0281 7.45653V6.50586H17.5715V7.45653Z" fill="#1479B8"/>
<path d="M19.6639 5.76953V6.50511H19.1453C19.0151 6.50461 18.8862 6.53051 18.7667 6.58116C18.6491 6.62818 18.5423 6.69767 18.4527 6.78556C18.3623 6.87225 18.29 6.97514 18.2396 7.08858C18.1399 7.32493 18.1399 7.59019 18.2396 7.82654C18.2912 7.94004 18.3634 8.0435 18.4527 8.13194C18.5428 8.21991 18.6494 8.29012 18.7667 8.33871C18.8866 8.38765 19.0154 8.41231 19.1453 8.4112C19.2752 8.41139 19.4038 8.38676 19.5239 8.33871C19.6398 8.28963 19.7449 8.21899 19.8331 8.13075C19.9221 8.04332 19.9925 7.93951 20.0401 7.82535C20.0923 7.70843 20.1188 7.58213 20.118 7.45459V5.76953H19.6639ZM19.6639 7.45102C19.6642 7.52026 19.6493 7.58874 19.6201 7.65185C19.5952 7.71317 19.5578 7.76896 19.5104 7.81592C19.4629 7.86287 19.4062 7.90002 19.3438 7.92517C19.2142 7.97455 19.0704 7.97455 18.9408 7.92517C18.8786 7.89788 18.8212 7.86141 18.7704 7.81703C18.7236 7.76776 18.6857 7.71111 18.6584 7.64948C18.635 7.58751 18.6239 7.52179 18.6255 7.45578C18.6245 7.38938 18.6374 7.32348 18.6633 7.26208C18.6884 7.20158 18.7252 7.14632 18.7716 7.09928C18.8722 7.00412 19.0065 6.95049 19.1465 6.94955H19.6651L19.6639 7.45102Z" fill="#1479B8"/>
<path d="M12.4881 8.34231C12.6078 8.39031 12.7361 8.41455 12.8655 8.41361C12.9958 8.41414 13.1249 8.3895 13.2453 8.34112C13.3608 8.29059 13.4659 8.22014 13.5557 8.13316C13.6448 8.04552 13.7155 7.94178 13.7639 7.82776C13.8176 7.71087 13.8442 7.58387 13.8418 7.45581C13.8408 7.26907 13.7834 7.08676 13.6769 6.93164C13.5704 6.77653 13.4194 6.65546 13.2429 6.58357C13.0638 6.51011 12.8664 6.4902 12.6756 6.52638C12.4849 6.56255 12.3095 6.65318 12.1716 6.78678C12.0828 6.87395 12.0118 6.97678 11.9622 7.0898C11.9137 7.20679 11.8893 7.33197 11.8904 7.45819C11.8897 7.58524 11.9145 7.71121 11.9635 7.82895C12.0143 7.94228 12.0856 8.04573 12.1741 8.13435C12.2644 8.22232 12.371 8.29287 12.4881 8.34231ZM12.3786 7.26449C12.4054 7.20426 12.4429 7.14914 12.4894 7.10168C12.5385 7.05497 12.5964 7.01786 12.6598 6.99236C12.7241 6.96578 12.7932 6.95205 12.8631 6.95195C12.9333 6.95205 13.0028 6.96578 13.0676 6.99236C13.1299 7.01723 13.1863 7.05446 13.2332 7.10168C13.2825 7.14753 13.3208 7.20356 13.3451 7.26568C13.3741 7.32517 13.3899 7.38996 13.3914 7.45581C13.3919 7.52482 13.3778 7.59319 13.35 7.65664C13.3245 7.71851 13.2864 7.7747 13.238 7.82182C13.1912 7.86817 13.1353 7.90494 13.0737 7.92995C12.9412 7.98091 12.7938 7.98134 12.661 7.93114C12.5989 7.90442 12.5417 7.86789 12.4918 7.823C12.4453 7.77373 12.4071 7.71758 12.3786 7.65664C12.3535 7.59253 12.3407 7.52445 12.3408 7.45581C12.3404 7.39023 12.3532 7.32521 12.3786 7.26449Z" fill="#1479B8"/>
<path d="M4.03155 10.7968C4.20363 10.8843 4.39508 10.9292 4.5891 10.9276C4.76074 10.9276 4.92387 10.8931 4.92387 10.7339C4.92387 10.3643 3.96338 10.5984 3.96338 9.87707C3.96338 9.40174 4.43936 9.26983 4.84717 9.26864C5.0245 9.26687 5.20105 9.29172 5.37063 9.34232L5.33533 9.75111C5.19342 9.69024 5.0399 9.65946 4.88491 9.66079C4.74857 9.66079 4.51971 9.67268 4.51971 9.84617C4.52214 10.167 5.47654 9.95194 5.47654 10.6649C5.47654 11.1795 5.03586 11.3185 4.58544 11.3185C4.37938 11.3201 4.17423 11.2917 3.97677 11.2341L4.03155 10.7968Z" fill="#AF1212"/>
<path d="M6.93818 10.2262C6.84271 10.1693 6.73228 10.1408 6.62045 10.1442C6.56583 10.1426 6.51146 10.1522 6.46088 10.1724C6.4103 10.1926 6.36463 10.2229 6.32686 10.2615C6.28909 10.3001 6.26005 10.3459 6.24163 10.3962C6.22321 10.4464 6.21582 10.4998 6.21995 10.553C6.22099 10.6065 6.23311 10.6592 6.25556 10.708C6.278 10.7568 6.31032 10.8007 6.35058 10.837C6.39083 10.8733 6.43818 10.9013 6.48978 10.9192C6.54139 10.9372 6.59619 10.9448 6.65089 10.9416C6.76353 10.9437 6.87503 10.9193 6.97592 10.8703L6.98809 11.2518C6.84985 11.2945 6.70579 11.3165 6.5608 11.3171C6.06047 11.3171 5.67944 11.0343 5.67944 10.5459C5.67944 10.0575 6.05926 9.76992 6.55959 9.76992C6.70256 9.76585 6.84459 9.7939 6.9747 9.85191L6.93818 10.2262Z" fill="#AF1212"/>
<path d="M7.12524 10.5455C7.12524 10.0535 7.50506 9.76953 8.00539 9.76953C8.50572 9.76953 8.88675 10.0512 8.88675 10.5455C8.88675 11.0399 8.50693 11.3179 8.0066 11.3191C7.50627 11.3203 7.12524 11.0315 7.12524 10.5455ZM8.34259 10.5455C8.34259 10.3233 8.24399 10.1284 8.00173 10.1284C7.75948 10.1284 7.6694 10.3221 7.6694 10.5455C7.6694 10.7689 7.76922 10.9602 8.01026 10.9602C8.25129 10.9602 8.34624 10.7618 8.34624 10.5455H8.34259Z" fill="#AF1212"/>
<path d="M8.98755 9.80209H9.29554V9.46936L9.81048 9.3125V9.80091H10.1757V10.1574H9.81048V10.7029C9.81048 10.8811 9.8543 10.9714 10.0199 10.9714C10.0735 10.9694 10.1269 10.9626 10.1793 10.9512L10.1976 11.2839C10.0888 11.3008 9.97901 11.3103 9.86891 11.3125C9.40023 11.3125 9.28702 11.1116 9.28702 10.7599V10.1586H8.98755V9.80209Z" fill="#AF1212"/>
<path d="M10.9802 9.55792H10.4568V9.18359H10.9802V9.55792ZM10.4568 9.79559H10.9802V11.2786H10.4568V9.79559Z" fill="#AF1212"/>
<path d="M12.3164 11.2767C12.3164 11.1983 12.3042 11.121 12.3042 11.039C12.2578 11.1228 12.1882 11.1923 12.1035 11.2395C12.0187 11.2868 11.9221 11.3099 11.8246 11.3064C11.5251 11.3064 11.2573 11.1614 11.2561 10.8406C11.2561 10.389 11.7589 10.3355 12.0389 10.3344C12.1204 10.3344 12.2019 10.3412 12.2823 10.3546C12.2823 10.1525 12.1253 10.0991 11.9366 10.0991C11.7671 10.0948 11.5994 10.1333 11.4497 10.2108L11.4424 9.86972C11.6362 9.79599 11.843 9.76006 12.051 9.76396C12.4369 9.76396 12.7717 9.92557 12.7729 10.3771V10.9273C12.7711 11.0444 12.7809 11.1614 12.8021 11.2767H12.3164ZM11.9512 10.9713C12.0413 10.9664 12.1258 10.9269 12.1862 10.8615C12.2466 10.796 12.2781 10.7099 12.2738 10.6219C12.2069 10.6219 12.1314 10.6136 12.0522 10.6136C11.8745 10.6136 11.7357 10.6671 11.7357 10.8097C11.7406 10.9119 11.8331 10.9713 11.9561 10.9713H11.9512Z" fill="#AF1212"/>
<path d="M13.0784 9.14746H13.6055V9.98761C13.6675 9.91216 13.7472 9.85236 13.8379 9.81328C13.9286 9.77419 14.0276 9.75695 14.1265 9.76302C14.5453 9.76302 14.7753 10.1516 14.7753 10.5081C14.7753 10.9454 14.5319 11.309 14.0839 11.3102C13.9769 11.3142 13.8711 11.2882 13.7788 11.2354C13.6865 11.1825 13.6115 11.105 13.5629 11.012V11.2758H13.0759L13.0784 9.14746ZM13.9232 10.1552C13.7309 10.1552 13.603 10.3192 13.6043 10.5414C13.5999 10.5866 13.6047 10.6323 13.6185 10.6757C13.6322 10.7192 13.6546 10.7595 13.6843 10.7945C13.7141 10.8295 13.7506 10.8584 13.7918 10.8796C13.833 10.9008 13.878 10.9139 13.9244 10.9181C14.1216 10.9181 14.2409 10.7565 14.2409 10.52C14.2409 10.3251 14.1265 10.154 13.9232 10.1552Z" fill="#AF1212"/>
<path d="M16.0051 11.2729C16.0051 11.1945 15.9942 11.1172 15.9942 11.0352C15.9478 11.1191 15.8783 11.1886 15.7935 11.2359C15.7088 11.2831 15.6121 11.3062 15.5145 11.3026C15.2151 11.3026 14.9473 11.1576 14.9473 10.8368C14.9473 10.3852 15.45 10.3317 15.7288 10.3305C15.8104 10.3307 15.8918 10.3375 15.9723 10.3507C15.9723 10.1487 15.814 10.0952 15.6253 10.0952C15.4559 10.0908 15.2881 10.1293 15.1384 10.2069L15.1287 9.85996C15.3225 9.78622 15.5293 9.75029 15.7373 9.75419C16.1244 9.75419 16.4592 9.91581 16.4592 10.3674V10.9176C16.4572 11.0347 16.4674 11.1518 16.4896 11.2669L16.0051 11.2729ZM15.6399 10.9675C15.73 10.9626 15.8145 10.9231 15.8749 10.8577C15.9354 10.7922 15.9668 10.7061 15.9625 10.6181C15.8956 10.6181 15.8201 10.6098 15.741 10.6098C15.5632 10.6098 15.4245 10.6633 15.4245 10.8059C15.4293 10.9081 15.5231 10.9675 15.6448 10.9675H15.6399Z" fill="#AF1212"/>
<path d="M16.7749 9.79373H17.2521V10.0706H17.2582C17.309 9.97218 17.3884 9.89059 17.4865 9.83604C17.5846 9.7815 17.697 9.75645 17.8096 9.76402C18.2235 9.76402 18.3891 10.0468 18.3891 10.3582V11.2815H17.8656V10.5685C17.8656 10.2904 17.767 10.1966 17.6222 10.1966C17.4067 10.1966 17.2959 10.3415 17.2971 10.66V11.2839H16.7737L16.7749 9.79373Z" fill="#AF1212"/>
<path d="M18.7097 9.14258H19.2332V10.4141H19.2393L19.6739 9.7926H20.2472L19.7201 10.4699L20.2911 11.2697H19.6592L19.2405 10.5377H19.2332V11.2709H18.7097V9.14258Z" fill="#AF1212"/>
<path d="M23.9915 2.7622C23.9912 2.21055 23.7664 1.6816 23.3667 1.29164C22.967 0.901678 22.425 0.682617 21.8599 0.682617V0.682617L2.12914 0.701631C1.56411 0.703203 1.02275 0.923333 0.62367 1.31379C0.224587 1.70426 0.000319845 2.23321 0 2.78478L0.0121735 14.3294C0.0124962 14.8811 0.237215 15.41 0.636928 15.8C1.03664 16.19 1.57863 16.409 2.14375 16.409L21.8709 16.39C22.436 16.3888 22.9775 16.1687 23.3767 15.7782C23.7758 15.3877 24 14.8585 24 14.3069L23.9915 2.7622ZM21.8733 16.1024L2.14497 16.1215C1.90373 16.1216 1.66483 16.0754 1.44189 15.9854C1.21896 15.8954 1.01636 15.7635 0.84567 15.5971C0.674978 15.4307 0.539533 15.2331 0.447069 15.0156C0.354604 14.7981 0.306931 14.5649 0.306771 14.3294L0.294598 2.78478C0.294597 2.30918 0.48789 1.85301 0.832057 1.51638C1.17622 1.17974 1.64315 0.990152 2.13036 0.989207L21.8575 0.970194C22.0988 0.969882 22.3378 1.01599 22.5609 1.1059C22.784 1.1958 22.9867 1.32773 23.1576 1.49415C23.3284 1.66057 23.4639 1.85821 23.5565 2.07579C23.649 2.29337 23.6967 2.52662 23.6969 2.7622L23.703 8.39015V8.67892V14.3069C23.7027 14.7813 23.5101 15.2364 23.1673 15.5728C22.8245 15.9092 22.3593 16.0996 21.8733 16.1024Z" fill="white"/>
</svg>
