<svg width="25" height="25" viewBox="0 0 25 25" fill="none" xmlns="http://www.w3.org/2000/svg">
<g id="truck">
<path id="Vector" d="M9.94376 18.123C9.82488 18.9573 9.40897 19.7207 8.77244 20.273C8.1359 20.8253 7.32148 21.1293 6.47876 21.1293C5.63604 21.1293 4.82162 20.8253 4.18508 20.273C3.54854 19.7207 3.13264 18.9573 3.01376 18.123H1.97876V6.12305C1.97876 5.85783 2.08412 5.60348 2.27165 5.41594C2.45919 5.2284 2.71354 5.12305 2.97876 5.12305H16.9788C17.244 5.12305 17.4983 5.2284 17.6859 5.41594C17.8734 5.60348 17.9788 5.85783 17.9788 6.12305V8.12305H20.9788L23.9788 12.179V18.123H21.9438C21.8249 18.9573 21.409 19.7207 20.7724 20.273C20.1359 20.8253 19.3215 21.1293 18.4788 21.1293C17.636 21.1293 16.8216 20.8253 16.1851 20.273C15.5485 19.7207 15.1326 18.9573 15.0138 18.123H9.94376ZM15.9788 7.12305H3.97876V15.173C4.37332 14.7702 4.85936 14.4687 5.39551 14.2942C5.93166 14.1196 6.50205 14.0772 7.05814 14.1704C7.61422 14.2637 8.13953 14.49 8.58937 14.83C9.0392 15.1699 9.40024 15.6135 9.64176 16.123H15.3158C15.4838 15.77 15.7088 15.449 15.9788 15.173V7.12305ZM17.9788 13.123H21.9788V12.838L19.9708 10.123H17.9788V13.123ZM18.4788 19.123C18.8767 19.123 19.2584 18.965 19.5398 18.6836C19.8212 18.4022 19.9793 18.0205 19.9793 17.6225C19.9793 17.2246 19.8212 16.8429 19.5398 16.5615C19.2584 16.2801 18.8767 16.122 18.4788 16.122C18.0808 16.122 17.6991 16.2801 17.4177 16.5615C17.1363 16.8429 16.9783 17.2246 16.9783 17.6225C16.9783 18.0205 17.1363 18.4022 17.4177 18.6836C17.6991 18.965 18.0808 19.123 18.4788 19.123ZM7.97876 17.623C7.97876 17.4261 7.93996 17.231 7.86458 17.049C7.7892 16.867 7.67871 16.7017 7.53942 16.5624C7.40013 16.4231 7.23477 16.3126 7.05278 16.2372C6.8708 16.1618 6.67574 16.123 6.47876 16.123C6.28178 16.123 6.08672 16.1618 5.90473 16.2372C5.72275 16.3126 5.55739 16.4231 5.4181 16.5624C5.27881 16.7017 5.16832 16.867 5.09294 17.049C5.01756 17.231 4.97876 17.4261 4.97876 17.623C4.97876 18.0209 5.13679 18.4024 5.4181 18.6837C5.6994 18.965 6.08094 19.123 6.47876 19.123C6.87658 19.123 7.25812 18.965 7.53942 18.6837C7.82072 18.4024 7.97876 18.0209 7.97876 17.623Z" fill="#485760"/>
</g>
</svg>
