<svg width="32" height="32" viewBox="0 0 32 32" fill="none" xmlns="http://www.w3.org/2000/svg">
<path d="M9.74531 10.6744C9.54448 10.6744 9.34802 10.5609 9.25634 10.3688C9.12537 10.0981 9.23888 9.77065 9.50955 9.63968C9.85009 9.47378 9.98542 9.19874 9.98542 8.66611C9.98542 4.19119 12.7577 2.88145 14.408 2.49726C14.7005 2.42741 14.993 2.61077 15.0628 2.90765C15.1327 3.20015 14.9493 3.49266 14.6524 3.56251C13.0196 3.94234 11.0725 5.1342 11.0725 8.67048C11.0725 9.61349 10.7058 10.2727 9.98106 10.622C9.90248 10.6613 9.82389 10.6787 9.74094 10.6787L9.74531 10.6744Z" fill="#346374"/>
<path d="M22.1396 10.6752C22.061 10.6752 21.9781 10.6577 21.8995 10.6185C21.1748 10.2648 20.808 9.60995 20.808 8.66695C20.808 5.13066 18.8609 3.9388 17.2281 3.55898C16.9356 3.48913 16.7522 3.19662 16.8177 2.90411C16.8876 2.61161 17.1757 2.42824 17.4726 2.49373C19.1228 2.87792 21.8951 4.18765 21.8951 8.66258C21.8951 9.19521 22.0305 9.46588 22.371 9.63615C22.6417 9.76712 22.7552 10.0946 22.6242 10.3652C22.5282 10.5573 22.3361 10.6708 22.1352 10.6708L22.1396 10.6752Z" fill="#346374"/>
<path d="M14.8444 8.31809L13.7529 8.25697L14.1022 1.97024C14.1197 1.6821 14.3554 1.45508 14.6479 1.45508H17.2325C17.5206 1.45508 17.7607 1.6821 17.7782 1.97024L18.1274 8.25697L17.036 8.31809L16.7173 2.54652H15.1674L14.8444 8.31809Z" fill="#346374"/>
<path d="M15.9448 18.5245C13.3864 18.5245 11.2035 16.2106 10.636 12.897C10.5836 12.6001 10.7844 12.3163 11.0813 12.2683C11.3782 12.2203 11.662 12.4167 11.71 12.7136C12.0985 14.9882 13.5916 17.433 15.9448 17.433C18.5468 17.433 20.2975 14.2809 20.2975 11.3384C20.2975 11.1201 20.2844 10.8974 20.2625 10.6835C20.232 10.3823 20.4459 10.116 20.7471 10.081C21.0484 10.0505 21.3147 10.2644 21.3496 10.5656C21.3758 10.8188 21.3889 11.0764 21.3889 11.334C21.3889 15.774 18.5643 18.5201 15.9448 18.5201V18.5245Z" fill="#346374"/>
<path d="M15.9448 11.7399C13.2904 11.7399 10.8543 11.2946 8.89842 10.4563C8.62338 10.3385 8.4924 10.0154 8.61028 9.74035C8.72816 9.46531 9.05122 9.33433 9.32627 9.45221C11.1468 10.2337 13.4345 10.6441 15.9404 10.6441C18.4464 10.6441 20.7341 10.2293 22.5546 9.45221C22.8296 9.33433 23.1527 9.46094 23.2706 9.74035C23.3884 10.0154 23.2618 10.3385 22.9824 10.4563C21.0266 11.2946 18.5905 11.7399 15.9361 11.7399H15.9448Z" fill="#346374"/>
<path d="M14.3422 30.4911C14.3204 30.4911 14.2986 30.4911 14.2724 30.4911C13.9711 30.4518 13.7616 30.1812 13.8009 29.8799L14.5431 24.0036C14.5823 23.7023 14.8574 23.4928 15.1543 23.5321C15.4555 23.5714 15.6651 23.842 15.6258 24.1433L14.8836 30.0196C14.8487 30.2947 14.6129 30.4955 14.3422 30.4955V30.4911Z" fill="#346374"/>
<path d="M17.503 30.4915C17.2324 30.4915 16.9966 30.2907 16.9617 30.0156L16.2195 24.1393C16.1802 23.8381 16.3941 23.5674 16.691 23.5281C16.9922 23.4888 17.2629 23.7027 17.3022 23.9996L18.0444 29.8759C18.0837 30.1772 17.8698 30.4479 17.5729 30.4871C17.5511 30.4871 17.5249 30.4871 17.503 30.4871V30.4915Z" fill="#346374"/>
<path d="M3.69881 30.4911C3.69881 30.4911 3.67261 30.4911 3.65515 30.4911C3.35391 30.4693 3.13126 30.2074 3.15309 29.9061L3.60713 23.8464C4.07863 20.3145 6.17421 19.7077 6.47981 19.6378C6.69373 19.5767 8.78495 19.0004 11.0377 18.6206C11.2778 18.5813 11.5092 18.7035 11.6183 18.9175L13.6528 23.0388C13.7881 23.3094 13.6746 23.6369 13.4039 23.7678C13.1333 23.9032 12.8058 23.7897 12.6749 23.519L10.8194 19.7644C8.70199 20.1442 6.78105 20.6856 6.75922 20.69C6.74176 20.6943 6.72866 20.6987 6.7112 20.7031C6.65444 20.7162 5.0784 21.0916 4.68984 23.9599L4.2358 29.9891C4.21397 30.2772 3.97385 30.4955 3.69008 30.4955L3.69881 30.4911Z" fill="#346374"/>
<path d="M28.1513 30.4911C27.8676 30.4911 27.6274 30.2728 27.6056 29.9847L27.1516 23.925C26.7717 21.0872 25.1957 20.7162 25.1258 20.6987C25.0691 20.6856 23.1438 20.1442 21.0264 19.7644L19.1709 23.519C19.0356 23.7897 18.7082 23.8988 18.4418 23.7678C18.1712 23.6325 18.062 23.3051 18.193 23.0388L20.2274 18.9175C20.3322 18.7035 20.568 18.5813 20.8081 18.6206C23.0608 18.996 25.152 19.5767 25.366 19.6378C25.6672 19.7077 27.7671 20.3145 28.2343 23.8159L28.6927 29.9105C28.7145 30.2117 28.4919 30.4737 28.1906 30.4955C28.1775 30.4955 28.1644 30.4955 28.147 30.4955L28.1513 30.4911Z" fill="#346374"/>
<path d="M15.9313 25.4444C15.7742 25.4444 15.6257 25.3789 15.521 25.261L13.3905 22.8554C13.2071 22.6503 13.2071 22.3403 13.3905 22.1351L15.5079 19.7295C15.713 19.4938 16.1322 19.4938 16.3417 19.7295L18.4591 22.1351C18.6425 22.3403 18.6425 22.6503 18.4591 22.8554L16.3417 25.261C16.2369 25.3789 16.0885 25.4444 15.9313 25.4444ZM14.5299 22.4887L15.9313 24.0735L17.324 22.4931L15.927 20.9083L14.5299 22.4931V22.4887Z" fill="#346374"/>
</svg>
