<svg width="336" height="188" viewBox="0 0 336 188" fill="none" xmlns="http://www.w3.org/2000/svg">
<path d="M12.4121 158.267L93.0876 128.235" stroke="#1A1A1A" stroke-dasharray="5 5"/>
<path d="M270.217 8.73535H95.4592C94.0115 8.73535 92.8379 9.8949 92.8379 11.3253V126.145C92.8379 127.576 94.0115 128.735 95.4592 128.735H270.217C271.664 128.735 272.838 127.576 272.838 126.145V11.3253C272.838 9.8949 271.664 8.73535 270.217 8.73535Z" stroke="#1A1A1A"/>
<path d="M190.217 38.7354H15.4592C14.0115 38.7354 12.8379 39.8949 12.8379 41.3253V156.145C12.8379 157.576 14.0115 158.735 15.4592 158.735H190.217C191.664 158.735 192.838 157.576 192.838 156.145V41.3253C192.838 39.8949 191.664 38.7354 190.217 38.7354Z" fill="white" fill-opacity="0.8" stroke="#1A1A1A"/>
<path d="M91.332 79H89.7256V72.5469C89.7256 71.7767 89.7438 71.166 89.7803 70.7148C89.6755 70.8242 89.5456 70.945 89.3906 71.0771C89.2402 71.2093 88.7298 71.6286 87.8594 72.335L87.0527 71.3164L89.9922 69.0059H91.332V79ZM101.743 76.8193H100.396V79H98.8311V76.8193H94.2646V75.582L98.8311 68.9785H100.396V75.4863H101.743V76.8193ZM98.8311 75.4863V72.9775C98.8311 72.0843 98.8538 71.3529 98.8994 70.7832H98.8447C98.7171 71.084 98.5166 71.4486 98.2432 71.877L95.7617 75.4863H98.8311ZM104.826 75.1377L102.29 71.4395H104.122L105.845 74.085L107.581 71.4395H109.399L106.856 75.1377L109.529 79H107.711L105.845 76.1699L103.985 79H102.167L104.826 75.1377ZM117.097 79H110.322V77.7832L112.899 75.1924C113.66 74.4131 114.164 73.8617 114.41 73.5381C114.661 73.21 114.843 72.9023 114.957 72.6152C115.071 72.3281 115.128 72.0205 115.128 71.6924C115.128 71.2412 114.991 70.8857 114.718 70.626C114.449 70.3662 114.075 70.2363 113.597 70.2363C113.214 70.2363 112.842 70.307 112.482 70.4482C112.127 70.5895 111.715 70.8447 111.245 71.2139L110.377 70.1543C110.933 69.6849 111.473 69.3522 111.997 69.1562C112.521 68.9603 113.079 68.8623 113.672 68.8623C114.602 68.8623 115.347 69.1061 115.907 69.5938C116.468 70.0768 116.748 70.7285 116.748 71.5488C116.748 72 116.666 72.4284 116.502 72.834C116.342 73.2396 116.094 73.6589 115.757 74.0918C115.424 74.5202 114.868 75.1012 114.089 75.835L112.353 77.5166V77.585H117.097V79ZM118.614 78.1455C118.614 77.8128 118.701 77.5576 118.874 77.3799C119.047 77.2021 119.298 77.1133 119.626 77.1133C119.959 77.1133 120.212 77.2067 120.385 77.3936C120.558 77.5758 120.645 77.8265 120.645 78.1455C120.645 78.4691 120.556 78.7266 120.378 78.918C120.205 79.1048 119.954 79.1982 119.626 79.1982C119.298 79.1982 119.047 79.1048 118.874 78.918C118.701 78.7311 118.614 78.4736 118.614 78.1455ZM128.95 79H122.176V77.7832L124.753 75.1924C125.514 74.4131 126.018 73.8617 126.264 73.5381C126.514 73.21 126.697 72.9023 126.811 72.6152C126.924 72.3281 126.981 72.0205 126.981 71.6924C126.981 71.2412 126.845 70.8857 126.571 70.626C126.302 70.3662 125.929 70.2363 125.45 70.2363C125.067 70.2363 124.696 70.307 124.336 70.4482C123.98 70.5895 123.568 70.8447 123.099 71.2139L122.23 70.1543C122.786 69.6849 123.326 69.3522 123.851 69.1562C124.375 68.9603 124.933 68.8623 125.525 68.8623C126.455 68.8623 127.2 69.1061 127.761 69.5938C128.321 70.0768 128.602 70.7285 128.602 71.5488C128.602 72 128.52 72.4284 128.355 72.834C128.196 73.2396 127.948 73.6589 127.61 74.0918C127.278 74.5202 126.722 75.1012 125.942 75.835L124.206 77.5166V77.585H128.95V79Z" fill="#1A1A1A"/>
<path d="M176.308 87H39.6923C36.5485 87 34 89.2386 34 92V118C34 120.761 36.5485 123 39.6923 123H176.308C179.451 123 182 120.761 182 118V92C182 89.2386 179.451 87 176.308 87Z" fill="#841111"/>
<path d="M46.9531 105.654H48.0879C48.849 105.654 49.4004 105.513 49.7422 105.23C50.084 104.948 50.2549 104.529 50.2549 103.973C50.2549 103.408 50.0703 103.002 49.7012 102.756C49.332 102.51 48.776 102.387 48.0332 102.387H46.9531V105.654ZM46.9531 107.008V111H45.3193V101.006H48.1426C49.4323 101.006 50.387 101.247 51.0068 101.73C51.6266 102.214 51.9365 102.943 51.9365 103.918C51.9365 105.162 51.2894 106.049 49.9951 106.577L52.8184 111H50.959L48.5664 107.008H46.9531ZM57.4053 111.137C56.2295 111.137 55.3089 110.795 54.6436 110.111C53.9827 109.423 53.6523 108.478 53.6523 107.274C53.6523 106.039 53.96 105.069 54.5752 104.362C55.1904 103.656 56.0358 103.303 57.1113 103.303C58.1094 103.303 58.8978 103.606 59.4766 104.212C60.0553 104.818 60.3447 105.652 60.3447 106.714V107.582H55.3066C55.3294 108.316 55.5277 108.881 55.9014 109.277C56.2751 109.669 56.8014 109.865 57.4805 109.865C57.9271 109.865 58.3418 109.824 58.7246 109.742C59.112 109.656 59.5267 109.514 59.9688 109.318V110.624C59.5768 110.811 59.1803 110.943 58.7793 111.021C58.3783 111.098 57.9202 111.137 57.4053 111.137ZM57.1113 104.52C56.6009 104.52 56.1908 104.681 55.8809 105.005C55.5755 105.328 55.3932 105.8 55.334 106.42H58.7656C58.7565 105.796 58.6061 105.324 58.3145 105.005C58.0228 104.681 57.6217 104.52 57.1113 104.52ZM67.249 108.847C67.249 109.585 66.9801 110.152 66.4424 110.549C65.9046 110.941 65.1344 111.137 64.1318 111.137C63.1247 111.137 62.3158 110.984 61.7051 110.679V109.291C62.5938 109.701 63.4209 109.906 64.1865 109.906C65.1755 109.906 65.6699 109.608 65.6699 109.011C65.6699 108.819 65.6152 108.66 65.5059 108.532C65.3965 108.405 65.2165 108.272 64.9658 108.136C64.7152 107.999 64.3665 107.844 63.9199 107.671C63.0495 107.334 62.4593 106.996 62.1494 106.659C61.8441 106.322 61.6914 105.884 61.6914 105.347C61.6914 104.7 61.9512 104.198 62.4707 103.843C62.9948 103.483 63.7057 103.303 64.6035 103.303C65.4922 103.303 66.333 103.483 67.126 103.843L66.6064 105.053C65.7907 104.715 65.1048 104.547 64.5488 104.547C63.7012 104.547 63.2773 104.788 63.2773 105.271C63.2773 105.508 63.3867 105.709 63.6055 105.873C63.8288 106.037 64.3118 106.263 65.0547 106.55C65.679 106.791 66.1325 107.012 66.415 107.213C66.6976 107.413 66.9072 107.646 67.0439 107.91C67.1807 108.17 67.249 108.482 67.249 108.847ZM74.3242 111L74.0986 110.009H74.0166C73.7933 110.36 73.4743 110.635 73.0596 110.836C72.6494 111.036 72.18 111.137 71.6514 111.137C70.7354 111.137 70.0518 110.909 69.6006 110.453C69.1494 109.997 68.9238 109.307 68.9238 108.382V103.439H70.5439V108.102C70.5439 108.68 70.6624 109.116 70.8994 109.407C71.1364 109.694 71.5078 109.838 72.0137 109.838C72.6882 109.838 73.1826 109.637 73.4971 109.236C73.8161 108.831 73.9756 108.154 73.9756 107.206V103.439H75.5889V111H74.3242ZM79.4854 111H77.8789V100.363H79.4854V111ZM84.6055 109.838C84.9974 109.838 85.3893 109.776 85.7812 109.653V110.863C85.6035 110.941 85.3734 111.005 85.0908 111.055C84.8128 111.109 84.5234 111.137 84.2227 111.137C82.7005 111.137 81.9395 110.335 81.9395 108.73V104.656H80.9072V103.945L82.0146 103.357L82.5615 101.758H83.5527V103.439H85.7061V104.656H83.5527V108.703C83.5527 109.09 83.6484 109.378 83.8398 109.564C84.0358 109.747 84.291 109.838 84.6055 109.838ZM92.0293 111L91.708 109.947H91.6533C91.2887 110.408 90.9219 110.722 90.5527 110.891C90.1836 111.055 89.7096 111.137 89.1309 111.137C88.388 111.137 87.807 110.936 87.3877 110.535C86.973 110.134 86.7656 109.567 86.7656 108.833C86.7656 108.054 87.055 107.466 87.6338 107.069C88.2126 106.673 89.0944 106.456 90.2793 106.42L91.585 106.379V105.976C91.585 105.493 91.471 105.132 91.2432 104.896C91.0199 104.654 90.6712 104.533 90.1973 104.533C89.8099 104.533 89.4385 104.59 89.083 104.704C88.7275 104.818 88.3857 104.952 88.0576 105.107L87.5381 103.959C87.9482 103.745 88.3971 103.583 88.8848 103.474C89.3724 103.36 89.8327 103.303 90.2656 103.303C91.2272 103.303 91.9518 103.512 92.4395 103.932C92.9316 104.351 93.1777 105.009 93.1777 105.907V111H92.0293ZM89.6367 109.906C90.2201 109.906 90.6872 109.744 91.0381 109.421C91.3936 109.093 91.5713 108.635 91.5713 108.047V107.391L90.6006 107.432C89.8441 107.459 89.2926 107.587 88.9463 107.814C88.6045 108.038 88.4336 108.382 88.4336 108.847C88.4336 109.184 88.5339 109.446 88.7344 109.633C88.9349 109.815 89.2357 109.906 89.6367 109.906ZM97.9697 111.137C97.0264 111.137 96.2904 110.795 95.7617 110.111C95.2331 109.428 94.9688 108.468 94.9688 107.233C94.9688 105.994 95.2354 105.03 95.7686 104.342C96.3063 103.649 97.0492 103.303 97.9971 103.303C98.9906 103.303 99.7471 103.67 100.267 104.403H100.349C100.271 103.861 100.232 103.433 100.232 103.118V100.363H101.846V111H100.588L100.308 110.009H100.232C99.7174 110.761 98.9632 111.137 97.9697 111.137ZM98.4004 109.838C99.0612 109.838 99.542 109.653 99.8428 109.284C100.144 108.91 100.299 108.307 100.308 107.473V107.247C100.308 106.295 100.153 105.618 99.8428 105.217C99.5329 104.816 99.0475 104.615 98.3867 104.615C97.8216 104.615 97.3864 104.845 97.0811 105.306C96.7757 105.761 96.623 106.413 96.623 107.261C96.623 108.099 96.7712 108.74 97.0674 109.182C97.3636 109.619 97.8079 109.838 98.4004 109.838ZM110.849 107.206C110.849 108.441 110.532 109.405 109.898 110.098C109.265 110.79 108.383 111.137 107.253 111.137C106.547 111.137 105.922 110.977 105.38 110.658C104.838 110.339 104.421 109.881 104.129 109.284C103.837 108.687 103.691 107.994 103.691 107.206C103.691 105.98 104.006 105.023 104.635 104.335C105.264 103.647 106.15 103.303 107.294 103.303C108.388 103.303 109.254 103.656 109.892 104.362C110.53 105.064 110.849 106.012 110.849 107.206ZM105.346 107.206C105.346 108.951 105.991 109.824 107.28 109.824C108.556 109.824 109.194 108.951 109.194 107.206C109.194 105.479 108.552 104.615 107.267 104.615C106.592 104.615 106.102 104.839 105.797 105.285C105.496 105.732 105.346 106.372 105.346 107.206ZM112.462 110.146C112.462 109.813 112.549 109.558 112.722 109.38C112.895 109.202 113.146 109.113 113.474 109.113C113.806 109.113 114.059 109.207 114.232 109.394C114.406 109.576 114.492 109.826 114.492 110.146C114.492 110.469 114.403 110.727 114.226 110.918C114.052 111.105 113.802 111.198 113.474 111.198C113.146 111.198 112.895 111.105 112.722 110.918C112.549 110.731 112.462 110.474 112.462 110.146ZM112.462 104.308C112.462 103.619 112.799 103.275 113.474 103.275C113.815 103.275 114.071 103.367 114.239 103.549C114.408 103.731 114.492 103.984 114.492 104.308C114.492 104.631 114.403 104.889 114.226 105.08C114.052 105.267 113.802 105.36 113.474 105.36C113.146 105.36 112.895 105.267 112.722 105.08C112.549 104.893 112.462 104.636 112.462 104.308ZM126.059 103.303C126.059 103.936 125.874 104.465 125.505 104.889C125.136 105.308 124.616 105.59 123.946 105.736V105.791C124.748 105.891 125.35 106.142 125.751 106.543C126.152 106.939 126.353 107.468 126.353 108.129C126.353 109.09 126.013 109.833 125.334 110.357C124.655 110.877 123.689 111.137 122.436 111.137C121.328 111.137 120.394 110.957 119.633 110.597V109.168C120.057 109.378 120.506 109.539 120.979 109.653C121.453 109.767 121.909 109.824 122.347 109.824C123.121 109.824 123.7 109.681 124.083 109.394C124.466 109.106 124.657 108.662 124.657 108.061C124.657 107.527 124.445 107.135 124.021 106.885C123.598 106.634 122.932 106.509 122.025 106.509H121.157V105.203H122.039C123.634 105.203 124.432 104.652 124.432 103.549C124.432 103.12 124.293 102.79 124.015 102.558C123.737 102.325 123.326 102.209 122.784 102.209C122.406 102.209 122.041 102.264 121.69 102.373C121.34 102.478 120.925 102.685 120.446 102.995L119.66 101.874C120.576 101.2 121.64 100.862 122.853 100.862C123.86 100.862 124.646 101.079 125.211 101.512C125.776 101.945 126.059 102.542 126.059 103.303ZM134.433 106.003C134.433 107.739 134.152 109.029 133.592 109.872C133.036 110.715 132.184 111.137 131.035 111.137C129.923 111.137 129.08 110.701 128.506 109.831C127.932 108.961 127.645 107.685 127.645 106.003C127.645 104.239 127.923 102.94 128.479 102.106C129.039 101.268 129.891 100.849 131.035 100.849C132.152 100.849 132.997 101.286 133.571 102.161C134.146 103.036 134.433 104.317 134.433 106.003ZM129.271 106.003C129.271 107.366 129.41 108.339 129.688 108.922C129.971 109.505 130.42 109.797 131.035 109.797C131.65 109.797 132.099 109.501 132.382 108.908C132.669 108.316 132.812 107.347 132.812 106.003C132.812 104.663 132.669 103.695 132.382 103.098C132.099 102.496 131.65 102.195 131.035 102.195C130.42 102.195 129.971 102.489 129.688 103.077C129.41 103.665 129.271 104.64 129.271 106.003ZM135.95 110.146C135.95 109.813 136.037 109.558 136.21 109.38C136.383 109.202 136.634 109.113 136.962 109.113C137.295 109.113 137.548 109.207 137.721 109.394C137.894 109.576 137.98 109.826 137.98 110.146C137.98 110.469 137.892 110.727 137.714 110.918C137.541 111.105 137.29 111.198 136.962 111.198C136.634 111.198 136.383 111.105 136.21 110.918C136.037 110.731 135.95 110.474 135.95 110.146ZM142.889 100.876C143.837 100.876 144.586 101.095 145.138 101.532C145.689 101.965 145.965 102.546 145.965 103.275C145.965 104.301 145.35 105.117 144.119 105.723C144.903 106.115 145.459 106.527 145.787 106.96C146.12 107.393 146.286 107.876 146.286 108.409C146.286 109.234 145.983 109.895 145.377 110.392C144.771 110.888 143.951 111.137 142.916 111.137C141.831 111.137 140.991 110.904 140.394 110.439C139.797 109.975 139.498 109.316 139.498 108.464C139.498 107.908 139.653 107.409 139.963 106.967C140.277 106.52 140.79 106.124 141.501 105.777C140.89 105.413 140.455 105.028 140.195 104.622C139.936 104.216 139.806 103.761 139.806 103.255C139.806 102.53 140.09 101.954 140.66 101.525C141.23 101.092 141.973 100.876 142.889 100.876ZM141.036 108.409C141.036 108.883 141.202 109.252 141.535 109.517C141.868 109.776 142.319 109.906 142.889 109.906C143.477 109.906 143.932 109.772 144.256 109.503C144.584 109.229 144.748 108.86 144.748 108.396C144.748 108.026 144.598 107.689 144.297 107.384C143.996 107.078 143.54 106.796 142.93 106.536L142.731 106.447C142.13 106.712 141.697 107.003 141.433 107.322C141.168 107.637 141.036 107.999 141.036 108.409ZM142.875 102.113C142.419 102.113 142.052 102.227 141.774 102.455C141.496 102.678 141.357 102.984 141.357 103.371C141.357 103.608 141.408 103.82 141.508 104.007C141.608 104.194 141.754 104.365 141.945 104.52C142.137 104.67 142.46 104.852 142.916 105.066C143.463 104.825 143.848 104.572 144.071 104.308C144.299 104.039 144.413 103.727 144.413 103.371C144.413 102.984 144.272 102.678 143.989 102.455C143.711 102.227 143.34 102.113 142.875 102.113ZM158.051 111H156.438V106.338C156.438 105.759 156.328 105.328 156.109 105.046C155.891 104.759 155.549 104.615 155.084 104.615C154.464 104.615 154.008 104.818 153.717 105.224C153.43 105.625 153.286 106.295 153.286 107.233V111H151.68V103.439H152.938L153.163 104.431H153.245C153.455 104.071 153.758 103.793 154.154 103.597C154.555 103.401 154.995 103.303 155.474 103.303C156.636 103.303 157.406 103.699 157.784 104.492H157.894C158.117 104.118 158.431 103.827 158.837 103.617C159.243 103.408 159.707 103.303 160.231 103.303C161.134 103.303 161.79 103.531 162.2 103.986C162.615 104.442 162.822 105.137 162.822 106.071V111H161.216V106.338C161.216 105.759 161.104 105.328 160.881 105.046C160.662 104.759 160.32 104.615 159.855 104.615C159.231 104.615 158.773 104.811 158.481 105.203C158.194 105.59 158.051 106.188 158.051 106.994V111ZM171.306 111H164.531V109.783L167.108 107.192C167.869 106.413 168.373 105.862 168.619 105.538C168.87 105.21 169.052 104.902 169.166 104.615C169.28 104.328 169.337 104.021 169.337 103.692C169.337 103.241 169.2 102.886 168.927 102.626C168.658 102.366 168.284 102.236 167.806 102.236C167.423 102.236 167.051 102.307 166.691 102.448C166.336 102.59 165.924 102.845 165.454 103.214L164.586 102.154C165.142 101.685 165.682 101.352 166.206 101.156C166.73 100.96 167.288 100.862 167.881 100.862C168.811 100.862 169.556 101.106 170.116 101.594C170.677 102.077 170.957 102.729 170.957 103.549C170.957 104 170.875 104.428 170.711 104.834C170.551 105.24 170.303 105.659 169.966 106.092C169.633 106.52 169.077 107.101 168.298 107.835L166.562 109.517V109.585H171.306V111Z" fill="white"/>
<path d="M192.412 158.267L272.088 127.735" stroke="#1A1A1A" stroke-dasharray="5 5"/>
<path d="M192.412 38.2671L272.088 9.23525" stroke="#1A1A1A" stroke-dasharray="5 5"/>
<path d="M12.4121 38.2671L93.5876 9.23525" stroke="#1A1A1A" stroke-dasharray="5 5"/>
<path d="M299.588 89.1594V129.463" stroke="#1A1A1A" stroke-width="0.3" stroke-linecap="square"/>
<path d="M294.088 129.887H304.088" stroke="#1A1A1A" stroke-width="0.3" stroke-linecap="square"/>
<path d="M298.588 50.4635V9.13623" stroke="#1A1A1A" stroke-width="0.3" stroke-linecap="square"/>
<path d="M304.088 8.73535H294.088" stroke="#1A1A1A" stroke-width="0.3" stroke-linecap="square"/>
<path d="M284.033 66.7354L283.178 64.3564H279.902L279.064 66.7354H277.588L280.793 58.1338H282.316L285.521 66.7354H284.033ZM282.809 63.1494L282.006 60.8174C281.947 60.6611 281.865 60.415 281.76 60.0791C281.658 59.7432 281.588 59.4971 281.549 59.3408C281.443 59.8213 281.289 60.3467 281.086 60.917L280.312 63.1494H282.809ZM287.883 66.7354H286.506V57.6182H287.883V66.7354ZM292.271 65.7393C292.607 65.7393 292.943 65.6865 293.279 65.5811V66.6182C293.127 66.6846 292.93 66.7393 292.688 66.7822C292.449 66.8291 292.201 66.8525 291.943 66.8525C290.639 66.8525 289.986 66.165 289.986 64.79V61.2979H289.102V60.6885L290.051 60.1846L290.52 58.8135H291.369V60.2549H293.215V61.2979H291.369V64.7666C291.369 65.0986 291.451 65.3447 291.615 65.5049C291.783 65.6611 292.002 65.7393 292.271 65.7393ZM299.15 66.7354L298.957 65.8857H298.887C298.695 66.1865 298.422 66.4229 298.066 66.5947C297.715 66.7666 297.312 66.8525 296.859 66.8525C296.074 66.8525 295.488 66.6572 295.102 66.2666C294.715 65.876 294.521 65.2842 294.521 64.4912V60.2549H295.91V64.251C295.91 64.7471 296.012 65.1201 296.215 65.3701C296.418 65.6162 296.736 65.7393 297.17 65.7393C297.748 65.7393 298.172 65.5674 298.441 65.2236C298.715 64.876 298.852 64.2959 298.852 63.4834V60.2549H300.234V66.7354H299.15ZM305.484 60.1377C305.762 60.1377 305.99 60.1572 306.17 60.1963L306.035 61.4795C305.84 61.4326 305.637 61.4092 305.426 61.4092C304.875 61.4092 304.428 61.5889 304.084 61.9482C303.744 62.3076 303.574 62.7744 303.574 63.3486V66.7354H302.197V60.2549H303.275L303.457 61.3975H303.527C303.742 61.0107 304.021 60.7041 304.365 60.4775C304.713 60.251 305.086 60.1377 305.484 60.1377ZM311.432 66.7354L311.156 65.833H311.109C310.797 66.2275 310.482 66.4971 310.166 66.6416C309.85 66.7822 309.443 66.8525 308.947 66.8525C308.311 66.8525 307.812 66.6807 307.453 66.3369C307.098 65.9932 306.92 65.5068 306.92 64.8779C306.92 64.21 307.168 63.7061 307.664 63.3662C308.16 63.0264 308.916 62.8408 309.932 62.8096L311.051 62.7744V62.4287C311.051 62.0146 310.953 61.7061 310.758 61.5029C310.566 61.2959 310.268 61.1924 309.861 61.1924C309.529 61.1924 309.211 61.2412 308.906 61.3389C308.602 61.4365 308.309 61.5518 308.027 61.6846L307.582 60.7002C307.934 60.5166 308.318 60.3779 308.736 60.2842C309.154 60.1865 309.549 60.1377 309.92 60.1377C310.744 60.1377 311.365 60.3174 311.783 60.6768C312.205 61.0361 312.416 61.6006 312.416 62.3701V66.7354H311.432ZM309.381 65.7979C309.881 65.7979 310.281 65.6592 310.582 65.3818C310.887 65.1006 311.039 64.708 311.039 64.2041V63.6416L310.207 63.6768C309.559 63.7002 309.086 63.8096 308.789 64.0049C308.496 64.1963 308.35 64.4912 308.35 64.8896C308.35 65.1787 308.436 65.4033 308.607 65.5635C308.779 65.7197 309.037 65.7979 309.381 65.7979ZM283.922 82.7354H278.115V81.6924L280.324 79.4717C280.977 78.8037 281.408 78.3311 281.619 78.0537C281.834 77.7725 281.99 77.5088 282.088 77.2627C282.186 77.0166 282.234 76.7529 282.234 76.4717C282.234 76.085 282.117 75.7803 281.883 75.5576C281.652 75.335 281.332 75.2236 280.922 75.2236C280.594 75.2236 280.275 75.2842 279.967 75.4053C279.662 75.5264 279.309 75.7451 278.906 76.0615L278.162 75.1533C278.639 74.751 279.102 74.4658 279.551 74.2979C280 74.1299 280.479 74.0459 280.986 74.0459C281.783 74.0459 282.422 74.2549 282.902 74.6729C283.383 75.0869 283.623 75.6455 283.623 76.3486C283.623 76.7354 283.553 77.1025 283.412 77.4502C283.275 77.7979 283.062 78.1572 282.773 78.5283C282.488 78.8955 282.012 79.3936 281.344 80.0225L279.855 81.4639V81.5225H283.922V82.7354ZM285.223 82.0029C285.223 81.7178 285.297 81.499 285.445 81.3467C285.594 81.1943 285.809 81.1182 286.09 81.1182C286.375 81.1182 286.592 81.1982 286.74 81.3584C286.889 81.5146 286.963 81.7295 286.963 82.0029C286.963 82.2803 286.887 82.501 286.734 82.665C286.586 82.8252 286.371 82.9053 286.09 82.9053C285.809 82.9053 285.594 82.8252 285.445 82.665C285.297 82.5049 285.223 82.2842 285.223 82.0029ZM294.082 82.7354H288.275V81.6924L290.484 79.4717C291.137 78.8037 291.568 78.3311 291.779 78.0537C291.994 77.7725 292.15 77.5088 292.248 77.2627C292.346 77.0166 292.395 76.7529 292.395 76.4717C292.395 76.085 292.277 75.7803 292.043 75.5576C291.812 75.335 291.492 75.2236 291.082 75.2236C290.754 75.2236 290.436 75.2842 290.127 75.4053C289.822 75.5264 289.469 75.7451 289.066 76.0615L288.322 75.1533C288.799 74.751 289.262 74.4658 289.711 74.2979C290.16 74.1299 290.639 74.0459 291.146 74.0459C291.943 74.0459 292.582 74.2549 293.062 74.6729C293.543 75.0869 293.783 75.6455 293.783 76.3486C293.783 76.7354 293.713 77.1025 293.572 77.4502C293.436 77.7979 293.223 78.1572 292.934 78.5283C292.648 78.8955 292.172 79.3936 291.504 80.0225L290.016 81.4639V81.5225H294.082V82.7354ZM304.166 82.7354H302.783V78.7393C302.783 78.2432 302.689 77.874 302.502 77.6318C302.314 77.3857 302.021 77.2627 301.623 77.2627C301.092 77.2627 300.701 77.4365 300.451 77.7842C300.205 78.1279 300.082 78.7021 300.082 79.5068V82.7354H298.705V76.2549H299.783L299.977 77.1045H300.047C300.227 76.7959 300.486 76.5576 300.826 76.3896C301.17 76.2217 301.547 76.1377 301.957 76.1377C302.953 76.1377 303.613 76.4775 303.938 77.1572H304.031C304.223 76.8369 304.492 76.5869 304.84 76.4072C305.188 76.2275 305.586 76.1377 306.035 76.1377C306.809 76.1377 307.371 76.333 307.723 76.7236C308.078 77.1143 308.256 77.71 308.256 78.5107V82.7354H306.879V78.7393C306.879 78.2432 306.783 77.874 306.592 77.6318C306.404 77.3857 306.111 77.2627 305.713 77.2627C305.178 77.2627 304.785 77.4307 304.535 77.7666C304.289 78.0986 304.166 78.6104 304.166 79.3018V82.7354ZM312.592 81.7393C312.928 81.7393 313.264 81.6865 313.6 81.5811V82.6182C313.447 82.6846 313.25 82.7393 313.008 82.7822C312.77 82.8291 312.521 82.8525 312.264 82.8525C310.959 82.8525 310.307 82.165 310.307 80.79V77.2979H309.422V76.6885L310.371 76.1846L310.84 74.8135H311.689V76.2549H313.535V77.2979H311.689V80.7666C311.689 81.0986 311.771 81.3447 311.936 81.5049C312.104 81.6611 312.322 81.7393 312.592 81.7393ZM319.254 80.8896C319.254 81.5225 319.023 82.0088 318.562 82.3486C318.102 82.6846 317.441 82.8525 316.582 82.8525C315.719 82.8525 315.025 82.7217 314.502 82.46V81.2705C315.264 81.6221 315.973 81.7979 316.629 81.7979C317.477 81.7979 317.9 81.542 317.9 81.0303C317.9 80.8662 317.854 80.7295 317.76 80.6201C317.666 80.5107 317.512 80.3975 317.297 80.2803C317.082 80.1631 316.783 80.0303 316.4 79.8818C315.654 79.5928 315.148 79.3037 314.883 79.0146C314.621 78.7256 314.49 78.3506 314.49 77.8896C314.49 77.335 314.713 76.9053 315.158 76.6006C315.607 76.292 316.217 76.1377 316.986 76.1377C317.748 76.1377 318.469 76.292 319.148 76.6006L318.703 77.6377C318.004 77.3486 317.416 77.2041 316.939 77.2041C316.213 77.2041 315.85 77.4111 315.85 77.8252C315.85 78.0283 315.943 78.2002 316.131 78.3408C316.322 78.4814 316.736 78.6748 317.373 78.9209C317.908 79.1279 318.297 79.3174 318.539 79.4893C318.781 79.6611 318.961 79.8604 319.078 80.0869C319.195 80.3096 319.254 80.5771 319.254 80.8896ZM320.543 82.0029C320.543 81.7178 320.617 81.499 320.766 81.3467C320.914 81.1943 321.129 81.1182 321.41 81.1182C321.695 81.1182 321.912 81.1982 322.061 81.3584C322.209 81.5146 322.283 81.7295 322.283 82.0029C322.283 82.2803 322.207 82.501 322.055 82.665C321.906 82.8252 321.691 82.9053 321.41 82.9053C321.129 82.9053 320.914 82.8252 320.766 82.665C320.617 82.5049 320.543 82.2842 320.543 82.0029Z" fill="#1A1A1A"/>
<path d="M82.4957 173.917H13.6797" stroke="#1A1A1A" stroke-width="0.3" stroke-linecap="square"/>
<path d="M12.5879 167.917V179.735" stroke="#1A1A1A" stroke-width="0.3" stroke-linecap="square"/>
<path d="M97.1348 174.866H95.9805V176.735H94.6387V174.866H90.7246V173.806L94.6387 168.146H95.9805V173.724H97.1348V174.866ZM94.6387 173.724V171.573C94.6387 170.808 94.6582 170.181 94.6973 169.692H94.6504C94.541 169.95 94.3691 170.263 94.1348 170.63L92.0078 173.724H94.6387ZM106.914 176.735H105.531V172.739C105.531 172.243 105.438 171.874 105.25 171.632C105.062 171.386 104.77 171.263 104.371 171.263C103.84 171.263 103.449 171.437 103.199 171.784C102.953 172.128 102.83 172.702 102.83 173.507V176.735H101.453V170.255H102.531L102.725 171.104H102.795C102.975 170.796 103.234 170.558 103.574 170.39C103.918 170.222 104.295 170.138 104.705 170.138C105.701 170.138 106.361 170.478 106.686 171.157H106.779C106.971 170.837 107.24 170.587 107.588 170.407C107.936 170.228 108.334 170.138 108.783 170.138C109.557 170.138 110.119 170.333 110.471 170.724C110.826 171.114 111.004 171.71 111.004 172.511V176.735H109.627V172.739C109.627 172.243 109.531 171.874 109.34 171.632C109.152 171.386 108.859 171.263 108.461 171.263C107.926 171.263 107.533 171.431 107.283 171.767C107.037 172.099 106.914 172.61 106.914 173.302V176.735Z" fill="#1A1A1A"/>
<path d="M120.496 173.735H192.358" stroke="#1A1A1A" stroke-width="0.3" stroke-linecap="square"/>
<path d="M192.427 179.735V167.917" stroke="#1A1A1A" stroke-width="0.3" stroke-linecap="square"/>
<path d="M225.722 163.072L201.615 172.812" stroke="#1A1A1A" stroke-width="0.3" stroke-linecap="square"/>
<path d="M203.798 178.401L199.371 167.443" stroke="#1A1A1A" stroke-width="0.3" stroke-linecap="square"/>
<path d="M234.44 157.925C234.643 158.428 234.666 158.908 234.509 159.363C234.35 159.815 234.028 160.206 233.542 160.537L233.56 160.581C234.23 160.403 234.788 160.409 235.236 160.599C235.682 160.785 236.011 161.141 236.223 161.666C236.532 162.43 236.5 163.13 236.129 163.764C235.756 164.395 235.072 164.912 234.076 165.314C233.196 165.67 232.395 165.827 231.675 165.785L231.216 164.649C231.62 164.68 232.029 164.664 232.442 164.603C232.855 164.541 233.236 164.44 233.584 164.3C234.199 164.051 234.613 163.751 234.825 163.4C235.037 163.049 235.047 162.634 234.854 162.156C234.682 161.732 234.388 161.489 233.971 161.426C233.554 161.363 232.984 161.477 232.264 161.768L231.574 162.047L231.155 161.009L231.855 160.726C233.123 160.214 233.58 159.519 233.226 158.643C233.088 158.302 232.872 158.084 232.576 157.989C232.28 157.894 231.917 157.933 231.486 158.107C231.186 158.228 230.913 158.389 230.67 158.589C230.424 158.785 230.161 159.083 229.881 159.482L228.896 158.844C229.407 158.014 230.145 157.404 231.108 157.015C231.908 156.691 232.603 156.611 233.191 156.774C233.779 156.936 234.195 157.32 234.44 157.925ZM246.56 160.144L245.278 160.662L243.781 156.957C243.595 156.497 243.37 156.19 243.105 156.035C242.839 155.877 242.521 155.873 242.152 156.022C241.659 156.221 241.362 156.529 241.261 156.945C241.161 157.356 241.262 157.934 241.564 158.68L242.773 161.674L241.496 162.19L239.069 156.181L240.068 155.777L240.566 156.492L240.631 156.466C240.682 156.113 240.834 155.794 241.086 155.511C241.342 155.227 241.66 155.008 242.04 154.854C242.964 154.481 243.703 154.549 244.258 155.057L244.345 155.022C244.403 154.654 244.559 154.321 244.814 154.024C245.069 153.727 245.405 153.495 245.821 153.326C246.538 153.037 247.133 153.007 247.605 153.238C248.081 153.467 248.469 153.952 248.769 154.695L250.352 158.612L249.075 159.128L247.578 155.422C247.392 154.962 247.165 154.656 246.897 154.503C246.631 154.345 246.313 154.341 245.944 154.49C245.448 154.691 245.147 154.993 245.041 155.399C244.937 155.799 245.014 156.319 245.273 156.96L246.56 160.144Z" fill="#1A1A1A"/>
<path d="M253.537 151.834L277.644 142.095" stroke="#1A1A1A" stroke-width="0.3" stroke-linecap="square"/>
<path d="M279.955 147.632L275.528 136.674" stroke="#1A1A1A" stroke-width="0.3" stroke-linecap="square"/>
</svg>
