<svg width="336" height="189" viewBox="0 0 336 189" fill="none" xmlns="http://www.w3.org/2000/svg">
<path d="M33.9121 158.267L114.588 128.235" stroke="#1A1A1A" stroke-dasharray="5 5"/>
<path d="M291.717 8.73535H116.959C115.512 8.73535 114.338 9.8949 114.338 11.3253V126.145C114.338 127.576 115.512 128.735 116.959 128.735H291.717C293.164 128.735 294.338 127.576 294.338 126.145V11.3253C294.338 9.8949 293.164 8.73535 291.717 8.73535Z" stroke="#1A1A1A"/>
<path d="M211.717 38.7354H36.9592C35.5115 38.7354 34.3379 39.8949 34.3379 41.3253V156.145C34.3379 157.576 35.5115 158.735 36.9592 158.735H211.717C213.164 158.735 214.338 157.576 214.338 156.145V41.3253C214.338 39.8949 213.164 38.7354 211.717 38.7354Z" fill="white" fill-opacity="0.8" stroke="#1A1A1A"/>
<path d="M97.7451 76.8193H96.3984V79H94.833V76.8193H90.2666V75.582L94.833 68.9785H96.3984V75.4863H97.7451V76.8193ZM94.833 75.4863V72.9775C94.833 72.0843 94.8558 71.3529 94.9014 70.7832H94.8467C94.7191 71.084 94.5186 71.4486 94.2451 71.877L91.7637 75.4863H94.833ZM105.012 74.6729H102.291V73.4561H105.012V70.667H106.242V73.4561H108.97V74.6729H106.242V77.4482H105.012V74.6729ZM120.283 71.3027C120.283 71.9362 120.099 72.4648 119.729 72.8887C119.36 73.3079 118.841 73.5905 118.171 73.7363V73.791C118.973 73.8913 119.575 74.1419 119.976 74.543C120.377 74.9395 120.577 75.4681 120.577 76.1289C120.577 77.0905 120.238 77.8333 119.559 78.3574C118.88 78.877 117.913 79.1367 116.66 79.1367C115.553 79.1367 114.618 78.9567 113.857 78.5967V77.168C114.281 77.3776 114.73 77.5394 115.204 77.6533C115.678 77.7673 116.134 77.8242 116.571 77.8242C117.346 77.8242 117.925 77.6807 118.308 77.3936C118.69 77.1064 118.882 76.6621 118.882 76.0605C118.882 75.5273 118.67 75.1354 118.246 74.8848C117.822 74.6341 117.157 74.5088 116.25 74.5088H115.382V73.2031H116.264C117.859 73.2031 118.656 72.6517 118.656 71.5488C118.656 71.1204 118.517 70.79 118.239 70.5576C117.961 70.3252 117.551 70.209 117.009 70.209C116.631 70.209 116.266 70.2637 115.915 70.373C115.564 70.4779 115.149 70.6852 114.671 70.9951L113.885 69.874C114.801 69.1995 115.865 68.8623 117.077 68.8623C118.084 68.8623 118.87 69.0788 119.436 69.5117C120.001 69.9447 120.283 70.5417 120.283 71.3027ZM128.281 74.6729H125.561V73.4561H128.281V70.667H129.512V73.4561H132.239V74.6729H129.512V77.4482H128.281V74.6729ZM144.284 76.8193H142.938V79H141.372V76.8193H136.806V75.582L141.372 68.9785H142.938V75.4863H144.284V76.8193ZM141.372 75.4863V72.9775C141.372 72.0843 141.395 71.3529 141.44 70.7832H141.386C141.258 71.084 141.058 71.4486 140.784 71.877L138.303 75.4863H141.372ZM151.551 74.6729H148.83V73.4561H151.551V70.667H152.781V73.4561H155.509V74.6729H152.781V77.4482H151.551V74.6729ZM166.822 71.3027C166.822 71.9362 166.638 72.4648 166.269 72.8887C165.899 73.3079 165.38 73.5905 164.71 73.7363V73.791C165.512 73.8913 166.114 74.1419 166.515 74.543C166.916 74.9395 167.116 75.4681 167.116 76.1289C167.116 77.0905 166.777 77.8333 166.098 78.3574C165.419 78.877 164.452 79.1367 163.199 79.1367C162.092 79.1367 161.158 78.9567 160.396 78.5967V77.168C160.82 77.3776 161.269 77.5394 161.743 77.6533C162.217 77.7673 162.673 77.8242 163.11 77.8242C163.885 77.8242 164.464 77.6807 164.847 77.3936C165.229 77.1064 165.421 76.6621 165.421 76.0605C165.421 75.5273 165.209 75.1354 164.785 74.8848C164.361 74.6341 163.696 74.5088 162.789 74.5088H161.921V73.2031H162.803C164.398 73.2031 165.195 72.6517 165.195 71.5488C165.195 71.1204 165.056 70.79 164.778 70.5576C164.5 70.3252 164.09 70.209 163.548 70.209C163.17 70.209 162.805 70.2637 162.454 70.373C162.103 70.4779 161.688 70.6852 161.21 70.9951L160.424 69.874C161.34 69.1995 162.404 68.8623 163.616 68.8623C164.623 68.8623 165.41 69.0788 165.975 69.5117C166.54 69.9447 166.822 70.5417 166.822 71.3027Z" fill="#1A1A1A"/>
<path d="M189 87H69C66.2386 87 64 89.2386 64 92V118C64 120.761 66.2386 123 69 123H189C191.761 123 194 120.761 194 118V92C194 89.2386 191.761 87 189 87Z" fill="#841111"/>
<path d="M76.9531 105.654H78.0879C78.849 105.654 79.4004 105.513 79.7422 105.23C80.084 104.948 80.2549 104.529 80.2549 103.973C80.2549 103.408 80.0703 103.002 79.7012 102.756C79.332 102.51 78.776 102.387 78.0332 102.387H76.9531V105.654ZM76.9531 107.008V111H75.3193V101.006H78.1426C79.4323 101.006 80.387 101.247 81.0068 101.73C81.6266 102.214 81.9365 102.943 81.9365 103.918C81.9365 105.162 81.2894 106.049 79.9951 106.577L82.8184 111H80.959L78.5664 107.008H76.9531ZM87.4053 111.137C86.2295 111.137 85.3089 110.795 84.6436 110.111C83.9827 109.423 83.6523 108.478 83.6523 107.274C83.6523 106.039 83.96 105.069 84.5752 104.362C85.1904 103.656 86.0358 103.303 87.1113 103.303C88.1094 103.303 88.8978 103.606 89.4766 104.212C90.0553 104.818 90.3447 105.652 90.3447 106.714V107.582H85.3066C85.3294 108.316 85.5277 108.881 85.9014 109.277C86.2751 109.669 86.8014 109.865 87.4805 109.865C87.9271 109.865 88.3418 109.824 88.7246 109.742C89.112 109.656 89.5267 109.514 89.9688 109.318V110.624C89.5768 110.811 89.1803 110.943 88.7793 111.021C88.3783 111.098 87.9202 111.137 87.4053 111.137ZM87.1113 104.52C86.6009 104.52 86.1908 104.681 85.8809 105.005C85.5755 105.328 85.3932 105.8 85.334 106.42H88.7656C88.7565 105.796 88.6061 105.324 88.3145 105.005C88.0228 104.681 87.6217 104.52 87.1113 104.52ZM97.249 108.847C97.249 109.585 96.9801 110.152 96.4424 110.549C95.9046 110.941 95.1344 111.137 94.1318 111.137C93.1247 111.137 92.3158 110.984 91.7051 110.679V109.291C92.5938 109.701 93.4209 109.906 94.1865 109.906C95.1755 109.906 95.6699 109.608 95.6699 109.011C95.6699 108.819 95.6152 108.66 95.5059 108.532C95.3965 108.405 95.2165 108.272 94.9658 108.136C94.7152 107.999 94.3665 107.844 93.9199 107.671C93.0495 107.334 92.4593 106.996 92.1494 106.659C91.8441 106.322 91.6914 105.884 91.6914 105.347C91.6914 104.7 91.9512 104.198 92.4707 103.843C92.9948 103.483 93.7057 103.303 94.6035 103.303C95.4922 103.303 96.333 103.483 97.126 103.843L96.6064 105.053C95.7907 104.715 95.1048 104.547 94.5488 104.547C93.7012 104.547 93.2773 104.788 93.2773 105.271C93.2773 105.508 93.3867 105.709 93.6055 105.873C93.8288 106.037 94.3118 106.263 95.0547 106.55C95.679 106.791 96.1325 107.012 96.415 107.213C96.6976 107.413 96.9072 107.646 97.0439 107.91C97.1807 108.17 97.249 108.482 97.249 108.847ZM104.324 111L104.099 110.009H104.017C103.793 110.36 103.474 110.635 103.06 110.836C102.649 111.036 102.18 111.137 101.651 111.137C100.735 111.137 100.052 110.909 99.6006 110.453C99.1494 109.997 98.9238 109.307 98.9238 108.382V103.439H100.544V108.102C100.544 108.68 100.662 109.116 100.899 109.407C101.136 109.694 101.508 109.838 102.014 109.838C102.688 109.838 103.183 109.637 103.497 109.236C103.816 108.831 103.976 108.154 103.976 107.206V103.439H105.589V111H104.324ZM109.485 111H107.879V100.363H109.485V111ZM114.605 109.838C114.997 109.838 115.389 109.776 115.781 109.653V110.863C115.604 110.941 115.373 111.005 115.091 111.055C114.813 111.109 114.523 111.137 114.223 111.137C112.701 111.137 111.939 110.335 111.939 108.73V104.656H110.907V103.945L112.015 103.357L112.562 101.758H113.553V103.439H115.706V104.656H113.553V108.703C113.553 109.09 113.648 109.378 113.84 109.564C114.036 109.747 114.291 109.838 114.605 109.838ZM122.029 111L121.708 109.947H121.653C121.289 110.408 120.922 110.722 120.553 110.891C120.184 111.055 119.71 111.137 119.131 111.137C118.388 111.137 117.807 110.936 117.388 110.535C116.973 110.134 116.766 109.567 116.766 108.833C116.766 108.054 117.055 107.466 117.634 107.069C118.213 106.673 119.094 106.456 120.279 106.42L121.585 106.379V105.976C121.585 105.493 121.471 105.132 121.243 104.896C121.02 104.654 120.671 104.533 120.197 104.533C119.81 104.533 119.438 104.59 119.083 104.704C118.728 104.818 118.386 104.952 118.058 105.107L117.538 103.959C117.948 103.745 118.397 103.583 118.885 103.474C119.372 103.36 119.833 103.303 120.266 103.303C121.227 103.303 121.952 103.512 122.439 103.932C122.932 104.351 123.178 105.009 123.178 105.907V111H122.029ZM119.637 109.906C120.22 109.906 120.687 109.744 121.038 109.421C121.394 109.093 121.571 108.635 121.571 108.047V107.391L120.601 107.432C119.844 107.459 119.293 107.587 118.946 107.814C118.604 108.038 118.434 108.382 118.434 108.847C118.434 109.184 118.534 109.446 118.734 109.633C118.935 109.815 119.236 109.906 119.637 109.906ZM127.97 111.137C127.026 111.137 126.29 110.795 125.762 110.111C125.233 109.428 124.969 108.468 124.969 107.233C124.969 105.994 125.235 105.03 125.769 104.342C126.306 103.649 127.049 103.303 127.997 103.303C128.991 103.303 129.747 103.67 130.267 104.403H130.349C130.271 103.861 130.232 103.433 130.232 103.118V100.363H131.846V111H130.588L130.308 110.009H130.232C129.717 110.761 128.963 111.137 127.97 111.137ZM128.4 109.838C129.061 109.838 129.542 109.653 129.843 109.284C130.144 108.91 130.299 108.307 130.308 107.473V107.247C130.308 106.295 130.153 105.618 129.843 105.217C129.533 104.816 129.048 104.615 128.387 104.615C127.822 104.615 127.386 104.845 127.081 105.306C126.776 105.761 126.623 106.413 126.623 107.261C126.623 108.099 126.771 108.74 127.067 109.182C127.364 109.619 127.808 109.838 128.4 109.838ZM140.849 107.206C140.849 108.441 140.532 109.405 139.898 110.098C139.265 110.79 138.383 111.137 137.253 111.137C136.547 111.137 135.922 110.977 135.38 110.658C134.838 110.339 134.421 109.881 134.129 109.284C133.837 108.687 133.691 107.994 133.691 107.206C133.691 105.98 134.006 105.023 134.635 104.335C135.264 103.647 136.15 103.303 137.294 103.303C138.388 103.303 139.254 103.656 139.892 104.362C140.53 105.064 140.849 106.012 140.849 107.206ZM135.346 107.206C135.346 108.951 135.991 109.824 137.28 109.824C138.556 109.824 139.194 108.951 139.194 107.206C139.194 105.479 138.552 104.615 137.267 104.615C136.592 104.615 136.102 104.839 135.797 105.285C135.496 105.732 135.346 106.372 135.346 107.206ZM142.462 110.146C142.462 109.813 142.549 109.558 142.722 109.38C142.895 109.202 143.146 109.113 143.474 109.113C143.806 109.113 144.059 109.207 144.232 109.394C144.406 109.576 144.492 109.826 144.492 110.146C144.492 110.469 144.403 110.727 144.226 110.918C144.052 111.105 143.802 111.198 143.474 111.198C143.146 111.198 142.895 111.105 142.722 110.918C142.549 110.731 142.462 110.474 142.462 110.146ZM142.462 104.308C142.462 103.619 142.799 103.275 143.474 103.275C143.815 103.275 144.071 103.367 144.239 103.549C144.408 103.731 144.492 103.984 144.492 104.308C144.492 104.631 144.403 104.889 144.226 105.08C144.052 105.267 143.802 105.36 143.474 105.36C143.146 105.36 142.895 105.267 142.722 105.08C142.549 104.893 142.462 104.636 142.462 104.308ZM154.377 111H152.771V104.547C152.771 103.777 152.789 103.166 152.825 102.715C152.72 102.824 152.59 102.945 152.436 103.077C152.285 103.209 151.775 103.629 150.904 104.335L150.098 103.316L153.037 101.006H154.377V111ZM164.788 108.819H163.441V111H161.876V108.819H157.31V107.582L161.876 100.979H163.441V107.486H164.788V108.819ZM161.876 107.486V104.978C161.876 104.084 161.899 103.353 161.944 102.783H161.89C161.762 103.084 161.562 103.449 161.288 103.877L158.807 107.486H161.876ZM176.197 111H174.584V106.338C174.584 105.759 174.475 105.328 174.256 105.046C174.037 104.759 173.695 104.615 173.23 104.615C172.611 104.615 172.155 104.818 171.863 105.224C171.576 105.625 171.433 106.295 171.433 107.233V111H169.826V103.439H171.084L171.31 104.431H171.392C171.601 104.071 171.904 103.793 172.301 103.597C172.702 103.401 173.142 103.303 173.62 103.303C174.782 103.303 175.552 103.699 175.931 104.492H176.04C176.263 104.118 176.578 103.827 176.983 103.617C177.389 103.408 177.854 103.303 178.378 103.303C179.28 103.303 179.937 103.531 180.347 103.986C180.761 104.442 180.969 105.137 180.969 106.071V111H179.362V106.338C179.362 105.759 179.251 105.328 179.027 105.046C178.809 104.759 178.467 104.615 178.002 104.615C177.378 104.615 176.92 104.811 176.628 105.203C176.341 105.59 176.197 106.188 176.197 106.994V111Z" fill="white"/>
<path d="M213.912 158.267L293.588 127.735" stroke="#1A1A1A" stroke-dasharray="5 5"/>
<path d="M213.912 38.2671L293.588 9.23525" stroke="#1A1A1A" stroke-dasharray="5 5"/>
<path d="M33.9121 38.2671L115.088 9.23525" stroke="#1A1A1A" stroke-dasharray="5 5"/>
<path d="M103.996 173.917H35.1797" stroke="#1A1A1A" stroke-width="0.3" stroke-linecap="square"/>
<path d="M34.0879 167.917V179.735" stroke="#1A1A1A" stroke-width="0.3" stroke-linecap="square"/>
<path d="M118.635 174.866H117.48V176.735H116.139V174.866H112.225V173.806L116.139 168.146H117.48V173.724H118.635V174.866ZM116.139 173.724V171.573C116.139 170.808 116.158 170.181 116.197 169.692H116.15C116.041 169.95 115.869 170.263 115.635 170.63L113.508 173.724H116.139ZM128.414 176.735H127.031V172.739C127.031 172.243 126.938 171.874 126.75 171.632C126.562 171.386 126.27 171.263 125.871 171.263C125.34 171.263 124.949 171.437 124.699 171.784C124.453 172.128 124.33 172.702 124.33 173.507V176.735H122.953V170.255H124.031L124.225 171.104H124.295C124.475 170.796 124.734 170.558 125.074 170.39C125.418 170.222 125.795 170.138 126.205 170.138C127.201 170.138 127.861 170.478 128.186 171.157H128.279C128.471 170.837 128.74 170.587 129.088 170.407C129.436 170.228 129.834 170.138 130.283 170.138C131.057 170.138 131.619 170.333 131.971 170.724C132.326 171.114 132.504 171.71 132.504 172.511V176.735H131.127V172.739C131.127 172.243 131.031 171.874 130.84 171.632C130.652 171.386 130.359 171.263 129.961 171.263C129.426 171.263 129.033 171.431 128.783 171.767C128.537 172.099 128.414 172.61 128.414 173.302V176.735Z" fill="#1A1A1A"/>
<path d="M141.996 173.735H213.858" stroke="#1A1A1A" stroke-width="0.3" stroke-linecap="square"/>
<path d="M213.927 179.735V167.917" stroke="#1A1A1A" stroke-width="0.3" stroke-linecap="square"/>
<path d="M247.222 163.072L223.115 172.812" stroke="#1A1A1A" stroke-width="0.3" stroke-linecap="square"/>
<path d="M225.298 178.401L220.871 167.443" stroke="#1A1A1A" stroke-width="0.3" stroke-linecap="square"/>
<path d="M255.94 157.925C256.143 158.428 256.166 158.908 256.009 159.363C255.85 159.815 255.528 160.206 255.042 160.537L255.06 160.581C255.73 160.403 256.288 160.409 256.736 160.599C257.182 160.785 257.511 161.141 257.723 161.666C258.032 162.43 258 163.13 257.629 163.764C257.256 164.395 256.572 164.912 255.576 165.314C254.696 165.67 253.895 165.827 253.175 165.785L252.716 164.649C253.12 164.68 253.529 164.664 253.942 164.603C254.355 164.541 254.736 164.44 255.084 164.3C255.699 164.051 256.113 163.751 256.325 163.4C256.537 163.049 256.547 162.634 256.354 162.156C256.182 161.732 255.888 161.489 255.471 161.426C255.054 161.363 254.484 161.477 253.764 161.768L253.074 162.047L252.655 161.009L253.355 160.726C254.623 160.214 255.08 159.519 254.726 158.643C254.588 158.302 254.372 158.084 254.076 157.989C253.78 157.894 253.417 157.933 252.986 158.107C252.686 158.228 252.413 158.389 252.17 158.589C251.924 158.785 251.661 159.083 251.381 159.482L250.396 158.844C250.907 158.014 251.645 157.404 252.608 157.015C253.408 156.691 254.103 156.611 254.691 156.774C255.279 156.936 255.695 157.32 255.94 157.925ZM268.06 160.144L266.778 160.662L265.281 156.957C265.095 156.497 264.87 156.19 264.605 156.035C264.339 155.877 264.021 155.873 263.652 156.022C263.159 156.221 262.862 156.529 262.761 156.945C262.661 157.356 262.762 157.934 263.064 158.68L264.273 161.674L262.996 162.19L260.569 156.181L261.568 155.777L262.066 156.492L262.131 156.466C262.182 156.113 262.334 155.794 262.586 155.511C262.842 155.227 263.16 155.008 263.54 154.854C264.464 154.481 265.203 154.549 265.758 155.057L265.845 155.022C265.903 154.654 266.059 154.321 266.314 154.024C266.569 153.727 266.905 153.495 267.321 153.326C268.038 153.037 268.633 153.007 269.105 153.238C269.581 153.467 269.969 153.952 270.269 154.695L271.852 158.612L270.575 159.128L269.078 155.422C268.892 154.962 268.665 154.656 268.397 154.503C268.131 154.345 267.813 154.341 267.444 154.49C266.948 154.691 266.647 154.993 266.541 155.399C266.437 155.799 266.514 156.319 266.773 156.96L268.06 160.144Z" fill="#1A1A1A"/>
<path d="M275.037 151.834L299.144 142.095" stroke="#1A1A1A" stroke-width="0.3" stroke-linecap="square"/>
<path d="M301.455 147.632L297.028 136.674" stroke="#1A1A1A" stroke-width="0.3" stroke-linecap="square"/>
</svg>
